<?xml version="1.0" encoding="utf-8"?>
<!-- Generator: Adobe Illustrator 22.0.0, SVG Export Plug-In . SVG Version: 6.00 Build 0)  -->
<svg version="1.1" id="圖層_1" xmlns="http://www.w3.org/2000/svg" xmlns:xlink="http://www.w3.org/1999/xlink" x="0px" y="0px"
	 viewBox="0 0 100 100" style="enable-background:new 0 0 100 100;" xml:space="preserve">
<style type="text/css">
	.st0{fill:none;}
	.st1{fill:#040000;stroke:#FFFFFF;stroke-miterlimit:10;}
	.st2{display:none;fill:none;stroke:#FFFFFF;stroke-width:5;stroke-miterlimit:10;}
	.st3{display:none;fill:none;stroke:#FFFFFF;stroke-width:0.5;stroke-miterlimit:10;}
	.st4{display:none;fill:none;stroke:#FFFFFF;stroke-width:0.3;stroke-miterlimit:10;}
	.st5{display:none;fill:#040000;stroke:#FFFFFF;stroke-width:0.3;stroke-miterlimit:10;}
	.st6{display:none;}
	.st7{display:inline;}
	.st8{display:inline;clip-path:url(#SVGID_2_);}
	.st9{fill:#FFFFFF;}
	.st10{fill:#5F5F5F;}
	.st11{fill:#C4C4C4;}
	.st12{fill:#EBEBEB;}
	.st13{fill:#E6E6E6;}
	.st14{fill:#E7E7E7;}
	.st15{fill:#EAEAEA;}
	.st16{fill:#CDCDCD;}
	.st17{fill:#8E8E8E;}
	.st18{fill:#D6D6D6;}
	.st19{fill:#E9E9E9;}
	.st20{fill:#BFBFBF;}
	.st21{fill:#9B9B9B;}
	.st22{fill:#A0A0A0;}
	.st23{fill:#4C4C4C;}
	.st24{fill:#ABABAB;}
	.st25{fill:#4B4B4B;}
	.st26{fill:#E3E3E3;}
	.st27{fill:#676767;}
	.st28{fill:#969696;}
	.st29{fill:#A1A1A1;}
	.st30{fill:#E1E1E1;}
	.st31{fill:#BABABA;}
	.st32{fill:#8C8C8C;}
	.st33{fill:#DFDFDF;}
	.st34{fill:#ECECEC;}
	.st35{fill:#D8D8D8;}
	.st36{fill:#E0E0E0;}
	.st37{fill:#9A9A9A;}
	.st38{fill:#E5E5E5;}
	.st39{fill:#EFEFEF;}
	.st40{fill:#B0B0B0;}
	.st41{fill:#242424;}
	.st42{fill:#535353;}
	.st43{fill:#838383;}
	.st44{fill:#C5C5C5;}
	.st45{fill:#DBDBDB;}
	.st46{fill:#B4B4B4;}
	.st47{fill:#212121;}
	.st48{fill:#8B8B8B;}
	.st49{fill:#B6B6B6;}
	.st50{fill:#909090;}
	.st51{fill:#232323;}
	.st52{fill:#262626;}
	.st53{fill:#D7D7D7;}
	.st54{fill:#BDBDBD;}
	.st55{fill:#989898;}
	.st56{fill:#E8E8E8;}
	.st57{fill:#2D2D2D;}
	.st58{fill:#D3D3D3;}
	.st59{fill:#949494;}
	.st60{fill:#A2A2A2;}
	.st61{fill:#EEEEEE;}
	.st62{fill:#CCCCCC;}
	.st63{fill:#F1F1F1;}
	.st64{fill:#ADADAD;}
	.st65{fill:#D4D4D4;}
	.st66{fill:#353535;}
	.st67{fill:#AEAEAE;}
	.st68{fill:#E4E4E4;}
	.st69{fill:#737373;}
	.st70{fill:#898989;}
	.st71{fill:#CBCBCB;}
	.st72{fill:#C1C1C1;}
	.st73{fill:#5A5A5A;}
	.st74{fill:#7B7B7B;}
	.st75{fill:#BBBBBB;}
	.st76{fill:#888888;}
	.st77{fill:#B3B3B3;}
	.st78{fill:#979797;}
	.st79{fill:#717171;}
	.st80{fill:#787878;}
	.st81{fill:#D1D1D1;}
	.st82{fill:#DADADA;}
	.st83{fill:#999999;}
	.st84{fill:#575757;}
	.st85{fill:#202020;}
	.st86{fill:#D2D2D2;}
	.st87{fill:#7E7E7E;}
	.st88{fill:#646464;}
	.st89{fill:#D0D0D0;}
	.st90{fill:#3C3C3C;}
	.st91{fill:#A9A9A9;}
	.st92{fill:#AAAAAA;}
	.st93{fill:#C6C6C6;}
	.st94{fill:#919191;}
	.st95{fill:#464646;}
	.st96{fill:#A8A8A8;}
	.st97{fill:#BCBCBC;}
	.st98{fill:#666666;}
	.st99{fill:#DCDCDC;}
	.st100{fill:#DEDEDE;}
	.st101{fill:#D9D9D9;}
	.st102{fill:#929292;}
	.st103{fill:#C7C7C7;}
	.st104{fill:#EDEDED;}
	.st105{fill:#B1B1B1;}
	.st106{fill:#F0F0F0;}
	.st107{fill:#6E6E6E;}
	.st108{fill:#4E4E4E;}
	.st109{fill:#B9B9B9;}
	.st110{fill:#707070;}
	.st111{fill:#696969;}
	.st112{fill:#8A8A8A;}
	.st113{fill:#9E9E9E;}
	.st114{fill:#686868;}
	.st115{fill:#B2B2B2;}
	.st116{fill:#A7A7A7;}
	.st117{fill:#D5D5D5;}
	.st118{fill:#C0C0C0;}
	.st119{fill:#C3C3C3;}
	.st120{fill:#CACACA;}
	.st121{fill:#AFAFAF;}
	.st122{fill:#C9C9C9;}
	.st123{fill:#5D5D5D;}
	.st124{fill:#C2C2C2;}
	.st125{fill:#8F8F8F;}
	.st126{fill:#363636;}
	.st127{fill:#848484;}
	.st128{fill:#E2E2E2;}
	.st129{fill:#CECECE;}
	.st130{fill:#565656;}
	.st131{fill:#777777;}
	.st132{fill:#616161;}
	.st133{fill:#A6A6A6;}
	.st134{fill:#6C6C6C;}
	.st135{fill:#C8C8C8;}
	.st136{fill:#9D9D9D;}
	.st137{fill:#ACACAC;}
	.st138{fill:#BEBEBE;}
	.st139{fill:#9F9F9F;}
	.st140{fill:#B8B8B8;}
	.st141{fill:#CFCFCF;}
	.st142{fill:#A3A3A3;}
	.st143{fill:#494949;}
	.st144{fill:#424242;}
	.st145{fill:#3D3D3D;}
	.st146{fill:#B7B7B7;}
	.st147{fill:#3E3E3E;}
	.st148{fill:#7C7C7C;}
	.st149{fill:#595959;}
	.st150{fill:#252525;}
	.st151{fill:#626262;}
	.st152{fill:#1F1F1F;}
	.st153{fill:#525252;}
	.st154{fill:#747474;}
	.st155{fill:#555555;}
	.st156{fill:#959595;}
	.st157{fill:#2C2C2C;}
	.st158{fill:#2A2A2A;}
	.st159{fill:#8D8D8D;}
	.st160{fill:#9C9C9C;}
	.st161{fill:#161616;}
	.st162{fill:#939393;}
	.st163{fill:#878787;}
	.st164{fill:#B5B5B5;}
	.st165{fill:#1D1D1D;}
	.st166{fill:#4F4F4F;}
	.st167{fill:#6B6B6B;}
	.st168{fill:#727272;}
	.st169{fill:#393939;}
	.st170{fill:#6A6A6A;}
	.st171{fill:#818181;}
	.st172{fill:#828282;}
	.st173{fill:#454545;}
	.st174{fill:#DDDDDD;}
	.st175{fill:#444444;}
	.st176{fill:#171717;}
	.st177{fill:#2E2E2E;}
	.st178{fill:#A4A4A4;}
	.st179{fill:#858585;}
	.st180{fill:#A5A5A5;}
	.st181{fill:#515151;}
	.st182{fill:#505050;}
	.st183{fill:#757575;}
	.st184{fill:#797979;}
	.st185{fill:#323232;}
	.st186{fill:#585858;}
	.st187{fill:#3B3B3B;}
	.st188{fill:#808080;}
	.st189{fill:#4D4D4D;}
	.st190{fill:#4A4A4A;}
	.st191{fill:#767676;}
	.st192{fill:#636363;}
	.st193{fill:#474747;}
	.st194{fill:#7D7D7D;}
	.st195{fill:#222222;}
	.st196{fill:#272727;}
	.st197{fill:#6F6F6F;}
	.st198{fill:#5B5B5B;}
	.st199{fill:#404040;}
	.st200{fill:#2F2F2F;}
	.st201{fill:#1A1A1A;}
	.st202{fill:#6D6D6D;}
	.st203{fill:#868686;}
	.st204{fill:#484848;}
	.st205{fill:#3A3A3A;}
	.st206{fill:#0D0D0D;}
	.st207{fill:#0B0B0B;}
	.st208{fill:#383838;}
	.st209{fill:#333333;}
	.st210{fill:#1E1E1E;}
	.st211{fill:#7F7F7F;}
	.st212{fill:#303030;}
	.st213{fill:#121212;}
	.st214{fill:#101010;}
	.st215{fill:#292929;}
	.st216{fill:#181818;}
	.st217{fill:#5E5E5E;}
	.st218{fill:#434343;}
	.st219{fill:#3F3F3F;}
	.st220{fill:#7A7A7A;}
	.st221{fill:#545454;}
	.st222{fill:#191919;}
	.st223{fill:#141414;}
	.st224{fill:#2B2B2B;}
	.st225{fill:#313131;}
	.st226{fill:#1B1B1B;}
	.st227{fill:#151515;}
	.st228{fill:#1C1C1C;}
</style>
<rect x="-298" y="-2.8" class="st1" width="400" height="100"/>
<path class="st3" d="M-270.6,86.8c0.1,7,10.8,2.3,20.6,2c9.8-1.3,42.5-3,50-3.3S25.5,82.8,32.2,83s10.7,1.3,21.7,1.3
	s15.7-0.8,15.7-6.4c0-1.3-0.3-2.2-0.8-3c-2.2-3.2-10.8-2.8-12.2-2.7c-13.6,1.1-21.3,3-21.3,3s-20.2,5.1-47.3,4.7
	c-2.5,0-6.4-0.2-11.3-1.3c-3.1-0.7-9.3-2.5-16-7c-3.7-2.5-6-4-8.3-7c-4.1-5.3-3.5-9.1-7.7-14.7c-2.3-3.1-4.9-5.1-6.7-6.3
	c-8-2.8-17.7-5.5-28.8-7.4c-10.6-1.8-20.3-2.5-28.5-2.6c-10.7-6-24.7-10.7-39.7-10.7c-15,0-34,4-39.3,15.7c-4,16.3-3,30.3-13,36
	c-13,4.7-8,3.7-18,4.7s-30.9,0-36,3.8S-270.6,86.8-270.6,86.8z"/>
<circle class="st3" cx="59.9" cy="78.2" r="1.9"/>
<g class="st6">
	<defs>
		<rect id="SVGID_1_" x="-300" width="400" height="100"/>
	</defs>
	<clipPath id="SVGID_2_" class="st7">
		<use xlink:href="#SVGID_1_"  style="overflow:visible;"/>
	</clipPath>
	<g id="XMLID_28_" class="st8">
		<g id="XMLID_251_">
			<g id="XMLID_336_">
				<path id="XMLID_337_" class="st9" d="M-123.8,69.4c-8.3-0.2-16.5,0-24.5,0.3c-8.5,0.4-16.1,1-23.3,1.8
					c-14.2,1.5-26.1,3.5-35.5,5.7c-2.4,0.5-5.1,1.1-6.3,1.7c-1.2,0.6-0.3,1.3,2.1,1.8c2.3,0.5,5.5,0.9,8.8,1.3
					c3.5,0.4,7.1,0.7,10.8,1.1c7.6,0.7,15.6,1.4,24.2,1.8c8.8,0.4,18,0.7,27.2,0.8c18.3,0.3,37,0.3,55.3,0c17.6-0.3,35.2-1,51.6-2.1
					c3.7-0.2,7.3-0.5,10.8-0.7c1.6-0.1,3.3-0.2,5-0.3c1-0.1,1.9-0.1,2.8-0.2c0.9-0.1,1.8-0.2,2.7-0.3c6.1-0.7,11.5-1.6,15.2-2.6
					c1.1-0.3,2.1-0.7,2.1-1c0.1-0.4-1.1-0.7-2.7-1c-2.7-0.5-6.2-0.9-9.4-1.3c-6.8-0.8-13.7-1.7-21.3-2.4c-7.4-0.7-14.4-1.4-22.1-2.1
					C-58,71-66.2,70.4-74.5,70c-8.6-0.4-17.5-0.6-26.5-0.8c-8.8-0.2-17.9-0.2-26.8-0.1c-4.3,0.1-8.5,0.2-12.7,0.4
					c-0.6,0-0.4,0.2,0.3,0.1c8.6-0.2,17.4-0.4,26.2-0.4c8.6,0,17.3,0.2,25.5,0.6c16.1,0.7,31.6,1.8,45.8,3.1c3.5,0.3,7.1,0.7,10.2,1
					c3.2,0.4,6.3,0.8,9.4,1.2c6.3,0.8,12.5,1.7,18.7,2.6c0.9,0.1,2.3,0.3,2.5,0.5c0.2,0.3-1,0.5-1.9,0.8c-1.7,0.4-3.8,0.9-6.1,1.3
					s-4.9,0.7-7.7,1.1c-0.8,0.1-1.8,0.2-2.5,0.3c-0.6,0.1-1.1,0.2-1.6,0.3c-1.3,0.2-2.8,0.4-4.4,0.5c-13.6,1.3-29.9,2-45.7,2.5
					c-17.4,0.5-35.3,0.7-53.1,0.6c-8.8-0.1-17.6-0.3-26.2-0.6s-16.9-0.7-24.7-1.3c-7.4-0.6-14.1-1.4-20.8-2.2
					c-4.9-0.6-12.3-1.4-10.1-2.4c1.2-0.6,3.9-1.1,6-1.5c2.2-0.5,4.5-1,6.9-1.4c5.1-0.9,10.6-1.8,16.6-2.7c5.9-0.8,12-1.6,18.7-2.3
					c6.8-0.7,14-1.3,22.2-1.6C-132.1,69.4-128,69.3-123.8,69.4C-123.7,69.4-123.7,69.4-123.8,69.4L-123.8,69.4z"/>
			</g>
			<g id="XMLID_322_">
				<path id="XMLID_323_" class="st9" d="M-301.8,78.5c13.7,0.3,28.4,0.5,42,0c6.5-0.2,12.8-0.6,18.3-1.2c2.8-0.3,5.6-0.6,8.1-1
					c2.7-0.4,5-0.8,7.3-1.3c4.7-0.9,8.9-1.9,14.2-2.7c4.8-0.8,10-1.5,15.7-2.1c11.2-1.3,24.2-2.2,37.6-2.9c29.8-1.4,62.7-1,91.4,0.8
					c15.2,0.9,29,2.2,42.5,3.6c6.8,0.7,13.5,1.4,20.9,1.9c7.6,0.6,15.5,0.9,23.8,1.1c17.4,0.4,35.2,0.3,52.7,0.2
					c18.2-0.1,36.4-0.3,54.5-0.5c4.3-0.1,8.5-0.1,12.7-0.2c0.3,0,0.2-0.1-0.1-0.1c-9.2,0-18.3,0.2-27.4,0.2c-9,0.1-18,0.2-27.1,0.2
					c-17.9,0.1-35.8,0.1-53.6-0.2C23.3,74.2,15,74,6.9,73.6c-7.8-0.4-15-1.1-21.9-1.7c-6.8-0.6-13.6-1.3-20.6-1.9
					c-7-0.6-14.3-1.1-21.7-1.5c-14.7-0.9-30.4-1.6-46.2-1.9c-14.8-0.3-29.8-0.4-44.5,0c-13.9,0.4-27.9,1-40.1,2
					c-12.2,1.1-22.8,2.5-30.8,4.2c-4.4,1-8,2-13,2.9c-4.8,0.8-10.6,1.5-17.6,1.9c-6.5,0.4-13.1,0.5-20,0.7
					c-7.1,0.2-14.5,0.2-21.7,0.3C-294.7,78.5-298.2,78.5-301.8,78.5C-301.9,78.5-301.9,78.5-301.8,78.5L-301.8,78.5z"/>
			</g>
			<g id="XMLID_320_">
				<path id="XMLID_321_" class="st9" d="M-112,68.1c18.5-0.2,37,0.5,53.6,1.7c8.4,0.6,16.4,1.3,23.9,2.2c3.7,0.4,7.4,0.8,11,1.3
					c3.7,0.4,7.1,0.9,10.7,1.4c7.1,0.9,14,1.8,21.2,2.7c3.7,0.4,7.7,0.9,12.4,1.1c4.5,0.2,9.3,0.2,14,0.2c10.3,0,20.5-0.1,30.7-0.2
					c10.1-0.1,20.2-0.2,30.3-0.4c20.1-0.3,40-0.6,60-1.1c2.5-0.1,5-0.1,7.5-0.2c0.2,0,0.2-0.1-0.1-0.1c-20.1,0.4-40.2,0.6-60.4,0.8
					c-10.1,0.1-20.2,0.2-30.3,0.2s-20.2-0.1-30.4-0.1c-4.9,0-9.8,0-14.7,0c-4.3-0.1-8.2-0.3-11.7-0.6c-3.8-0.4-7.2-0.8-10.7-1.2
					c-3.6-0.4-7.3-0.8-11-1.3c-7.4-0.8-15-1.7-22.8-2.4c-7.7-0.8-15.7-1.5-24-2.1c-16.2-1.2-34-2-52.2-1.8
					C-107.4,68-109.7,68-112,68.1C-112.1,68.1-112.1,68.1-112,68.1L-112,68.1z"/>
			</g>
			<g id="XMLID_318_">
				<path id="XMLID_319_" class="st9" d="M-296.5,77.2c13.6,0.4,28-0.1,40.5-0.9c3.2-0.2,6.5-0.4,9.5-0.7s5.7-0.6,8.4-0.9
					c5.6-0.7,9.9-1.6,14.1-2.5c4.2-0.9,8.6-1.8,13.9-2.5c5.7-0.8,12.4-1.3,19.5-1.8c15.6-1.1,32.7-1.8,49.7-2.2
					c16.8-0.4,34-0.5,50.9-0.2c15.9,0.3,31.9,1.1,45.7,2.2c13.6,1.1,25,2.8,38.5,3.9c13.7,1.2,29.3,1.5,44.9,1.6
					c16.1,0.1,32.4-0.1,48.5-0.1c18-0.1,36.3-0.1,54.2-0.5c4.4-0.1,8.7-0.2,13.1-0.3c1,0,0.7-0.2-0.2-0.2c-9.1,0-18.2-0.1-27.3-0.1
					c-8.9,0-17.9,0.1-26.8,0.1c-16.6,0.1-33.3,0.2-50,0.2c-15.6,0-31.6-0.1-46.2-1c-14.3-0.9-25.9-2.4-38.9-3.6
					c-13.5-1.2-28.7-2-44.3-2.4c-16.1-0.4-32.5-0.5-48.8-0.2c-17.1,0.3-34.1,0.8-50.6,1.5c-8,0.3-15.8,0.5-23.2,1.1
					c-6.7,0.5-12.4,1.2-17.2,2.1c-9.4,1.6-16.6,3.5-27.9,4.9c-5.6,0.7-11.6,1.3-18.5,1.7c-6.7,0.4-13.8,0.6-21,0.7
					C-289.4,77.2-292.9,77.2-296.5,77.2C-296.6,77.2-296.7,77.2-296.5,77.2L-296.5,77.2z"/>
			</g>
			<g id="XMLID_316_">
				<path id="XMLID_317_" class="st9" d="M-299.9,82.5c18-0.2,35.9-0.4,53.9-0.5c8.5-0.1,17.2-0.2,25.5,0.2
					c6.5,0.3,12.6,0.8,17.8,1.4c11,1.3,21.4,2.7,34.9,3.4c3.9,0.2,7.9,0.4,12,0.4c4,0.1,8,0,11.9,0.1c8.4,0.1,16.8,0,25.2,0
					c17.6-0.1,35.2,0,52.8-0.3c15.7-0.2,31.1-0.7,46-1.4c14.7-0.8,27.6-1.9,39-3.5c5.5-0.8,11-1.5,18.3-1.9c3.9-0.2,8-0.4,12.2-0.4
					c4-0.1,8.1-0.1,12.1-0.1c17.9,0,35.8,0.1,53.7,0c18.1-0.1,36.1-0.3,54.1-0.6c4.2-0.1,8.3-0.2,12.4-0.3c0.5,0,0.4-0.2-0.1-0.1
					c-9,0.1-18,0.3-27,0.4c-8.8,0.1-17.7,0.2-26.6,0.3c-17.8,0.1-35.9,0.2-53.7,0.1c-8.6-0.1-17.2-0.2-25.8-0.3
					c-4,0-7.9-0.1-11.8,0.1c-3.8,0.1-7.5,0.4-10.8,0.7c-6.3,0.6-11.5,1.4-17.1,2.2C3.1,83-3.2,83.6-9.9,84.2
					c-13.5,1.1-27.9,1.9-43.1,2.3c-17.5,0.5-35.2,0.6-53,0.6c-8.7,0-17.5-0.1-26.2-0.1c-4,0-8.1-0.1-12.1-0.1
					c-4.1-0.1-8-0.2-11.9-0.4c-4-0.2-8-0.3-11.8-0.5c-3.3-0.2-6.4-0.4-9.3-0.7c-5.9-0.5-11.2-1.2-16.9-1.8
					c-5.5-0.5-11.3-1.1-17.4-1.5c-7-0.4-14.4-0.6-22-0.5c-8.7,0.1-17.4,0.3-26.1,0.4c-9,0.1-18,0.3-26.9,0.4
					C-291.1,82.3-295.5,82.4-299.9,82.5C-300,82.5-300,82.5-299.9,82.5L-299.9,82.5z"/>
			</g>
			<g id="XMLID_314_">
				<path id="XMLID_315_" class="st9" d="M-303.3,84.3c30.9-0.4,65-0.7,92.4,1.9c7,0.7,13.7,1.4,21.2,1.9c7.2,0.5,14.9,0.8,22.7,0.9
					c16.3,0.3,32.5,0.3,48.9,0.2c18.3,0,36.7-0.2,55-0.4c17.1-0.2,34.5-0.4,51.3-1C-3.9,87.4,4,87,11.3,86.5
					c7.6-0.5,14.6-1.2,21.6-1.9c6.9-0.6,14.1-1.2,21.8-1.6c7.6-0.4,15.4-0.6,23.4-0.8c8.1-0.1,16.1-0.2,24.2-0.2
					c8.5-0.1,16.9-0.1,25.4-0.1c18,0,36.1,0.2,54.1,0c4.2-0.1,8.4-0.2,12.5-0.3c0.4,0,0.3-0.1-0.1-0.1c-18,0.3-35.8,0.3-53.9,0.1
					c-17.1-0.2-33.9-0.6-51-0.5c-16,0.1-31.8,0.6-46.5,1.5c-15.3,1-27.1,2.9-42.5,3.8c-7.7,0.5-16,0.8-24.3,1
					c-8.7,0.2-17.6,0.4-26.5,0.6c-18.2,0.3-36.6,0.5-54.9,0.6c-17,0.1-34.2,0.1-51-0.3c-16-0.4-31-1.3-44.4-2.6
					c-6.8-0.7-13.6-1.3-21.3-1.7c-7.2-0.4-15-0.7-22.6-0.8c-3.9,0-7.8-0.1-11.7-0.1c-4,0-7.9,0.1-11.9,0.1
					c-7.8,0.1-15.6,0.3-23.3,0.5C-295.5,84-299.4,84.1-303.3,84.3C-303.5,84.2-303.5,84.3-303.3,84.3L-303.3,84.3z"/>
			</g>
			<g id="XMLID_304_">
				<path id="XMLID_305_" class="st9" d="M-97.2,90.3c17.5,0.2,35,0.4,52.5,0.4c17.2,0,34.3-0.3,50.7-1.1c7.8-0.4,15.4-0.9,22.7-1.4
					c7-0.5,13.8-1.2,20.6-1.8c13.6-1.2,28-2.4,43.9-2.7c10.4-0.3,21.1-0.3,31.6-0.4c10.7-0.2,21.4-0.3,32-0.5c0.6,0,0.6-0.1,0-0.1
					c-9.7,0-19.4,0-29.1,0c-9.4,0-18.9,0-28.3,0.2c-8.4,0.1-16.6,0.4-24.6,0.8c-7.4,0.4-14.6,0.9-21.5,1.5
					c-6.9,0.6-13.8,1.2-20.7,1.7c-6.9,0.6-13.9,1.1-21.2,1.6c-8,0.5-16.3,0.8-24.8,1.1s-16.9,0.5-25.5,0.6
					C-58.2,90.4-77.7,90.3-97.2,90.3C-97.5,90.2-97.5,90.3-97.2,90.3L-97.2,90.3z"/>
			</g>
			<g id="XMLID_302_">
				<path id="XMLID_303_" class="st9" d="M-304.7,99.2c15.9,0.2,32.1,0.3,48.1,0.3c15.7,0,31.7-0.2,47-0.8
					c7.6-0.3,15.1-0.7,22.2-1.2c7.5-0.5,14.4-1.1,21.3-1.8c7.1-0.7,14.3-1.4,22.6-1.7c8.5-0.4,17.4-0.5,26.2-0.6
					c9.3-0.1,18.5-0.2,27.8-0.3c9.5-0.1,18.9-0.1,28.4-0.1c17.9,0,35.8,0,53.6-0.2c16.7-0.2,33.6-0.6,49.4-1.5
					c16.4-0.9,30.6-2.2,45.4-3.6c7.2-0.6,14.6-1.3,22.5-1.7c7.9-0.4,16.1-0.8,24.4-1c16.6-0.5,33.8-0.6,50.6-0.7
					c4.2,0,8.4-0.1,12.6-0.1c1.1,0,1-0.2,0-0.2c-16.9-0.2-34-0.4-50.9-0.2c-16.8,0.2-33.2,0.8-48.5,1.9c-15.5,1.1-29.3,2.7-44.8,3.8
					c-15.1,1.1-31.6,1.8-48.1,2.2c-35.8,0.9-72.4,0.8-108.5,0.7c-17.2,0-36,0.1-51.9,1.2c-8,0.5-14.8,1.3-22.2,2
					c-6.7,0.6-13.9,1.1-21.2,1.5c-7.2,0.4-14.7,0.7-22.3,1c-7.8,0.3-15.7,0.5-23.7,0.6c-16,0.2-32.1,0.3-48.1,0.3
					c-3.9,0-7.9,0-11.8,0C-305.3,99.1-305.3,99.2-304.7,99.2L-304.7,99.2z"/>
			</g>
			<g id="XMLID_300_">
				<path id="XMLID_301_" class="st9" d="M-308.6,100.2c17.2,0.4,34.3,0.7,51.7,0.8c17.2,0.1,34.8,0.1,51.8-0.4
					c8.6-0.2,17.1-0.5,25.4-0.9s16.3-0.9,24.2-1.4c8-0.5,16.1-1,24.5-1.4c7.7-0.3,15.6-0.6,23.6-0.8c32.6-0.7,65.6-0.4,98.4-0.7
					c16.2-0.1,32.3-0.4,47.9-1.1c16.3-0.7,31-1.9,45.7-3.1c7.4-0.6,14.7-1.3,22.4-1.8c7.8-0.6,15.9-1,24.2-1.4
					c16.5-0.8,33.6-1.1,50.9-1.1c4.2,0,8.4,0,12.6,0.1c0.3,0,0.4-0.1,0.1-0.1c-33.4-0.8-67.8,0.1-98,2.3C81.3,90.3,67,91.8,51,92.7
					c-15,0.9-31,1.4-47.1,1.6c-32.7,0.5-65.7,0.2-98.5,0.6c-16.3,0.2-32.5,0.7-47.8,1.5c-16.5,0.9-32,2.2-49,2.9
					c-16.8,0.7-34.3,1-51.7,1.1c-17.5,0.1-35.1-0.1-52.6-0.2C-300,100.2-304.3,100.2-308.6,100.2
					C-308.9,100.2-308.9,100.2-308.6,100.2L-308.6,100.2z"/>
			</g>
			<g id="XMLID_298_">
				<path id="XMLID_299_" class="st9" d="M181.8,89.3c-8.3-0.1-16.6-0.2-25-0.2c-8.3,0-16.5,0-24.7,0.3c-8,0.3-15.3,0.8-22,1.5
					c-6.8,0.7-12.9,1.5-19.6,2.3c-6.8,0.7-14.1,1.3-22.1,1.6c-8.1,0.4-16.5,0.5-24.9,0.7c-18.8,0.4-37.6,0.8-56.6,1.1
					c-19.2,0.2-38.4,0.4-57.6,0.3c-9.2,0-18.3-0.1-27.4-0.1c-8.9,0-17.8,0.3-26.2,0.7c-16.4,0.8-30.9,2.3-46.6,3.3
					c-15.4,1-31.6,1.8-48.2,2.3c-33.7,1.1-68.3,1.4-102.8,1.1c-4.3,0-8.5-0.1-12.7-0.1c-0.5,0-0.6,0.1-0.1,0.1
					c33.7,0.7,68.4,1,102.2,0.3c16.9-0.3,33.6-1,49.6-1.8c16.3-0.9,31.1-2.2,46.6-3.3c7.6-0.6,15.5-1.1,23.7-1.4
					c9-0.4,18.4-0.6,27.7-0.6c9.5-0.1,18.9,0,28.4,0c9.5,0,19.1-0.1,28.7-0.1c19.3-0.1,38.5-0.3,57.7-0.4
					c17.1-0.1,34.7-0.4,50.5-1.4c15.3-1,26-3,40.5-4.2c14.9-1.2,31.7-1.6,48.5-1.6C173.5,89.4,177.7,89.4,181.8,89.3
					C182.2,89.4,182.2,89.3,181.8,89.3L181.8,89.3z"/>
			</g>
			<g id="XMLID_296_">
				<path id="XMLID_297_" class="st9" d="M-327.3,106.5c19.3,0.2,38.6,0.3,58,0.4c18.9,0,38.4,0,57.1-0.6c18.4-0.5,36-1.4,53-2.6
					c16.3-1.1,32.1-2.4,48.6-3.4c16.5-1,33.6-1.8,51.5-1.9c17.9-0.2,35.9,0,53.8,0.2c34.8,0.4,71.5,0.7,103.2-1.9
					c8.2-0.7,15.9-1.5,24-2.2c7.9-0.7,16.2-1.3,25.1-1.6c17.9-0.8,36.7-0.8,55.1-0.7c4.6,0,9.3,0.1,13.9,0.1c0.5,0,0.5-0.1,0-0.1
					c-18.3-0.3-36.9-0.6-55.3-0.3c-9,0.1-17.9,0.4-26.5,0.8c-8.7,0.4-16.6,1.1-24.4,1.8c-7.9,0.7-15.8,1.5-24.4,2
					c-8,0.5-16.5,0.8-25.1,1.1c-17.4,0.4-35.1,0.3-52.6,0.2c-18-0.2-35.9-0.4-54-0.4c-17.9,0-35.4,0.4-52.4,1.3
					c-34.3,1.7-64.4,4.9-99.4,6.4c-37.5,1.6-76.1,1.8-114.9,1.6C-317.6,106.5-322.5,106.5-327.3,106.5
					C-327.5,106.4-327.5,106.5-327.3,106.5L-327.3,106.5z"/>
			</g>
			<g id="XMLID_294_">
				<path id="XMLID_295_" class="st9" d="M186.6,94.8c-17.1,0.1-34.1,0.2-50.9,0.6c-8.3,0.2-16.7,0.6-24.3,1.1
					c-7.5,0.5-14.8,1.1-22.1,1.7c-7.2,0.6-14.5,1.1-22.2,1.5c-8,0.4-16.4,0.6-24.8,0.7c-17,0.1-33.9-0.2-50.8-0.5
					c-17-0.3-34.2-0.5-51.2-0.1c-17.5,0.4-34.4,1.2-50.8,2.2c-32.1,1.8-63.6,3.9-97.4,5c-35.6,1.1-72.9,1.2-109,0.7
					c-4.5-0.1-8.9-0.1-13.4-0.2c-0.4,0-0.4,0.1-0.1,0.1c35.7,0.9,72.2,1.3,108.2,0.6c34.6-0.7,66.9-2.6,99.3-4.4
					c16.2-0.9,32.5-1.9,49.4-2.5c17.1-0.6,34.3-0.7,51.8-0.5c17,0.2,33.9,0.6,51.1,0.7c17,0.1,33.6-0.3,49.3-1.3
					c15.1-1,28.8-2.3,43.7-3.3c16.3-1.1,33.8-1.5,51.5-1.8C178.1,94.9,182.4,94.9,186.6,94.8C186.9,94.8,186.9,94.8,186.6,94.8
					L186.6,94.8z"/>
			</g>
			<g id="XMLID_292_">
				<path id="XMLID_293_" class="st9" d="M-116.7,104.5c10.7-0.5,21.5-0.8,32.4-1.2c10.8-0.3,21.8-0.5,32.8-0.6
					c11.1-0.1,22.2-0.1,33.3-0.1c11.4,0.1,22.7,0.2,34,0.4c21.9,0.4,44.3,0.7,66.2,0.1c10.4-0.3,20.4-0.8,29.6-1.6
					c4.6-0.4,9-0.8,13.7-1.1c4.7-0.3,9.7-0.5,14.8-0.7c10.6-0.3,21.7-0.2,32.4-0.2c5.8,0,11.6,0.1,17.4,0.1c5.8,0,11.6,0.1,17.4,0.1
					c3,0,5.9,0,8.8,0c1.1,0,1.4-0.2,0.3-0.3c-5.6-0.3-11.5-0.4-17.2-0.5c-5.8-0.1-11.7-0.2-17.5-0.3c-11.1-0.1-22.5-0.2-33.6-0.1
					c-11,0.1-21.4,0.5-31.1,1.3c-4.7,0.4-9.2,0.8-14,1.2c-4.6,0.3-9.4,0.6-14.4,0.8c-21.1,0.9-43.2,0.6-64.7,0.3
					c-11.5-0.2-23.1-0.4-34.7-0.4c-5.6,0-11.3-0.1-16.8,0c-5.5,0.1-11.1,0-16.6,0.1c-22,0.4-44.1,1-64.9,2.2
					c-2.6,0.1-5.2,0.3-7.9,0.5C-117.4,104.4-117.2,104.5-116.7,104.5L-116.7,104.5z"/>
			</g>
			<g id="XMLID_272_">
				<path id="XMLID_273_" class="st9" d="M-309.5,75.1c16.8,0.1,34.9,0.2,50.1-1.1c12.6-1.1,22.1-2.8,31.4-4.4
					c4.7-0.8,9.7-1.6,15.2-2.3c6.3-0.8,13.6-1.4,21.7-1.8c8.7-0.4,17.8-0.6,26.8-0.8c9.8-0.2,19.6-0.3,29.4-0.4
					c19.7-0.2,39.7-0.2,59.5,0c9.4,0.1,19.1,0.2,28,0.7c7.3,0.4,13.1,1.1,19.3,1.8c11.7,1.3,22.5,2.8,35.9,3.8
					c16.5,1.2,35.7,1.1,53.6,1.1c19.6,0,39.1,0,58.7-0.1c9.8-0.1,19.7-0.1,29.5-0.3c9.4-0.2,19.3-0.3,28.5-0.6
					c4.5-0.2,8.8-0.4,13.1-0.6c1-0.1,0.4-0.3-0.5-0.3c-9.6,0-19,0.2-28.6,0.4c-9.8,0.2-19.6,0.3-29.4,0.4
					c-19.4,0.2-38.8,0.2-58.2,0.2c-9.8,0-19.7,0-29.5-0.1c-9.2-0.1-18.5-0.2-27.3-0.6C3.4,69.4-7.9,68-19.4,66.7
					c-12.6-1.4-27.3-2.4-43.2-2.7c-9.6-0.1-19.4-0.2-29.1-0.2c-9.8,0-19.7,0-29.5,0.1c-18.9,0.1-37.9,0.2-56.6,0.7
					c-16.2,0.4-31,1.3-43.6,2.8c-11.1,1.4-19.8,3.1-30.6,4.6c-5.3,0.7-11.3,1.3-17.9,1.8c-8.3,0.6-17.2,0.8-26.2,0.9
					c-4.4,0.1-8.9,0.1-13.3,0.1C-310.1,74.9-310.1,75-309.5,75.1L-309.5,75.1z"/>
			</g>
			<g id="XMLID_270_">
				<path id="XMLID_271_" class="st9" d="M-315.9,72.5c15.9,0.6,33.8-0.1,48.2-1.2c15.3-1.1,28.6-2.7,42.4-4.2
					c6.7-0.7,13.2-1.5,20.5-2.1c7.9-0.6,16.2-1.1,24.9-1.3c9.2-0.3,18.5-0.4,27.8-0.5c9.2-0.1,18.3-0.2,27.5-0.3
					c18.4-0.2,37.2-0.6,55.7-0.5c16.4,0.1,31.6,1.2,45.7,2.4c14.5,1.2,29.2,2.3,45.3,3c17.2,0.7,34.9,1,52.5,1.3
					c8.8,0.2,17.5,0.4,26.3,0.5c9.1,0.1,18.2,0.1,27.2,0c9.2-0.1,18.4-0.2,27.6-0.3c8.8-0.1,17.8-0.3,26.5-0.6
					c4.3-0.2,8.6-0.3,12.8-0.4c1.2,0,0.9-0.3-0.3-0.3c-9,0-17.8,0-26.7,0.2c-9,0.1-18,0.3-27,0.4c-18,0.2-36,0.3-53.9-0.1
					c-17.5-0.4-35.2-0.7-52.5-1.2c-16.8-0.5-32.4-1.4-48-2.4c-7.3-0.5-14.7-0.9-22.2-1.4c-7.4-0.4-15.2-0.8-23-1.1
					c-7.9-0.2-15.8-0.2-23.8-0.1c-9.4,0.1-18.8,0.2-28.2,0.3c-9.2,0.1-18.5,0.3-27.7,0.4c-9.2,0.1-18.4,0.1-27.6,0.2
					c-8.7,0.1-17.4,0.3-25.8,0.7c-7.9,0.4-15.4,0.9-22.6,1.4c-14.7,1.2-27.6,2.7-41.2,4.1c-14.1,1.5-30.1,2.8-47.6,3
					c-4.2,0.1-8.5,0.1-12.7,0C-316.3,72.4-316.3,72.5-315.9,72.5L-315.9,72.5z"/>
			</g>
			<g id="XMLID_268_">
				<path id="XMLID_269_" class="st9" d="M-312.3,70.2c16.2,0.4,33.2-0.4,46.7-1.7c14.6-1.4,27.3-3.2,42.7-4.4
					c15.1-1.2,32-1.9,48.8-2.3c18.4-0.4,36.9-0.7,55.5-0.7c19,0,38.3,0.1,57.2,0.5c9.3,0.2,18.5,0.5,27.5,0.9c9,0.4,17.5,1,26.3,1.4
					c33.9,1.9,70.3,2.7,106.4,3c36.3,0.3,72.5-0.1,108.3-1c4.4-0.1,8.7-0.2,13.1-0.4c0.6,0,0.5-0.2-0.2-0.2
					c-35.9,0.5-72.3,0.8-108.3,0.7c-36.3-0.1-71.8-1-106.7-2.4c-17.7-0.7-35.2-1.7-53.4-2.2c-18.4-0.5-37.3-0.7-56-0.7
					c-18.7-0.1-37.6,0-56.3,0.2c-16.9,0.2-33.9,0.6-49.9,1.4c-16.2,0.9-29.7,2.4-43.1,3.9c-13.5,1.6-28.2,3.2-45.4,3.8
					C-303.4,70.2-307.8,70.2-312.3,70.2C-312.4,70.2-312.4,70.2-312.3,70.2L-312.3,70.2z"/>
			</g>
			<g id="XMLID_266_">
				<path id="XMLID_267_" class="st9" d="M-313.3,67c15.9,0.5,32.2-0.2,46.4-1.2c7.4-0.6,14.3-1.2,21.1-1.9
					c6.8-0.7,13.3-1.4,20.1-2.1c6.9-0.7,14.3-1.3,22.1-1.7c8.3-0.4,17.3-0.6,26-0.8c17.4-0.2,35.1-0.2,52.6-0.2
					c35.2,0,71.3,0.2,105.1,1.8c16.8,0.8,33.1,1.9,50.4,2.4c17.4,0.6,35.3,0.7,53,0.7c18.4,0,36.8,0,55.2,0
					c18.5-0.1,37.3,0,55.7-0.4c4.4-0.1,8.8-0.2,13.1-0.3c1,0,0.7-0.2-0.2-0.3c-9.2-0.1-18.6-0.2-27.8-0.2c-9.3,0-18.6,0.1-27.8,0.1
					c-18.4,0-36.8,0.1-55.2,0.1c-17.8,0-35.8,0-53.5-0.4c-17.6-0.4-34.2-1.3-51.1-2c-33.4-1.5-68.9-1.9-103.6-1.9
					c-17.6,0-35.2,0.1-52.9,0.1c-16.7,0.1-33.5,0.3-49.2,1.3c-15.1,0.9-28.6,2.2-42.1,3.5c-13.5,1.3-28.4,2.6-44.6,3
					c-4.2,0.1-8.5,0.1-12.7,0.1C-313.8,66.8-313.9,67-313.3,67L-313.3,67z"/>
			</g>
			<g id="XMLID_262_">
				<path id="XMLID_265_" class="st9" d="M178.6,53.3c-17.8-0.2-35.6-0.3-53.5-0.3c-17.7,0-35.5,0.3-52.9,0.8
					c-8.6,0.3-17.1,0.6-25.3,1c-8.3,0.4-16.6,0.9-24.4,1.5c-3.5,0.3-7,0.7-7.9,1.3c-0.9,0.6,0.8,1.3,3.9,1.7
					C21.8,59.8,26,60,30.3,60c4.6,0.1,9.2,0.2,13.8,0.2c18.1,0.3,36.2,0.6,54.3,0.7c18.2,0.2,36.4,0.2,54.5,0
					c18-0.2,36-0.6,53.4-1.3c8.5-0.4,16.9-0.8,25-1.4c3.5-0.2,7.1-0.5,10.3-0.8c2.4-0.3,4.8-0.6,5.3-1.1c1.4-1.1-7.9-1.8-13.5-2.1
					c-7.3-0.5-15.2-0.8-23.1-1c-16.5-0.4-33.3-0.4-50-0.5c-4,0-8.3,0-12.2-0.2c-0.9,0-1.3,0.2-0.4,0.2c1.9,0.1,3.8,0.2,5.7,0.2
					c2.1,0.1,4.1,0.2,6.2,0.2c3.9,0.1,7.9,0.2,11.8,0.2c8,0.1,16,0.1,24,0.1c7.9,0,15.8,0,23.5,0.3c7.4,0.2,15.4,0.6,21.6,1.2
					c3,0.3,5.7,0.8,4.4,1.4c-1.1,0.5-4.3,0.8-7.3,1c-3.6,0.3-7.5,0.4-11.3,0.6c-4.1,0.2-8.2,0.4-12.3,0.5
					c-8.4,0.3-16.8,0.5-25.3,0.8c-8.4,0.2-16.8,0.4-25.3,0.5c-34.5,0.5-69.3,0.2-103.7-0.3c-8.6-0.1-17.2-0.3-25.8-0.4
					c-3.4-0.1-7.3-0.1-10.1-0.4c-1.1-0.1-2.1-0.3-2.6-0.5c-0.5-0.2-0.4-0.3,0.4-0.5c1.7-0.4,5.9-0.6,8.7-0.8
					c3.7-0.3,7.4-0.5,11.2-0.7c7.8-0.4,15.7-0.8,23.8-1.1c16.2-0.6,32.8-0.9,49.3-1.1c8.5-0.1,16.9-0.2,25.4-0.3
					c8.5-0.1,17-0.1,25.4-0.2C170.1,53.5,174.3,53.4,178.6,53.3C179,53.4,179,53.3,178.6,53.3L178.6,53.3z"/>
			</g>
			<g id="XMLID_260_">
				<path id="XMLID_261_" class="st9" d="M198.3,54.7c-10.4-0.1-20.8-0.2-31.2-0.3c-10.5-0.1-21-0.1-31.5-0.1
					c-10.5,0-20.8,0.1-31.2,0.3c-10.2,0.2-20.3,0.5-30.3,0.9C68.7,55.7,63,56,57.8,56.3c-4.6,0.3-8.9,0.9-7.9,1.7
					c0.3,0.2,1.9,0.4,3.3,0.4c14.4,0.2,28.9,0.3,43.3,0.3c3.6,0,7.2,0,10.7,0.1c3.6,0,7.2,0,10.7,0c7.2,0.1,14.3,0.1,21.5,0.1
					c14.5,0,29-0.3,43.3-0.7c7-0.2,14.2-0.4,21-0.7c5.2-0.2,12-0.9,10.5-1.8c-0.9-0.6-4.5-0.8-8-1c-3.9-0.2-8.1-0.4-12.3-0.3
					c-3.9,0-7.7,0-11.6,0c-4,0-7.9,0.1-11.8,0.2c-0.5,0-0.4,0.1,0.1,0.1c6.7,0,13.5,0.1,20,0.3c1.5,0.1,2.9,0.2,4.4,0.3
					c1.7,0.1,3.4,0.2,5.1,0.2c1.4,0.1,2.9,0.1,4.3,0.2c1,0.1,2.2,0.1,2.9,0.2c0.2,0,0.4,0.1,0.1,0c0,0,0.5,0.1,0.1,0
					c0.1,0-0.1,0.1,0,0c-0.1,0.1-0.1,0,0,0c-0.5,0.1-0.9,0.2-1.7,0.3c-2.1,0.2-4.3,0.3-6.9,0.4c-6.6,0.2-13.2,0.5-19.9,0.7
					c-6.6,0.2-13.2,0.3-19.8,0.5c-6.5,0.2-13.1,0.3-19.7,0.4c-6.8,0.1-13.6,0.2-20.4,0.3c-6.7,0.1-13.4,0.1-20.1,0
					c-7.5,0-15.2-0.2-22.7-0.4c-7.5-0.2-14.9-0.4-22.3-0.7c0.8,0.2,1.7,0.3,2.5,0.5c0-0.1-0.1,0,0-0.1c0.1,0,0.1-0.1,0.2-0.1
					c0,0-0.2,0.1,0,0c0.2-0.1,0.7-0.1,1.3-0.2c1.3-0.1,2.9-0.2,4.4-0.3c4.6-0.2,9.3-0.4,14-0.6c9.5-0.4,19.2-0.7,28.9-0.9
					c9.8-0.2,19.6-0.4,29.4-0.5c9.9-0.1,19.8-0.2,29.8-0.3C175.8,54.8,187.1,54.7,198.3,54.7C198.5,54.7,198.5,54.7,198.3,54.7
					L198.3,54.7z"/>
			</g>
			<g id="XMLID_258_">
				<path id="XMLID_259_" class="st9" d="M144.5,51.6c-35.1-0.8-69.9,0.3-103.5,1.8c-17.3,0.8-34.5,1.6-52,2.2
					c-18.4,0.7-37,1-56,1.1c-19.8,0.1-39.6-0.1-59.4-0.3c-9.7-0.1-19.3-0.1-29-0.1c-9.1,0.1-18.2,0.1-27.2,0.3
					c-17.9,0.3-35.7,0.8-52.5,1.7c-17.4,1-32.8,2.6-50.4,3.6c-17.7,1-36.6,1.6-55.3,2c-9.8,0.2-19.8,0.4-29.7,0.5
					c-9.9,0.1-19.7,0-29.6-0.1c-4.8,0-9.6-0.1-14.4-0.1c-0.7,0-0.7,0.1-0.2,0.2c18.6,0.8,38.6,0.7,57.7,0.4
					c18.9-0.3,37.9-0.8,56.1-1.6c8.7-0.4,17.3-0.8,25.5-1.4c8.6-0.6,16.7-1.3,25.1-2c16.7-1.3,34.6-2,53.3-2.4
					c18.1-0.4,36.2-0.2,54.3-0.1c20,0.1,39.9,0.3,59.9,0.4c19.4,0,38.7-0.1,57.8-0.6c17.7-0.5,35-1.2,52.2-2
					c17.2-0.8,34.3-1.6,51.7-2.2c17.1-0.7,34.7-1.2,52.5-1.2C135.8,51.6,140.2,51.6,144.5,51.6C144.7,51.7,144.7,51.6,144.5,51.6
					L144.5,51.6z"/>
			</g>
			<g id="XMLID_254_">
				<path id="XMLID_255_" class="st9" d="M162.4,49.6c-34.3-0.4-69-0.7-103,0.3c-32.4,1-62.5,3.1-95,4c-34.2,1-69.6,0.6-104.2,0.8
					c-17.3,0.1-34.6,0.2-51.8,0.5c-16.9,0.3-33.3,0.8-49.7,1.5c-31.6,1.4-65,3.1-98.3,2c-3.8-0.1-7.7-0.3-11.5-0.4
					c-0.4,0-0.6,0.1-0.3,0.1c13.9,1.1,30.3,1.2,45.6,1.1c16.7-0.2,32.9-0.8,49-1.5c16.5-0.7,33.1-1.3,50.1-1.7
					c17.4-0.4,34.9-0.6,52.4-0.7c34.7-0.2,69.6,0.1,104.2-0.5c33.5-0.6,64.4-2.6,96.5-3.9c16.5-0.7,33.2-1.2,50.4-1.4
					c17.5-0.2,35.1-0.2,52.6-0.1C153.8,49.6,158.1,49.6,162.4,49.6C162.5,49.6,162.5,49.6,162.4,49.6L162.4,49.6z"/>
			</g>
			<g id="XMLID_252_">
				<path id="XMLID_253_" class="st9" d="M-333,56.9c16.7,0,33.7-0.1,50.3-0.5c8.5-0.2,17-0.4,25.2-0.7c8.2-0.3,16.2-0.8,24.1-1.2
					c16.4-0.9,32.7-1.6,49.9-1.9c16.7-0.3,33.6-0.3,50.4-0.3c16.9,0,33.8,0.1,50.7-0.1c16.9-0.1,33.5-0.5,50-1
					c16.9-0.6,33.7-1.2,50.6-1.7c17.3-0.5,34.9-0.8,52.5-0.8c35.2-0.1,70.4,0.4,105.3,1.1c4.4,0.1,8.8,0.2,13.2,0.2
					c0.3,0,0.4-0.1,0.1-0.1c-34.6-0.8-69.7-1.6-104.8-1.7c-17.4-0.1-34.8,0.1-52,0.4c-17.2,0.3-34,0.9-50.9,1.5
					c-16.8,0.6-33.6,1.1-50.8,1.4c-17,0.3-34.1,0.2-51.1,0.2c-33.6,0-67.3-0.1-99.6,1.5c-16.5,0.8-32.3,1.8-49.2,2.4
					c-16.8,0.6-33.9,0.9-51,1.1C-324.3,56.7-328.6,56.7-333,56.9C-333.3,56.8-333.3,56.9-333,56.9L-333,56.9z"/>
			</g>
		</g>
		<g id="XMLID_29_">
			<g id="XMLID_231_">
				<path id="XMLID_232_" class="st9" d="M-156.8,32.4c19.4-0.1,38.8-0.1,57.9-0.6c9.5-0.2,19-0.5,27.9-1c8.7-0.4,16.8-1.1,24-1.8
					c14.6-1.4,24.9-3.2,34.4-5.1c2.1-0.4,4.3-0.8,6.6-1.2c2.3-0.4,4.9-0.7,7.7-1.1c6.8-0.8,16.7-0.9,26-1.1
					c25.2-0.4,50.7-0.5,75.9-0.9c0.4,0,0.3-0.1-0.1-0.1C80.7,19.7,58,20,35.3,20.1C24.9,20.2,13.9,20,4.1,20.5
					C0.2,20.7-3.7,21-6.8,21.3c-3.1,0.3-5.7,0.7-8.1,1.1c-4.9,0.8-8.8,1.7-13.5,2.6c-5,0.9-10.6,1.8-17,2.6
					c-6.4,0.8-13.4,1.5-21.3,2.1c-8,0.6-16.4,1.1-25.4,1.4C-112.9,31.9-135,32.2-156.8,32.4C-157.1,32.4-157.1,32.4-156.8,32.4
					L-156.8,32.4z"/>
			</g>
			<g id="XMLID_227_">
				<path id="XMLID_230_" class="st9" d="M90.4,21.9c-17.6-0.3-36.6-0.5-54.2,0c-8.4,0.2-16.5,0.6-23.6,1.2c-3.7,0.3-7.3,0.6-10.5,1
					c-3.5,0.4-6.5,0.8-9.5,1.3c-6,0.9-11.6,1.9-18.3,2.7c-6.2,0.8-13,1.5-20.2,2.1c-14.5,1.3-31.2,2.2-48.5,2.9
					c-38.5,1.4-80.9,1-118-0.8c-19.6-0.9-37.4-2.2-54.8-3.6c-8.7-0.7-17.5-1.4-27-1.9c-9.8-0.6-20-0.9-30.7-1.1
					c-22.5-0.4-45.5-0.3-68.1-0.2c-23.5,0.1-47,0.3-70.4,0.5c-5.5,0.1-11,0.1-16.4,0.2c-0.4,0-0.3,0.1,0.1,0.1
					c11.8,0,23.6-0.2,35.4-0.2c11.6-0.1,23.3-0.2,34.9-0.2c23.1-0.1,46.2-0.1,69.2,0.2c11,0.1,21.7,0.4,32.1,0.8
					c10,0.4,19.3,1.1,28.3,1.7c8.8,0.6,17.5,1.3,26.6,1.9c9.1,0.6,18.4,1.1,28,1.5c19,0.9,39.2,1.6,59.6,1.9
					c19.1,0.3,38.4,0.4,57.5,0c17.9-0.4,36.1-1,51.8-2c15.8-1.1,29.5-2.5,39.7-4.2c5.7-1,10.3-2,16.8-2.9C6.5,24,13.9,23.3,23,22.9
					c8.4-0.4,17-0.5,25.8-0.7c9.2-0.2,18.7-0.2,28-0.3c4.5,0,9.1,0,13.6-0.1C90.6,22,90.6,21.9,90.4,21.9L90.4,21.9z"/>
			</g>
			<g id="XMLID_223_">
				<path id="XMLID_224_" class="st9" d="M83.6,23.2c-17.6-0.4-36.1,0.1-52.3,0.9c-4.2,0.2-8.4,0.4-12.3,0.7
					c-3.8,0.3-7.4,0.6-10.8,0.9C1.1,26.5-4.5,27.4-10,28.3c-5.4,0.9-11.1,1.8-17.9,2.5c-7.3,0.8-16.1,1.3-25.2,1.8
					c-20.2,1.1-42.2,1.8-64.1,2.2c-21.7,0.4-43.8,0.5-65.7,0.2c-20.5-0.3-41.1-1.1-59-2.2c-17.5-1.1-32.2-2.8-49.7-3.9
					c-17.7-1.2-37.8-1.5-57.9-1.6c-20.8-0.1-41.8,0.1-62.6,0.1c-23.3,0.1-46.9,0.1-70,0.5c-5.6,0.1-11.3,0.2-16.9,0.3
					c-1.3,0-0.9,0.2,0.3,0.2c11.7,0,23.4,0.1,35.2,0.1c11.6,0,23.1-0.1,34.6-0.1c21.5-0.1,43-0.2,64.5-0.2c20.1,0,40.7,0.1,59.6,1
					c18.4,0.9,33.4,2.4,50.1,3.6c17.4,1.2,37,2,57.1,2.4c20.8,0.4,41.9,0.5,62.9,0.2c22.1-0.3,44-0.8,65.4-1.5
					c10.3-0.3,20.4-0.5,30-1.1c8.7-0.5,16-1.2,22.2-2.1c12.1-1.6,21.4-3.5,36-4.9c7.3-0.7,15-1.3,23.8-1.7
					c8.6-0.4,17.8-0.6,27.1-0.7C74.5,23.2,79.1,23.2,83.6,23.2C83.8,23.3,83.9,23.2,83.6,23.2L83.6,23.2z"/>
			</g>
			<g id="XMLID_219_">
				<path id="XMLID_220_" class="st9" d="M88.1,17.9c-23.2,0.2-46.3,0.4-69.5,0.5c-11,0.1-22.2,0.2-32.8-0.2
					c-8.4-0.3-16.2-0.8-23-1.4c-14.2-1.3-27.6-2.7-45-3.4c-5-0.2-10.2-0.4-15.5-0.4c-5.1-0.1-10.3,0-15.4-0.1
					c-10.8-0.1-21.7,0-32.5,0c-22.8,0.1-45.4,0-68.1,0.3c-20.2,0.2-40.2,0.7-59.4,1.4c-19,0.7-35.7,1.9-50.4,3.5
					c-7.1,0.8-14.2,1.5-23.6,1.9c-5.1,0.2-10.4,0.4-15.7,0.4c-5.2,0.1-10.4,0.1-15.7,0.1c-23.1,0-46.2-0.1-69.3,0
					c-23.3,0.1-46.6,0.3-69.8,0.6c-5.4,0.1-10.7,0.2-16,0.3c-0.7,0-0.5,0.2,0.2,0.1c11.6-0.1,23.2-0.3,34.8-0.4
					c11.4-0.1,22.9-0.2,34.3-0.3c23-0.1,46.3-0.2,69.3-0.1c11.1,0.1,22.2,0.2,33.3,0.3c5.2,0,10.2,0.1,15.3-0.1
					c5-0.1,9.7-0.4,13.9-0.7c8.1-0.6,14.8-1.4,22.1-2.2c7.5-0.7,15.8-1.4,24.3-1.9c17.4-1.1,36-1.9,55.6-2.3
					c22.6-0.5,45.5-0.6,68.4-0.6c11.3,0,22.5,0.1,33.8,0.1c5.2,0,10.4,0.1,15.6,0.1c5.2,0.1,10.3,0.2,15.3,0.4
					c5.1,0.2,10.3,0.3,15.3,0.5c4.2,0.2,8.2,0.4,12.1,0.7c7.6,0.5,14.4,1.2,21.8,1.8c7.1,0.5,14.5,1.1,22.4,1.5
					C-16.8,18.9-7.3,19,2.5,19c11.2-0.1,22.5-0.3,33.7-0.4c11.6-0.1,23.2-0.3,34.8-0.4C76.6,18.1,82.3,18,88.1,17.9
					C88.2,18,88.2,17.9,88.1,17.9L88.1,17.9z"/>
			</g>
			<g id="XMLID_217_">
				<path id="XMLID_218_" class="st9" d="M92.4,16.2c-39.9,0.4-83.9,0.7-119.2-1.9c-9-0.7-17.6-1.4-27.4-1.9
					c-9.3-0.5-19.3-0.8-29.4-0.9c-21-0.3-42-0.3-63.1-0.2c-23.7,0-47.4,0.2-70.9,0.4c-22,0.2-44.6,0.4-66.2,1
					c-10.2,0.3-20.4,0.6-29.9,1.1c-9.8,0.5-18.8,1.2-27.9,1.9c-8.9,0.6-18.2,1.2-28.2,1.6c-9.8,0.4-19.9,0.6-30.1,0.8
					c-10.4,0.1-20.8,0.2-31.2,0.2c-11,0.1-21.8,0.1-32.8,0.1c-23.3,0-46.5-0.2-69.8,0c-5.5,0.1-10.8,0.2-16.1,0.3
					c-0.5,0-0.4,0.1,0.1,0.1c23.2-0.3,46.2-0.3,69.6-0.1c22,0.2,43.7,0.6,65.9,0.5c20.6-0.1,41.1-0.6,60-1.5c19.8-1,35-2.9,54.8-3.8
					c10-0.5,20.7-0.8,31.4-1c11.3-0.2,22.7-0.4,34.1-0.6c23.5-0.3,47.2-0.5,70.9-0.6c21.9-0.1,44.1-0.1,65.8,0.3
					c20.6,0.4,39.9,1.3,57.3,2.6c8.8,0.7,17.6,1.3,27.5,1.7c9.3,0.4,19.3,0.7,29.2,0.8c5,0,10.1,0.1,15.2,0.1
					c5.2,0,10.2-0.1,15.4-0.1c10.1-0.1,20.1-0.3,30.1-0.5C82.4,16.5,87.4,16.4,92.4,16.2C92.7,16.2,92.7,16.2,92.4,16.2L92.4,16.2z"
					/>
			</g>
			<g id="XMLID_213_">
				<path id="XMLID_216_" class="st9" d="M-195.3,9.9c11.8,0.1,23.7,0.2,35.6,0.3c11.7,0.1,23.4,0.2,35.2,0.3
					c21.4,0.2,43.2,0.3,63.9,1c10.4,0.3,20.2,0.8,29.8,1.4c9.9,0.6,19.7,1.2,30.2,1.6c20.6,0.8,42.7,1,64.3,0.9
					c12.9-0.1,26-0.3,38.5-0.6c12.5-0.4,24.8-0.8,37-1.3c0.7,0,0.4-0.1-0.3-0.1c-11.3,0.2-22.6,0.4-34,0.6
					c-11.3,0.2-22.6,0.3-33.9,0.4c-21.4,0.2-43.2,0.1-63.9-0.6c-21.1-0.7-39.2-2.2-60.1-3c-20.7-0.7-42.9-0.9-64.5-0.9
					c-12.7,0-25.4,0.1-38,0.1C-168.8,9.8-182.1,9.8-195.3,9.9C-195.5,9.9-195.5,9.9-195.3,9.9L-195.3,9.9z"/>
			</g>
			<g id="XMLID_211_">
				<path id="XMLID_212_" class="st9" d="M119.8,12c-3.3,0.1-6.6,0.1-9.8,0.2c-3.3,0.1-6.7,0.1-10,0.2c-6.9,0.1-13.9,0.3-20.8,0.4
					c-13.5,0.2-27.1,0.2-40.7,0.1C26.8,12.7,15.3,12.4,4.2,12c-10.8-0.4-21.2-0.9-30.8-1.6c-4.7-0.3-9.1-0.7-13.2-1.2
					C-43.7,8.9-48,8.4-50,7.8c-1.8-0.5-0.9-1,1.5-1.5c2.7-0.5,6.9-0.9,11.6-1.2c5.3-0.3,11.1-0.5,16.8-0.7C-13.7,4.3-7.3,4.1-0.9,4
					c13-0.3,26.1-0.5,39.2-0.6c26.5-0.2,53.1-0.2,79.7,0c3.2,0,6.5,0,9.7,0.1c0.8,0,0.9-0.1,0.2-0.1c-13.5-0.4-27.1-0.8-41.1-0.9
					C73,2.2,59.1,2.2,45.3,2.3C31.2,2.3,17.1,2.5,3.2,2.8C-3.7,3-10.4,3.1-17.2,3.3c-6.3,0.2-12.7,0.3-18.7,0.6
					C-47.8,4.5-58.5,5.5-60,7c-1.4,1.5,9.2,2.6,18.4,3.4c9.8,0.9,20.6,1.6,32.2,2.1c11.3,0.5,23.3,0.7,35.4,0.8
					c28.2,0.2,56.4-0.3,83.9-1C113.2,12.3,116.5,12.2,119.8,12C120.1,12,120.1,12,119.8,12L119.8,12z"/>
			</g>
			<g id="XMLID_209_">
				<path id="XMLID_210_" class="st9" d="M110.4,11c-11.2,0-22.4,0.2-33.7,0.3c-5.7,0.1-11.5,0.1-17.2,0.1c-2.7,0-5.5,0-8.2,0
					c-2.6,0-5-0.1-7.6-0.1C26.3,11,7.6,10.6-6.2,9.2c-3.3-0.3-6.1-0.7-8.1-1.1c-1.5-0.3-2.3-0.7-1.2-1.1C-15.7,7.1-15,7-15,7
					c0.7-0.1-0.2,0,0.4-0.1c0.6-0.1,1.1-0.1,1.9-0.2c1.7-0.1,3.6-0.2,5.7-0.2c5-0.1,10.2-0.2,15.3-0.2c11.3-0.2,22.5-0.3,33.9-0.5
					c11.3-0.1,22.6-0.2,34-0.2c25.4-0.1,50.8,0.1,76.1,0.3c0.5,0,0.6-0.1,0.1-0.1c-23.4-0.4-47.2-0.6-71-0.7C69.2,5,57.1,5,45,5
					c-11.8,0-23.7,0-35.4,0.2C3.7,5.3-2.2,5.4-8.1,5.5c-4.6,0.1-9.5,0.3-12.8,0.7c-7.1,0.9-3.9,2.2,1.8,3c5.8,0.9,14.6,1.5,23.3,2
					c9.1,0.5,19.1,0.8,29,0.8c2.9,0,5.8,0,8.6,0c1.2,0,2.5,0,3.7,0c1.7,0,3.3-0.1,5-0.1c6.5-0.1,13-0.2,19.5-0.3
					C83.5,11.5,96.9,11.2,110.4,11C110.7,11.1,110.7,11,110.4,11L110.4,11z"/>
			</g>
			<g id="XMLID_205_">
				<path id="XMLID_206_" class="st9" d="M106.6,9.2c-11.8,0-23.7,0.1-35.5,0c-5,0-10.1-0.1-14.9-0.3c-4.6-0.1-9.4-0.3-13.8-0.5
					c-2-0.1-4-0.2-5.8-0.4c-0.2,0-2.2-0.2-2.4-0.2c1.2,0,0.3,0.3,0.2,0.3c-0.3,0-0.2,0,0.3,0c0.3,0,0.6,0,0.9-0.1
					c0.3,0,2.3-0.1,3.1-0.1c1.4,0,2.8-0.1,4.2-0.1c3.1-0.1,6.1-0.2,9.2-0.3C63.5,7.3,75.2,7.1,86.9,7c13.2-0.1,26.6-0.1,39.7,0
					c0.9,0,1-0.2,0.2-0.2c-12.7-0.3-25.5-0.5-38.5-0.6C75.1,6.3,62,6.4,49,6.7c-3.2,0.1-6.4,0.2-9.5,0.3c-3,0.1-6.2,0.2-8.9,0.3
					c-2.7,0.2-4.9,0.5-4.8,0.8c0.1,0.4,3.1,0.7,5.8,0.9c4.6,0.4,9.9,0.6,15.4,0.7c5.6,0.1,11.4,0.1,17,0c6.4-0.1,12.8-0.2,19.2-0.2
					C91,9.4,98.8,9.4,106.6,9.2C106.9,9.2,106.9,9.2,106.6,9.2L106.6,9.2z"/>
			</g>
			<g id="XMLID_199_">
				<path id="XMLID_202_" class="st9" d="M94.2,1.2C73.7,1,52.8,0.9,32.2,0.9C11.9,1-8.7,1.1-28.4,1.7C-38.3,2-47.9,2.4-57.1,2.9
					C-66.9,3.4-75.7,4-84.6,4.7c-9.2,0.7-18.4,1.4-29.1,1.7c-11,0.4-22.5,0.5-33.8,0.6c-11.9,0.1-23.9,0.2-35.9,0.3
					c-12.2,0.1-24.4,0.1-36.6,0.1c-23.1,0-46.2,0-69.2,0.2c-21.5,0.2-43.4,0.6-63.7,1.5c-21.1,0.9-39.6,2.2-58.6,3.6
					c-9.3,0.6-18.9,1.3-29.1,1.7c-10.2,0.4-20.8,0.8-31.5,1c-21.4,0.5-43.6,0.6-65.4,0.7c-5.4,0-10.8,0.1-16.3,0.1
					c-1.4,0-1.4,0.2,0,0.2c21.8,0.2,43.8,0.4,65.7,0.2c21.7-0.2,42.9-0.8,62.5-1.9c20-1.1,37.8-2.7,57.8-3.8
					c19.5-1.1,40.8-1.8,62.1-2.2c46.2-0.9,93.4-0.8,140.1-0.7c22.3,0,46.4-0.1,67.1-1.2c10.3-0.5,19.1-1.3,28.6-2
					c8.7-0.6,17.9-1.1,27.4-1.5c9.3-0.4,19-0.7,28.7-1C-3.6,2,6.6,1.8,16.9,1.6c20.6-0.2,41.4-0.3,62.1-0.3c5.1,0,10.2,0,15.3,0
					C95,1.4,95,1.2,94.2,1.2L94.2,1.2z"/>
			</g>
			<g id="XMLID_197_">
				<path id="XMLID_198_" class="st9" d="M99.3,0.2C77.1-0.2,55-0.5,32.6-0.6C10.5-0.7-12.3-0.6-34.2-0.2C-45.2,0-56.3,0.3-67,0.7
					s-21,0.9-31.3,1.4c-10.4,0.5-20.8,1-31.6,1.4c-9.9,0.3-20.1,0.6-30.4,0.8c-42,0.7-84.7,0.4-127,0.7c-20.8,0.1-41.7,0.4-61.8,1.1
					c-21,0.7-40.1,1.9-59,3.1c-9.5,0.6-19,1.3-28.9,1.8c-10.1,0.6-20.6,1-31.3,1.4c-21.2,0.8-43.4,1.1-65.6,1.1
					c-5.4,0-10.9,0-16.3-0.1c-0.4,0-0.5,0.1-0.1,0.1c43.2,0.8,87.5-0.1,126.5-2.3c19.8-1.1,38.3-2.6,58.9-3.5
					c19.4-0.9,40-1.4,60.8-1.6c42.3-0.5,84.8-0.2,127.1-0.6c21-0.2,41.9-0.7,61.7-1.5C-93.9,3.1-73.9,1.8-52,1.1
					c21.6-0.7,44.3-1,66.7-1.1c22.6-0.1,45.2,0.1,67.9,0.2C88.1,0.2,93.7,0.3,99.3,0.2C99.6,0.3,99.7,0.2,99.3,0.2L99.3,0.2z"/>
			</g>
			<g id="XMLID_195_">
				<path id="XMLID_196_" class="st9" d="M-533.7,11.1c10.7,0.1,21.4,0.2,32.2,0.2c10.7,0,21.3,0,31.9-0.3
					c10.4-0.3,19.8-0.8,28.4-1.5c8.7-0.7,16.7-1.5,25.3-2.3c8.7-0.7,18.2-1.3,28.5-1.6c10.5-0.4,21.3-0.5,32.2-0.7
					c24.3-0.4,48.5-0.8,73-1.1c24.8-0.2,49.5-0.4,74.4-0.3c11.8,0,23.6,0.1,35.4,0.1c11.5,0,23-0.3,33.9-0.7
					c21.1-0.8,39.9-2.3,60.1-3.3c19.9-1,40.8-1.8,62.1-2.3C27.4-3.7,72-4,116.5-3.7c5.5,0,11,0.1,16.4,0.1c0.6,0,0.8-0.1,0.2-0.1
					C89.5-4.4,44.8-4.6,1.1-4c-21.8,0.3-43.3,1-64,1.8C-83.8-1.2-103,0.1-123,1.2c-9.8,0.6-20,1.1-30.6,1.4
					c-11.6,0.4-23.8,0.6-35.8,0.6c-12.2,0.1-24.4,0-36.6,0c-12.3,0-24.7,0.1-37,0.1c-24.8,0.1-49.7,0.3-74.5,0.4
					c-22.1,0.1-44.7,0.4-65.2,1.4c-19.7,1-33.6,3-52.3,4.2c-19.2,1.2-41,1.6-62.6,1.6C-522.9,11.1-528.3,11.1-533.7,11.1
					C-534.1,11-534.1,11.1-533.7,11.1L-533.7,11.1z"/>
			</g>
			<g id="XMLID_193_">
				<path id="XMLID_194_" class="st9" d="M123.3-6.1C98.4-6.2,73.5-6.4,48.5-6.4c-24.4,0-49.6,0-73.6,0.6C-49-5.3-71.5-4.4-93.5-3.3
					c-21.1,1.1-41.4,2.4-62.8,3.4c-21.3,1-43.3,1.8-66.5,1.9c-23.1,0.2-46.4,0-69.5-0.2c-45-0.4-92.3-0.7-133.1,1.9
					c-10.6,0.7-20.6,1.5-31,2.2c-10.2,0.7-20.9,1.3-32.4,1.6c-23,0.8-47.3,0.8-71.1,0.7c-6,0-12-0.1-18-0.1c-0.7,0-0.6,0.1,0,0.1
					c23.7,0.3,47.6,0.6,71.3,0.3c11.6-0.1,23.1-0.4,34.2-0.8c11.2-0.4,21.5-1.1,31.5-1.8c10.2-0.7,20.3-1.5,31.4-2
					c10.4-0.5,21.3-0.8,32.4-1.1c22.4-0.4,45.3-0.3,67.9-0.2c23.2,0.2,46.4,0.4,69.6,0.4c23.1,0,45.7-0.4,67.6-1.3
					C-127.7,0.2-88.8-3-43.8-4.5C4.6-6.1,54.5-6.2,104.5-6.1C110.7-6.1,117-6,123.3-6.1C123.7-6,123.7-6.1,123.3-6.1L123.3-6.1z"/>
			</g>
			<g id="XMLID_191_">
				<path id="XMLID_192_" class="st9" d="M-539.9,5.7c22-0.1,44-0.2,65.7-0.6c10.7-0.2,21.5-0.6,31.4-1.1c9.7-0.5,19.1-1.1,28.5-1.7
					c9.3-0.6,18.7-1.1,28.6-1.5c10.4-0.4,21.1-0.6,32-0.7c21.9-0.1,43.8,0.2,65.6,0.5c22,0.3,44.1,0.5,66.1,0.1
					c22.6-0.4,44.3-1.2,65.6-2.2c41.5-1.8,82-3.9,125.7-5c45.9-1.1,94.1-1.2,140.7-0.7c5.8,0.1,11.5,0.1,17.2,0.2
					c0.5,0,0.6-0.1,0.1-0.1C81.2-7.9,34.1-8.3-12.3-7.6C-57-6.9-98.7-5.1-140.5-3.2c-20.9,0.9-42,1.9-63.8,2.5
					C-226.3-0.1-248.4,0-271-0.2c-22-0.2-43.8-0.6-65.9-0.7c-21.9-0.1-43.3,0.3-63.6,1.3c-19.4,1-37.2,2.3-56.4,3.3
					c-21,1.1-43.6,1.5-66.4,1.8C-528.8,5.5-534.3,5.6-539.9,5.7C-540.1,5.6-540.1,5.7-539.9,5.7L-539.9,5.7z"/>
			</g>
			<g id="XMLID_154_">
				<path id="XMLID_155_" class="st9" d="M100.4,25.4c-21.7-0.1-45-0.2-64.6,1.1c-16.2,1.1-28.5,2.8-40.5,4.4
					c-6.1,0.8-12.5,1.6-19.6,2.3c-8.2,0.8-17.6,1.4-27.9,1.8c-11.2,0.4-23,0.6-34.6,0.8c-12.6,0.2-25.3,0.3-37.9,0.4
					c-25.4,0.2-51.3,0.2-76.7,0c-12.2-0.1-24.6-0.2-36.1-0.7c-9.4-0.4-17-1.1-24.9-1.8c-15-1.3-29.1-2.8-46.3-3.8
					c-21.3-1.2-46.1-1.1-69.1-1.1c-25.2,0-50.5,0-75.7,0.1c-12.7,0.1-25.4,0.1-38,0.3c-12.2,0.2-24.9,0.3-36.8,0.6
					c-5.8,0.2-11.3,0.4-16.9,0.6c-1.3,0.1-0.6,0.3,0.7,0.3c12.4,0,24.6-0.2,36.9-0.4c12.6-0.2,25.2-0.3,37.9-0.4
					c25-0.2,50-0.2,75.1-0.2c12.7,0,25.4,0,38.1,0.1c11.8,0.1,23.9,0.2,35.3,0.6c18.2,0.6,32.7,2.1,47.6,3.3
					c16.3,1.4,35.3,2.4,55.8,2.7c12.4,0.1,25.1,0.2,37.5,0.2c12.7,0,25.4,0,38.1-0.1c24.4-0.1,48.9-0.2,73-0.7
					c20.9-0.4,40-1.3,56.3-2.8c14.3-1.4,25.5-3.1,39.5-4.6c6.9-0.7,14.6-1.3,23.1-1.8c10.7-0.6,22.2-0.8,33.8-0.9
					c5.7-0.1,11.4-0.1,17.2-0.1C101.3,25.6,101.3,25.4,100.4,25.4L100.4,25.4z"/>
			</g>
			<g id="XMLID_152_">
				<path id="XMLID_153_" class="st9" d="M108.7,27.9c-20.6-0.6-43.6,0.1-62.2,1.2c-19.7,1.1-36.9,2.7-54.7,4.2
					c-8.6,0.7-17,1.5-26.5,2.1c-10.2,0.6-20.9,1.1-32.1,1.3c-11.8,0.3-23.9,0.4-35.9,0.5c-11.8,0.1-23.6,0.2-35.5,0.3
					c-23.8,0.2-48,0.6-71.9,0.5c-21.2-0.1-40.8-1.2-58.9-2.4c-18.7-1.2-37.6-2.3-58.5-3c-22.2-0.7-45-1-67.8-1.3
					c-11.3-0.2-22.5-0.4-33.9-0.5c-11.7-0.1-23.5-0.1-35.1,0c-11.9,0.1-23.7,0.2-35.6,0.3c-11.3,0.1-23,0.3-34.2,0.6
					c-5.5,0.2-11,0.3-16.6,0.4c-1.6,0-1.2,0.3,0.4,0.3c11.6,0,23,0,34.5-0.2c11.6-0.1,23.2-0.3,34.8-0.4c23.2-0.2,46.4-0.3,69.5,0.1
					c22.6,0.4,45.4,0.7,67.8,1.2c21.6,0.5,41.8,1.4,61.9,2.4c9.4,0.5,19,0.9,28.6,1.4c9.6,0.4,19.6,0.8,29.7,1.1
					c10.2,0.2,20.4,0.2,30.7,0.1c12.1-0.1,24.3-0.2,36.3-0.3c11.9-0.1,23.8-0.3,35.8-0.4c11.8-0.1,23.7-0.1,35.6-0.2
					c11.2-0.1,22.5-0.3,33.3-0.7c10.1-0.4,19.9-0.9,29.2-1.4c19-1.2,35.6-2.7,53.2-4.1c18.2-1.5,38.9-2.8,61.4-3
					c5.4-0.1,11-0.1,16.4,0C109.1,28.1,109.2,27.9,108.7,27.9L108.7,27.9z"/>
			</g>
			<g id="XMLID_148_">
				<path id="XMLID_150_" class="st9" d="M104,30.2c-20.9-0.4-42.8,0.4-60.3,1.7c-18.8,1.4-35.3,3.2-55,4.4
					c-19.5,1.2-41.2,1.9-63,2.3c-23.7,0.4-47.6,0.7-71.6,0.7c-24.6,0-49.5-0.1-73.8-0.5c-12-0.2-23.9-0.5-35.5-0.9
					c-11.6-0.4-22.6-1-33.9-1.4c-43.7-1.9-90.8-2.7-137.3-3c-46.9-0.3-93.6,0.1-139.7,1c-5.6,0.1-11.2,0.2-16.9,0.4
					c-0.8,0-0.6,0.2,0.2,0.2c46.3-0.5,93.3-0.8,139.8-0.7c46.8,0.1,92.6,1,137.6,2.4c22.9,0.7,45.5,1.7,68.9,2.2
					c23.7,0.5,48.2,0.7,72.3,0.7c24.2,0.1,48.5,0,72.6-0.2c21.8-0.2,43.8-0.6,64.4-1.4c20.8-0.9,38.3-2.4,55.6-3.9
					c17.4-1.6,36.4-3.2,58.6-3.8C92.6,30.3,98.2,30.2,104,30.2C104.1,30.3,104.2,30.2,104,30.2L104,30.2z"/>
			</g>
			<g id="XMLID_46_">
				<path id="XMLID_147_" class="st9" d="M105.4,33.5c-20.5-0.5-41.5,0.2-59.8,1.2c-9.5,0.6-18.5,1.2-27.3,1.9
					C9.5,37.3,1.1,38-7.7,38.7c-8.9,0.7-18.4,1.3-28.5,1.7c-10.7,0.4-22.3,0.6-33.6,0.8c-22.5,0.2-45.3,0.2-67.9,0.2
					c-45.5,0-92-0.2-135.6-1.8c-21.7-0.8-42.7-1.9-65.1-2.4c-22.5-0.6-45.5-0.7-68.5-0.7c-23.7,0-47.5,0-71.3,0
					c-23.9,0.1-48.1,0-71.8,0.4c-5.7,0.1-11.3,0.2-16.9,0.3c-1.4,0-0.9,0.2,0.3,0.3c11.9,0.1,24,0.2,35.9,0.2c12,0,24-0.1,35.9-0.1
					c23.7,0,47.5-0.1,71.2-0.1c23,0,46.2,0,69.1,0.4c22.7,0.4,44.1,1.3,66,2c43.1,1.5,88.9,1.9,133.7,1.9c22.7,0,45.5-0.1,68.2-0.1
					c21.6-0.1,43.3-0.3,63.5-1.3c19.4-0.9,36.9-2.2,54.3-3.5c17.4-1.3,36.7-2.6,57.5-3c5.4-0.1,10.9-0.1,16.4-0.1
					C105.9,33.6,106.1,33.5,105.4,33.5L105.4,33.5z"/>
			</g>
			<g id="XMLID_36_">
				<path id="XMLID_38_" class="st9" d="M-485.5,48.8c45.3,0.8,90.2-0.3,133.5-1.8c22.3-0.8,44.5-1.6,67.1-2.2
					c23.8-0.7,47.8-1,72.2-1.1c25.6-0.1,51.1,0.1,76.7,0.3c12.5,0.1,24.9,0.1,37.4,0.1c11.7-0.1,23.5-0.1,35.1-0.3
					c23.1-0.3,46.1-0.8,67.8-1.7c22.5-1,42.4-2.6,65-3.6c22.9-1,47.2-1.6,71.4-2c12.7-0.2,25.5-0.4,38.3-0.5
					c12.8-0.1,25.5,0,38.2,0.1c6.2,0,12.4,0.1,18.6,0.1c0.8,0,1-0.1,0.2-0.2c-24-0.8-49.8-0.7-74.5-0.4c-24.3,0.3-48.9,0.8-72.4,1.6
					c-11.3,0.4-22.3,0.8-33,1.4c-11,0.6-21.5,1.3-32.4,2c-21.6,1.3-44.7,2-68.7,2.4c-23.3,0.4-46.7,0.2-70.1,0.1
					c-25.8-0.1-51.5-0.3-77.3-0.4c-25,0-50,0.1-74.6,0.6c-22.8,0.5-45.2,1.2-67.4,2c-22.2,0.8-44.3,1.6-66.7,2.2
					c-22.1,0.7-44.8,1.2-67.7,1.2C-474.2,48.8-479.8,48.8-485.5,48.8C-485.7,48.8-485.8,48.8-485.5,48.8L-485.5,48.8z"/>
			</g>
			<g id="XMLID_34_">
				<path id="XMLID_35_" class="st10" d="M-508.5,50.9c44.3,0.4,89,0.7,132.9-0.3c41.8-1,80.7-3.1,122.5-4
					c44.2-1,89.8-0.6,134.5-0.8c22.4-0.1,44.7-0.2,66.9-0.5C-30,45-8.7,44.5,12.3,43.8c40.8-1.4,83.9-3.1,126.8-2
					c5,0.1,9.9,0.3,14.8,0.4c0.5,0,0.8-0.1,0.3-0.1c-17.9-1.1-39.1-1.2-58.9-1.1c-21.5,0.2-42.5,0.8-63.2,1.5
					c-21.3,0.7-42.7,1.3-64.7,1.7c-22.4,0.4-45,0.6-67.6,0.7c-44.7,0.2-89.8-0.1-134.4,0.5C-277.7,46-317.6,48-359,49.3
					c-21.3,0.7-42.8,1.2-65,1.4c-22.5,0.2-45.2,0.2-67.8,0.1C-497.4,50.9-503,50.9-508.5,50.9C-508.7,50.9-508.7,50.9-508.5,50.9
					L-508.5,50.9z"/>
			</g>
			<g id="XMLID_31_">
				<path id="XMLID_33_" class="st9" d="M130.7,43.6c-21.6,0-43.4,0.1-64.8,0.5c-11,0.2-21.9,0.4-32.5,0.7
					C22.8,45.1,12.5,45.5,2.2,46c-21.1,0.9-42.2,1.6-64.4,1.9c-21.6,0.3-43.3,0.3-65,0.3c-21.8,0-43.7-0.1-65.5,0.1
					s-43.2,0.5-64.5,1c-21.8,0.6-43.4,1.2-65.3,1.7c-22.3,0.5-45,0.8-67.7,0.8c-45.5,0.1-90.8-0.4-135.9-1.1
					c-5.7-0.1-11.4-0.2-17.1-0.2c-0.4,0-0.5,0.1-0.1,0.1c44.7,0.8,89.9,1.6,135.2,1.7c22.4,0.1,44.9-0.1,67.1-0.4
					c22.2-0.3,43.9-0.9,65.7-1.5c21.7-0.6,43.4-1.1,65.5-1.4c21.9-0.3,44-0.2,66-0.2c43.3,0,86.9,0.1,128.6-1.5
					c21.2-0.8,41.7-1.8,63.5-2.4c21.7-0.6,43.7-0.9,65.9-1.1C119.6,43.8,125.1,43.7,130.7,43.6C131.1,43.6,131.1,43.6,130.7,43.6
					L130.7,43.6z"/>
			</g>
		</g>
	</g>
</g>
<g>
	<g>
		<path class="st30" d="M99.2,25.3c-0.7,0.3-1.3,0.8-2,1c-0.3,0.1-0.8-0.1-1.2-0.1c0.3-0.2,0.7-0.3,0.8-0.5c0.3-0.5,0.4-1.1,0.7-1.7
			c0.3-0.6-0.2-0.8-0.8-0.8c-1.2,0-2.5,0-3.7,0c-0.8,0-1.3-0.4-1.2-1.1c0.6-0.5,1.3-1,1.9-1.6l0.3,0l0.3,0c0.2,0.3,0.4,0.6,0.6,0.8
			c0.2,0.3,0.4,0.7,0.6,1c0.3-0.3,0.8-0.6,0.9-0.9c0.1-0.6,0.1-1.3,0-2c-0.5-2.6-0.3-5.2,0.3-7.8c0.8-0.2,1.7-0.4,2.5-0.5
			C99.2,15.9,99.2,20.6,99.2,25.3z"/>
		<path class="st13" d="M96.1,1.3c0.6-0.9,0.8-1.7-0.2-2.6c-1-0.9-1.8-2.1-2.5-3.2c-0.7-1,0.4-2.5,1.8-2.3c0.4,0,1,0.9,0.8,1.1
			c-1,1.8,0.1,2.9,1.4,4.1c0.7,0.7,1.2,1.5,1.8,2.3c0,0.5,0,1,0,1.6c-1,0-2.1,0-3.1,0C96.1,2,96.1,1.7,96.1,1.3z"/>
		<path class="st61" d="M99.2,89.9c-1.2-0.4-2.5-0.8-3.6-1.3c-0.9-0.4-1.5-1.1-1.3-2.1c0.2-1,1.3-0.6,2-0.9c0.2-0.1,0.3-0.2,0.4-0.3
			c0.6,0,1.2,0,1.9,0c0.2,0,0.4,0,0.7,0C99.2,86.8,99.2,88.4,99.2,89.9z"/>
		<path class="st63" d="M99.2,11.2c-0.8,0.2-1.7,0.4-2.5,0.5c-0.2-0.5-0.6-0.9-0.6-1.4c-0.1-1.3,0-2.6,0-3.8
			c0.2-0.4,0.4-0.7,0.6-1.1c0.8,0.2,1.6,0.3,2.5,0.5C99.2,7.8,99.2,9.5,99.2,11.2z"/>
		<path class="st82" d="M94.2,45c-0.1-1,0.5-1.5,1.7-1.5c0.5,0,1,0,1.5,0c-0.1,1.2,0.9,1,1.8,1c0,0.2,0,0.3,0,0.5
			C97.5,45.1,95.9,45,94.2,45z"/>
		<path class="st18" d="M97.3,81.6c0.6,0.2,1.2,0.4,1.9,0.5c0,0.3,0,0.7,0,1c-0.6,0-1.3,0-1.9,0c-0.2,0-0.4-0.1-0.6,0
			c-0.4,0-0.8,0-1.2,0c-0.3,0-0.5-0.1-0.8-0.2c0.2-0.1,0.5-0.2,0.7-0.3C96.1,82.3,96.7,81.9,97.3,81.6z"/>
		<path class="st90" d="M94.2,45c1.7,0,3.3,0.1,5,0.1c0,0.2,0,0.3,0,0.5c-1.3,0-2.6,0.1-3.9,0C94.9,45.6,94.5,45.2,94.2,45z"/>
		<path class="st56" d="M99.2,44.6c-0.9,0-1.9,0.1-1.8-1c0.6,0,1.2,0,1.8,0C99.2,43.9,99.2,44.2,99.2,44.6z"/>
		<path class="st48" d="M99.2,83.7c-0.6,0-1.2,0-1.9,0c0-0.2,0-0.3,0-0.5c0.6,0,1.3,0,1.9,0C99.2,83.3,99.2,83.5,99.2,83.7z"/>
		<path class="st66" d="M98.6,84.8c0.2-0.1,0.4-0.1,0.6,0c0,0.2,0,0.3,0,0.5c-0.2,0-0.4,0-0.7,0C98.6,85.1,98.6,84.9,98.6,84.8z"/>
		<path class="st35" d="M50.2,26.3c-0.3,0.2-0.6,0.5-1,0.5c-0.8,0.1-1.6,0-2.5,0c-35.3,0-70.6,0-106,0c-1.2,0-2.5,0.5-3.5-0.5
			c0.2-0.2,0.4-0.4,0.6-0.5c18.6,0,37.2,0,55.8,0c18.6,0,37.2,0,55.8,0C49.7,26,49.9,26.2,50.2,26.3z"/>
		<path class="st93" d="M49.5-40.3c0.2,0,0.4,0,0.6,0c0,22.2,0,44.5,0,66.7c-0.2-0.2-0.4-0.3-0.6-0.5c0-9.8,0-19.5,0-29.3
			c0-1.4-0.4-2.7-0.6-4.1c0.2-0.7,0.6-1.4,0.6-2.2C49.6-19.9,49.5-30.1,49.5-40.3z"/>
		<path class="st109" d="M15.4,88.9c0.7,0,1.5,0,2.2,0c1-0.1,2-0.8,2.7,0.3c0.5,0.7,2.1,0.6,1.8,1.9c-0.1,0.2,0.5,0.6,0.9,0.8
			c5.1,2.5,10.3,5,15.4,7.5c1.3,0.6,2.3,0.3,3.4-0.2c1.5-0.7,3.1-1.3,4.6-1.9c-2,1.2-4,2.4-6,3.5c-0.3,0.2-1,0.1-1.4-0.1
			c-5.1-2.5-10.1-5-15.2-7.5C21.1,91.7,18.2,90.3,15.4,88.9z"/>
		<path class="st20" d="M14.3,54.5c0,3.8-0.1,7.6,0,11.4c0,0.5,0.4,1.1,0.7,1.6c-0.1,1.1-1.1,1.3-2.1,1.6c0.2-1,0.5-2-0.7-2.8
			c-0.3-0.2-0.8-3.2-0.7-3.5c0.1-0.1,0.2-0.2,0.4-0.3c1.2-0.4,1.2-0.4,1.2-1c0-2.3,0-4.6,0-6.9c0-0.3,0.3-0.5,0.5-0.8
			C13.7,54,14,54.3,14.3,54.5z"/>
		<path class="st15" d="M67.6,87.3c0.7,0,1.7-0.2,1.5,1c-0.2,1.1-0.2,2.2-0.3,3.3c-1.1,0.9-2.4,0.7-3.7,0.5c-0.3-0.1-0.9-0.2-1-0.4
			c-0.4-0.7-0.6-1.4-0.9-2.2c0.4-0.4,0.8-0.7,1.2-1.1c0-0.2,0-0.4,0-0.6c0.4-0.2,0.8-0.3,1.2-0.5c0.2,0,0.5,0,0.7,0
			C66.7,87.3,67.2,87.3,67.6,87.3z"/>
		<path class="st116" d="M78.7,95.7c0-2.9,0-5.7,0-8.6c0-0.7-0.1-1.8-0.5-1.9c-2.4-0.7-1.1-2.2-1.1-3.3c0-0.2,0.1-0.6,0.2-0.7
			c1.9-0.4,1.3-1.7,1.3-2.8c0-2.6,0-5.2,0-7.8c0.2-0.2,0.4-0.4,0.6-0.6c0,5.9,0.1,11.8,0.1,17.7c0,0.7,0,1.4,0,2.1
			c0,1.5,0,2.9-0.1,4.4C79.3,94.8,78.9,95.3,78.7,95.7z"/>
		<path class="st31" d="M29,41.5c1.7-0.9,3.3-1.7,4.9-2.6c0.7-0.4,1.3-1,2-1.6c0.7,0.3,1.2,0.4,2.1-0.1c3.8-2.2,7.7-4.3,12.2-5.6
			c-1.5,1.5-3.6,2.1-5.5,3.1c-1.7,0.9-3.5,1.7-5.3,2.5c-0.8,0.4-0.8,0.7-0.1,1c1.4,0.7,2.7,1.5,4,2.2c-1.8,0.1-3.1-0.7-4.4-1.5
			c-1.1-0.7-2-0.6-3-0.1c-1.8,0.9-3.7,1.7-5.6,2.6c-0.2,0.2-0.5,0.4-0.7,0.6C29.4,41.8,29.2,41.6,29,41.5z"/>
		<path class="st118" d="M23.5,33.7c-1.9,1-3.8,1.9-5.7,2.9c-0.2,0.1-0.3,0.4-0.5,0.6c0.4,0,0.8,0.1,1.2,0.1
			c-0.4,0.9-0.8,1.8-1.2,2.6c-0.5-0.1-1.1-0.1-1.4-0.4c-1.4-1.3-3-1.4-4.8-0.6c-0.7-0.4-0.9-1-0.1-1.5c0.6-0.4,1.5-0.7,2.2-0.7
			c3.4,0,5.9-1.7,8.7-3C22.3,33.5,22.9,33.7,23.5,33.7z"/>
		<path class="st25" d="M20.9,60.2c-0.2-1-0.4-2.1-0.6-3.1c0.2-0.5,0.3-1,0.5-1.6c0.3-0.7,0.5-1.4,0.8-2c0.5,0.2,0.9,0.3,1.4,0.5
			c0,0-0.1,0.4-0.2,0.5c-0.3,0.1-1,0.2-1,0.3c-0.2,2-0.6,4,0.4,6c-0.2,0.4-0.5,0.7-0.5,1.1c0,4.3,0,8.7,0,13c0,0.6,0.4,1.3,0.6,1.9
			c0,0.1,0.1,0.3,0.1,0.4c-0.3,0-0.6,0.1-0.8,0C21,77,20,76.9,20.4,75.9c0.2-0.3,0.6-0.5,0.6-0.8c0-2.9,0-5.9,0-8.8
			c0-0.3-0.4-0.5-0.6-0.8c0.2-1.4,0.4-2.8,0.6-4.1C21,60.9,20.9,60.6,20.9,60.2z"/>
		<path class="st31" d="M67.5,39.4c0-0.2,0-0.4,0-0.5c0.5,0,1,0,1.5-0.1c1.2-0.3,1.6,0,1.2,1c-0.3,0.7,0.2,1.1,0.9,1.4
			c3.9,1.8,7.7,3.7,11.5,5.6c0.4,0.2,0.7,0.7,1.1,1.1c-2.2-0.9-4.4-1.8-6.5-2.8c-3.2-1.5-6.3-3-9.5-4.6
			C67.5,40.3,67.6,39.7,67.5,39.4z"/>
		<path class="st56" d="M67.6,64.9c0,0.4,0.1,0.9,0,1.3c-0.3,1.2-1,1.4-2.1,0.7c-0.8-0.4-1.4-0.9-2.2-1.4c-0.1-0.1-0.3-0.1-0.4-0.1
			c-0.1-0.2-0.2-0.4-0.2-0.6c0.2,0,0.5,0,0.7,0c0.2,0,0.4,0,0.6,0c0.4-0.2,1-0.4,1.2-0.7c0.3-0.4,0.4-0.9,0.6-1.4
			c0.5-0.3,1-0.6,1.5-0.8c0.2-0.1,0.5,0,0.8,0.1c0,0,0,0.4-0.1,0.4c-0.9,0.5-0.2,1.2-0.3,1.8C67.6,64.6,67.6,64.7,67.6,64.9z"/>
		<path class="st139" d="M65.1,92c1.3,0.2,2.6,0.4,3.7-0.5c0,0.3,0,0.7,0,1c-1.2,1-0.3,2.3-0.7,3.4c-0.1,0.4-0.3,0.6-0.8,0.3
			C65.7,95.1,64.5,93.9,65.1,92z"/>
		<path class="st109" d="M67.6,64.9c0-0.2,0-0.4,0-0.6c1,0.2,2,0.3,2.9,0.7c2.8,1.3,5.6,2.7,8.4,4.1c0.3,0.1,0.3,0.6,0.5,0.9
			c-0.2,0.2-0.4,0.4-0.6,0.6c-2.1-1.2-4.1-2.5-6.2-3.7C70.9,66.2,69.2,65.6,67.6,64.9z"/>
		<path class="st140" d="M-0.2,81.1c2.8,1.2,5.6,2.4,8.4,3.6c1.7,0.8,3.2,1.8,4.8,2.6c-1.3-0.5-2.7-0.8-3.9-1.4
			c-2.8-1.3-5.5-2.6-8.2-4C0.5,81.8,0.2,81.4-0.2,81.1z"/>
		<path class="st93" d="M6.1,76.4c-1.9,1-3.7,2.1-5.6,3.1c-0.5,0.3-0.8,0.7-1.2,1.1c-0.8-0.1-1.7-0.5-0.8-1
			C0.8,78.2,2.9,76.3,6.1,76.4z"/>
		<path class="st26" d="M62.6,58.1c0.2,0,0.4,0,0.6,0c0.4,0.4,0.9,0.7,1.3,1.1c-0.2,0.7-0.4,1.4-0.6,2.1c-0.2,0.1-0.4,0.1-0.7,0.2
			c-0.8-0.1-1.3-0.4-1.3-1.1c0.1-0.2,0.3-0.6,0.2-0.7c-0.4-0.4-0.9-0.6-1.3-0.9c0.2-0.3,0.4-0.7,0.6-1c0.2,0,0.4,0,0.6,0
			C62.2,57.8,62.4,58,62.6,58.1z"/>
		<path class="st143" d="M63.2,61.4c0.2-0.1,0.4-0.1,0.7-0.2c0.4,0,0.8,0,1.2,0c0.2,0.5,0.4,1.1,0.6,1.6c-0.2,0.5-0.3,1-0.6,1.4
			c-0.3,0.3-0.8,0.5-1.2,0.7c0-0.1,0.1-0.2,0.1-0.2c0.8-0.8,0.5-1.7,0.3-2.7c-0.1,0-0.2,0-0.3,0.1c-1.1,0.6-0.6,1.5-0.7,2.3
			c0,0.2,0,0.3,0,0.5c-0.2,0-0.5,0-0.7,0C62.8,63.7,63,62.6,63.2,61.4z"/>
		<path class="st144" d="M64.4,88.4c-0.4,0.4-0.8,0.7-1.2,1.1c-0.2,0-0.4,0-0.6-0.1c-0.4-0.3-0.9-0.7-1.3-1c0.2-0.2,0.4-0.4,0.6-0.6
			C62,87.9,62,88,62.1,88c0.1,0,0.3,0,0.3,0c0.1-0.9,0.1-1.9,0.1-2.8c0.3,0.2,0.5,0.4,0.8,0.6c0,0.6-0.1,1.2-0.1,1.7
			C63.2,88.2,63.8,88.4,64.4,88.4z"/>
		<path class="st150" d="M65,61.3c-0.4,0-0.8,0-1.2,0c0.2-0.7,0.4-1.4,0.6-2.1C65.5,59.7,65,60.5,65,61.3z"/>
		<path class="st117" d="M66.9,22.2c-0.4,0-0.8,0-1.2,0c-0.4,0-0.8,0-1.3,0c-1.1,0-1.8-0.5-1.8-1.4c0-1.1-0.1-2.3,0.1-3.4
			c0.1-0.4-0.3-2.3,1.5-0.7c0.5,0.4,0.6-0.2,0.5-0.5c-0.1-0.3-0.2-0.7-0.4-0.7c-1.7-0.3-1.9-1.4-1.6-2.4c0.3-1-0.2-1.6-0.7-2.3
			c0.1-0.1,0.4-0.2,0.4-0.3c0.2-1.5,0.4-3,0.6-4.5c0-0.1-0.3-0.2-0.4-0.3c0.9-0.9,2.1-0.4,3.2-0.5c1.2-0.1,2.7,0.4,3.3-1.2
			c0.1-0.3,1.1-0.4,1.6-0.4C74,3.6,77.3,3.8,80.6,4C80.4,4.6,80.2,5.3,80,6c-0.2,0-0.4,0-0.6,0c-0.8,0.1-1.6,0.5-2.3,0.4
			c-1-0.1-0.6-0.9-0.6-1.5c0-0.2-0.5-0.4-0.8-0.5c-0.8-0.1-1.6-0.1-2.4-0.3C72,3.9,71.8,4.4,72,5.1c0.4,1-0.1,1.3-1.1,1.4
			c-1.2,0.1-1.5,0.6-1.5,1.5c-0.1,0.9,0.5,1.9-0.6,2.7c-0.6,0.1-2-0.1-1.5,0.6c1.1,1.5-0.1,1.4-1.1,1.4c-0.8,0.1-1.7,0-1.7,1
			c-1,0.8-0.3,0.9,0.6,1.1c0.5,0.1,1.2,0,1.4,0.3c0.3,0.3,0.5,0.9,0.4,1.4c-0.1,1-0.9,1.2-1.9,1.2c-0.3,0-0.6,0.2-0.9,0.3
			c0.3,0.2,0.6,0.4,1,0.5c1.2,0.1,2.5-0.2,3.1,1.1c0,0,0,0,0,0c-1.3-0.2-2.6-0.4-3.8-0.5c-0.3,0-0.9,0.4-0.9,0.5
			c0.4,0.6,0.9,1.2,1.3,1.8C66.1,20.5,66.2,21.9,66.9,22.2z"/>
		<path class="st16" d="M80,6c0.2-0.7,0.4-1.4,0.6-2.1c1.8-1.3,2.4-1.5,4.3-0.4c0.8,0.4,1.3,0.1,1.9-0.1c0.6,0.5,1.2,1,1.9,1.6
			c0.1,0.5,0.5,1.2,0.3,1.4c-1,1-0.6,1.9,0.4,2.4c1.2,0.7,1.2,1.5,1.2,2.4c0,0.7,0,1.4,0,2.1c-1.1,1.2-2.8,1-4.4,1
			c0.6-0.2,1.3-0.4,1.9-0.6c0.7-0.3,1.2-0.6,1-1.4c-0.1-0.5,0.3-1.2,0.1-1.7c-0.3-0.8-0.9-1.5-1.4-2.2c-0.5,0.5-1.1,0.9-1.6,1.4
			c-0.3,0.2-0.4,0.5-0.7,0.8c-0.8-0.7-1.6-1.4-2.5-2.1c0-0.4,0.1-0.9-0.1-1.1C82,7,81,6.5,80,6z"/>
		<path class="st39" d="M91.8,22.2c0,0.7,0.4,1.1,1.2,1.1c0.1,1.5-0.3,2-1.7,1.9c-2.7-0.1-5.5-0.2-8.2-0.3c0.5-0.8,0.7-1.7,2.4-1.2
			c1.1,0.3,2.6,0,3.9-0.1c0.3,0,0.6-0.4,0.8-0.6c-0.3-0.2-0.6-0.5-0.9-0.6c-0.3-0.1-0.6-0.1-0.9-0.1c-5.3,0-10.6,0-15.9,0l0,0
			c0.2-0.7,0.4-1.4,0.6-2.1c1.5,0.2,3,0.4,4.5,0.5c0.9,0.1,1.7-0.1,1.7-1c0.8,0,1.6,0,2.5,0c-0.2,0.3-0.5,0.5-0.7,0.8
			c0.2,0.1,0.5,0.3,0.7,0.3c2.3,0,4.6,0,6.9,0C89.2,21.8,90.8,21.6,91.8,22.2z"/>
		<path class="st65" d="M88.6,5c-0.6-0.5-1.2-1-1.9-1.6c0-0.4,0-0.9,0-1.3c0-0.8,0.1-1.2,1.4-1c1.8,0.2,3.7,0.1,5.5,0.2
			c0.8,0,1.6,0.1,2.4,0.1c0,0.3,0,0.7,0,1c0,0.5-0.1,1,0,1.4c0.1,0.6,0.4,1.1,0.7,1.7c-0.2,0.4-0.4,0.7-0.6,1.1
			C95.3,6,94.4,5.5,93.6,5C92,4.2,90.3,4.2,88.6,5z"/>
		<path class="st89" d="M72.5,22.2c5.3,0,10.6,0,15.9,0c0.3,0,0.7,0,0.9,0.1c0.3,0.1,0.6,0.4,0.9,0.6c-0.3,0.2-0.5,0.5-0.8,0.6
			c-1.3,0.1-2.8,0.5-3.9,0.1c-1.7-0.5-1.9,0.4-2.4,1.2c-0.1,0.7,0.1,1.4-1.1,1.5c-0.9,0-1.3-0.3-1.4-1c-0.1-1-0.9-1-1.8-1
			c-1.4,0-2.9,0-4.3,0c-0.3,0-0.6-0.1-0.9-0.2c0.3-0.1,0.6-0.3,1-0.3c1.8,0,3.7,0,5.5-0.1c0.3,0,0.6-0.3,0.9-0.5
			c-0.3-0.1-0.5-0.2-0.8-0.2c-1.7-0.1-3.5-0.2-5.2-0.3C74.2,22.6,73.4,22.4,72.5,22.2z"/>
		<path class="st174" d="M81.1,1.8c-4.8-1-10.1-0.3-15.3-0.5c-0.3,0-0.6-0.2-0.8-0.2c0.3-0.1,0.5-0.3,0.8-0.3c3.9,0,7.8,0,11.8,0
			c1.3,0,2.7,0.2,3.8-0.7c0.2-0.2,0.6-0.3,0.8-0.2c0.6,0.1,1.6,0.1,1.7,0.5c0.4,0.6-0.6,1.5-1.5,1.6C82.1,1.9,81.7,1.8,81.1,1.8z"/>
		<path class="st174" d="M58.2,9.7C56.8,9.8,56,9.2,56,8.1c0-2.2,0.2-4.5,0.5-6.7c0-0.4,0.6-1,1-1.1c0.8-0.1,1.6,0.1,2.4,0.2
			c-0.1,0.2-0.1,0.6-0.3,0.6c-0.5,0.1-1,0.1-1.5,0.2c-0.3,0.1-0.8,0.4-0.8,0.6c0,1.4,0,2.7,0.1,4.1c0,0.2,0.7,0.3,1,0.4
			C59.5,7.6,58.8,8.6,58.2,9.7z"/>
		<path class="st100" d="M64.4,22.2c0.4,0,0.8,0,1.3,0c-0.6,1.9-0.2,2.3,1.8,2.6c3.5,0.6,7,0.4,10.5,0.5c0.3,0,0.6,0.1,0.9,0.2
			c-0.3,0.1-0.6,0.3-0.9,0.3c-3.7,0-7.4,0-11.2,0c-2.2,0-2.2,0-2.4-1.9C64.2,23.4,64.4,22.8,64.4,22.2z"/>
		<path class="st61" d="M68.2,19.6c0,0.9,0,1.7,0,2.6c-0.4,0-0.8,0-1.2,0c-0.7-0.2-0.8-1.7-2.2-0.8c-0.4-0.6-0.9-1.2-1.3-1.8
			c0,0,0.6-0.5,0.9-0.5C65.6,19.2,66.9,19.4,68.2,19.6z"/>
		<path class="st68" d="M58.2,9.7c0.5-1,1.2-2.1,0-3.1c0.8-0.2,1.7-0.3,2.5-0.5c0.1,0.5,0.4,1,0.3,1.4c0,0.9-0.2,1.8-0.3,2.7
			C59.9,10,59.1,9.9,58.2,9.7z"/>
		<path class="st97" d="M60.7,10.2c0.1-0.9,0.3-1.8,0.3-2.7c0-0.5-0.2-0.9-0.3-1.4c0.6-0.2,1.2-0.4,1.8-0.5C62.7,5.6,63,5.7,63,5.8
			c-0.2,1.5-0.4,3-0.6,4.5c0,0.1-0.3,0.2-0.4,0.3C61.6,10.5,61.1,10.4,60.7,10.2z"/>
		<path class="st20" d="M98.6,84.8c0,0.2-0.1,0.3-0.1,0.5c-0.6,0-1.2,0-1.9,0c0-0.2,0-0.4,0-0.6c0.2-0.2,0.4-0.3,0.6-0.5l0.1-0.1
			C97.8,84.3,98.2,84.5,98.6,84.8z"/>
		<path class="st175" d="M97.3,83.2c0,0.2,0,0.3,0,0.5c0,0,0,0.1,0,0.1c-0.2,0-0.4-0.1-0.6-0.1c0-0.2,0-0.3,0-0.5
			C96.9,83.1,97.1,83.1,97.3,83.2z"/>
		<path class="st176" d="M96.8,81c0.1-0.1,0.2-0.3,0.2-0.4c0.1,0.1,0.2,0.3,0.3,0.4l-0.3,0L96.8,81z"/>
		<path class="st20" d="M96.8,83.6c0.2,0,0.4,0.1,0.6,0.1c0,0.1,0,0.3,0,0.4l-0.1,0.1c-0.2,0-0.4,0-0.6,0
			C96.8,84,96.8,83.8,96.8,83.6z"/>
		<path class="st167" d="M96.8,84.2c0.2,0,0.4,0,0.6,0c-0.2,0.2-0.4,0.3-0.6,0.5C96.7,84.5,96.7,84.4,96.8,84.2z"/>
		<path class="st106" d="M88.6,5c1.7-0.8,3.3-0.8,5,0c-0.5,0.5-1.5,1.3-0.4,1.5C95,6.8,94.9,7.8,95,8.9c0.1,1.3,0,2.6,0.2,3.9
			c0.2,1.4,0.3,2.7-0.3,4c-0.3,0.5-0.2,1.4,0.1,1.9c0.7,1-0.4,1.3-0.8,1.9l-0.3,0l-0.3,0c-0.5-1.3-2.2-2.3-1.7-4.1
			c0.2-0.6-1-1.1-2-0.6c0.3-0.4,0.5-0.8,0.9-1.2c0.5-0.6,0.5-1-0.2-1.4c0-0.7,0-1.4,0-2.1c0-1,0-1.8-1.2-2.4c-1-0.5-1.4-1.4-0.4-2.4
			C89.2,6.2,88.8,5.5,88.6,5z"/>
		<path class="st118" d="M94.2,20.6c0.4-0.6,1.5-0.9,0.8-1.9c-0.4-0.5-0.4-1.4-0.1-1.9c0.6-1.3,0.5-2.6,0.3-4
			c-0.2-1.3-0.1-2.6-0.2-3.9c-0.1-1,0-2-1.8-2.4c-1-0.2,0-1,0.4-1.5c0.8,0.5,1.7,1.1,2.5,1.6c0,1.3-0.1,2.6,0,3.8
			c0,0.5,0.4,0.9,0.6,1.4c-0.7,2.6-0.9,5.2-0.3,7.8c0.1,0.6,0.1,1.3,0,2c-0.1,0.3-0.6,0.6-0.9,0.9c-0.2-0.3-0.4-0.7-0.6-1
			C94.7,21.2,94.4,20.9,94.2,20.6z"/>
		<path class="st75" d="M89.9,15.9c1-0.5,2.2,0,2,0.6c-0.5,1.8,1.2,2.7,1.7,4.1c-0.6,0.5-1.3,1-1.9,1.6c-1-0.6-2.6-0.3-3.1-1.6
			c0.2-0.6,0.5-1.2,0.7-1.8c0.1-0.2-0.1-0.5-0.1-0.8c0.1-0.4,0.1-0.9,0.2-1.3C89.5,16.4,89.7,16.2,89.9,15.9z"/>
		<path class="st119" d="M53.3,84.3c-0.7-0.3-1.4-0.7-2.1-1c-1.9-0.8-3-1.8-2.9-3.7c0-0.7-0.4-1.4-0.7-2.1c0-0.2,0.1-0.4,0.1-0.6
			c0.4-0.1,0.8,0.7,1.2,0c0.4,0,0.8,0,1.2,0.1c0.2,0,0.5,0,0.7,0c0.2,0.7,0.4,1.3,0.6,2c0.1,0.4,0.4,0.7,0.6,1.1
			c0.4,0.2,0.8,0.3,1.2,0.5c1.1,0.5,2.1,1,3.2,1.6c0.8,1.2,0.8,2.4,0,3.7C55.3,85.3,54.3,84.8,53.3,84.3z"/>
		<path class="st14" d="M56.4,85.8c0.9-1.2,0.8-2.4,0-3.7c1.4-0.2,2.8-0.4,4.3-0.5c0.6,0.7,2,0.9,1.9,2.1c0,0.2,0,0.4,0,0.6
			c-0.2,0-0.4,0-0.6-0.1c-0.2,0.1-0.4,0.3-0.7,0.4c-0.3,0.2-0.7,0.4-1,0.6C58.9,85.4,57.7,85.6,56.4,85.8z"/>
		<path class="st97" d="M40.2,95.7c2.4-1,4.8-2,7.1-3.1c2.9-1.4,5.7-2.8,8.5-4.2c0.7-0.3,1.3-0.5,2-0.8c0.2-0.1,0.5,0,0.8,0.1
			c-0.2,0.2-0.3,0.4-0.6,0.6c-2,1-4,2.1-6.1,3.1c-3.4,1.7-6.9,3.4-10.4,5.1C40.5,96.9,40.3,96.4,40.2,95.7z"/>
		<path class="st13" d="M13.6,76.9c-0.4,0-0.8,0-1.3,0c-2.3-1.3-1.9-3.3-1.9-5.2c1.6,0.9,3.8,1.1,5,2.6
			C14.7,74.6,14.1,75.5,13.6,76.9z"/>
		<path class="st31" d="M22.2,86.8c1.8-0.3,3.6-0.6,5,0.8c0.2,0.1,0.3,0.3,0.5,0.4c-1.6,1.1,0.1,1.3,0.8,1.7
			c1.9,1.1,3.8,2.3,5.7,3.4c-2.5-1.1-5-2.1-7.4-3.3C25.1,88.9,23.2,88.3,22.2,86.8z"/>
		<path class="st75" d="M8,79.5c2.5,1.3,5,2.6,7.5,4c0.7,0.4,1.3,0.8,1.9,1.3c-2.7-0.2-4.5-1.8-6.7-2.8c-1.1-0.5-2.3-0.9-3.5-1.4
			c-0.3-0.1-0.5-0.4-0.8-0.6c0.3-0.1,0.7-0.3,1-0.4C7.6,79.5,7.8,79.5,8,79.5z"/>
		<path class="st132" d="M60.2,85.3c0.3-0.2,0.7-0.4,1-0.6c0.2,0.2,0.4,0.3,0.6,0.5l0.2,0.1c-0.1,0.9-0.1,1.7-0.2,2.6
			c-0.2,0.2-0.4,0.4-0.6,0.6c-0.2-0.7-0.3-1.5-0.5-2.2c0.1,0,0.2,0,0.2-0.1c0,0,0-0.1,0.1-0.1c-0.1,0.1-0.2,0.2-0.3,0.2
			C60.6,85.9,60.4,85.6,60.2,85.3z"/>
		<path class="st61" d="M62,75.9c0.4-0.7,0.9-1.4,1.3-2.1c0.6,0.2,1.2,0.4,1.8,0.5c0.4,0.4,0.7,1,1.2,1.3c1.8,1,3.6,1.8,5.4,2.8
			c0.4,0.2,0.6,0.8,0.9,1.2c-1.6,0.2-3.3,0.3-4.9,0.5c0.5-0.6,1-1.2,1.5-1.8c-0.8-0.5-1.7-0.9-2.5-1.4c-0.9-0.6-1.7-0.5-2.4,0.1
			c-0.4,0.3-0.6,0.7-1,1C62.8,77.3,62.4,76.6,62,75.9z"/>
		<path class="st172" d="M72.5,79.5c-0.3-0.4-0.5-0.9-0.9-1.2c-1.8-1-3.6-1.8-5.4-2.8c-0.5-0.3-0.8-0.9-1.2-1.3
			c2.5,1.2,4.9,2.4,7.4,3.6c1.7,0.9,1.7,0.9,1.3,2.6c-0.4,0-0.8,0.8-1.3,0.1C72.5,80.2,72.5,79.9,72.5,79.5z"/>
		<path class="st106" d="M62.6,49.8c0.2,0.2,0.5,0.4,0.7,0.6c-0.2,0.7-0.5,1.4-0.7,2.1c-1.7-0.1-2.9,0.6-4,1.5
			c-1.4,1.1-1.4,1.2,0.1,2.1c0.9,0.5,1.8,1.1,2.6,1.6c-0.2,0.3-0.4,0.7-0.6,1c-0.8,0-1.7,0-2.5,0c-0.6,0-1.2,0-1.8,0.1
			c-1.7-0.9-3.3-1.8-5-2.7c0.6-0.7,1.2-1.4,1.9-2c1.3-0.2,2.5-0.5,3.1-1.6c0.6-0.5,1.2-1,1.8-1.6c0.8-0.6,2.4-0.2,2.5-1.6
			C61.4,49.4,62,49.6,62.6,49.8z"/>
		<path class="st15" d="M61.3,57.6c-0.9-0.5-1.7-1.1-2.6-1.6c-1.5-0.8-1.5-1-0.1-2.1c1.2-0.9,2.4-1.6,4-1.5c0.2,0.7,0.4,1.3,0.5,2
			c0.2,1.1,0.3,2.2-0.5,3.2c-0.2,0-0.4,0-0.7,0C61.7,57.6,61.5,57.6,61.3,57.6z"/>
		<path class="st109" d="M71.2,47.7c0.6-0.8,0.7-1.3-0.5-1.8c-2.9-1.4-5.6-2.8-8.4-4.3c-0.5-0.2-0.7-0.8-1-1.2
			c1.1-0.9,2.2-1.2,3.3,0.1c0.2,0.2,0.7,0.3,1,0.4c0.4,0.2,1.1,0.6,1,0.6c-0.8,1.2,0.3,1.5,1.1,2c1.2,0.7,2.4,1.3,3.7,1.9
			c0.5,0.3,1.4,0.6,1.4,0.8C72.8,47,72.4,47.8,71.2,47.7z"/>
		<path class="st88" d="M61.9,57.6c0.2,0,0.4,0,0.7,0c0,0.2,0,0.4,0,0.5C62.4,58,62.2,57.8,61.9,57.6z"/>
		<path class="st128" d="M22.9,54.5c0.1-0.2,0.2-0.5,0.2-0.5c-0.4-0.2-0.9-0.3-1.4-0.5c-0.4-1.3,0.3-2.2,1.2-3.2
			c0.9-0.2,1.7-0.4,2.6-0.5c0.2,0.3,0.4,0.7,0.7,1c-0.4,1.6,0.1,2.8,2.2,3.3c0.6,0.1,1.1,0.4,1.6,0.8c0.9,0.6,2.4,0.8,2.3,2.1
			c-0.4,0.2-0.8,0.4-1.2,0.6c-2.6-1-5.3-1.9-7.9-2.9C23,54.7,22.9,54.6,22.9,54.5z"/>
		<path class="st13" d="M25.4,49.8c-0.9,0.2-1.7,0.4-2.6,0.5c-1.1-0.7-2.7-1.1-3.2-2c-0.5-0.8,0.1-2.1,0.2-3.2
			c1.9,0.7,3.7,1.4,5.6,2.1c0.2,0.2,0.4,0.4,0.6,0.5c1.3,0.5,1,1.1,0.1,1.7C25.9,49.6,25.6,49.7,25.4,49.8z"/>
		<path class="st82" d="M25.4,47.2c-1.9-0.7-3.7-1.4-5.6-2.1c0-0.3,0-0.6,0-0.9c0-0.4,0-0.8,0-1.3c0.2-0.3,0.4-0.6,0.5-0.9
			c0.9-0.2,1.8-0.4,2.7-0.6c0.2,0.1,0.4,0.3,0.6,0.4c-0.8,0.2-1.7,0.5-0.7,1.4c0.2,0.3,0.5,0.6,0.7,1c0.6,0.1,1.3,0.3,1.9,0.4
			c0.2,0.2,0.4,0.4,0.5,0.6C25.8,45.9,25.6,46.5,25.4,47.2z"/>
		<path class="st99" d="M23,41.4c-0.9,0.2-1.8,0.4-2.7,0.6c-1-0.7-2-1.4-3-2.1c0.4-0.9,0.8-1.8,1.2-2.6c1.2,0.7,2.6,1.3,3.6,2.1
			C22.7,39.8,22.7,40.7,23,41.4z"/>
		<path class="st94" d="M19.8,42.9c0,0.4,0,0.8,0,1.3c-3.1-0.4-6.2-1-9.4-0.3C10,44,9.2,43.6,9,43.3c-0.3-0.5,0.8-1.4,1.5-1.2
			c2.1,0.4,4.4-0.7,6.3,0.9C17.3,43.3,18.8,42.9,19.8,42.9z"/>
		<path class="st199" d="M22.8,43.2c-0.9-0.9-0.1-1.1,0.7-1.4c0.4,0,0.7,0,1.1,0c0.5,0,0.9,0,1.4,0.1c0.4,0,0.7,0.1,1.1,0.1
			c0.2,0.3,0.4,0.7,0.7,1c0,0-0.1,0.1-0.1,0.1c-0.4,0-0.7-0.1-1.1-0.1c-0.2-0.1-0.5-0.3-0.7-0.4c-0.6,0.1-1.2,0.3-1.7,0.4
			C23.7,43.1,23.3,43.1,22.8,43.2z"/>
		<path class="st22" d="M26.1,41.9c-0.5,0-0.9,0-1.4-0.1c0.7-0.7,1.5-1.4,2.6-0.4C26.8,41.6,26.5,41.8,26.1,41.9z"/>
		<path class="st118" d="M27.8,43c-0.2-0.3-0.4-0.7-0.7-1c0.2-0.2,0.4-0.4,0.6-0.6c0.2,0,0.5,0,0.7,0c0,0.5-0.1,1.1-0.1,1.6
			C28.2,43,28,43,27.8,43z"/>
		<path class="st29" d="M20.9,60.2c0,0.4,0,0.7,0,1.1c-1.1,0.1-2.3-0.1-3.3,0.2c-1.2,0.3-1.3-0.1-1.4-0.9c-0.1-0.4-0.5-0.8-0.6-1.2
			c0-0.2,0.2-0.6,0.5-0.7c0.4-0.2,1-0.1,1.5-0.3c1.1-0.4,1.5,0,1.5,0.9C19.3,60.3,19.7,60.9,20.9,60.2z"/>
		<path class="st11" d="M63.9,85.8c1.3-0.1,2.4,0.2,2.4,1.6c-0.2,0-0.5,0-0.7,0c-0.5-0.2-1.1-0.4-1.6-0.7c0.1,0.4,0.3,0.8,0.4,1.2
			c0,0.2,0,0.4,0,0.6c-0.6-0.1-1.2-0.2-1.2-0.9c0-0.6,0-1.2,0.1-1.7C63.5,85.8,63.7,85.8,63.9,85.8z"/>
		<path class="st87" d="M40.2,42c-0.9,1.9-3,2.3-4.9,2.9c-0.2,0.1-0.6-0.1-0.8-0.3c-1.6-0.9-3.3-1.8-4.9-2.6
			c0.2-0.2,0.5-0.4,0.7-0.6c0.3,0.2,0.6,0.5,0.9,0.7c4,2.3,4,2.3,8.2,0.2C39.7,42.2,40,42.1,40.2,42z"/>
		<path class="st56" d="M24.7,60.2c-0.8,0.2-1.7,0.3-2.5,0.5c-1-1.9-0.6-4-0.4-6c0-0.1,0.7-0.2,1-0.3c0.1,0.1,0.1,0.2,0.2,0.2
			c2.6,1,5.3,1.9,7.9,2.9c0,0.5,0,1.1,0,1.6c-0.4,0.3-0.8,0.7-1.2,1c-0.6-0.3-1.2-0.5-1.8-0.8c-0.7-0.3-1.4-0.7-2.1-0.9
			c-1.2-0.3-1.3-0.2-1.1,1.1C24.7,59.9,24.7,60.1,24.7,60.2z"/>
		<path class="st198" d="M56.4,58.7c0.6,0,1.2,0,1.8-0.1c-0.2,0.7-0.5,1.5-0.6,2.2c0,0.4,0.4,0.9,0.6,1.3c0.8-0.5,1.8,0.6,2.5-0.4
			c0.4-0.5,0.8-1,1.1-1.5c0,0.7,0.5,1,1.3,1.1c-0.2,1.2-0.4,2.3-0.6,3.5c0.1,0.2,0.2,0.4,0.2,0.6c-1-0.1-2.1-0.2-2.1-1.4
			c0-1.3-1-1.3-2.1-1.2c-1.1,0.1-2.2,0.5-2.9-0.6C57.4,61.3,56.5,60,56.4,58.7z"/>
		<path class="st53" d="M63.3,64.9c0-0.2-0.1-0.3,0-0.5c0.1-0.8-0.4-1.7,0.7-2.3c0.1,0,0.2,0,0.3-0.1c0.3,0.9,0.5,1.8-0.3,2.7
			c-0.1,0.1-0.1,0.2-0.1,0.2C63.6,64.9,63.4,64.9,63.3,64.9z"/>
		<path class="st63" d="M61.9,60.3c-0.4,0.5-0.8,1-1.1,1.5c-0.7,0.9-1.8-0.2-2.5,0.4c-0.2-0.4-0.6-0.9-0.6-1.3
			c0.1-0.7,0.4-1.5,0.6-2.2c0.8,0,1.7,0,2.5,0c0.4,0.3,0.9,0.6,1.3,0.9C62.2,59.7,61.9,60.1,61.9,60.3z"/>
		<path class="st188" d="M63.9,85.8c-0.2,0-0.4,0-0.6,0.1c-0.3-0.2-0.5-0.4-0.8-0.6c-0.2,0-0.3,0-0.5,0l-0.2-0.1
			c0-0.3,0.1-0.6,0.1-0.9c0.2,0,0.4,0,0.6,0.1c0.4,0.1,0.9,0.2,1.3,0.1c0.9-0.2,1.7-0.5,2.5-0.8C65.5,84.4,64.7,85.1,63.9,85.8z"/>
		<path class="st103" d="M62.1,85.3c0.2,0,0.3,0,0.5,0c0,0.9-0.1,1.9-0.1,2.8c0,0-0.2,0-0.3,0c-0.1,0-0.2-0.1-0.2-0.2
			C61.9,87,62,86.1,62.1,85.3z"/>
		<path class="st12" d="M68.8,10.7c1.1-0.7,0.5-1.8,0.6-2.7c0.1-0.9,0.3-1.5,1.5-1.5c1,0,1.5-0.4,1.1-1.4c-0.3-0.7,0-1.2,1.1-0.9
			c0.8,0.2,1.6,0.2,2.4,0.3c0.3,0.1,0.8,0.3,0.8,0.5c0,0.6-0.4,1.4,0.6,1.5c0.7,0.1,1.6-0.2,2.3-0.4c-0.1,0.3-0.2,0.7-0.2,1
			c-0.2,1.5-0.2,1.5-2.2,1.6C75,8,75,8,73.8,9.3c-0.1,0.1-0.3,0.3-0.5,0.4c-0.1-0.2-0.1-0.3-0.1-0.5c0-0.7-0.1-1.4,1-1.6
			c0.5-0.1,1-0.2,1.5-0.4c-0.6-0.1-1.2-0.2-1.8-0.1c-0.6,0.1-1.2,0.8-1.8,0.8c-1.8-0.1-1.6,0.7-1.2,1.6c1.1,2.3-0.3,3.9-2.1,5.4
			C68.8,13.5,68.8,12.1,68.8,10.7z"/>
		<path class="st61" d="M68.8,18c-0.2,0.5-0.4,1-0.6,1.6c-0.6-1.3-2-0.9-3.1-1.1c-0.3,0-0.6-0.3-1-0.5c0.3-0.1,0.6-0.3,0.9-0.3
			c1,0,1.9-0.2,1.9-1.2c0-0.5-0.1-1.1-0.4-1.4c-0.2-0.2-0.9-0.2-1.4-0.3c-0.8-0.1-1.5-0.3-0.6-1.1c3.7,0,3.7,0,3.3,3.3
			c0,0.2-0.1,0.4,0,0.5C68.1,17.8,68.5,17.9,68.8,18z"/>
		<path class="st18" d="M76.9,8.6c2-0.1,2-0.1,2.2-1.6c0-0.3,0.2-0.7,0.2-1c0.2,0,0.4,0,0.6,0c1,0.5,2.1,1,3,1.5
			c0.2,0.1,0.1,0.7,0.1,1.1c-1,0.5-2.1,1-3.1,1.5c0-0.7-0.5-1-1.3-1c-0.8-0.1-1.6-0.3-2.4-0.5C76.4,8.6,76.7,8.6,76.9,8.6z"/>
		<path class="st135" d="M68.8,18c-0.3-0.1-0.7-0.2-1-0.4c-0.1,0,0-0.3,0-0.5c0.4-3.3,0.4-3.3-3.3-3.3c0-1,0.9-1,1.7-1
			c1-0.1,2.2,0.1,1.1-1.4c-0.5-0.7,0.9-0.5,1.5-0.6c0,1.4,0,2.8,0,4.2C68.8,15.9,68.8,17,68.8,18L68.8,18z"/>
		<path class="st24" d="M80,10.2c1-0.5,2.1-1,3.1-1.5c0.8,0.7,1.6,1.4,2.5,2.1c-0.4,1-0.8,2.1-1.2,3.1c-1.2,0.7-2.5,0.7-3.7,0
			c-0.3-0.6-0.8-1.2-1-1.8C79.3,11.4,79.1,10.7,80,10.2z"/>
		<path class="st56" d="M84.3,13.8c0.4-1,0.8-2.1,1.2-3.1c0.2-0.3,0.4-0.6,0.7-0.8c0.5-0.5,1.1-1,1.6-1.4c0.5,0.7,1.1,1.4,1.4,2.2
			c0.2,0.5-0.2,1.2-0.1,1.7c0.2,0.8-0.3,1.1-1,1.4c-0.6,0.2-1.3,0.4-1.9,0.6c-0.2,0-0.4,0-0.6,0C85.1,14.2,84.7,14,84.3,13.8z"/>
		<path class="st38" d="M68.8,18c0-1,0-2.1,0-3.1c1.7-1.5,3.2-3.1,2.1-5.4c-0.4-0.9-0.6-1.7,1.2-1.6c0.6,0,1.2-0.6,1.8-0.8
			c0.6-0.1,1.2,0.1,1.8,0.1c-0.5,0.1-1,0.3-1.5,0.4c-1.2,0.2-1,0.9-1,1.6c0,0.2,0.1,0.3,0.1,0.5c0.2-0.1,0.3-0.2,0.5-0.4
			C75,8,75,8,76.9,8.6c-0.2,0-0.4,0-0.6,0c-0.4,0.5-0.9,1-1.2,1.5c-0.3,0.7-0.5,1.4-0.7,2.1c-0.5-0.2-1.1-1.4-1.5,0
			c-0.1,0.3,0,0.7,0,1c-0.1,1.9,1.8,3.1,2.6,4.6c0.8,1.4,2,2,3.9,1.7c0,1-0.8,1.1-1.7,1c-1.5-0.1-3-0.3-4.5-0.5
			C71.7,17.8,71.5,17.8,68.8,18z"/>
		<path class="st38" d="M81.8,19.6c0-0.5,0-1,0-1.6c0.2,0,0.4,0,0.6,0c0.2,0.5,0.3,0.9,0.5,1.4c1.5-0.5,3.1,0.8,4.5-0.4
			c0.6-0.3,1.2-0.7,1.8-1c0,0.3,0.2,0.6,0.1,0.8c-0.2,0.6-0.5,1.2-0.7,1.8c-2.3,0-4.6,0-6.9,0c-0.2,0-0.5-0.2-0.7-0.3
			C81.3,20.1,81.6,19.8,81.8,19.6z"/>
		<path class="st109" d="M34.7,77.4c0,0.1,0.1,0.2,0.1,0.2c1.9,3,1.5,4.5-1.9,6.3c-0.6,0.3-1.2,0.6-1.9,0.8
			c-0.2-2.4-0.6-4.7-0.7-7.1c-0.1-4.8,0-9.6,0-14.4c0.6-0.4,1.2-0.7,1.9-1.1c0.2,0.4,0.3,0.8,0.5,1.2c-0.2,0.3-0.5,0.6-0.5,0.9
			c0,3.1-0.1,6.1,0,9.2c0,0.5,0.4,0.9,0.6,1.4C32.9,76,32.9,77.2,34.7,77.4z"/>
		<path class="st19" d="M34.7,77.4c-1.8-0.2-1.7-1.4-1.8-2.5c0.6-0.5,1.2-1,1.8-1.5c0.4-0.5,0.6-1.1,1.2-1.3
			c1.8-0.7,3.7-1.3,5.7-0.9c-0.4,0.6-0.7,1.1-0.1,1.8c0.4,0.5,0.5,1.2,0.7,1.8c-0.2,0-0.4,0-0.7,0c-2.1,0-4.1,0.5-5.8,1.4
			C35.2,76.5,35,77,34.7,77.4z"/>
		<path class="st143" d="M30.3,63.4c0,4.8-0.1,9.6,0,14.4c0.1,2.4,0.4,4.7,0.7,7.1c-1.2,0.6-2.2,0.1-3.2-0.5c0.9-0.1,1.8,0,1.8-1.2
			c-0.1-4.5,0-9.1-0.1-13.6c0-0.3-0.3-0.6-0.5-0.9c0.9-1.5,0.8-2.9-0.8-4.1c-0.5-0.4-0.6-0.9,0.2-1.2C29.1,63.3,29.7,63.3,30.3,63.4
			z"/>
		<path class="st12" d="M41.5,74.8c0.2,0,0.4,0,0.7,0c1.7,0.2,3.4,0.3,5,1.1c-0.8,0.7,0.2,0.8,0.6,1c0,0.2-0.1,0.4-0.1,0.6
			c-0.4,0.1-0.8,0.1-1.1,0.3c-1,0.5-1.9,1.1-2.8,1.6c-0.6-0.7-0.9-1.7-1.7-2.1C40.7,76.4,42.2,75.5,41.5,74.8z"/>
		<path class="st74" d="M54,79.5c-0.2,0.3-0.5,0.7-0.7,1c-0.4-0.2-0.8-0.3-1.2-0.5c0-6.4,0-12.9,0-19.3c0.2,0,0.5-0.2,0.7-0.1
			c0.6,0.3,1.1,0.7,1.6,1.1c-1.4,0.2-1.1,1.1-1.1,1.8c0,3.8,0,7.6,0,11.5c0,0.9-0.1,1.7,0,2.6C53.4,78.2,53.7,78.9,54,79.5z"/>
		<path class="st149" d="M50.1,76.9c1-1.5,0-2.9-0.7-4.2c0.4-0.2,1-0.4,1.1-0.6c0.3-1-0.3-1.8-1-2.5c0.9-0.2,1.1-0.6,1-1.3
			c-0.1-2.6-0.3-5.3-0.1-7.9c0.1-1.3-0.6-2.8,1-3.8c0,1.4,0,2.9,0,4.3c0,4.5,0,9-0.1,13.5c0,0.9-0.4,1.8-0.6,2.7
			C50.6,76.9,50.3,76.9,50.1,76.9z"/>
		<path class="st11" d="M50.8,77c0.2-0.9,0.6-1.8,0.6-2.7c0.1-4.5,0.1-9,0.1-13.5c0.2,0,0.4,0,0.6,0c0,6.4,0,12.9,0,19.3
			c-0.2-0.4-0.4-0.7-0.6-1.1C51.2,78.3,51,77.6,50.8,77z"/>
		<path class="st65" d="M60.7,81.6c1.6-2.2,3-2.6,4.8-1.2c0.2,0.1,0.1,0.5,0.2,0.7c0,0,0,0,0,0c-0.2,0.2-0.4,0.4-0.7,0.5
			c-0.2,0.5-0.4,1-0.6,1.6c-0.6,0.2-1.2,0.3-1.9,0.5C62.7,82.5,61.3,82.3,60.7,81.6z"/>
		<path class="st82" d="M62.6,83.7c0.6-0.2,1.2-0.3,1.9-0.5c1.6-0.1,2.3-0.9,2.5-2.1c0.6,0.5,1.2,1,1.8,1.5
			c-0.4,0.4-0.9,0.7-1.3,1.1c-0.4-0.8-0.8-0.4-1.2,0.1l0,0c-0.8,0.3-1.6,0.6-2.5,0.8c-0.4,0.1-0.8-0.1-1.3-0.1
			C62.6,84.1,62.6,83.9,62.6,83.7z"/>
		<path class="st216" d="M61.9,84.2c0,0.3-0.1,0.6-0.1,0.9c-0.2-0.2-0.4-0.3-0.6-0.5C61.5,84.5,61.7,84.4,61.9,84.2z"/>
		<path class="st201" d="M60.8,86.2c0.1-0.1,0.2-0.2,0.3-0.2c0,0,0,0.1-0.1,0.1C60.9,86.2,60.9,86.2,60.8,86.2L60.8,86.2z"/>
		<path class="st124" d="M52.1,60.7c-0.2,0-0.4,0-0.6,0c0-1.4,0-2.9,0-4.3c0-0.1,0-0.3,0-0.4c1.7,0.9,3.3,1.8,5,2.7
			c0.1,1.2,0.9,2.6-0.8,3.6c-0.4-0.2-0.8-0.4-1.3-0.6c-0.5-0.4-1.1-0.7-1.6-1.1C52.6,60.5,52.3,60.7,52.1,60.7z"/>
		<path class="st151" d="M66.3,83.7c0.4-0.5,0.8-0.8,1.2-0.1C67.1,83.7,66.7,83.7,66.3,83.7z"/>
		<path class="st67" d="M67.6,80c-1.5-0.7-2.9-1.4-4.4-2.1c0.3-0.3,0.6-0.7,1-1c0.8-0.7,1.5-0.7,2.4-0.1c0.8,0.5,1.7,0.9,2.5,1.4
			C68.6,78.8,68.1,79.4,67.6,80z"/>
		<path class="st140" d="M65.1,47.3c-2.9-1.3-5.8-2.7-8.7-4c-1.5-0.7-2.9-1.5-4.3-2.3c0.5,0,1-0.2,1.4,0c1,0.4,2.1,0.8,2.9,1.4
			c1,0.7,1.7,0.7,2.6-0.1c0.8-0.7,1.8-0.5,1.7,0.4c-0.2,1.9,1.3,2.5,2.7,3.4C64,46.3,64.5,46.8,65.1,47.3z"/>
		<path class="st89" d="M53.3,54c-1.8-0.3-3.5-0.8-4.6-2.2c-0.2-0.2-0.7-0.3-1-0.4c-0.1-0.1-0.2-0.3-0.3-0.4
			c-0.8-1.1-0.8-2.1,0.2-2.8c1.2-0.9,1.4,0.6,2.1,0.7c0.4,0.1,0.7,0.3,1.1,0.4c1.3,1.7,3.6,2.2,5.6,3.1C55.8,53.5,54.6,53.8,53.3,54
			z"/>
		<path class="st39" d="M56.4,52.4c-2-0.9-4.3-1.4-5.6-3.1c0-0.8,0.4-1.3,1.2-1.5c2.3,0.7,4.7,1.2,6.2,3.1
			C57.6,51.4,57,51.9,56.4,52.4z"/>
		<path class="st44" d="M30.9,59.2c0-0.5,0-1.1,0-1.6c0.4-0.2,0.8-0.4,1.2-0.6l0.1,0C32.2,58,32.1,58.8,30.9,59.2z"/>
		<path class="st132" d="M27.8,43c0.2,0,0.4,0,0.6,0c-0.1,1.3-0.7,2.1-2.4,2.1c-0.2-0.2-0.4-0.4-0.5-0.6c0-0.2,0-0.3,0.1-0.5
			c0.2,0,0.4,0,0.5-0.1C26.9,44.2,27.4,43.8,27.8,43L27.8,43z"/>
		<path class="st137" d="M26,44c-0.2,0-0.4,0.1-0.5,0.1c-0.7-0.1-1.3-1-2,0c-0.2-0.3-0.5-0.6-0.7-1c0.5-0.1,0.9-0.1,1.4-0.2
			c0.6,0,1.2,0,1.8,0C26,43.4,26,43.7,26,44z"/>
		<path class="st89" d="M23.5,44.1c0.6-1,1.3-0.1,2,0c0,0.2,0,0.3-0.1,0.5C24.8,44.4,24.1,44.3,23.5,44.1z"/>
		<path class="st29" d="M47.6,14.9c0,0.2,0,0.3,0,0.5c-0.4,0.7-0.7,1.4-1.1,2.1c0-1-0.3-1.6-1.7-1.6c-2.1,0.1-4.3,0-6.4,0
			c-4.4,0.1-4.5-0.8-4.1,3.7l-0.2-0.1c-2.3,0.2-4.6,0.3-6.9,0.5c0,0,0,0,0,0c0-0.2,0-0.4,0-0.7c0.1-0.9-0.3-1.5-1.5-1.5
			c-1.5,0-3.1,0-4.6,0c0-0.2,0-0.4,0.1-0.6c2.7-0.1,5.4-0.3,8.1-0.3c4.5-0.1,4.4-0.1,4.2-3.9c-0.1-1.1-0.5-1.5-1.9-1.5
			c-3.5,0-7,0-10.5,0c0-0.2,0-0.3,0-0.5c0.8-0.1,1.9,0.3,2.5-0.6c0.2-0.3,0.4-0.7,0.6-1c0.4,0,0.9,0,1.3,0c0.7,0.4,1.2,0.9,2.2,1.2
			c2.7,0.6,5.2,0.1,7.8-0.1c1.5,0,2.9,0,4.4,0c2.1,0.1,4.2,0.8,6.4,0.4c0.2,0,0.3-0.2,0.4-0.3c1,1.2,0.9,2.4,0,3.6
			c0-0.3,0-0.5,0-0.8c-0.2-1.7-0.2-1.8-2-1.8c-2.8,0-5.6,0-8.3,0c-1.8,0-2,0.2-2,1.6c0,1.3,0.1,1.5,1.8,1.5c3.5,0,7,0,10.5,0
			C46.8,14.9,47.2,14.9,47.6,14.9z"/>
		<path class="st179" d="M27.2,19.5c0,0.2,0,0.4,0,0.7c-1.4,0-2.8-0.1-4.2,0c-0.4,0-0.8,0.5-1.2,0.8c0.4,0.2,0.7,0.6,1.1,0.7
			c1,0.1,2,0,3,0c1.3,0,1.4-0.7,1.3-1.5c2.3-0.2,4.6-0.3,6.9-0.5c0,1.4,0.1,2.8,0.1,4.2c-0.5,0.2-1.1,0.5-1.6,0.5
			c-5.3,0-10.6,0-15.9-0.1c0-0.2,0-0.3,0-0.5c0-1.4,0-2.8,0-4.2c0.4-0.7,0.8-1.4,1.2-2.1c0.7,0,1.3,0,2,0c0.2,0.2,0.3,0.3,0.5,0.5
			c0.1,1,0.6,1.6,1.9,1.6C23.9,19.5,25.5,19.5,27.2,19.5z M26.9,23.7C26.9,23.7,26.9,23.7,26.9,23.7c1.7,0,3.5,0,5.2,0
			c0.4,0,1-0.3,1.1-0.6c0.2-0.7-0.4-0.9-1.1-0.9c-3.3,0-6.6,0-9.9,0c-0.2,0-0.5,0-0.6,0c-0.4,0.2-0.7,0.5-1.1,0.8
			c0.4,0.2,0.7,0.6,1.1,0.6C23.4,23.8,25.2,23.7,26.9,23.7z"/>
		<path class="st172" d="M16.7,23.7c0,0.2,0,0.3,0,0.5c-4.8,0-9.5,0-14.3,0c0-0.2,0-0.3,0-0.5c0.2,0,0.4,0,0.7,0c0.6,0,1.2,0,1.8,0
			c0.9,0,1.3-0.3,1.3-1.1c0-0.5,0-1,0-1.5c0.5,0,1,0,1.5,0c1.4,0.1,1.7-0.6,1.6-1.6c1.2-0.5,2.1,0.2,3.1,0.6c0,0.8,0,1.7,0,2.5
			c0,0.7,0.4,1.1,1.3,1.1c0.6,0,1.2,0,1.8,0c0.2,0,0.4,0,0.7,0C16.3,23.7,16.5,23.7,16.7,23.7z"/>
		<path class="st194" d="M2.4,23.8c0,0.2,0,0.3,0,0.5c-2.7,0-5.4,0-8.1,0c0-0.9,0.6-1.3,1.6-1.6c2.6-0.6,2.7-0.8,2.7-3
			c0-0.8-0.1-1.5-0.1-2.3c0.1-0.1,0.1-0.3,0.1-0.5c0.2,0,0.4,0,0.5,0c0.1,0.7,0.7,0.9,1.4,1.1c0.4,0.1,0.7,0.6,1.1,1
			c0,0.2,0,0.3,0,0.5C2.1,20.9,1.1,22.5,2.4,23.8L2.4,23.8z"/>
		<path class="st77" d="M47.6,14.9c-0.4,0-0.8,0-1.2-0.1c0-0.2,0.1-0.3,0.1-0.5c0.9-1.2,1-2.4,0-3.6c0-0.7,0-1.4,0-2.1
			c0.1-0.4,0.3-0.7,0.2-1.1c-0.1-0.4-0.5-0.7-0.8-1.1c0.8-1,0.8-2.1,0-3.1c0.8-1.1,1.5-2.3,0.6-3.6c0-2.2,0-4.5,0-6.7
			c0.4-0.2,0.8-0.4,1.3-0.5c0,0.2,0.1,0.3,0.1,0.5c0,6-0.1,12-0.1,18C47.7,12.3,47.6,13.6,47.6,14.9z"/>
		<path class="st77" d="M46.4,23.7c0-1.4,0-2.8,0-4.2c0.1-0.7,0.1-1.4,0.2-2.1c0.4-0.7,0.7-1.4,1.1-2.1c0,2.6,0.1,5.3,0,7.9
			C47.6,24.1,47.2,24.5,46.4,23.7z"/>
		<path class="st128" d="M52,47.7c-0.8,0.3-1.3,0.8-1.2,1.5c-0.4-0.1-0.7-0.4-1.1-0.4c-0.8-0.1-1-1.6-2.1-0.7c-1,0.7-1,1.7-0.2,2.8
			c0.1,0.1,0.2,0.3,0.3,0.4c-2.4,0.4-2.4,0.4-2.5,2.2c-0.1,4.5,0,9-0.1,13.5c-0.2-0.5-0.5-1.1-0.5-1.6c0-6.4-0.1-12.8,0-19.2
			c0-0.7,0.4-1.4,0.7-2.2c1.5,0.7,3,1.4,4.4,2.2C50.5,46.7,51.3,47.2,52,47.7z"/>
		<path class="st193" d="M45.3,44.1c-0.2,0.7-0.7,1.4-0.7,2.2c-0.1,6.4,0,12.8,0,19.2c0,0.5,0.4,1.1,0.5,1.6c0,0.2,0.1,0.3,0.1,0.5
			c-1.1,0-2.1,0-3.2,0c1.3-0.6,1.9-1.4,1.8-2.8c-0.2-4.1-0.1-8.1-0.2-12.2c-0.2-0.4-0.3-0.8-0.5-1.1c0-0.9,0-1.7-0.1-2.6
			c0-0.2,0-0.4,0-0.6c0.5-1.6,1.2-3.1-0.1-4.7C44.1,43.4,44.8,43.3,45.3,44.1z"/>
		<path class="st28" d="M40.3,47.3c0.6-0.3,1.2-0.4,1.7,0.2c0.3,0.3,0.9,0.5,1.3,0.7c0,0.2,0,0.4,0,0.6c-0.8,0.2-1.7,0.1-2.3,0.5
			c-1.4,0.9-3.1,0.6-4.5,1c-0.2,0.1-0.5-0.1-0.8-0.2c0.2-0.2,0.3-0.5,0.5-0.6c0.7-0.4,1.5-0.8,2.2-1.2c0.4-0.2,0.8-0.4,1.2-0.6
			c0,0,0,0,0,0C39.9,47.6,40.1,47.4,40.3,47.3z"/>
		<path class="st128" d="M26,44c0-0.3,0-0.7,0-1l0,0c0.2,0,0.5,0,0.7-0.1c0.4,0,0.7,0.1,1.1,0.1C27.4,43.8,26.9,44.2,26,44z"/>
		<path class="st14" d="M26,43c-0.6,0-1.2,0-1.8,0c0.6-0.1,1.2-0.3,1.7-0.4C25.9,42.7,26,42.9,26,43L26,43z"/>
		<path class="st137" d="M26,43c0-0.1,0-0.3,0-0.4c0.2,0.1,0.5,0.3,0.7,0.4C26.4,43,26.2,43,26,43z"/>
		<path class="st49" d="M28.5,63.2c-0.7,0.3-0.7,0.8-0.2,1.2c1.6,1.2,1.7,2.5,0.8,4.1c-1.1-0.4-2.2-0.8-3.2-1.3
			c-0.3-0.2-0.5-0.7-0.5-1c-0.1-1.8,0-3.6,0-5.4C26.4,61.6,27.4,62.4,28.5,63.2z"/>
		<path class="st15" d="M28.5,63.2c-1-0.8-2.1-1.7-3.1-2.5c-0.2-0.2-0.4-0.3-0.6-0.5c0-0.2,0-0.3-0.1-0.5c-0.2-1.4-0.1-1.5,1.1-1.1
			c0.7,0.2,1.4,0.6,2.1,0.9c0.6,0.3,1.2,0.5,1.8,0.8c0.8,0.7,1.6,1.4,2.5,2c-0.6,0.4-1.2,0.7-1.9,1.1C29.7,63.3,29.1,63.3,28.5,63.2
			z"/>
		<path class="st19" d="M79.3,14.4c-0.9,0-1.8,0-2.7,0c-1.8-0.1-1.8-0.1-2.2-2.1c0.2-0.7,0.3-1.4,0.7-2.1c0.3-0.6,0.8-1,1.2-1.5
			c0.8,0.2,1.6,0.4,2.4,0.5c0.8,0.1,1.3,0.3,1.3,1c-0.8,0.5-0.7,1.2-0.4,1.8c0.3,0.6,0.7,1.2,1,1.8C80.2,14,79.8,14.2,79.3,14.4z"/>
		<path class="st61" d="M79.3,14.4c0.4-0.2,0.8-0.3,1.2-0.5c1.2,0.7,2.5,0.7,3.7,0c0.4,0.2,0.8,0.3,1.2,0.5c0,0.7,0,1.4,0,2.1
			c-0.6,1.1-1.8,1.4-3.1,1.6c-0.2,0-0.4,0-0.6,0c-1.1,0-2.6,0.4-1.9-1.5C80.1,15.9,79.5,15.1,79.3,14.4z"/>
		<path class="st221" d="M32.7,63.5c0,1.6,0,3.2,0.1,4.8c0.1,0.8,0.5,1.6,0.7,2.4c-0.1,0.5-0.1,1-0.3,1.5c-0.5,1.2,0.5,1.1,1.3,1.3
			c-0.6,0.5-1.2,1-1.8,1.5c-0.2-0.5-0.6-0.9-0.6-1.4c-0.1-3.1,0-6.1,0-9.2C32.2,64.1,32.5,63.8,32.7,63.5z"/>
		<path class="st50" d="M66.9,81.1c-0.2,1.2-0.9,2-2.5,2.1c0.2-0.5,0.4-1,0.6-1.6c1.1,0.6,0.4-0.4,0.7-0.5c0,0,0,0,0,0
			C66.1,81.1,66.5,81.1,66.9,81.1z"/>
		<path class="st61" d="M65.7,81.1c-0.2,0.2,0.4,1.1-0.7,0.5C65.3,81.4,65.5,81.3,65.7,81.1z"/>
		<path class="st49" d="M43.8,52.5c-1.4,0.5-2.8,1-4.2,1.5c0-0.1-0.1-0.2-0.1-0.2c-0.4-0.5-1.2-1-1.1-1.4c0.1-0.7,2-1.4,3-1.3
			c0.7,0.1,1.4,0.2,2,0.3C43.5,51.7,43.7,52.1,43.8,52.5z"/>
		<path class="st48" d="M20.4,18c-0.2-0.2-0.3-0.3-0.5-0.5c0-0.2-0.1-0.4-0.1-0.5c0-0.2,0-0.3,0-0.5c0-0.4,0-0.8,0-1.1
			c0-0.2,0-0.3-0.1-0.5c0.2-1,0-1.6-1.4-1.6c-1.4,0-1.7,0.6-1.4,1.6c-0.1,0.1-0.1,0.3-0.1,0.5l-0.2,0.1c-0.2,0-0.3,0-0.5,0
			c0-0.2-0.1-0.3-0.2-0.5c0.2-2.5,0.2-2.5-2.3-2.7c-0.4-0.2-0.9-0.3-1.3-0.5c-1,0-2,0-3,0C7.9,11.7,8,12.5,8,13.3c-0.5,0-1,0-1.5,0
			C5,13.2,4.7,13.9,5,14.9c0.2,0.2,0.3,0.4,0.5,0.6c0,0.8-0.6,1-1.4,1c-0.2,0-0.3,0-0.5-0.1c0-0.3,0-0.6,0-0.9c0-0.2,0-0.4,0-0.6
			c0-0.2,0-0.3,0-0.5c-0.4-1.2-0.5-1.2-1.8-0.5c0,0.4,0,0.7,0.1,1.1c-0.1,0.2-0.1,0.3-0.1,0.5l0,0c-1.2-0.7-0.5-1.7-0.6-2.6
			c-0.1-0.7-0.4-1.1-1.3-1.1c-0.6,0-1.2,0-1.8,0c0-0.2-0.1-0.4,0-0.5c0.4-0.2,0.8-0.4,1.3-0.6c1.6,0.2,3.2,0.5,4.8,0.5
			c5.6,0.1,11.3,0,16.9,0c0,0.2,0,0.3,0,0.5c0,1.9,0,3.8,0,5.7c0,0.2,0,0.4-0.1,0.6C20.8,18,20.6,18,20.4,18z"/>
		<path class="st137" d="M-0.7,9.7c0-0.9,0-1.8,0-2.6c0.5,0.1,1,0.3,1.5,0.3c3.6-0.1,7.3-0.2,10.9-0.2c0.2,0.2,0.4,0.4,0.6,0.5
			c0,0.2,0,0.3,0,0.5c-0.2,0.2-0.4,0.4-0.6,0.5c-3,0-5.9,0-8.9,0c-0.9,0-1.7,0.1-1.7,1C0.5,9.7-0.1,9.7-0.7,9.7z"/>
		<path class="st93" d="M11.7,8.6c0.2-0.2,0.4-0.4,0.6-0.5c0,0.2,0,0.3,0,0.5c0.1,0.7-0.4,1.7,0.8,2c0.9,0.2,1.9,0.2,2.7,0
			c0.7-0.2,1.2-1.1,1.8-1.1c0.6,0,1.2,1,1.8,1.1c1.3,0.2,2.7,0.1,4,0.1c-0.6,0.9-1.6,0.4-2.5,0.6c-5.6,0-11.3,0-16.9,0
			c-1.6,0-3.2-0.3-4.8-0.5c0-0.3,0-0.7,0-1c0.6,0,1.2,0,1.8,0c0.1,0.9,0.8,1.1,1.7,1.1c2.2,0,4.3,0,6.5,0
			C11.5,10.7,11.5,10.7,11.7,8.6z"/>
		<path class="st100" d="M-2,11.8c0.6,0,1.2,0,1.8,0c0.9,0,1.2,0.4,1.3,1.1c0.1,0.9-0.5,1.9,0.6,2.6c0,0.4,0,0.7,0,1.1
			c-0.2,0-0.5,0-0.7,0c-0.6,0-1.1,0-1.7,0c-0.2,0-0.4,0-0.7,0c0-0.3,0-0.7,0-1c0-0.2,0-0.3,0-0.5c0.2-0.3,0.5-0.6,0.4-0.8
			C-1.2,13.3-1.6,12.5-2,11.8z"/>
		<path class="st103" d="M11.7,7.1C8.1,7.2,4.4,7.3,0.8,7.3c-0.5,0-1-0.2-1.5-0.3c0-0.2,0-0.3,0-0.5C0.1,6.4,0.9,6.2,1.8,6
			c0.6,0.2,1.3,0.5,1.9,0.5c2.7,0.1,5.3,0,8,0C11.7,6.7,11.7,6.9,11.7,7.1z"/>
		<path class="st174" d="M1.8,6C0.9,6.2,0.1,6.4-0.7,6.5c0-0.2,0-0.3,0-0.5c0-0.2,0-0.3,0-0.5c0.8,0,1.7,0,2.5,0
			C1.8,5.7,1.8,5.9,1.8,6L1.8,6z"/>
		<path class="st92" d="M24.1,9.7c-0.4-1-1.5-1-2.5-1c-3.1,0-6.1,0-9.2,0c0-0.2,0-0.3,0-0.5c0-0.2,0-0.3,0-0.5
			c1.6-0.1,3.2-0.3,4.9-0.4c0.7-0.1,1.5-0.2,2.1,0c2.3,0.7,4.4,0.3,6.6-0.1c0,0.2,0,0.3,0.1,0.5c-0.2,0.7-0.4,1.4-0.7,2.1
			C24.9,9.7,24.5,9.7,24.1,9.7z"/>
		<path class="st19" d="M35.3,10.7c0-0.9,0-1.7,0-2.6c0.4,0,0.8,0,1.2,0c0.6,0.2,1.3,0.5,1.9,0.5c1.4,0.1,2.9,0,4.3,0
			C42.8,8.8,42.9,9,43,9.1c0.2,0.3,0.4,0.6,0.6,0.9c-0.3,0.1-0.6,0.2-0.9,0.1c-1.2-0.3-2.2-0.2-3.1,0.6
			C38.2,10.7,36.7,10.7,35.3,10.7z"/>
		<path class="st15" d="M39.6,10.7c0.9-0.8,1.9-0.9,3.1-0.6c0.3,0.1,0.6-0.1,0.9-0.1c-0.2-0.3-0.4-0.6-0.6-0.9
			c-0.1-0.2-0.2-0.3-0.3-0.5c1.2,0,2.5,0,3.7,0c0,0.7,0,1.4,0,2.1c-0.1,0.1-0.3,0.3-0.4,0.3C43.9,11.5,41.8,10.8,39.6,10.7z"/>
		<path class="st56" d="M20.4,18c0.2,0,0.4,0,0.6,0c1.5,0,3.1,0.1,4.6,0c1.3,0,1.6,0.5,1.5,1.5c-1.6,0-3.3,0.1-4.9,0.1
			C21,19.6,20.5,19,20.4,18z"/>
		<path class="st102" d="M4.1,16.5c0.8,0,1.3-0.2,1.4-1c0.8,0,1.6-0.1,2.5-0.1c0.5,0,0.9,0,1.4,0c1,0,2,0,3,0l0.1,0.1
			c-0.1,0.7,0.4,0.9,1.1,0.9c0.9,0,1.7,0,2.6,0c0.2,0,0.3,0,0.5,0l0.2,0.1c-0.1,0.1-0.1,0.3,0,0.4c0.4,0.2,0.8,0.4,1.2,0.6
			c-0.4,0.7-0.8,1.4-1.2,2.1c-0.2,0-0.4,0-0.7,0c-0.2,0-0.4,0-0.6,0c-0.6,0-1.2,0-1.8,0l-0.1-0.1c-0.4-0.6-0.8-0.4-1.1,0.1
			c0,0.2,0,0.4,0,0.6c-1-0.3-1.9-1-3.1-0.6c-1,0-2.1,0-3.1,0L6,19.5c-0.4-0.1-0.7-0.3-1.1-0.4c0-0.2,0-0.4,0-0.5
			c-0.4-0.2-0.8-0.4-1.2-0.6c0-0.3,0-0.6,0-0.9C3.8,16.8,4,16.7,4.1,16.5z"/>
		<path class="st39" d="M26.9,23.7c-1.7,0-3.5,0-5.2,0c-0.4,0-0.7-0.4-1.1-0.6c0.4-0.3,0.7-0.6,1.1-0.8c0.1-0.1,0.4,0,0.6,0
			c3.3,0,6.6,0,9.9,0c0.7,0,1.3,0.2,1.1,0.9c-0.1,0.3-0.7,0.6-1.1,0.6C30.4,23.8,28.7,23.7,26.9,23.7C26.9,23.7,26.9,23.7,26.9,23.7
			z"/>
		<path class="st86" d="M27.2,20.1c0.1,0.8,0,1.6-1.3,1.5c-1,0-2,0.1-3,0c-0.4,0-0.7-0.4-1.1-0.7c0.4-0.3,0.8-0.8,1.2-0.8
			C24.4,20.1,25.8,20.1,27.2,20.1L27.2,20.1z"/>
		<path class="st43" d="M16,19.6c0.2,0,0.4,0,0.7,0c0,1.4,0,2.8,0,4.2c-0.2,0-0.4,0-0.6,0C16,22.4,16,21,16,19.6z"/>
		<path class="st118" d="M17.9,17.5c-0.4-0.2-0.8-0.4-1.2-0.6c1,0,2,0,3,0c0,0.2,0.1,0.4,0.1,0.5C19.2,17.5,18.6,17.5,17.9,17.5z"/>
		<path class="st22" d="M6.1,21.1c0,0.5,0,1,0,1.5c0,0.7-0.4,1.1-1.3,1.1c0-0.3,0-0.7,0-1c0-0.2,0-0.4,0-0.6c0-0.3,0-0.6,0-1
			c0-0.2,0-0.4,0-0.6c0-0.4,0-0.7,0-1.1c0.4,0,0.7-0.1,1.1-0.1c0,0,0.1,0.1,0.1,0.1C6.1,20.1,6.1,20.6,6.1,21.1z"/>
		<path class="st178" d="M12.3,20.1c0-0.2,0-0.4,0-0.6c0.4,0,0.8,0,1.1-0.1l0.1,0.1c0,0.3,0,0.7,0,1c0,0.2,0,0.4,0,0.6
			c0,0.3,0,0.7,0,1c0,0.2,0,0.4,0,0.6c0,0.3,0,0.7,0,1c-0.9,0-1.3-0.4-1.3-1.1C12.3,21.8,12.3,21,12.3,20.1z"/>
		<path class="st68" d="M6.1,21.1c0-0.5,0-1,0-1.5c1,0,2.1,0,3.1,0c0.1,1-0.2,1.7-1.6,1.6C7.1,21.1,6.6,21.1,6.1,21.1z"/>
		<path class="st120" d="M13.6,22.7c0-0.2,0-0.4,0-0.6c0.2,0,0.4,0.1,0.6,0c0.3-0.1,0.7-0.2,1-0.4c-0.3-0.2-0.7-0.4-1-0.6
			c-0.2-0.1-0.4,0-0.6,0c0-0.2,0-0.4,0-0.6c0.8,0,1.8,0.2,1.8-1c0.2,0,0.4,0,0.6,0c0,1.4,0,2.8,0.1,4.2c-0.2,0-0.4,0-0.7,0
			C15.4,22.6,14.5,22.7,13.6,22.7z"/>
		<path class="st20" d="M3,22.7c0,0.3,0,0.7,0.1,1c-0.2,0-0.4,0-0.7,0l0,0C2.6,23.4,2.8,23,3,22.7z"/>
		<path class="st156" d="M3.6,17c0,0.3,0,0.6,0,0.9c-0.2,0-0.4,0.1-0.6,0.1c-0.2,0.3-0.4,0.6-0.7,0.9c0,0,0,0.2,0,0.2
			c-0.2,0-0.4,0-0.6-0.1c-0.4-0.3-0.7-0.9-1.1-1c-0.8-0.2-1.4-0.3-1.4-1.1l0.1-0.1c0.6-0.2,1.2-0.3,1.8-0.5c0.2,0,0.5,0,0.7,0l0,0
			C2.4,16.6,3,16.8,3.6,17z"/>
		<path class="st102" d="M3,22.7c-0.2,0.4-0.4,0.7-0.6,1.1c-1.3-1.3-0.3-2.8-0.6-4.2c0.2,0,0.4,0,0.6,0c0,0,0,0.1,0,0.1
			c0.2,0.3,0.4,0.7,0.6,1c0,0.2,0,0.3,0,0.5l0,0c-0.7,0.4-0.7,0.7,0,1.1l0,0C3,22.4,3,22.5,3,22.7L3,22.7z"/>
		<path class="st42" d="M2.4,19.5c-0.2,0-0.4,0-0.6,0c0-0.2,0-0.3,0-0.5c0.2,0,0.4,0,0.6,0.1C2.4,19.2,2.4,19.4,2.4,19.5z"/>
		<path class="st65" d="M-0.7,0.8c0.1-0.3,0.1-1,0.2-1c0.9-0.1,1.8-0.1,2.8-0.1c14.7,0,29.4,0,44.2,0c0.9,1.3,0.2,2.5-0.6,3.6
			c-0.6-1.5-1.5-2.5-3.7-2.1c-0.1,0-0.4-0.3-0.6-0.4c0.2-0.1,0.4-0.1,0.6-0.2c0.1,0,0-0.3,0-0.3c-2.3-0.1-4.6-0.3-6.8,0.4
			c-2.7,0.2-5.5,0.4-8.2,0.5C25.9,1.4,26,2.2,26,2.9c0,0.4,0,0.7,0,1.1c0,0.2,0,0.3,0,0.5c0,0.4,0,0.7,0,1.1
			c-0.2,0.2-0.4,0.3-0.6,0.5c-0.8-0.2-1.7-0.3-2.5-0.5c0-0.2,0-0.3,0-0.5c0.9-0.8,0.2-1-0.6-1c-3.3,0-6.6,0-9.9,0
			c-0.2-0.4-0.4-0.7-0.6-1.1c-0.4-1.5-1-2-2.1-1.9C7,1.1,4.4,1.2,1.8,1.3C0.9,1.2,0.1,1-0.7,0.8z"/>
		<path class="st93" d="M35.3,0.8c2.2-0.7,4.5-0.5,6.8-0.4c0,0,0.1,0.3,0,0.3c-0.2,0.1-0.4,0.1-0.6,0.2C41.7,1,42,1.3,42.1,1.3
			c2.2-0.4,3.1,0.6,3.7,2.1c0.8,1,0.9,2.1,0,3.1c-0.4,0-0.8,0-1.2,0.1c-1.4,0.4-2.7,1.6-4.2,0.1c-0.1-0.1-0.6,0.1-0.7,0.3
			c-0.5,0.6-1.1,0.5-1.9,0.4c-0.4,0-0.9,0.4-1.3,0.7c-0.4,0-0.8,0-1.2,0l0-0.1c-0.2-0.2-0.4-0.3-0.6-0.5c0.1-0.3,0.1-0.7,0.3-1
			c0.9-0.9,0.5-1.1-0.7-1.1c-2.8,0-5.6,0-8.3,0c0-0.4,0-0.7,0-1.1c2.7,0.8,5.5,0.5,8.3,0.5c0.6,0,1.1-0.6,1.7-1
			c-0.2-0.5-0.4-1-0.6-1.6C35.3,1.9,35.3,1.3,35.3,0.8z"/>
		<path class="st60" d="M36.5,8.1c0.4-0.2,0.9-0.7,1.3-0.7c0.7,0.1,1.4,0.2,1.9-0.4c0.1-0.2,0.7-0.3,0.7-0.3
			c1.5,1.4,2.8,0.3,4.2-0.1c0.4-0.1,0.8,0,1.2-0.1c0.3,0.4,0.7,0.7,0.8,1.1c0.1,0.3-0.1,0.7-0.2,1.1c-1.2,0-2.5,0-3.7,0
			c-1.4,0-2.9,0.1-4.3,0C37.8,8.6,37.1,8.3,36.5,8.1z"/>
		<path class="st174" d="M-0.7,0.8C0.1,1,0.9,1.2,1.8,1.3c0,0,0,0,0,0C1.4,1.6,1.1,1.8,0.7,2c0.3,0.1,0.7,0.3,1,0.4
			c0,0.2,0,0.4,0,0.5c-0.3,0.2-0.7,0.4-1,0.7C0.8,3.6,0.9,3.7,1,3.7c0.3-0.3,0.5-0.6,0.8-0.8c1.1,0,2.2,0,3.3,0c2.2,0,4.4,0,6.6,0
			c0.2,0.4,0.4,0.7,0.6,1.1c0,0.2,0,0.3,0,0.5l0,0.1c-0.2,0.2-0.4,0.3-0.6,0.5C8.6,5,5.5,5.1,2.5,4.8C1.4,4.8,0.4,4.9-0.7,5
			C-0.7,3.6-0.7,2.2-0.7,0.8z"/>
		<path class="st11" d="M-0.7,5c1.1-0.1,2.1-0.2,3.2-0.1C5.5,5.1,8.6,5,11.7,5c0,0.2,0,0.4,0,0.5c0,0-0.1,0.1-0.1,0.1
			c-3.3,0-6.6,0-9.9,0c-0.8,0-1.7,0-2.5,0C-0.7,5.3-0.7,5.2-0.7,5z"/>
		<path class="st14" d="M5,14.9c-0.3-1,0-1.7,1.5-1.6c0.5,0,1,0,1.5,0c0,0.5,0,1.1-0.1,1.6C6.9,14.9,6,14.9,5,14.9z"/>
		<path class="st13" d="M16.8,14.9c-0.3-1,0-1.6,1.4-1.6c1.5,0,1.6,0.6,1.4,1.6C18.7,14.9,17.8,14.9,16.8,14.9z"/>
		<path class="st178" d="M12.3,11.8c0.4,0.2,0.9,0.3,1.3,0.5c0,0.4,0,0.7,0,1.1c0,0.3,0,0.7,0,1c0,0.2,0,0.4,0,0.6
			c0,0.2,0,0.3,0,0.5l-0.1,0.1c-0.4,0-0.7,0-1.1,0l-0.1-0.1c0-0.2,0-0.3-0.1-0.5c0-0.5,0-1.1,0.1-1.6c0-0.4,0-0.7,0-1.1
			C12.3,12.1,12.3,11.9,12.3,11.8z"/>
		<path class="st178" d="M7.9,14.9c0-0.5,0-1.1,0.1-1.6c0-0.8-0.1-1.6,1.3-1.5c0,0.2,0,0.3,0,0.5c0,0.4,0,0.7,0,1.1
			c0,0.5,0,1.1,0.1,1.6c-0.1,0.1-0.1,0.3,0,0.4c-0.5,0-0.9,0-1.4,0C8,15.2,8,15.1,7.9,14.9z"/>
		<path class="st141" d="M13.6,13.3c0-0.4,0-0.7,0-1.1c2.5,0.2,2.5,0.2,2.3,2.7c-0.8,0-1.5,0-2.3,0c0-0.2,0-0.4,0-0.6
			c0.2,0,0.4,0,0.6,0c0.3-0.1,0.7-0.3,1-0.4c-0.3-0.2-0.7-0.4-1-0.6C14,13.3,13.8,13.3,13.6,13.3z"/>
		<path class="st40" d="M19.7,15.4c0,0.4,0,0.8,0,1.1c-1,0-2,0-2.9,0l-0.2-0.1c0-0.3,0-0.6,0-1l0.2-0.1
			C17.7,15.4,18.7,15.4,19.7,15.4z"/>
		<path class="st178" d="M1.8,16.5c0-0.4,0-0.7,0-1.1c0,0,0,0,0,0c0.6,0,1.3,0,1.9,0.1c0,0.3,0,0.6,0,0.9C3,16.4,2.4,16.4,1.8,16.5
			C1.8,16.5,1.8,16.5,1.8,16.5z"/>
		<path class="st104" d="M1.8,16.5c0.6,0,1.2,0,1.9,0c0.2,0,0.3,0.1,0.5,0.1C4,16.7,3.8,16.8,3.6,17C3,16.8,2.4,16.6,1.8,16.5z"/>
		<path class="st44" d="M1.8,13.8C2.4,14,3,14.2,3.6,14.4c0,0.2,0,0.3,0,0.5c-0.6,0-1.2,0.1-1.8,0.1C1.9,14.6,1.8,14.2,1.8,13.8z"/>
		<path class="st34" d="M1.9,14.9c0.6,0,1.2-0.1,1.8-0.1c0,0.2,0,0.4,0,0.6c-0.6,0-1.3,0-1.9-0.1C1.8,15.2,1.8,15.1,1.9,14.9z"/>
		<path class="st143" d="M16.5,15.5c0,0.3,0,0.6,0,1c-0.2,0-0.3,0-0.5,0c0-0.4-0.1-0.7-0.1-1.1l0,0C16.2,15.4,16.4,15.4,16.5,15.5z"
			/>
		<path class="st44" d="M22.9,5.5c0.8,0.2,1.7,0.3,2.5,0.5c0.2,0.4,0.4,0.7,0.6,1.1c-2.2,0.5-4.4,0.9-6.6,0.1
			c-0.6-0.2-1.4-0.1-2.1,0c-1.6,0.1-3.2,0.3-4.9,0.4c-0.2-0.2-0.4-0.4-0.6-0.5c0-0.2,0-0.4,0-0.5c0-0.2,0-0.4,0-0.5c0,0,0,0,0,0
			c1.7-0.2,3.4-0.4,5.1-0.5C18.8,5.4,20.8,5.5,22.9,5.5z"/>
		<path class="st36" d="M11.7,6c0,0.2,0,0.4,0,0.5c-2.7,0-5.3,0-8,0C3.1,6.5,2.4,6.2,1.8,6c0,0,0,0,0,0C5.1,6,8.4,6,11.7,6z"/>
		<path class="st106" d="M25.9,7.1c-0.2-0.4-0.4-0.7-0.6-1.1c0.2-0.2,0.4-0.3,0.6-0.5c2.8,0,5.6,0,8.3,0c1.1,0,1.6,0.2,0.7,1.1
			c-0.2,0.2-0.2,0.6-0.3,1c-2.7,0-5.4,0-8,0c-0.2,0-0.4,0-0.6,0C26,7.4,26,7.3,25.9,7.1z"/>
		<path class="st92" d="M26.6,7.6c2.7,0,5.4,0,8,0c0.2,0.2,0.4,0.3,0.6,0.5c-2.4,0-4.7,0-7.1,0C27.7,8.1,27.1,7.8,26.6,7.6z"/>
		<path class="st64" d="M16,15.4c0,0.4,0.1,0.7,0.1,1.1c-0.9,0-1.7,0-2.6,0c0-0.3,0-0.6,0-1l0.1-0.1C14.4,15.4,15.2,15.4,16,15.4z"
			/>
		<path class="st84" d="M2.4,19.5c0-0.1,0-0.3,0-0.4l0-0.2c0.8,0,1.6,0.1,2.5,0.1c0.4,0.1,0.7,0.3,1.1,0.4c-0.4,0-0.7,0.1-1.1,0.1
			c-0.6,0-1.3,0-1.9,0c-0.2,0-0.4,0-0.6,0.1L2.4,19.5z"/>
		<path class="st86" d="M4.9,19.1C4.1,19,3.2,19,2.4,19c0.2-0.3,0.4-0.6,0.7-0.9c0.6,0.2,1.2,0.3,1.8,0.5
			C4.9,18.7,4.9,18.9,4.9,19.1z"/>
		<path class="st168" d="M13.4,15.5c0,0.3,0,0.6,0,1c-0.7,0-1.2-0.3-1.1-0.9C12.7,15.5,13.1,15.5,13.4,15.5z"/>
		<path class="st221" d="M13.5,19.5c-0.4,0-0.8,0-1.1,0.1C12.7,19.1,13.1,18.9,13.5,19.5z"/>
		<path class="st58" d="M3,19.5c0.6,0,1.3,0,1.9,0c0,0.4,0,0.7,0,1.1c-0.4,0.2-0.8,0.3-1.2,0.5c-0.2,0-0.4,0-0.6,0
			c0-0.2,0-0.3,0-0.5C3,20.3,3,19.9,3,19.5z"/>
		<path class="st20" d="M3,22.2c0.6,0,1.2,0,1.8-0.1c0,0.2,0,0.4,0,0.6c-0.6,0-1.2,0-1.8-0.1C3,22.5,3,22.4,3,22.2z"/>
		<path class="st20" d="M4.8,21.2c-0.4,0-0.8,0-1.2-0.1c0.4-0.2,0.8-0.3,1.2-0.5C4.9,20.8,4.8,21,4.8,21.2z"/>
		<path class="st20" d="M3,19.5c0,0.4,0,0.7,0,1.1c-0.2-0.3-0.4-0.7-0.6-1C2.6,19.6,2.8,19.6,3,19.5z"/>
		<path class="st20" d="M3,21.1c0,0.4,0,0.7,0,1.1C2.3,21.8,2.3,21.5,3,21.1z"/>
		<path class="st65" d="M35.3,0.8c0,0.5,0,1,0,1.6c-1,0.2-1.9,0.5-2.9,0.5c-2.1,0.1-4.3,0-6.4,0c0-0.7-0.1-1.5,1.1-1.5
			C29.8,1.2,32.5,1,35.3,0.8z"/>
		<path class="st65" d="M11.7,2.9c-2.2,0-4.4,0-6.6,0c-1.1,0-2.2,0-3.3,0l0,0c0-0.2,0-0.4,0-0.5c0-0.3,0-0.7,0-1l0,0
			C4.4,1.2,7,1.1,9.6,1C10.8,0.9,11.3,1.4,11.7,2.9z"/>
		<path class="st86" d="M26,2.9c2.1,0,4.3,0.1,6.4,0c1,0,1.9-0.3,2.9-0.5c0.2,0.5,0.4,1,0.6,1.6c-3.3,0-6.6,0-9.9,0
			C26,3.6,26,3.3,26,2.9z"/>
		<path class="st63" d="M12.3,4.4c0-0.2,0-0.3,0-0.5c3.3,0,6.6,0,9.9,0c0.8,0,1.6,0.2,0.6,1C19.3,5,15.8,5.2,12.3,4.4z"/>
		<path class="st93" d="M12.3,4.4c3.5,0.8,7,0.5,10.5,0.5c0,0.2,0,0.3,0,0.5c-2,0-4.1-0.1-6.1,0c-1.7,0.1-3.4,0.3-5.1,0.5
			c0-0.2,0-0.3,0-0.5l0.1-0.1C11.9,5.2,12.1,4.8,12.3,4.4L12.3,4.4z"/>
		<path class="st105" d="M1.8,2.9C1.5,3.2,1.2,3.5,1,3.7C0.9,3.7,0.8,3.6,0.8,3.6C1.1,3.3,1.4,3.1,1.8,2.9C1.8,2.9,1.8,2.9,1.8,2.9z
			"/>
		<path class="st40" d="M1.8,1.3c0,0.3,0,0.7,0,1C1.4,2.2,1.1,2.1,0.7,2C1.1,1.8,1.4,1.6,1.8,1.3z"/>
		<path class="st96" d="M12.3,4.5c-0.2,0.3-0.4,0.7-0.6,1c0-0.2,0-0.4,0-0.5C11.9,4.8,12.1,4.7,12.3,4.5z"/>
		<path class="st14" d="M12.2,14.9c-1,0-1.9,0-2.9,0c0-0.5,0-1.1-0.1-1.6c1,0,2,0,3,0C12.3,13.9,12.3,14.4,12.2,14.9z"/>
		<path class="st101" d="M12.3,13.3c-1,0-2,0-3,0c0-0.4,0-0.7,0-1.1c1,0,2,0,3,0C12.3,12.6,12.3,13,12.3,13.3z"/>
	</g>
</g>
</svg>
