<?xml version="1.0" encoding="utf-8"?>
<!-- Generator: Adobe Illustrator 22.0.0, SVG Export Plug-In . SVG Version: 6.00 Build 0)  -->
<svg version="1.1" id="圖層_1" xmlns="http://www.w3.org/2000/svg" xmlns:xlink="http://www.w3.org/1999/xlink" x="0px" y="0px"
	 viewBox="0 0 100 100" style="enable-background:new 0 0 100 100;" xml:space="preserve">
<style type="text/css">
	.st0{fill:none;}
	.st1{fill:#040000;stroke:#FFFFFF;stroke-miterlimit:10;}
	.st2{display:none;fill:none;stroke:#FFFFFF;stroke-width:5;stroke-miterlimit:10;}
	.st3{display:none;fill:none;stroke:#FFFFFF;stroke-width:0.5;stroke-miterlimit:10;}
	.st4{display:none;fill:none;stroke:#FFFFFF;stroke-width:0.3;stroke-miterlimit:10;}
	.st5{display:none;fill:#040000;stroke:#FFFFFF;stroke-width:0.3;stroke-miterlimit:10;}
	.st6{display:none;}
	.st7{display:inline;}
	.st8{display:inline;clip-path:url(#SVGID_2_);}
	.st9{fill:#FFFFFF;}
	.st10{fill:#5F5F5F;}
	.st11{fill:#C4C4C4;}
	.st12{fill:#EBEBEB;}
	.st13{fill:#E6E6E6;}
	.st14{fill:#E7E7E7;}
	.st15{fill:#EAEAEA;}
	.st16{fill:#CDCDCD;}
	.st17{fill:#8E8E8E;}
	.st18{fill:#D6D6D6;}
	.st19{fill:#E9E9E9;}
	.st20{fill:#BFBFBF;}
	.st21{fill:#9B9B9B;}
	.st22{fill:#A0A0A0;}
	.st23{fill:#4C4C4C;}
	.st24{fill:#ABABAB;}
	.st25{fill:#4B4B4B;}
	.st26{fill:#E3E3E3;}
	.st27{fill:#676767;}
	.st28{fill:#969696;}
	.st29{fill:#A1A1A1;}
	.st30{fill:#E1E1E1;}
	.st31{fill:#BABABA;}
	.st32{fill:#8C8C8C;}
	.st33{fill:#DFDFDF;}
	.st34{fill:#ECECEC;}
	.st35{fill:#D8D8D8;}
	.st36{fill:#E0E0E0;}
	.st37{fill:#9A9A9A;}
	.st38{fill:#E5E5E5;}
	.st39{fill:#EFEFEF;}
	.st40{fill:#B0B0B0;}
	.st41{fill:#242424;}
	.st42{fill:#535353;}
	.st43{fill:#838383;}
	.st44{fill:#C5C5C5;}
	.st45{fill:#DBDBDB;}
	.st46{fill:#B4B4B4;}
	.st47{fill:#212121;}
	.st48{fill:#8B8B8B;}
	.st49{fill:#B6B6B6;}
	.st50{fill:#909090;}
	.st51{fill:#232323;}
	.st52{fill:#262626;}
	.st53{fill:#D7D7D7;}
	.st54{fill:#BDBDBD;}
	.st55{fill:#989898;}
	.st56{fill:#E8E8E8;}
	.st57{fill:#2D2D2D;}
	.st58{fill:#D3D3D3;}
	.st59{fill:#949494;}
	.st60{fill:#A2A2A2;}
	.st61{fill:#EEEEEE;}
	.st62{fill:#CCCCCC;}
	.st63{fill:#F1F1F1;}
	.st64{fill:#ADADAD;}
	.st65{fill:#D4D4D4;}
	.st66{fill:#353535;}
	.st67{fill:#AEAEAE;}
	.st68{fill:#E4E4E4;}
	.st69{fill:#737373;}
	.st70{fill:#898989;}
	.st71{fill:#CBCBCB;}
	.st72{fill:#C1C1C1;}
	.st73{fill:#5A5A5A;}
	.st74{fill:#7B7B7B;}
	.st75{fill:#BBBBBB;}
	.st76{fill:#888888;}
	.st77{fill:#B3B3B3;}
	.st78{fill:#979797;}
	.st79{fill:#717171;}
	.st80{fill:#787878;}
	.st81{fill:#D1D1D1;}
	.st82{fill:#DADADA;}
	.st83{fill:#999999;}
	.st84{fill:#575757;}
	.st85{fill:#202020;}
	.st86{fill:#D2D2D2;}
	.st87{fill:#7E7E7E;}
	.st88{fill:#646464;}
	.st89{fill:#D0D0D0;}
	.st90{fill:#3C3C3C;}
	.st91{fill:#A9A9A9;}
	.st92{fill:#AAAAAA;}
	.st93{fill:#C6C6C6;}
	.st94{fill:#919191;}
	.st95{fill:#464646;}
	.st96{fill:#A8A8A8;}
	.st97{fill:#BCBCBC;}
	.st98{fill:#666666;}
	.st99{fill:#DCDCDC;}
	.st100{fill:#DEDEDE;}
	.st101{fill:#D9D9D9;}
	.st102{fill:#929292;}
	.st103{fill:#C7C7C7;}
	.st104{fill:#EDEDED;}
	.st105{fill:#B1B1B1;}
	.st106{fill:#F0F0F0;}
	.st107{fill:#6E6E6E;}
	.st108{fill:#4E4E4E;}
	.st109{fill:#B9B9B9;}
	.st110{fill:#707070;}
	.st111{fill:#696969;}
	.st112{fill:#8A8A8A;}
	.st113{fill:#9E9E9E;}
	.st114{fill:#686868;}
	.st115{fill:#B2B2B2;}
	.st116{fill:#A7A7A7;}
	.st117{fill:#D5D5D5;}
	.st118{fill:#C0C0C0;}
	.st119{fill:#C3C3C3;}
	.st120{fill:#CACACA;}
	.st121{fill:#AFAFAF;}
	.st122{fill:#C9C9C9;}
	.st123{fill:#5D5D5D;}
	.st124{fill:#C2C2C2;}
	.st125{fill:#8F8F8F;}
	.st126{fill:#363636;}
	.st127{fill:#848484;}
	.st128{fill:#E2E2E2;}
	.st129{fill:#CECECE;}
	.st130{fill:#565656;}
	.st131{fill:#777777;}
	.st132{fill:#616161;}
	.st133{fill:#A6A6A6;}
	.st134{fill:#6C6C6C;}
	.st135{fill:#C8C8C8;}
	.st136{fill:#9D9D9D;}
	.st137{fill:#ACACAC;}
	.st138{fill:#BEBEBE;}
	.st139{fill:#9F9F9F;}
	.st140{fill:#B8B8B8;}
	.st141{fill:#CFCFCF;}
	.st142{fill:#A3A3A3;}
	.st143{fill:#494949;}
	.st144{fill:#424242;}
	.st145{fill:#3D3D3D;}
	.st146{fill:#B7B7B7;}
	.st147{fill:#3E3E3E;}
	.st148{fill:#7C7C7C;}
	.st149{fill:#595959;}
	.st150{fill:#252525;}
	.st151{fill:#626262;}
	.st152{fill:#1F1F1F;}
	.st153{fill:#525252;}
	.st154{fill:#747474;}
	.st155{fill:#555555;}
	.st156{fill:#959595;}
	.st157{fill:#2C2C2C;}
	.st158{fill:#2A2A2A;}
	.st159{fill:#8D8D8D;}
	.st160{fill:#9C9C9C;}
	.st161{fill:#161616;}
	.st162{fill:#939393;}
	.st163{fill:#878787;}
	.st164{fill:#B5B5B5;}
	.st165{fill:#1D1D1D;}
	.st166{fill:#4F4F4F;}
	.st167{fill:#6B6B6B;}
	.st168{fill:#727272;}
	.st169{fill:#393939;}
	.st170{fill:#6A6A6A;}
	.st171{fill:#818181;}
	.st172{fill:#828282;}
	.st173{fill:#454545;}
	.st174{fill:#DDDDDD;}
	.st175{fill:#444444;}
	.st176{fill:#171717;}
	.st177{fill:#2E2E2E;}
	.st178{fill:#A4A4A4;}
	.st179{fill:#858585;}
	.st180{fill:#A5A5A5;}
	.st181{fill:#515151;}
	.st182{fill:#505050;}
	.st183{fill:#757575;}
	.st184{fill:#797979;}
	.st185{fill:#323232;}
	.st186{fill:#585858;}
	.st187{fill:#3B3B3B;}
	.st188{fill:#808080;}
	.st189{fill:#4D4D4D;}
	.st190{fill:#4A4A4A;}
	.st191{fill:#767676;}
	.st192{fill:#636363;}
	.st193{fill:#474747;}
	.st194{fill:#7D7D7D;}
	.st195{fill:#222222;}
	.st196{fill:#272727;}
	.st197{fill:#6F6F6F;}
	.st198{fill:#5B5B5B;}
	.st199{fill:#404040;}
	.st200{fill:#2F2F2F;}
	.st201{fill:#1A1A1A;}
	.st202{fill:#6D6D6D;}
	.st203{fill:#868686;}
	.st204{fill:#484848;}
	.st205{fill:#3A3A3A;}
	.st206{fill:#0D0D0D;}
	.st207{fill:#0B0B0B;}
	.st208{fill:#383838;}
	.st209{fill:#333333;}
	.st210{fill:#1E1E1E;}
	.st211{fill:#7F7F7F;}
	.st212{fill:#303030;}
	.st213{fill:#121212;}
	.st214{fill:#101010;}
	.st215{fill:#292929;}
	.st216{fill:#181818;}
	.st217{fill:#5E5E5E;}
	.st218{fill:#434343;}
	.st219{fill:#3F3F3F;}
	.st220{fill:#7A7A7A;}
	.st221{fill:#545454;}
	.st222{fill:#191919;}
	.st223{fill:#141414;}
	.st224{fill:#2B2B2B;}
	.st225{fill:#313131;}
	.st226{fill:#1B1B1B;}
	.st227{fill:#151515;}
	.st228{fill:#1C1C1C;}
</style>
<rect x="2" y="-2.8" class="st1" width="400" height="100"/>
<path class="st3" d="M29.4,86.8c0.1,7,10.8,2.3,20.6,2c9.8-1.3,42.5-3,50-3.3s225.5-2.7,232.2-2.5s10.7,1.3,21.7,1.3
	s15.7-0.8,15.7-6.4c0-1.3-0.3-2.2-0.8-3c-2.2-3.2-10.8-2.8-12.2-2.7c-13.6,1.1-21.3,3-21.3,3s-20.2,5.1-47.3,4.7
	c-2.5,0-6.4-0.2-11.3-1.3c-3.1-0.7-9.3-2.5-16-7c-3.7-2.5-6-4-8.3-7c-4.1-5.3-3.5-9.1-7.7-14.7c-2.3-3.1-4.9-5.1-6.7-6.3
	c-8-2.8-17.7-5.5-28.8-7.4c-10.6-1.8-20.3-2.5-28.5-2.6c-10.7-6-24.7-10.7-39.7-10.7c-15,0-34,4-39.3,15.7c-4,16.3-3,30.3-13,36
	c-13,4.7-8,3.7-18,4.7s-30.9,0-36,3.8C29.4,86.8,29.4,86.8,29.4,86.8z"/>
<path class="st4" d="M112.4,35.5C107.7,43,105.9,60,102.2,67c-5.8,8.5-12,11.8-17,13s-10.5-3.4-10.8,1.8c-0.2,5.1,5.3,1.9,11.5,2.1
	s19-3.3,24.8-7.3s10.5-8.8,10.5-8.8s8-10.8,13.3-11s4.5,1.2,6.3,3.3s3,3.7,0,6.4s-11.3,8.3-11.5,14c7.8,2,20.5,3.3,26.3,0.3
	c5.3-7.3,4.5-8,10.8-9.5c9,1.3,45.8,4.5,51.8,0.5c-5.3,8.8-5.3,9-2,10c10-0.3,20.5,3,25.3-1.3c-0.5-6-5.5-7.8-3.5-11.5
	s8.3-1.5,11,0.8s6.8,6.5,11.5,8c4.8,1.5,10.8,2.5,10.8,2.5S244.2,63.5,240.2,58s-2.3-1.3-4-5.5s-9-9.3-19.5-10s-45.5-4.3-53.5-8.3
	s-7.8-4.3-13.2-6.5s-13.6-1.8-17.8,0c-4.3,1.8-1.5,3-4.5,3.5C121.7,32.3,114.5,31.3,112.4,35.5z"/>
<g class="st6">
	<defs>
		<rect id="SVGID_1_" width="400" height="100"/>
	</defs>
	<clipPath id="SVGID_2_" class="st7">
		<use xlink:href="#SVGID_1_"  style="overflow:visible;"/>
	</clipPath>
	<g id="XMLID_28_" class="st8">
		<g id="XMLID_251_">
			<g id="XMLID_336_">
				<path id="XMLID_337_" class="st9" d="M176.2,69.4c-8.3-0.2-16.5,0-24.5,0.3c-8.5,0.4-16.1,1-23.3,1.8
					c-14.2,1.5-26.1,3.5-35.5,5.7c-2.4,0.5-5.1,1.1-6.3,1.7c-1.2,0.6-0.3,1.3,2.1,1.8c2.3,0.5,5.5,0.9,8.8,1.3
					c3.5,0.4,7.1,0.7,10.8,1.1c7.6,0.7,15.6,1.4,24.2,1.8c8.8,0.4,18,0.7,27.2,0.8c18.3,0.3,37,0.3,55.3,0c17.6-0.3,35.2-1,51.6-2.1
					c3.7-0.2,7.3-0.5,10.8-0.7c1.6-0.1,3.3-0.2,5-0.3c1-0.1,1.9-0.1,2.8-0.2c0.9-0.1,1.8-0.2,2.7-0.3c6.1-0.7,11.5-1.6,15.2-2.6
					c1.1-0.3,2.1-0.7,2.1-1c0.1-0.4-1.1-0.7-2.7-1c-2.7-0.5-6.2-0.9-9.4-1.3c-6.8-0.8-13.7-1.7-21.3-2.4c-7.4-0.7-14.4-1.4-22.1-2.1
					c-7.6-0.6-15.8-1.2-24.2-1.6c-8.6-0.4-17.5-0.6-26.5-0.8c-8.8-0.2-17.9-0.2-26.8-0.1c-4.3,0.1-8.5,0.2-12.7,0.4
					c-0.6,0-0.4,0.2,0.3,0.1c8.6-0.2,17.4-0.4,26.2-0.4c8.6,0,17.3,0.2,25.5,0.6c16.1,0.7,31.6,1.8,45.8,3.1c3.5,0.3,7.1,0.7,10.2,1
					c3.2,0.4,6.3,0.8,9.4,1.2c6.3,0.8,12.5,1.7,18.7,2.6c0.9,0.1,2.3,0.3,2.5,0.5c0.2,0.3-1,0.5-1.9,0.8c-1.7,0.4-3.8,0.9-6.1,1.3
					s-4.9,0.7-7.7,1.1c-0.8,0.1-1.8,0.2-2.5,0.3c-0.6,0.1-1.1,0.2-1.6,0.3c-1.3,0.2-2.8,0.4-4.4,0.5c-13.6,1.3-29.9,2-45.7,2.5
					c-17.4,0.5-35.3,0.7-53.1,0.6c-8.8-0.1-17.6-0.3-26.2-0.6s-16.9-0.7-24.7-1.3c-7.4-0.6-14.1-1.4-20.8-2.2
					c-4.9-0.6-12.3-1.4-10.1-2.4c1.2-0.6,3.9-1.1,6-1.5c2.2-0.5,4.5-1,6.9-1.4c5.1-0.9,10.6-1.8,16.6-2.7c5.9-0.8,12-1.6,18.7-2.3
					c6.8-0.7,14-1.3,22.2-1.6C167.9,69.4,172,69.3,176.2,69.4C176.3,69.4,176.3,69.4,176.2,69.4L176.2,69.4z"/>
			</g>
			<g id="XMLID_324_">
				<path id="XMLID_325_" class="st9" d="M189.8,68c-15,0.1-30.1,0.1-44.9,0.6c-7.4,0.2-14.7,0.5-21.6,1c-6.8,0.4-13,1.1-18.6,1.8
					c-11.3,1.4-19.3,3.2-26.6,5.1c-1.6,0.4-3.3,0.8-5.1,1.2c-1.7,0.4-3.8,0.7-5.9,1.1c-5.3,0.8-12.9,0.9-20.1,1.1
					c-19.5,0.4-39.3,0.5-58.8,0.9c-0.3,0-0.2,0.1,0.1,0.1c17.6-0.1,35.2-0.3,52.8-0.4c8.1-0.1,16.6,0.1,24.2-0.4
					c3-0.2,6.1-0.5,8.4-0.8s4.4-0.7,6.3-1.1c3.8-0.8,6.8-1.7,10.4-2.6c3.9-0.9,8.2-1.8,13.2-2.6c5-0.8,10.4-1.5,16.5-2.1
					c6.2-0.6,12.7-1.1,19.7-1.4C155.8,68.5,172.9,68.3,189.8,68C190,68,190,68,189.8,68L189.8,68z"/>
			</g>
			<g id="XMLID_322_">
				<path id="XMLID_323_" class="st9" d="M-1.8,78.5c13.7,0.3,28.4,0.5,42,0c6.5-0.2,12.8-0.6,18.3-1.2c2.8-0.3,5.6-0.6,8.1-1
					c2.7-0.4,5-0.8,7.3-1.3c4.7-0.9,8.9-1.9,14.2-2.7c4.8-0.8,10-1.5,15.7-2.1c11.2-1.3,24.2-2.2,37.6-2.9c29.8-1.4,62.7-1,91.4,0.8
					c15.2,0.9,29,2.2,42.5,3.6c6.8,0.7,13.5,1.4,20.9,1.9c7.6,0.6,15.5,0.9,23.8,1.1c17.4,0.4,35.2,0.3,52.7,0.2
					c18.2-0.1,36.4-0.3,54.5-0.5c4.3-0.1,8.5-0.1,12.7-0.2c0.3,0,0.2-0.1-0.1-0.1c-9.2,0-18.3,0.2-27.4,0.2c-9,0.1-18,0.2-27.1,0.2
					c-17.9,0.1-35.8,0.1-53.6-0.2c-8.5-0.1-16.8-0.4-24.9-0.8c-7.8-0.4-15-1.1-21.9-1.7c-6.8-0.6-13.6-1.3-20.6-1.9
					c-7-0.6-14.3-1.1-21.7-1.5c-14.7-0.9-30.4-1.6-46.2-1.9c-14.8-0.3-29.8-0.4-44.5,0c-13.9,0.4-27.9,1-40.1,2
					C99.6,69.6,89,71,81.1,72.7c-4.4,1-8,2-13,2.9c-4.8,0.8-10.6,1.5-17.6,1.9c-6.5,0.4-13.1,0.5-20,0.7c-7.1,0.2-14.5,0.2-21.7,0.3
					C5.3,78.5,1.8,78.5-1.8,78.5C-1.9,78.5-1.9,78.5-1.8,78.5L-1.8,78.5z"/>
			</g>
			<g id="XMLID_318_">
				<path id="XMLID_319_" class="st9" d="M3.5,77.2c13.6,0.4,28-0.1,40.5-0.9c3.2-0.2,6.5-0.4,9.5-0.7s5.7-0.6,8.4-0.9
					c5.6-0.7,9.9-1.6,14.1-2.5c4.2-0.9,8.6-1.8,13.9-2.5c5.7-0.8,12.4-1.3,19.5-1.8c15.6-1.1,32.7-1.8,49.7-2.2
					c16.8-0.4,34-0.5,50.9-0.2c15.9,0.3,31.9,1.1,45.7,2.2c13.6,1.1,25,2.8,38.5,3.9c13.7,1.2,29.3,1.5,44.9,1.6
					c16.1,0.1,32.4-0.1,48.5-0.1c18-0.1,36.3-0.1,54.2-0.5c4.4-0.1,8.7-0.2,13.1-0.3c1,0,0.7-0.2-0.2-0.2c-9.1,0-18.2-0.1-27.3-0.1
					c-8.9,0-17.9,0.1-26.8,0.1c-16.6,0.1-33.3,0.2-50,0.2c-15.6,0-31.6-0.1-46.2-1c-14.3-0.9-25.9-2.4-38.9-3.6
					c-13.5-1.2-28.7-2-44.3-2.4c-16.1-0.4-32.5-0.5-48.8-0.2c-17.1,0.3-34.1,0.8-50.6,1.5c-8,0.3-15.8,0.5-23.2,1.1
					C92,68.2,86.3,69,81.5,69.8c-9.4,1.6-16.6,3.5-27.9,4.9C48,75.4,42,76.1,35.1,76.4c-6.7,0.4-13.8,0.6-21,0.7
					C10.6,77.2,7.1,77.2,3.5,77.2C3.4,77.2,3.3,77.2,3.5,77.2L3.5,77.2z"/>
			</g>
			<g id="XMLID_316_">
				<path id="XMLID_317_" class="st9" d="M0.1,82.5C18,82.3,36,82.1,54,82c8.5-0.1,17.2-0.2,25.5,0.2c6.5,0.3,12.6,0.8,17.8,1.4
					c11,1.3,21.4,2.7,34.9,3.4c3.9,0.2,7.9,0.4,12,0.4c4,0.1,8,0,11.9,0.1c8.4,0.1,16.8,0,25.2,0c17.6-0.1,35.2,0,52.8-0.3
					c15.7-0.2,31.1-0.7,46-1.4c14.7-0.8,27.6-1.9,39-3.5c5.5-0.8,11-1.5,18.3-1.9c3.9-0.2,8-0.4,12.2-0.4c4-0.1,8.1-0.1,12.1-0.1
					c17.9,0,35.8,0.1,53.7,0c18.1-0.1,36.1-0.3,54.1-0.6c4.2-0.1,8.3-0.2,12.4-0.3c0.5,0,0.4-0.2-0.1-0.1c-9,0.1-18,0.3-27,0.4
					c-8.8,0.1-17.7,0.2-26.6,0.3c-17.8,0.1-35.9,0.2-53.7,0.1c-8.6-0.1-17.2-0.2-25.8-0.3c-4,0-7.9-0.1-11.8,0.1
					c-3.8,0.1-7.5,0.4-10.8,0.7c-6.3,0.6-11.5,1.4-17.1,2.2c-5.8,0.7-12.2,1.4-18.9,1.9c-13.5,1.1-27.9,1.9-43.1,2.3
					c-17.5,0.5-35.2,0.6-53,0.6c-8.7,0-17.5-0.1-26.2-0.1c-4,0-8.1-0.1-12.1-0.1c-4.1-0.1-8-0.2-11.9-0.4c-4-0.2-8-0.3-11.8-0.5
					c-3.3-0.2-6.4-0.4-9.3-0.7c-5.9-0.5-11.2-1.2-16.9-1.8c-5.5-0.5-11.3-1.1-17.4-1.5c-7-0.4-14.4-0.6-22-0.5
					c-8.7,0.1-17.4,0.3-26.1,0.4c-9,0.1-18,0.3-26.9,0.4C8.9,82.3,4.5,82.4,0.1,82.5C0,82.5,0,82.5,0.1,82.5L0.1,82.5z"/>
			</g>
			<g id="XMLID_314_">
				<path id="XMLID_315_" class="st9" d="M-3.3,84.3c30.9-0.4,65-0.7,92.4,1.9c7,0.7,13.7,1.4,21.2,1.9c7.2,0.5,14.9,0.8,22.7,0.9
					c16.3,0.3,32.5,0.3,48.9,0.2c18.3,0,36.7-0.2,55-0.4c17.1-0.2,34.5-0.4,51.3-1c7.9-0.3,15.8-0.6,23.2-1.1
					c7.6-0.5,14.6-1.2,21.6-1.9c6.9-0.6,14.1-1.2,21.8-1.6c7.6-0.4,15.4-0.6,23.4-0.8c8.1-0.1,16.1-0.2,24.2-0.2
					c8.5-0.1,16.9-0.1,25.4-0.1c18,0,36.1,0.2,54.1,0c4.2-0.1,8.4-0.2,12.5-0.3c0.4,0,0.3-0.1-0.1-0.1c-18,0.3-35.8,0.3-53.9,0.1
					c-17.1-0.2-33.9-0.6-51-0.5c-16,0.1-31.8,0.6-46.5,1.5c-15.3,1-27.1,2.9-42.5,3.8c-7.7,0.5-16,0.8-24.3,1
					c-8.7,0.2-17.6,0.4-26.5,0.6c-18.2,0.3-36.6,0.5-54.9,0.6c-17,0.1-34.2,0.1-51-0.3c-16-0.4-31-1.3-44.4-2.6
					c-6.8-0.7-13.6-1.3-21.3-1.7c-7.2-0.4-15-0.7-22.6-0.8c-3.9,0-7.8-0.1-11.7-0.1c-4,0-7.9,0.1-11.9,0.1
					c-7.8,0.1-15.6,0.3-23.3,0.5C4.5,84,0.6,84.1-3.3,84.3C-3.5,84.2-3.5,84.3-3.3,84.3L-3.3,84.3z"/>
			</g>
			<g id="XMLID_312_">
				<path id="XMLID_313_" class="st9" d="M219.7,90.6c-9.2-0.1-18.4-0.2-27.6-0.3c-9.1-0.1-18.2-0.2-27.2-0.3
					c-16.6-0.2-33.4-0.3-49.5-1c-8.1-0.3-15.7-0.8-23.1-1.4c-7.6-0.6-15.3-1.2-23.4-1.6c-15.9-0.8-33.1-1-49.8-0.9
					c-10,0.1-20.1,0.3-29.8,0.6c-9.7,0.4-19.2,0.8-28.7,1.3c-0.5,0-0.3,0.1,0.2,0.1c8.8-0.2,17.6-0.4,26.4-0.6
					c8.7-0.2,17.5-0.3,26.3-0.4c16.6-0.2,33.5-0.1,49.5,0.6c16.4,0.7,30.4,2.2,46.6,3c16,0.7,33.3,0.9,50,0.9
					c9.8,0,19.6-0.1,29.5-0.1C199.2,90.6,209.5,90.6,219.7,90.6C219.8,90.6,219.8,90.6,219.7,90.6L219.7,90.6z"/>
			</g>
			<g id="XMLID_310_">
				<path id="XMLID_311_" class="st9" d="M-24.5,88.5c2.5-0.1,5.1-0.1,7.6-0.2c2.6-0.1,5.2-0.1,7.7-0.2C-3.8,88,1.6,87.8,7,87.7
					c10.5-0.2,21-0.2,31.5-0.1c9,0.1,18,0.4,26.5,0.8c8.4,0.4,16.4,0.9,23.9,1.6c3.6,0.3,7,0.7,10.2,1.2c3,0.4,6.3,0.8,7.9,1.4
					c1.4,0.5,0.7,1-1.1,1.5c-2.1,0.5-5.3,0.9-9,1.2c-4.1,0.3-8.6,0.5-13,0.7C79,96.2,74,96.3,69,96.5c-10,0.3-20.2,0.5-30.4,0.6
					c-20.5,0.2-41.2,0.2-61.8,0c-2.5,0-5,0-7.5-0.1c-0.6,0-0.7,0.1-0.1,0.1c10.5,0.4,21,0.7,31.9,0.9c10.7,0.1,21.5,0.2,32.2,0.1
					c10.9-0.1,21.8-0.3,32.6-0.6c5.3-0.1,10.5-0.3,15.8-0.5c4.9-0.2,9.8-0.3,14.5-0.6c9.2-0.5,17.5-1.5,18.6-3.1
					c1.1-1.5-7.1-2.6-14.2-3.4c-7.5-0.9-15.9-1.6-24.9-2.1c-8.8-0.5-18.1-0.7-27.4-0.8c-21.8-0.2-43.7,0.3-65,1
					C-19.4,88.2-22,88.3-24.5,88.5C-24.8,88.4-24.7,88.5-24.5,88.5L-24.5,88.5z"/>
			</g>
			<g id="XMLID_308_">
				<path id="XMLID_309_" class="st9" d="M-17.2,89.4c8.7,0,17.4-0.2,26.1-0.3c4.4-0.1,8.9-0.1,13.3-0.1c2.1,0,4.3,0,6.4,0
					c2,0,3.9,0.1,5.9,0.1c13.5,0.2,28,0.7,38.7,2c2.6,0.3,4.7,0.7,6.3,1.1c1.2,0.3,1.8,0.7,0.9,1.1c0.2-0.1-0.3,0.1-0.3,0.1
					c-0.6,0.1,0.1,0-0.3,0.1c-0.4,0.1-0.9,0.1-1.5,0.2c-1.3,0.1-2.8,0.2-4.4,0.2C70,94.1,66,94.1,62,94.2
					c-8.8,0.2-17.5,0.3-26.2,0.5s-17.5,0.2-26.3,0.2c-19.7,0.1-39.3-0.1-59-0.3c-0.4,0-0.5,0.1-0.1,0.1c18.2,0.4,36.6,0.6,55,0.7
					c9.4,0,18.7,0,28.1,0c9.1,0,18.3,0,27.4-0.2c4.6-0.1,9.2-0.2,13.7-0.3c3.6-0.1,7.4-0.3,9.9-0.7c5.5-0.9,3-2.2-1.4-3
					c-4.5-0.9-11.3-1.5-18.1-2c-7-0.5-14.8-0.8-22.5-0.8c-2.2,0-4.5,0-6.7,0c-0.9,0-1.9,0-2.9,0c-1.3,0-2.5,0.1-3.9,0.1
					c-5.1,0.1-10,0.2-15.1,0.3C3.7,89-6.7,89.2-17.2,89.4C-17.5,89.4-17.5,89.4-17.2,89.4L-17.2,89.4z"/>
			</g>
			<g id="XMLID_306_">
				<path id="XMLID_307_" class="st9" d="M-14.3,91.2c9.2,0,18.3-0.1,27.5,0c3.8,0,7.8,0.1,11.5,0.3c3.6,0.1,7.3,0.3,10.7,0.5
					c1.6,0.1,3.1,0.2,4.5,0.4c0.2,0,1.7,0.2,1.9,0.2c-0.9,0-0.2-0.3-0.2-0.3c0.2,0,0.2,0-0.2,0c-0.2,0-0.5,0-0.7,0.1
					c-0.3,0-1.7,0.1-2.4,0.1c-1.1,0-2.2,0.1-3.3,0.1c-2.3,0.1-4.7,0.2-7.1,0.3C19,93.1,10,93.3,0.9,93.4c-10.2,0.1-20.6,0.1-30.8,0
					c-0.7,0-0.8,0.2-0.2,0.2c9.8,0.3,19.8,0.5,29.8,0.6c10.2,0,20.4-0.1,30.4-0.4c2.5-0.1,5-0.2,7.4-0.3c2.3-0.1,4.8-0.2,6.9-0.3
					c2.1-0.2,3.8-0.5,3.7-0.8c-0.1-0.4-2.3-0.7-4.5-0.9c-3.6-0.4-7.7-0.6-11.9-0.7c-4.3-0.1-8.8-0.1-13.2,0
					c-4.9,0.1-9.9,0.2-14.9,0.2C-2.2,91.1-8.3,91.1-14.3,91.2C-14.5,91.2-14.5,91.2-14.3,91.2L-14.3,91.2z"/>
			</g>
			<g id="XMLID_302_">
				<path id="XMLID_303_" class="st9" d="M-4.7,99.2c15.9,0.2,32.1,0.3,48.1,0.3c15.7,0,31.7-0.2,47-0.8c7.6-0.3,15.1-0.7,22.2-1.2
					c7.5-0.5,14.4-1.1,21.3-1.8c7.1-0.7,14.3-1.4,22.6-1.7c8.5-0.4,17.4-0.5,26.2-0.6c9.3-0.1,18.5-0.2,27.8-0.3
					c9.5-0.1,18.9-0.1,28.4-0.1c17.9,0,35.8,0,53.6-0.2c16.7-0.2,33.6-0.6,49.4-1.5c16.4-0.9,30.6-2.2,45.4-3.6
					c7.2-0.6,14.6-1.3,22.5-1.7c7.9-0.4,16.1-0.8,24.4-1c16.6-0.5,33.8-0.6,50.6-0.7c4.2,0,8.4-0.1,12.6-0.1c1.1,0,1-0.2,0-0.2
					c-16.9-0.2-34-0.4-50.9-0.2c-16.8,0.2-33.2,0.8-48.5,1.9c-15.5,1.1-29.3,2.7-44.8,3.8c-15.1,1.1-31.6,1.8-48.1,2.2
					c-35.8,0.9-72.4,0.8-108.5,0.7c-17.2,0-36,0.1-51.9,1.2c-8,0.5-14.8,1.3-22.2,2c-6.7,0.6-13.9,1.1-21.2,1.5
					c-7.2,0.4-14.7,0.7-22.3,1c-7.8,0.3-15.7,0.5-23.7,0.6c-16,0.2-32.1,0.3-48.1,0.3c-3.9,0-7.9,0-11.8,0
					C-5.3,99.1-5.3,99.2-4.7,99.2L-4.7,99.2z"/>
			</g>
			<g id="XMLID_300_">
				<path id="XMLID_301_" class="st9" d="M-8.6,100.2c17.2,0.4,34.3,0.7,51.7,0.8c17.2,0.1,34.8,0.1,51.8-0.4
					c8.6-0.2,17.1-0.5,25.4-0.9s16.3-0.9,24.2-1.4c8-0.5,16.1-1,24.5-1.4c7.7-0.3,15.6-0.6,23.6-0.8c32.6-0.7,65.6-0.4,98.4-0.7
					c16.2-0.1,32.3-0.4,47.9-1.1c16.3-0.7,31-1.9,45.7-3.1c7.4-0.6,14.7-1.3,22.4-1.8c7.8-0.6,15.9-1,24.2-1.4
					c16.5-0.8,33.6-1.1,50.9-1.1c4.2,0,8.4,0,12.6,0.1c0.3,0,0.4-0.1,0.1-0.1c-33.4-0.8-67.8,0.1-98,2.3
					c-15.3,1.1-29.7,2.6-45.7,3.5c-15,0.9-31,1.4-47.1,1.6c-32.7,0.5-65.7,0.2-98.5,0.6c-16.3,0.2-32.5,0.7-47.8,1.5
					c-16.5,0.9-32,2.2-49,2.9c-16.8,0.7-34.3,1-51.7,1.1c-17.5,0.1-35.1-0.1-52.6-0.2C0,100.2-4.3,100.2-8.6,100.2
					C-8.9,100.2-8.9,100.2-8.6,100.2L-8.6,100.2z"/>
			</g>
			<g id="XMLID_298_">
				<path id="XMLID_299_" class="st9" d="M481.8,89.3c-8.3-0.1-16.6-0.2-25-0.2c-8.3,0-16.5,0-24.7,0.3c-8,0.3-15.3,0.8-22,1.5
					c-6.8,0.7-12.9,1.5-19.6,2.3c-6.8,0.7-14.1,1.3-22.1,1.6c-8.1,0.4-16.5,0.5-24.9,0.7c-18.8,0.4-37.6,0.8-56.6,1.1
					c-19.2,0.2-38.4,0.4-57.6,0.3c-9.2,0-18.3-0.1-27.4-0.1c-8.9,0-17.8,0.3-26.2,0.7c-16.4,0.8-30.9,2.3-46.6,3.3
					c-15.4,1-31.6,1.8-48.2,2.3c-33.7,1.1-68.3,1.4-102.8,1.1c-4.3,0-8.5-0.1-12.7-0.1c-0.5,0-0.6,0.1-0.1,0.1
					c33.7,0.7,68.4,1,102.2,0.3c16.9-0.3,33.6-1,49.6-1.8c16.3-0.9,31.1-2.2,46.6-3.3c7.6-0.6,15.5-1.1,23.7-1.4
					c9-0.4,18.4-0.6,27.7-0.6c9.5-0.1,18.9,0,28.4,0c9.5,0,19.1-0.1,28.7-0.1c19.3-0.1,38.5-0.3,57.7-0.4
					c17.1-0.1,34.7-0.4,50.5-1.4c15.3-1,26-3,40.5-4.2c14.9-1.2,31.7-1.6,48.5-1.6C473.5,89.4,477.7,89.4,481.8,89.3
					C482.2,89.4,482.2,89.3,481.8,89.3L481.8,89.3z"/>
			</g>
			<g id="XMLID_296_">
				<path id="XMLID_297_" class="st9" d="M-27.3,106.5c19.3,0.2,38.6,0.3,58,0.4c18.9,0,38.4,0,57.1-0.6c18.4-0.5,36-1.4,53-2.6
					c16.3-1.1,32.1-2.4,48.6-3.4c16.5-1,33.6-1.8,51.5-1.9c17.9-0.2,35.9,0,53.8,0.2c34.8,0.4,71.5,0.7,103.2-1.9
					c8.2-0.7,15.9-1.5,24-2.2c7.9-0.7,16.2-1.3,25.1-1.6c17.9-0.8,36.7-0.8,55.1-0.7c4.6,0,9.3,0.1,13.9,0.1c0.5,0,0.5-0.1,0-0.1
					c-18.3-0.3-36.9-0.6-55.3-0.3c-9,0.1-17.9,0.4-26.5,0.8c-8.7,0.4-16.6,1.1-24.4,1.8c-7.9,0.7-15.8,1.5-24.4,2
					c-8,0.5-16.5,0.8-25.1,1.1c-17.4,0.4-35.1,0.3-52.6,0.2c-18-0.2-35.9-0.4-54-0.4c-17.9,0-35.4,0.4-52.4,1.3
					c-34.3,1.7-64.4,4.9-99.4,6.4c-37.5,1.6-76.1,1.8-114.9,1.6C-17.6,106.5-22.5,106.5-27.3,106.5
					C-27.5,106.4-27.5,106.5-27.3,106.5L-27.3,106.5z"/>
			</g>
			<g id="XMLID_294_">
				<path id="XMLID_295_" class="st9" d="M486.6,94.8c-17.1,0.1-34.1,0.2-50.9,0.6c-8.3,0.2-16.7,0.6-24.3,1.1
					c-7.5,0.5-14.8,1.1-22.1,1.7c-7.2,0.6-14.5,1.1-22.2,1.5c-8,0.4-16.4,0.6-24.8,0.7c-17,0.1-33.9-0.2-50.8-0.5
					c-17-0.3-34.2-0.5-51.2-0.1c-17.5,0.4-34.4,1.2-50.8,2.2c-32.1,1.8-63.6,3.9-97.4,5c-35.6,1.1-72.9,1.2-109,0.7
					c-4.5-0.1-8.9-0.1-13.4-0.2c-0.4,0-0.4,0.1-0.1,0.1c35.7,0.9,72.2,1.3,108.2,0.6c34.6-0.7,66.9-2.6,99.3-4.4
					c16.2-0.9,32.5-1.9,49.4-2.5c17.1-0.6,34.3-0.7,51.8-0.5c17,0.2,33.9,0.6,51.1,0.7c17,0.1,33.6-0.3,49.3-1.3
					c15.1-1,28.8-2.3,43.7-3.3c16.3-1.1,33.8-1.5,51.5-1.8C478.1,94.9,482.4,94.9,486.6,94.8C486.9,94.8,486.9,94.8,486.6,94.8
					L486.6,94.8z"/>
			</g>
			<g id="XMLID_272_">
				<path id="XMLID_273_" class="st9" d="M-9.5,75.1c16.8,0.1,34.9,0.2,50.1-1.1c12.6-1.1,22.1-2.8,31.4-4.4
					c4.7-0.8,9.7-1.6,15.2-2.3c6.3-0.8,13.6-1.4,21.7-1.8c8.7-0.4,17.8-0.6,26.8-0.8c9.8-0.2,19.6-0.3,29.4-0.4
					c19.7-0.2,39.7-0.2,59.5,0c9.4,0.1,19.1,0.2,28,0.7c7.3,0.4,13.1,1.1,19.3,1.8c11.7,1.3,22.5,2.8,35.9,3.8
					c16.5,1.2,35.7,1.1,53.6,1.1c19.6,0,39.1,0,58.7-0.1c9.8-0.1,19.7-0.1,29.5-0.3c9.4-0.2,19.3-0.3,28.5-0.6
					c4.5-0.2,8.8-0.4,13.1-0.6c1-0.1,0.4-0.3-0.5-0.3c-9.6,0-19,0.2-28.6,0.4c-9.8,0.2-19.6,0.3-29.4,0.4
					c-19.4,0.2-38.8,0.2-58.2,0.2c-9.8,0-19.7,0-29.5-0.1c-9.2-0.1-18.5-0.2-27.3-0.6c-14.1-0.6-25.4-2.1-36.9-3.3
					c-12.6-1.4-27.3-2.4-43.2-2.7c-9.6-0.1-19.4-0.2-29.1-0.2c-9.8,0-19.7,0-29.5,0.1c-18.9,0.1-37.9,0.2-56.6,0.7
					c-16.2,0.4-31,1.3-43.6,2.8c-11.1,1.4-19.8,3.1-30.6,4.6c-5.3,0.7-11.3,1.3-17.9,1.8c-8.3,0.6-17.2,0.8-26.2,0.9
					c-4.4,0.1-8.9,0.1-13.3,0.1C-10.1,74.9-10.1,75-9.5,75.1L-9.5,75.1z"/>
			</g>
			<g id="XMLID_270_">
				<path id="XMLID_271_" class="st9" d="M-15.9,72.5c15.9,0.6,33.8-0.1,48.2-1.2c15.3-1.1,28.6-2.7,42.4-4.2
					c6.7-0.7,13.2-1.5,20.5-2.1c7.9-0.6,16.2-1.1,24.9-1.3c9.2-0.3,18.5-0.4,27.8-0.5c9.2-0.1,18.3-0.2,27.5-0.3
					c18.4-0.2,37.2-0.6,55.7-0.5c16.4,0.1,31.6,1.2,45.7,2.4c14.5,1.2,29.2,2.3,45.3,3c17.2,0.7,34.9,1,52.5,1.3
					c8.8,0.2,17.5,0.4,26.3,0.5c9.1,0.1,18.2,0.1,27.2,0c9.2-0.1,18.4-0.2,27.6-0.3c8.8-0.1,17.8-0.3,26.5-0.6
					c4.3-0.2,8.6-0.3,12.8-0.4c1.2,0,0.9-0.3-0.3-0.3c-9,0-17.8,0-26.7,0.2c-9,0.1-18,0.3-27,0.4c-18,0.2-36,0.3-53.9-0.1
					c-17.5-0.4-35.2-0.7-52.5-1.2c-16.8-0.5-32.4-1.4-48-2.4c-7.3-0.5-14.7-0.9-22.2-1.4c-7.4-0.4-15.2-0.8-23-1.1
					c-7.9-0.2-15.8-0.2-23.8-0.1c-9.4,0.1-18.8,0.2-28.2,0.3c-9.2,0.1-18.5,0.3-27.7,0.4c-9.2,0.1-18.4,0.1-27.6,0.2
					c-8.7,0.1-17.4,0.3-25.8,0.7c-7.9,0.4-15.4,0.9-22.6,1.4c-14.7,1.2-27.6,2.7-41.2,4.1c-14.1,1.5-30.1,2.8-47.6,3
					c-4.2,0.1-8.5,0.1-12.7,0C-16.3,72.4-16.3,72.5-15.9,72.5L-15.9,72.5z"/>
			</g>
			<g id="XMLID_268_">
				<path id="XMLID_269_" class="st9" d="M-12.3,70.2c16.2,0.4,33.2-0.4,46.7-1.7c14.6-1.4,27.3-3.2,42.7-4.4
					c15.1-1.2,32-1.9,48.8-2.3c18.4-0.4,36.9-0.7,55.5-0.7c19,0,38.3,0.1,57.2,0.5c9.3,0.2,18.5,0.5,27.5,0.9c9,0.4,17.5,1,26.3,1.4
					c33.9,1.9,70.3,2.7,106.4,3c36.3,0.3,72.5-0.1,108.3-1c4.4-0.1,8.7-0.2,13.1-0.4c0.6,0,0.5-0.2-0.2-0.2
					c-35.9,0.5-72.3,0.8-108.3,0.7c-36.3-0.1-71.8-1-106.7-2.4c-17.7-0.7-35.2-1.7-53.4-2.2c-18.4-0.5-37.3-0.7-56-0.7
					c-18.7-0.1-37.6,0-56.3,0.2c-16.9,0.2-33.9,0.6-49.9,1.4c-16.2,0.9-29.7,2.4-43.1,3.9c-13.5,1.6-28.2,3.2-45.4,3.8
					C-3.4,70.2-7.8,70.2-12.3,70.2C-12.4,70.2-12.4,70.2-12.3,70.2L-12.3,70.2z"/>
			</g>
			<g id="XMLID_266_">
				<path id="XMLID_267_" class="st9" d="M-13.3,67c15.9,0.5,32.2-0.2,46.4-1.2c7.4-0.6,14.3-1.2,21.1-1.9
					c6.8-0.7,13.3-1.4,20.1-2.1c6.9-0.7,14.3-1.3,22.1-1.7c8.3-0.4,17.3-0.6,26-0.8c17.4-0.2,35.1-0.2,52.6-0.2
					c35.2,0,71.3,0.2,105.1,1.8c16.8,0.8,33.1,1.9,50.4,2.4c17.4,0.6,35.3,0.7,53,0.7c18.4,0,36.8,0,55.2,0
					c18.5-0.1,37.3,0,55.7-0.4c4.4-0.1,8.8-0.2,13.1-0.3c1,0,0.7-0.2-0.2-0.3c-9.2-0.1-18.6-0.2-27.8-0.2c-9.3,0-18.6,0.1-27.8,0.1
					c-18.4,0-36.8,0.1-55.2,0.1c-17.8,0-35.8,0-53.5-0.4c-17.6-0.4-34.2-1.3-51.1-2c-33.4-1.5-68.9-1.9-103.6-1.9
					c-17.6,0-35.2,0.1-52.9,0.1c-16.7,0.1-33.5,0.3-49.2,1.3c-15.1,0.9-28.6,2.2-42.1,3.5c-13.5,1.3-28.4,2.6-44.6,3
					c-4.2,0.1-8.5,0.1-12.7,0.1C-13.8,66.8-13.9,67-13.3,67L-13.3,67z"/>
			</g>
			<g id="XMLID_258_">
				<path id="XMLID_259_" class="st9" d="M444.5,51.6c-35.1-0.8-69.9,0.3-103.5,1.8c-17.3,0.8-34.5,1.6-52,2.2
					c-18.4,0.7-37,1-56,1.1c-19.8,0.1-39.6-0.1-59.4-0.3c-9.7-0.1-19.3-0.1-29-0.1c-9.1,0.1-18.2,0.1-27.2,0.3
					c-17.9,0.3-35.7,0.8-52.5,1.7C47.4,59.4,32,61,14.5,62c-17.7,1-36.6,1.6-55.3,2c-9.8,0.2-19.8,0.4-29.7,0.5
					c-9.9,0.1-19.7,0-29.6-0.1c-4.8,0-9.6-0.1-14.4-0.1c-0.7,0-0.7,0.1-0.2,0.2c18.6,0.8,38.6,0.7,57.7,0.4
					C-38.2,64.5-19.2,64-1,63.2c8.7-0.4,17.3-0.8,25.5-1.4c8.6-0.6,16.7-1.3,25.1-2c16.7-1.3,34.6-2,53.3-2.4
					c18.1-0.4,36.2-0.2,54.3-0.1c20,0.1,39.9,0.3,59.9,0.4c19.4,0,38.7-0.1,57.8-0.6c17.7-0.5,35-1.2,52.2-2
					c17.2-0.8,34.3-1.6,51.7-2.2c17.1-0.7,34.7-1.2,52.5-1.2C435.8,51.6,440.2,51.6,444.5,51.6C444.7,51.7,444.7,51.6,444.5,51.6
					L444.5,51.6z"/>
			</g>
			<g id="XMLID_254_">
				<path id="XMLID_255_" class="st9" d="M462.4,49.6c-34.3-0.4-69-0.7-103,0.3c-32.4,1-62.5,3.1-95,4c-34.2,1-69.6,0.6-104.2,0.8
					c-17.3,0.1-34.6,0.2-51.8,0.5c-16.9,0.3-33.3,0.8-49.7,1.5c-31.6,1.4-65,3.1-98.3,2c-3.8-0.1-7.7-0.3-11.5-0.4
					c-0.4,0-0.6,0.1-0.3,0.1c13.9,1.1,30.3,1.2,45.6,1.1c16.7-0.2,32.9-0.8,49-1.5c16.5-0.7,33.1-1.3,50.1-1.7
					c17.4-0.4,34.9-0.6,52.4-0.7c34.7-0.2,69.6,0.1,104.2-0.5c33.5-0.6,64.4-2.6,96.5-3.9c16.5-0.7,33.2-1.2,50.4-1.4
					c17.5-0.2,35.1-0.2,52.6-0.1C453.8,49.6,458.1,49.6,462.4,49.6C462.5,49.6,462.5,49.6,462.4,49.6L462.4,49.6z"/>
			</g>
			<g id="XMLID_252_">
				<path id="XMLID_253_" class="st9" d="M-33,56.9c16.7,0,33.7-0.1,50.3-0.5c8.5-0.2,17-0.4,25.2-0.7c8.2-0.3,16.2-0.8,24.1-1.2
					c16.4-0.9,32.7-1.6,49.9-1.9c16.7-0.3,33.6-0.3,50.4-0.3c16.9,0,33.8,0.1,50.7-0.1c16.9-0.1,33.5-0.5,50-1
					c16.9-0.6,33.7-1.2,50.6-1.7c17.3-0.5,34.9-0.8,52.5-0.8c35.2-0.1,70.4,0.4,105.3,1.1c4.4,0.1,8.8,0.2,13.2,0.2
					c0.3,0,0.4-0.1,0.1-0.1c-34.6-0.8-69.7-1.6-104.8-1.7c-17.4-0.1-34.8,0.1-52,0.4c-17.2,0.3-34,0.9-50.9,1.5
					c-16.8,0.6-33.6,1.1-50.8,1.4c-17,0.3-34.1,0.2-51.1,0.2c-33.6,0-67.3-0.1-99.6,1.5c-16.5,0.8-32.3,1.8-49.2,2.4
					c-16.8,0.6-33.9,0.9-51,1.1C-24.3,56.7-28.6,56.7-33,56.9C-33.3,56.8-33.3,56.9-33,56.9L-33,56.9z"/>
			</g>
		</g>
		<g id="XMLID_29_">
			<g id="XMLID_247_">
				<path id="XMLID_248_" class="st9" d="M160.8,31.1c10.7,0.2,21.3,0,31.6-0.3c10.9-0.4,20.8-1,30.1-1.8
					c18.3-1.5,33.6-3.5,45.8-5.7c3.1-0.5,6.6-1.1,8.1-1.7c1.5-0.6,0.3-1.3-2.7-1.8c-2.9-0.5-7-0.9-11.3-1.3
					c-4.5-0.4-9.2-0.7-13.9-1.1c-9.9-0.7-20.1-1.4-31.3-1.8c-11.3-0.4-23.3-0.7-35.1-0.8c-23.7-0.3-47.7-0.3-71.3,0
					c-22.7,0.3-45.4,1-66.6,2.1c-4.7,0.2-9.4,0.5-14,0.7c-2.1,0.1-4.2,0.2-6.4,0.3c-1.3,0.1-2.4,0.1-3.6,0.2
					c-1.2,0.1-2.3,0.2-3.5,0.3C8.9,19.1,2,20-2.7,21.1c-1.5,0.3-2.7,0.7-2.8,1c-0.1,0.4,1.4,0.7,3.5,1c3.4,0.5,8,0.9,12.1,1.3
					c8.8,0.8,17.7,1.7,27.4,2.4c9.5,0.7,18.6,1.4,28.5,2.1c9.9,0.6,20.4,1.2,31.2,1.6c11.1,0.4,22.6,0.6,34.2,0.8
					c11.4,0.2,23.1,0.2,34.5,0.1c5.6-0.1,11-0.2,16.4-0.4c0.8,0,0.4-0.2-0.3-0.1c-11.2,0.2-22.4,0.4-33.8,0.4
					c-11.1,0-22.3-0.2-33-0.6c-20.8-0.8-40.7-1.8-59.1-3.1c-4.5-0.3-9.1-0.7-13.2-1c-4.1-0.4-8.2-0.8-12.1-1.2
					c-8.2-0.8-16.2-1.7-24.1-2.6c-1.2-0.1-3-0.3-3.2-0.5c-0.2-0.3,1.4-0.5,2.4-0.8c2.2-0.4,4.8-0.9,7.9-1.3c3-0.4,6.3-0.7,9.9-1.1
					c1-0.1,2.3-0.2,3.3-0.3c0.8-0.1,1.4-0.2,2.1-0.3c1.7-0.2,3.6-0.4,5.7-0.5c17.6-1.3,38.6-2,58.9-2.5c22.5-0.5,45.6-0.7,68.5-0.6
					c11.4,0.1,22.7,0.3,33.9,0.6c11.1,0.3,21.9,0.7,31.8,1.3c9.6,0.6,18.2,1.4,26.8,2.2c6.3,0.6,15.9,1.4,13,2.4
					c-1.6,0.6-5,1.1-7.8,1.5c-2.8,0.5-5.8,1-8.9,1.4c-6.5,0.9-13.7,1.8-21.4,2.7c-7.6,0.8-15.5,1.6-24.1,2.3
					c-8.7,0.7-18.1,1.3-28.6,1.6C171.6,31.1,166.2,31.1,160.8,31.1C160.6,31,160.6,31.1,160.8,31.1L160.8,31.1z"/>
			</g>
			<g id="XMLID_245_">
				<path id="XMLID_246_" class="st9" d="M134.3,30c18.9,0.3,37.8-0.2,54.9-1.1c8.5-0.5,16.4-1,24-1.7c7.5-0.6,14.7-1.3,21.1-2.1
					c6.2-0.8,12.8-1.6,17.5-2.5c4.9-0.9,7-2.1,0.4-3c-2.8-0.4-6.9-0.7-10.7-0.9c-4-0.3-8.1-0.6-12.2-0.8c-8.5-0.5-17.3-1-26.4-1.3
					c-8.8-0.4-18-0.6-27.3-0.8c-9.8-0.2-19.9-0.2-29.7,0c-5.2,0.1-10.3,0.2-15.4,0.3c-4.9,0.1-9.9,0.1-14.8,0.2
					c-9.7,0.1-19.4,0.3-28.8,0.6c-4.7,0.2-9.4,0.3-14.1,0.5c-4,0.2-7.8,0.4-11.8,0.6c-1.9,0.1-3.8,0.1-5.6,0.2
					c-1.9,0.1-3.8,0.2-5.6,0.4c-3.6,0.3-7.1,0.5-10.3,0.9c-6,0.6-11.3,1.4-15.5,2.2c-1,0.2-2,0.4-2.8,0.6c-0.5,0.1-1.1,0.2-1.4,0.4
					c-0.5,0.2,0,0.4,1,0.6c2.5,0.4,5.5,0.9,8.8,1.2c3.3,0.4,7.9,0.5,11.6,0.8c3.7,0.3,7.5,0.6,11.2,0.8c7.8,0.6,15.6,1.2,23.7,1.7
					c15.7,1.1,32.6,2,50.8,2.3c4.4,0.1,8.6,0.1,13.1,0.1c0.5,0,0.5-0.1,0-0.1c-8.9-0.1-17.6-0.3-26.2-0.6c-8.3-0.3-16.3-0.7-24-1.2
					c-7.9-0.5-15.6-1-23-1.6c-7.1-0.5-14.3-1.1-20.9-1.7c-1.9-0.2-3.4-0.4-4.9-0.6c-1.5-0.2-2.8-0.4-4.3-0.6
					c-3.1-0.4-6.3-0.8-8.9-1.2c0.2,0.1,0.3,0.3,0.4,0.4c2.2-0.6,5.1-1.2,8.5-1.7c3.4-0.5,7.5-0.9,11.5-1.4c4.1-0.5,8.9-0.8,13.3-1.3
					c2.2-0.2,4.8-0.4,7.4-0.5c3.1-0.2,6.2-0.3,9.4-0.5c13.2-0.6,27.4-0.8,41.3-1c3.4,0,6.8-0.1,10.2-0.1c3.6,0,7.3,0,10.9,0.1
					c7.3,0.1,14.6,0,21.9,0.1c13.2,0.2,26,0.5,38.6,1c12.5,0.5,24.3,1.2,35.5,2c4.1,0.3,9.9,0.7,10.7,1.2c0.8,0.7-3.1,1.3-6.3,1.8
					c-3.8,0.6-8.2,1.1-12.5,1.7c-4.4,0.6-8.9,1.1-13.5,1.6c-18.8,2.2-43.8,3.8-70.6,4c-3.4,0-6.8,0-10.1,0
					C134.1,30,134.2,30,134.3,30L134.3,30z"/>
			</g>
			<g id="XMLID_241_">
				<path id="XMLID_244_" class="st9" d="M130.5,28.8c6.8,0,13.6,0,20.3-0.1c6.8-0.1,13.5-0.3,20.2-0.5c6.7-0.2,13.5-0.5,19.4-0.8
					c6.2-0.4,12.1-0.9,17.6-1.4c10.8-1,20.2-2.2,27.4-3.5c2.4-0.4,4.2-0.9,3.3-1.5c-0.8-0.4-3.5-0.8-6.6-1c-2.9-0.2-6.2-0.4-9.4-0.6
					c-3.6-0.2-7.3-0.4-11-0.5c-14.6-0.6-29.8-0.9-45.3-1c-7.7-0.1-15.2,0-22.9,0.1c-7.7,0.1-15.3,0.3-22.9,0.4
					c-7.5,0.2-15,0.4-22.4,0.6C91.2,19.3,84,19.5,77,19.9c-1.5,0.1-3,0.1-4.6,0.2c-1.9,0.1-3.7,0.1-5.4,0.2
					c-1.6,0.1-3.1,0.2-4.6,0.3c-1.7,0.1-3.5,0.2-5,0.3c-5.9,0.6-11,1.4-10.9,2.3c0.1,0.9,5.1,1.6,10.7,2.1c3.2,0.3,7.5,0.4,10.9,0.7
					c3.4,0.3,6.8,0.5,10.3,0.8c13.4,1,28.3,1.8,44.3,2c4,0.1,8.1,0.1,12.2,0c0.7,0,0.7-0.1,0-0.1c-15.7,0.1-31.6-0.4-44.9-1.4
					c-6.5-0.5-12.6-1-18.5-1.6c-2.9-0.3-5.2-0.6-7.7-0.9c-2-0.3-4.6-0.4-6.5-0.7c-1.9-0.3-3-0.5-2.5-0.9c0.6-0.4,2.7-0.7,4.6-1
					c0.8-0.1,1.7-0.3,2.7-0.4c1.2-0.1,2.2-0.3,3.4-0.4c2.2-0.3,5-0.5,7.6-0.7c1.4-0.1,2.5-0.2,4-0.3c1.4-0.1,2.9-0.2,4.4-0.2
					c3.3-0.2,6.8-0.3,10.2-0.5c6.8-0.3,13.9-0.5,20.9-0.6c7.1-0.2,14.1-0.3,21.4-0.3c7.2,0,14.4,0,21.6,0.1
					c14.2,0.1,27.9,0.4,41.6,0.8c6.6,0.2,13.1,0.5,19.4,0.8c3.2,0.2,6.5,0.3,9.5,0.5c1.9,0.1,3.9,0.3,3.7,0.5
					c-0.2,0.3-2.7,0.7-4.3,1c-1.6,0.3-3.4,0.6-5.3,0.8c-3.9,0.6-8.3,1.1-12.9,1.6c-4.6,0.5-9.5,0.9-14.8,1.3
					c-2.7,0.2-5.5,0.4-8.3,0.6c-2.7,0.2-5.3,0.4-8,0.5c-5.6,0.3-11.2,0.7-17.4,0.9c-6.1,0.2-12.3,0.4-18.6,0.5
					C137,28.7,133.7,28.7,130.5,28.8C130.3,28.7,130.3,28.8,130.5,28.8L130.5,28.8z"/>
			</g>
			<g id="XMLID_239_">
				<path id="XMLID_240_" class="st9" d="M121.1,27.3c11.8-0.1,23.5-0.3,34.9-0.6c5.6-0.2,11.3-0.4,16.8-0.6
					c5.8-0.2,11.2-0.6,16.3-1c9.9-0.7,19.6-1.6,27.3-2.7c2.3-0.3,3.9-0.7,3.1-1.1c-0.7-0.3-2.9-0.6-5.4-0.8
					c-4.9-0.4-11.1-0.5-16.8-0.6c-6-0.1-12-0.2-18.1-0.2c-6.1,0-12.2-0.1-18.3-0.1c-11.9,0-23.9,0.1-35.6,0.4
					c-11.8,0.3-23.7,0.7-34.9,1.2c-5.6,0.3-11.1,0.6-16.5,0.9c-1.2,0.1-2.4,0.2-3.6,0.2c-1.3,0.1-2.7,0.1-4,0.2
					c-3.2,0.2-5.7,0.4-6.5,0.8c-1.6,0.8,4,1.4,9.4,1.7c3,0.2,6.2,0.3,9.2,0.5c3.1,0.2,6.3,0.3,9.4,0.5c6.1,0.3,12.4,0.6,18.7,0.8
					c6.2,0.3,12.8,0.5,19.4,0.5c3.1,0,6-0.1,8.9-0.2c0.3,0,0.2-0.1-0.2-0.1c-12.9,0.3-25.4-0.3-36.7-1c-5.6-0.3-11.1-0.7-16.5-1.1
					c-4.4-0.3-9.1-0.7-12-1.2c-1.2-0.2-1-0.3-0.1-0.5c1-0.2,2.5-0.5,4.5-0.6c4.7-0.3,9.6-0.7,14.6-1c10.1-0.6,20.5-1,31.5-1.3
					c11-0.3,22.1-0.4,33.3-0.5c5.5,0,11,0,16.5,0.1c5.7,0.1,11.1,0.2,16.6,0.4c5.2,0.2,10.3,0.4,15.3,0.7c2.4,0.1,4.9,0.2,6.9,0.3
					c0.4,0,0.9,0.1,1.3,0.1c-0.4,0,0.9,0.1,0.5,0.1c0.2,0,0.3,0,0.2,0.1c-1.3,0.2-3.1,0.4-4.7,0.6c-1.9,0.2-3.9,0.4-5.9,0.6
					c-3.9,0.4-8,0.8-12.3,1.1c-4.5,0.4-9.3,0.7-13.9,1c-4.6,0.3-9.2,0.7-14.1,1c-9.8,0.6-20.1,1-30.8,1.2
					C126.3,27.2,123.7,27.2,121.1,27.3C121,27.3,121,27.3,121.1,27.3L121.1,27.3z"/>
			</g>
			<g id="XMLID_237_">
				<path id="XMLID_238_" class="st9" d="M116,25c7.6,0.2,15.5,0.1,23.1-0.1c7-0.2,14-0.4,20.7-0.7c1.4-0.1,2.8-0.2,4.2-0.2
					c0.8,0,1.8,0,2.7-0.1c1-0.1,1.9-0.1,2.8-0.2c2.7-0.3,5.1-0.6,7-0.9c2.1-0.4,3.8-0.8,2.2-1.3c-1.7-0.4-6.5-0.6-10.4-0.7
					c-3.8-0.1-7.6,0-11.5,0c-3.7,0-7.6-0.1-11.2,0c-3.9,0.1-7.7,0.1-11.6,0.2c-3.8,0.1-7.6,0.2-11.4,0.3c-3.9,0.1-7.8,0.3-11.7,0.3
					c-3.4,0.1-6.7,0.1-10,0.2c-3.4,0.1-7.1,0.2-10,0.4c-2.9,0.2-6.7,0.6-7.7,1c-1.4,0.6,3.9,1,7.5,1.2c3.5,0.2,7.4,0.4,11.4,0.5
					c7.8,0.2,15.6,0.2,23.5,0.1c0.4,0,0.3-0.1-0.1-0.1c-6.4,0-12.5-0.1-18.4-0.4c-2.6-0.1-5.1-0.3-7.3-0.5c-2.4-0.2-5-0.4-7.4-0.7
					c-1-0.1-1.4-0.2-1.1,0c0.3,0.2,0.2,0.1,0.9,0c0.8-0.1,1.7-0.2,2.7-0.3c2.3-0.2,4.8-0.4,7.2-0.6c5.1-0.4,11.3-0.7,17.3-0.8
					c6.5-0.2,13.1-0.3,19.9-0.4c3.4,0,6.7,0,10.1,0c3.2,0,6.5,0,9.5,0.1c1.6,0.1,2.8,0.2,4.2,0.2c1.5,0.1,3.1,0.2,4.6,0.3
					c0.7,0,1.3,0.1,2,0.1c0.1,0,1,0.1,1,0.1c-0.1,0-0.4-0.1-0.3,0c-0.2-0.1-0.2-0.1-0.3,0c-0.2,0.1-0.4,0.1-0.7,0.2
					c-1.3,0.3-3.1,0.5-5,0.7c-1.1,0.1-2.6,0.2-3.3,0.4c-0.3,0.1-0.6,0.2-0.8,0.2c-0.1,0-1,0.1-1.4,0.1c-5.2,0.5-11.9,0.8-18.3,1.1
					C132.7,25,124.3,25.2,116,25C115.9,25,115.8,25,116,25L116,25z"/>
			</g>
			<g id="XMLID_227_">
				<path id="XMLID_230_" class="st9" d="M390.4,21.9c-17.6-0.3-36.6-0.5-54.2,0c-8.4,0.2-16.5,0.6-23.6,1.2
					c-3.7,0.3-7.3,0.6-10.5,1c-3.5,0.4-6.5,0.8-9.5,1.3c-6,0.9-11.6,1.9-18.3,2.7c-6.2,0.8-13,1.5-20.2,2.1
					c-14.5,1.3-31.2,2.2-48.5,2.9c-38.5,1.4-80.9,1-118-0.8C68,31.3,50.2,30,32.8,28.7c-8.7-0.7-17.5-1.4-27-1.9
					c-9.8-0.6-20-0.9-30.7-1.1c-22.5-0.4-45.5-0.3-68.1-0.2c-23.5,0.1-47,0.3-70.4,0.5c-5.5,0.1-11,0.1-16.4,0.2
					c-0.4,0-0.3,0.1,0.1,0.1c11.8,0,23.6-0.2,35.4-0.2c11.6-0.1,23.3-0.2,34.9-0.2c23.1-0.1,46.2-0.1,69.2,0.2
					c11,0.1,21.7,0.4,32.1,0.8c10,0.4,19.3,1.1,28.3,1.7c8.8,0.6,17.5,1.3,26.6,1.9c9.1,0.6,18.4,1.1,28,1.5
					c19,0.9,39.2,1.6,59.6,1.9c19.1,0.3,38.4,0.4,57.5,0c17.9-0.4,36.1-1,51.8-2c15.8-1.1,29.5-2.5,39.7-4.2c5.7-1,10.3-2,16.8-2.9
					c6.2-0.8,13.6-1.5,22.7-1.9c8.4-0.4,17-0.5,25.8-0.7c9.2-0.2,18.7-0.2,28-0.3c4.5,0,9.1,0,13.6-0.1
					C390.6,22,390.6,21.9,390.4,21.9L390.4,21.9z"/>
			</g>
			<g id="XMLID_225_">
				<path id="XMLID_226_" class="st9" d="M145.5,32.3c-23.9,0.2-47.8-0.5-69.1-1.7c-10.9-0.6-21.1-1.3-30.9-2.2
					c-4.8-0.4-9.5-0.8-14.2-1.3c-4.7-0.4-9.2-0.9-13.8-1.4C8.5,25-0.4,24-9.8,23.2c-4.8-0.4-9.9-0.9-15.9-1.1
					c-5.8-0.2-12-0.2-18-0.2c-13.2,0-26.4,0.1-39.6,0.2c-13,0.1-26.1,0.2-39.2,0.4c-25.9,0.3-51.7,0.6-77.4,1.1
					c-3.3,0.1-6.5,0.1-9.7,0.2c-0.3,0-0.2,0.1,0.1,0.1c25.9-0.4,51.9-0.6,77.9-0.8c13-0.1,26.1-0.2,39.1-0.2
					c13.1,0,26.1,0.1,39.2,0.1c6.3,0,12.7,0,18.9,0c5.6,0.1,10.5,0.3,15.2,0.6c4.9,0.4,9.3,0.8,13.9,1.2c4.7,0.4,9.5,0.8,14.2,1.3
					c9.6,0.8,19.4,1.7,29.5,2.4c9.9,0.8,20.2,1.5,31,2.1c20.8,1.2,43.9,2,67.3,1.8C139.6,32.4,142.6,32.4,145.5,32.3
					C145.7,32.4,145.7,32.3,145.5,32.3L145.5,32.3z"/>
			</g>
			<g id="XMLID_223_">
				<path id="XMLID_224_" class="st9" d="M383.6,23.2c-17.6-0.4-36.1,0.1-52.3,0.9c-4.2,0.2-8.4,0.4-12.3,0.7
					c-3.8,0.3-7.4,0.6-10.8,0.9c-7.2,0.7-12.8,1.6-18.2,2.5c-5.4,0.9-11.1,1.8-17.9,2.5c-7.3,0.8-16.1,1.3-25.2,1.8
					c-20.2,1.1-42.2,1.8-64.1,2.2c-21.7,0.4-43.8,0.5-65.7,0.2c-20.5-0.3-41.1-1.1-59-2.2C40.6,31.6,25.9,30,8.5,28.8
					c-17.7-1.2-37.8-1.5-57.9-1.6c-20.8-0.1-41.8,0.1-62.6,0.1c-23.3,0.1-46.9,0.1-70,0.5c-5.6,0.1-11.3,0.2-16.9,0.3
					c-1.3,0-0.9,0.2,0.3,0.2c11.7,0,23.4,0.1,35.2,0.1c11.6,0,23.1-0.1,34.6-0.1c21.5-0.1,43-0.2,64.5-0.2c20.1,0,40.7,0.1,59.6,1
					c18.4,0.9,33.4,2.4,50.1,3.6c17.4,1.2,37,2,57.1,2.4c20.8,0.4,41.9,0.5,62.9,0.2c22.1-0.3,44-0.8,65.4-1.5
					c10.3-0.3,20.4-0.5,30-1.1c8.7-0.5,16-1.2,22.2-2.1c12.1-1.6,21.4-3.5,36-4.9c7.3-0.7,15-1.3,23.8-1.7
					c8.6-0.4,17.8-0.6,27.1-0.7C374.5,23.2,379.1,23.2,383.6,23.2C383.8,23.3,383.9,23.2,383.6,23.2L383.6,23.2z"/>
			</g>
			<g id="XMLID_219_">
				<path id="XMLID_220_" class="st9" d="M388.1,17.9c-23.2,0.2-46.3,0.4-69.5,0.5c-11,0.1-22.2,0.2-32.8-0.2
					c-8.4-0.3-16.2-0.8-23-1.4c-14.2-1.3-27.6-2.7-45-3.4c-5-0.2-10.2-0.4-15.5-0.4c-5.1-0.1-10.3,0-15.4-0.1
					c-10.8-0.1-21.7,0-32.5,0c-22.8,0.1-45.4,0-68.1,0.3c-20.2,0.2-40.2,0.7-59.4,1.4c-19,0.7-35.7,1.9-50.4,3.5
					c-7.1,0.8-14.2,1.5-23.6,1.9c-5.1,0.2-10.4,0.4-15.7,0.4c-5.2,0.1-10.4,0.1-15.7,0.1c-23.1,0-46.2-0.1-69.3,0
					c-23.3,0.1-46.6,0.3-69.8,0.6c-5.4,0.1-10.7,0.2-16,0.3c-0.7,0-0.5,0.2,0.2,0.1c11.6-0.1,23.2-0.3,34.8-0.4
					c11.4-0.1,22.9-0.2,34.3-0.3c23-0.1,46.3-0.2,69.3-0.1c11.1,0.1,22.2,0.2,33.3,0.3c5.2,0,10.2,0.1,15.3-0.1
					c5-0.1,9.7-0.4,13.9-0.7c8.1-0.6,14.8-1.4,22.1-2.2c7.5-0.7,15.8-1.4,24.3-1.9c17.4-1.1,36-1.9,55.6-2.3
					c22.6-0.5,45.5-0.6,68.4-0.6c11.3,0,22.5,0.1,33.8,0.1c5.2,0,10.4,0.1,15.6,0.1c5.2,0.1,10.3,0.2,15.3,0.4
					c5.1,0.2,10.3,0.3,15.3,0.5c4.2,0.2,8.2,0.4,12.1,0.7c7.6,0.5,14.4,1.2,21.8,1.8c7.1,0.5,14.5,1.1,22.4,1.5
					c9.1,0.4,18.6,0.6,28.4,0.5c11.2-0.1,22.5-0.3,33.7-0.4c11.6-0.1,23.2-0.3,34.8-0.4C376.6,18.1,382.3,18,388.1,17.9
					C388.2,18,388.2,17.9,388.1,17.9L388.1,17.9z"/>
			</g>
			<g id="XMLID_217_">
				<path id="XMLID_218_" class="st9" d="M392.4,16.2c-39.9,0.4-83.9,0.7-119.2-1.9c-9-0.7-17.6-1.4-27.4-1.9
					c-9.3-0.5-19.3-0.8-29.4-0.9c-21-0.3-42-0.3-63.1-0.2c-23.7,0-47.4,0.2-70.9,0.4c-22,0.2-44.6,0.4-66.2,1
					C6,13-4.2,13.4-13.7,13.9c-9.8,0.5-18.8,1.2-27.9,1.9c-8.9,0.6-18.2,1.2-28.2,1.6c-9.8,0.4-19.9,0.6-30.1,0.8
					c-10.4,0.1-20.8,0.2-31.2,0.2c-11,0.1-21.8,0.1-32.8,0.1c-23.3,0-46.5-0.2-69.8,0c-5.5,0.1-10.8,0.2-16.1,0.3
					c-0.5,0-0.4,0.1,0.1,0.1c23.2-0.3,46.2-0.3,69.6-0.1c22,0.2,43.7,0.6,65.9,0.5c20.6-0.1,41.1-0.6,60-1.5c19.8-1,35-2.9,54.8-3.8
					c10-0.5,20.7-0.8,31.4-1c11.3-0.2,22.7-0.4,34.1-0.6c23.5-0.3,47.2-0.5,70.9-0.6c21.9-0.1,44.1-0.1,65.8,0.3
					c20.6,0.4,39.9,1.3,57.3,2.6c8.8,0.7,17.6,1.3,27.5,1.7c9.3,0.4,19.3,0.7,29.2,0.8c5,0,10.1,0.1,15.2,0.1
					c5.2,0,10.2-0.1,15.4-0.1c10.1-0.1,20.1-0.3,30.1-0.5C382.4,16.5,387.4,16.4,392.4,16.2C392.7,16.2,392.7,16.2,392.4,16.2
					L392.4,16.2z"/>
			</g>
			<g id="XMLID_203_">
				<path id="XMLID_204_" class="st9" d="M126.5,10.2c-22.5-0.2-45.1-0.4-67.7-0.4c-22.2,0-44.3,0.3-65.5,1.1
					c-10.1,0.4-19.9,0.9-29.3,1.4c-9.1,0.5-17.8,1.2-26.6,1.8c-17.6,1.2-36.2,2.4-56.6,2.7c-13.5,0.3-27.2,0.3-40.8,0.4
					c-13.8,0.2-27.6,0.3-41.4,0.5c-0.7,0-0.8,0.1,0,0.1c12.5,0,25,0,37.5,0c12.1,0,24.4,0,36.5-0.2c10.8-0.1,21.4-0.4,31.7-0.8
					c9.6-0.4,18.8-0.9,27.7-1.5c9-0.6,17.8-1.2,26.8-1.7c8.9-0.6,17.9-1.1,27.4-1.6c10.4-0.5,21.1-0.8,32-1.1s21.8-0.5,32.9-0.6
					C76.2,10,101.3,10.1,126.5,10.2C126.8,10.2,126.8,10.2,126.5,10.2L126.5,10.2z"/>
			</g>
			<g id="XMLID_199_">
				<path id="XMLID_202_" class="st9" d="M394.2,1.2c-20.5-0.2-41.4-0.3-62-0.3c-20.3,0-40.9,0.2-60.6,0.8
					c-9.8,0.3-19.4,0.7-28.7,1.2c-9.7,0.5-18.6,1.1-27.4,1.8c-9.2,0.7-18.4,1.4-29.1,1.7c-11,0.4-22.5,0.5-33.8,0.6
					c-11.9,0.1-23.9,0.2-35.9,0.3C104.4,7.4,92.2,7.4,80,7.4c-23.1,0-46.2,0-69.2,0.2C-10.8,7.8-32.6,8.3-53,9.1
					c-21.1,0.9-39.6,2.2-58.6,3.6c-9.3,0.6-18.9,1.3-29.1,1.7c-10.2,0.4-20.8,0.8-31.5,1c-21.4,0.5-43.6,0.6-65.4,0.7
					c-5.4,0-10.8,0.1-16.3,0.1c-1.4,0-1.4,0.2,0,0.2c21.8,0.2,43.8,0.4,65.7,0.2c21.7-0.2,42.9-0.8,62.5-1.9
					c20-1.1,37.8-2.7,57.8-3.8c19.5-1.1,40.8-1.8,62.1-2.2c46.2-0.9,93.4-0.8,140.1-0.7c22.3,0,46.4-0.1,67.1-1.2
					c10.3-0.5,19.1-1.3,28.6-2c8.7-0.6,17.9-1.1,27.4-1.5c9.3-0.4,19-0.7,28.7-1c10.1-0.3,20.3-0.5,30.6-0.6
					c20.6-0.2,41.4-0.3,62.1-0.3c5.1,0,10.2,0,15.3,0C395,1.4,395,1.2,394.2,1.2L394.2,1.2z"/>
			</g>
			<g id="XMLID_197_">
				<path id="XMLID_198_" class="st9" d="M399.3,0.2c-22.2-0.4-44.3-0.7-66.7-0.8c-22.2-0.1-44.9-0.1-66.8,0.4
					C254.8,0,243.7,0.3,233,0.7s-21,0.9-31.3,1.4c-10.4,0.5-20.8,1-31.6,1.4c-9.9,0.3-20.1,0.6-30.4,0.8C97.7,5,55,4.7,12.7,5
					C-8.1,5.2-29,5.5-49.1,6.1c-21,0.7-40.1,1.9-59,3.1c-9.5,0.6-19,1.3-28.9,1.8c-10.1,0.6-20.6,1-31.3,1.4
					c-21.2,0.8-43.4,1.1-65.6,1.1c-5.4,0-10.9,0-16.3-0.1c-0.4,0-0.5,0.1-0.1,0.1c43.2,0.8,87.5-0.1,126.5-2.3
					c19.8-1.1,38.3-2.6,58.9-3.5c19.4-0.9,40-1.4,60.8-1.6c42.3-0.5,84.8-0.2,127.1-0.6c21-0.2,41.9-0.7,61.7-1.5
					c21.3-0.9,41.2-2.2,63.2-2.9c21.6-0.7,44.3-1,66.7-1.1c22.6-0.1,45.2,0.1,67.9,0.2C388.1,0.2,393.7,0.3,399.3,0.2
					C399.6,0.3,399.7,0.2,399.3,0.2L399.3,0.2z"/>
			</g>
			<g id="XMLID_195_">
				<path id="XMLID_196_" class="st9" d="M-233.7,11.1c10.7,0.1,21.4,0.2,32.2,0.2c10.7,0,21.3,0,31.9-0.3
					c10.4-0.3,19.8-0.8,28.4-1.5c8.7-0.7,16.7-1.5,25.3-2.3c8.7-0.7,18.2-1.3,28.5-1.6C-76.8,5.4-66,5.2-55.2,5
					c24.3-0.4,48.5-0.8,73-1.1c24.8-0.2,49.5-0.4,74.4-0.3c11.8,0,23.6,0.1,35.4,0.1c11.5,0,23-0.3,33.9-0.7
					c21.1-0.8,39.9-2.3,60.1-3.3c19.9-1,40.8-1.8,62.1-2.3C327.4-3.7,372-4,416.5-3.7c5.5,0,11,0.1,16.4,0.1c0.6,0,0.8-0.1,0.2-0.1
					c-43.5-0.7-88.2-1-131.9-0.3c-21.8,0.3-43.3,1-64,1.8C216.2-1.2,197,0.1,177,1.2c-9.8,0.6-20,1.1-30.6,1.4
					c-11.6,0.4-23.8,0.6-35.8,0.6c-12.2,0.1-24.4,0-36.6,0c-12.3,0-24.7,0.1-37,0.1C12.1,3.6-12.7,3.7-37.5,3.9
					C-59.7,4-82.3,4.2-102.7,5.3c-19.7,1-33.6,3-52.3,4.2c-19.2,1.2-41,1.6-62.6,1.6C-222.9,11.1-228.3,11.1-233.7,11.1
					C-234.1,11-234.1,11.1-233.7,11.1L-233.7,11.1z"/>
			</g>
			<g id="XMLID_193_">
				<path id="XMLID_194_" class="st9" d="M423.3-6.1c-24.9-0.2-49.9-0.3-74.9-0.4c-24.4,0-49.6,0-73.6,0.6
					c-23.8,0.5-46.4,1.4-68.4,2.6c-21.1,1.1-41.4,2.4-62.8,3.4c-21.3,1-43.3,1.8-66.5,1.9c-23.1,0.2-46.4,0-69.5-0.2
					c-45-0.4-92.3-0.7-133.1,1.9c-10.6,0.7-20.6,1.5-31,2.2c-10.2,0.7-20.9,1.3-32.4,1.6c-23,0.8-47.3,0.8-71.1,0.7
					c-6,0-12-0.1-18-0.1c-0.7,0-0.6,0.1,0,0.1c23.7,0.3,47.6,0.6,71.3,0.3c11.6-0.1,23.1-0.4,34.2-0.8c11.2-0.4,21.5-1.1,31.5-1.8
					c10.2-0.7,20.3-1.5,31.4-2C-99.1,3.6-88.1,3.2-77,3c22.4-0.4,45.3-0.3,67.9-0.2C14,3,37.2,3.2,60.5,3.2
					c23.1,0,45.7-0.4,67.6-1.3c44.2-1.7,83.2-4.9,128.2-6.4c48.4-1.6,98.3-1.8,148.2-1.6C410.7-6.1,417-6,423.3-6.1
					C423.7-6,423.7-6.1,423.3-6.1L423.3-6.1z"/>
			</g>
			<g id="XMLID_191_">
				<path id="XMLID_192_" class="st9" d="M-239.9,5.7c22-0.1,44-0.2,65.7-0.6c10.7-0.2,21.5-0.6,31.4-1.1c9.7-0.5,19.1-1.1,28.5-1.7
					c9.3-0.6,18.7-1.1,28.6-1.5c10.4-0.4,21.1-0.6,32-0.7C-31.7,0-9.8,0.4,11.9,0.6C33.9,0.9,56,1.1,78,0.7
					c22.6-0.4,44.3-1.2,65.6-2.2c41.5-1.8,82-3.9,125.7-5c45.9-1.1,94.1-1.2,140.7-0.7c5.8,0.1,11.5,0.1,17.2,0.2
					c0.5,0,0.6-0.1,0.1-0.1c-46.1-0.9-93.1-1.3-139.6-0.6C243-6.9,201.3-5.1,159.5-3.2c-20.9,0.9-42,1.9-63.8,2.5
					C73.7-0.1,51.6,0,29-0.2C7-0.4-14.8-0.8-36.9-0.9C-58.9-1-80.3-0.6-100.5,0.4c-19.4,1-37.2,2.3-56.4,3.3
					c-21,1.1-43.6,1.5-66.4,1.8C-228.8,5.5-234.3,5.6-239.9,5.7C-240.1,5.6-240.1,5.7-239.9,5.7L-239.9,5.7z"/>
			</g>
			<g id="XMLID_189_">
				<path id="XMLID_190_" class="st9" d="M151.6-4.1c-13.7,0.5-27.7,0.8-41.8,1.2c-14,0.3-28.1,0.5-42.3,0.6
					c-14.3,0.1-28.6,0.1-43,0.1C9.9-2.2-4.7-2.4-19.4-2.6c-28.3-0.4-57.1-0.7-85.4-0.1c-13.5,0.3-26.3,0.8-38.2,1.6
					c-5.9,0.4-11.6,0.8-17.7,1.1c-6,0.3-12.5,0.5-19.1,0.7c-13.7,0.3-28,0.2-41.8,0.2c-7.5,0-15-0.1-22.5-0.1
					c-7.5,0-15-0.1-22.4-0.1c-3.8,0-7.6,0-11.4,0c-1.5,0-1.9,0.2-0.4,0.3c7.2,0.3,14.8,0.4,22.2,0.5c7.5,0.1,15.1,0.2,22.6,0.3
					c14.4,0.1,29,0.2,43.4,0.1c14.2-0.1,27.6-0.5,40.2-1.3c6-0.4,11.8-0.8,18-1.2c5.9-0.3,12.2-0.6,18.6-0.8
					C-86.2-2.2-57.6-2-29.9-1.7C-15-1.5-0.1-1.3,14.9-1.2c7.2,0,14.5,0.1,21.7,0c7.1-0.1,14.3,0,21.4-0.1c28.4-0.4,57-1,83.8-2.2
					c3.4-0.1,6.8-0.3,10.1-0.5C152.5-4,152.3-4.1,151.6-4.1L151.6-4.1z"/>
			</g>
			<g id="XMLID_154_">
				<path id="XMLID_155_" class="st9" d="M400.4,25.4c-21.7-0.1-45-0.2-64.6,1.1c-16.2,1.1-28.5,2.8-40.5,4.4
					c-6.1,0.8-12.5,1.6-19.6,2.3c-8.2,0.8-17.6,1.4-27.9,1.8c-11.2,0.4-23,0.6-34.6,0.8c-12.6,0.2-25.3,0.3-37.9,0.4
					c-25.4,0.2-51.3,0.2-76.7,0c-12.2-0.1-24.6-0.2-36.1-0.7c-9.4-0.4-17-1.1-24.9-1.8c-15-1.3-29.1-2.8-46.3-3.8
					c-21.3-1.2-46.1-1.1-69.1-1.1c-25.2,0-50.5,0-75.7,0.1c-12.7,0.1-25.4,0.1-38,0.3c-12.2,0.2-24.9,0.3-36.8,0.6
					c-5.8,0.2-11.3,0.4-16.9,0.6c-1.3,0.1-0.6,0.3,0.7,0.3c12.4,0,24.6-0.2,36.9-0.4c12.6-0.2,25.2-0.3,37.9-0.4
					c25-0.2,50-0.2,75.1-0.2c12.7,0,25.4,0,38.1,0.1c11.8,0.1,23.9,0.2,35.3,0.6c18.2,0.6,32.7,2.1,47.6,3.3
					c16.3,1.4,35.3,2.4,55.8,2.7c12.4,0.1,25.1,0.2,37.5,0.2c12.7,0,25.4,0,38.1-0.1c24.4-0.1,48.9-0.2,73-0.7
					c20.9-0.4,40-1.3,56.3-2.8c14.3-1.4,25.5-3.1,39.5-4.6c6.9-0.7,14.6-1.3,23.1-1.8c10.7-0.6,22.2-0.8,33.8-0.9
					c5.7-0.1,11.4-0.1,17.2-0.1C401.3,25.6,401.3,25.4,400.4,25.4L400.4,25.4z"/>
			</g>
			<g id="XMLID_152_">
				<path id="XMLID_153_" class="st9" d="M408.7,27.9c-20.6-0.6-43.6,0.1-62.2,1.2c-19.7,1.1-36.9,2.7-54.7,4.2
					c-8.6,0.7-17,1.5-26.5,2.1c-10.2,0.6-20.9,1.1-32.1,1.3c-11.8,0.3-23.9,0.4-35.9,0.5c-11.8,0.1-23.6,0.2-35.5,0.3
					c-23.8,0.2-48,0.6-71.9,0.5c-21.2-0.1-40.8-1.2-58.9-2.4c-18.7-1.2-37.6-2.3-58.5-3c-22.2-0.7-45-1-67.8-1.3
					c-11.3-0.2-22.5-0.4-33.9-0.5c-11.7-0.1-23.5-0.1-35.1,0c-11.9,0.1-23.7,0.2-35.6,0.3c-11.3,0.1-23,0.3-34.2,0.6
					c-5.5,0.2-11,0.3-16.6,0.4c-1.6,0-1.2,0.3,0.4,0.3c11.6,0,23,0,34.5-0.2c11.6-0.1,23.2-0.3,34.8-0.4c23.2-0.2,46.4-0.3,69.5,0.1
					c22.6,0.4,45.4,0.7,67.8,1.2c21.6,0.5,41.8,1.4,61.9,2.4c9.4,0.5,19,0.9,28.6,1.4c9.6,0.4,19.6,0.8,29.7,1.1
					c10.2,0.2,20.4,0.2,30.7,0.1c12.1-0.1,24.3-0.2,36.3-0.3c11.9-0.1,23.8-0.3,35.8-0.4c11.8-0.1,23.7-0.1,35.6-0.2
					c11.2-0.1,22.5-0.3,33.3-0.7c10.1-0.4,19.9-0.9,29.2-1.4c19-1.2,35.6-2.7,53.2-4.1c18.2-1.5,38.9-2.8,61.4-3
					c5.4-0.1,11-0.1,16.4,0C409.1,28.1,409.2,27.9,408.7,27.9L408.7,27.9z"/>
			</g>
			<g id="XMLID_148_">
				<path id="XMLID_150_" class="st9" d="M404,30.2c-20.9-0.4-42.8,0.4-60.3,1.7c-18.8,1.4-35.3,3.2-55,4.4
					c-19.5,1.2-41.2,1.9-63,2.3c-23.7,0.4-47.6,0.7-71.6,0.7c-24.6,0-49.5-0.1-73.8-0.5c-12-0.2-23.9-0.5-35.5-0.9
					c-11.6-0.4-22.6-1-33.9-1.4c-43.7-1.9-90.8-2.7-137.3-3c-46.9-0.3-93.6,0.1-139.7,1c-5.6,0.1-11.2,0.2-16.9,0.4
					c-0.8,0-0.6,0.2,0.2,0.2c46.3-0.5,93.3-0.8,139.8-0.7c46.8,0.1,92.6,1,137.6,2.4C17.4,37.6,40,38.5,63.4,39
					c23.7,0.5,48.2,0.7,72.3,0.7c24.2,0.1,48.5,0,72.6-0.2c21.8-0.2,43.8-0.6,64.4-1.4c20.8-0.9,38.3-2.4,55.6-3.9
					c17.4-1.6,36.4-3.2,58.6-3.8C392.6,30.3,398.2,30.2,404,30.2C404.1,30.3,404.2,30.2,404,30.2L404,30.2z"/>
			</g>
			<g id="XMLID_46_">
				<path id="XMLID_147_" class="st9" d="M405.4,33.5c-20.5-0.5-41.5,0.2-59.8,1.2c-9.5,0.6-18.5,1.2-27.3,1.9
					c-8.7,0.7-17.1,1.4-25.9,2.1c-8.9,0.7-18.4,1.3-28.5,1.7c-10.7,0.4-22.3,0.6-33.6,0.8c-22.5,0.2-45.3,0.2-67.9,0.2
					c-45.5,0-92-0.2-135.6-1.8C5,38.7-15.9,37.7-38.3,37.1c-22.5-0.6-45.5-0.7-68.5-0.7c-23.7,0-47.5,0-71.3,0
					c-23.9,0.1-48.1,0-71.8,0.4c-5.7,0.1-11.3,0.2-16.9,0.3c-1.4,0-0.9,0.2,0.3,0.3c11.9,0.1,24,0.2,35.9,0.2c12,0,24-0.1,35.9-0.1
					c23.7,0,47.5-0.1,71.2-0.1c23,0,46.2,0,69.1,0.4c22.7,0.4,44.1,1.3,66,2c43.1,1.5,88.9,1.9,133.7,1.9c22.7,0,45.5-0.1,68.2-0.1
					c21.6-0.1,43.3-0.3,63.5-1.3c19.4-0.9,36.9-2.2,54.3-3.5c17.4-1.3,36.7-2.6,57.5-3c5.4-0.1,10.9-0.1,16.4-0.1
					C405.9,33.6,406.1,33.5,405.4,33.5L405.4,33.5z"/>
			</g>
			<g id="XMLID_36_">
				<path id="XMLID_38_" class="st9" d="M-185.5,48.8c45.3,0.8,90.2-0.3,133.5-1.8c22.3-0.8,44.5-1.6,67.1-2.2
					c23.8-0.7,47.8-1,72.2-1.1c25.6-0.1,51.1,0.1,76.7,0.3c12.5,0.1,24.9,0.1,37.4,0.1c11.7-0.1,23.5-0.1,35.1-0.3
					c23.1-0.3,46.1-0.8,67.8-1.7c22.5-1,42.4-2.6,65-3.6c22.9-1,47.2-1.6,71.4-2c12.7-0.2,25.5-0.4,38.3-0.5
					c12.8-0.1,25.5,0,38.2,0.1c6.2,0,12.4,0.1,18.6,0.1c0.8,0,1-0.1,0.2-0.2c-24-0.8-49.8-0.7-74.5-0.4c-24.3,0.3-48.9,0.8-72.4,1.6
					c-11.3,0.4-22.3,0.8-33,1.4c-11,0.6-21.5,1.3-32.4,2c-21.6,1.3-44.7,2-68.7,2.4c-23.3,0.4-46.7,0.2-70.1,0.1
					c-25.8-0.1-51.5-0.3-77.3-0.4c-25,0-50,0.1-74.6,0.6c-22.8,0.5-45.2,1.2-67.4,2c-22.2,0.8-44.3,1.6-66.7,2.2
					c-22.1,0.7-44.8,1.2-67.7,1.2C-174.2,48.8-179.8,48.8-185.5,48.8C-185.7,48.8-185.8,48.8-185.5,48.8L-185.5,48.8z"/>
			</g>
			<g id="XMLID_34_">
				<path id="XMLID_35_" class="st10" d="M-208.5,50.9c44.3,0.4,89,0.7,132.9-0.3c41.8-1,80.7-3.1,122.5-4
					c44.2-1,89.8-0.6,134.5-0.8c22.4-0.1,44.7-0.2,66.9-0.5c21.8-0.3,43.1-0.8,64.1-1.5c40.8-1.4,83.9-3.1,126.8-2
					c5,0.1,9.9,0.3,14.8,0.4c0.5,0,0.8-0.1,0.3-0.1c-17.9-1.1-39.1-1.2-58.9-1.1c-21.5,0.2-42.5,0.8-63.2,1.5
					c-21.3,0.7-42.7,1.3-64.7,1.7c-22.4,0.4-45,0.6-67.6,0.7c-44.7,0.2-89.8-0.1-134.4,0.5C22.3,46-17.6,48-59,49.3
					c-21.3,0.7-42.8,1.2-65,1.4c-22.5,0.2-45.2,0.2-67.8,0.1C-197.4,50.9-203,50.9-208.5,50.9C-208.7,50.9-208.7,50.9-208.5,50.9
					L-208.5,50.9z"/>
			</g>
			<g id="XMLID_31_">
				<path id="XMLID_33_" class="st9" d="M430.7,43.6c-21.6,0-43.4,0.1-64.8,0.5c-11,0.2-21.9,0.4-32.5,0.7
					c-10.5,0.3-20.8,0.8-31.2,1.2c-21.1,0.9-42.2,1.6-64.4,1.9c-21.6,0.3-43.3,0.3-65,0.3c-21.8,0-43.7-0.1-65.5,0.1
					s-43.2,0.5-64.5,1C20.9,49.8-0.7,50.4-22.6,51c-22.3,0.5-45,0.8-67.7,0.8c-45.5,0.1-90.8-0.4-135.9-1.1
					c-5.7-0.1-11.4-0.2-17.1-0.2c-0.4,0-0.5,0.1-0.1,0.1c44.7,0.8,89.9,1.6,135.2,1.7c22.4,0.1,44.9-0.1,67.1-0.4
					c22.2-0.3,43.9-0.9,65.7-1.5C46.3,49.8,68,49.3,90.1,49c21.9-0.3,44-0.2,66-0.2c43.3,0,86.9,0.1,128.6-1.5
					c21.2-0.8,41.7-1.8,63.5-2.4c21.7-0.6,43.7-0.9,65.9-1.1C419.6,43.8,425.1,43.7,430.7,43.6C431.1,43.6,431.1,43.6,430.7,43.6
					L430.7,43.6z"/>
			</g>
		</g>
	</g>
</g>
<g>
	<g>
		<path class="st22" d="M2,22.7c17.1,0,34.2,0,51.3,0c3.6,0,3.3,0.2,3.3-2.8c0-1.8,0-3.6,0-5.4c0-0.6,0.3-1.1,0.5-1.7
			c0.3,0.2,0.5,0.4,0.8,0.7c0,1.4,0,2.7,0,4.1c0,0.9,0,1.8,0,2.6c0,0.2,0,0.4,0,0.5c-0.2,2.5-0.2,2.5-2.9,2.6c-0.6,0-1.2,0-1.9,0
			c-17,0-34,0-51.1,0C2,23.1,2,22.9,2,22.7z"/>
		<path class="st31" d="M2,23.2c17,0,34,0,51.1,0c0.6,0,1.2,0,1.9,0c2.7,0,2.7,0,2.9-2.6c0.6,0,1.3,0,1.9,0c0.6-0.2,1.2-0.4,1.8-0.5
			c0,0.2,0,0.4,0,0.6c0,0.5,0,1,0.1,1.6c-0.7,1.3-2,1.6-3.7,1.6c-5.2-0.1-10.4,0-15.6,0c-13.4,0-26.9,0-40.3,0C2,23.6,2,23.4,2,23.2
			z"/>
		<path class="st32" d="M5.7,37.4c1.4-1.2,3.2-1,5-1c0.2,0,0.4,0.6,0.6,0.9c-0.3,2,1.5,2.5,3.1,3.1c-0.2,0.5-0.4,1.1-0.6,1.6
			c-0.4-0.3-0.8-0.5-1.2-0.8c-0.8-0.6-1.5-1.2-2.7-0.9c-1.3,0.3-1,1.2-1.1,1.9c-0.1,0.6-0.5,0.6-1.1,0.5c-0.7-0.2-1.4-0.3-1.4-1.1
			c-0.6-0.2-1.3-0.4-1.9-0.6c-0.8,0-1.6,0-2.4,0c0-0.5,0-1,0-1.6c1.4,0.1,2.1-0.4,1.9-1.6c0.2,0,0.4,0,0.5-0.1
			c0.2,0.3,0.5,0.6,0.7,0.9c0.2-0.3,0.4-0.7,0.5-1C5.7,37.6,5.7,37.5,5.7,37.4z"/>
		<path class="st34" d="M6.4,41.5c0,0.8,0.6,1,1.4,1.1c0.6,0.1,1,0.1,1.1-0.5c0.1-0.7-0.2-1.6,1.1-1.9c1.2-0.3,1.9,0.3,2.7,0.9
			c0.4,0.3,0.8,0.5,1.2,0.8c0,0.2,0,0.3,0,0.5c-0.5,0.4-1,0.8-1.3,1.3c-0.7,1.1-1.2,2.3-1.8,3.5c-0.2-0.4-0.4-0.7-0.6-1.1
			c-0.3-0.4-0.6-0.8-0.8-1.2c-0.3,0.3-0.6,0.7-0.9,1c0,0-3.2,0.7-3.2,0.7c-0.3-0.5-0.8-0.9-0.9-1.4c-0.3-1.5-1.3-0.8-2.2-0.5
			c0-0.5,0-1,0-1.6c0.6,0,1.2,0,1.9,0c1,0.5,1.7,0.3,1.9-0.7C5.9,42,6.2,41.8,6.4,41.5z"/>
		<path class="st39" d="M2,79c1.1-0.6,2,0,2.7,0.5c1.1,0.8,2,1.7,2.2,3c0.5,3-1.2,4.8-5,5.3c0-1.4,0-2.8,0-4.2
			c0.6,0,1.1-0.1,1.7-0.2c0.2,0,0.3-0.3,0.5-0.5c-0.3-0.1-0.6-0.2-1-0.3c-0.4-0.3-0.8-0.7-1.2-1C2,80.7,2,79.9,2,79z"/>
		<path class="st45" d="M20,70.1c-0.7-1.1-1.9-1.1-3.2-1.1c-4.9,0-9.9,0-14.8,0c0-0.2,0-0.3,0-0.5c6.2,0,12.4,0,18.6,0
			c0.8,0,1.6,0,2.5,0c6.2,0,12.4,0,18.7,0c0.4,0,0.8,0,1.2-0.1c0.1,0.1,0.2,0.1,0.2,0.2c0,0.1,0,0.2,0,0.2c-0.8,0.1-1.6,0.1-2.4,0.2
			c-4.5,0-9,0-13.5,0c-1.6,0-2.4,0.1-2.2,1.7c0,0.3,0.1,0.7-0.1,0.7c-0.3,0.2-0.8,0.2-1.2,0.3c0-0.3,0.1-0.7,0-1
			c-0.1-0.5-0.2-1.3-0.6-1.5c-0.7-0.3-1.7-0.4-2.4,0.4C20.5,69.8,20.2,70,20,70.1z"/>
		<path class="st53" d="M10,93.1c-0.4,0.4-0.7,0.7-1.1,1.1c-0.9-0.5-2.7,0.3-2.9-1.3c0,0-1.1-0.1-1.6,0.1c-0.8,0.2-1.6,0.5-2.5,0.7
			c0-0.9,0-1.7,0-2.6c2.6,0,5.3,0.1,7.9,0.1C10,91.7,10,92.4,10,93.1z"/>
		<path class="st29" d="M2,93.6c0.8-0.2,1.6-0.5,2.5-0.7c0.5-0.1,1.6-0.1,1.6-0.1c0.2,1.6,2,0.8,2.9,1.3c-0.3,1.7-1.5,2.2-3.4,2.1
			c-1.3-0.1-2.7-0.2-3.5,1C2,96,2,94.8,2,93.6z"/>
		<path class="st69" d="M2,56.1c2.9-0.4,5.6,0.4,8.1,1.6c-0.6,0.2-1.3,0.5-1.9,0.5c-2,0.1-4.1,0-6.2,0C2,57.4,2,56.8,2,56.1z"/>
		<path class="st73" d="M13.8,63.5C9.9,63.4,6,63.4,2,63.4c0-0.3,0-0.7,0-1c4.1,0,8.3-0.1,12.4-0.1c0,0.2,0,0.5,0,0.7
			C14.3,63.1,14,63.3,13.8,63.5z"/>
		<path class="st67" d="M20.7,68.5c-6.2,0-12.4,0-18.6,0c0-0.2,0-0.3,0-0.5c6.2,0,12.4,0,18.6,0C20.6,68.2,20.7,68.4,20.7,68.5z"/>
		<path class="st80" d="M10,91.1C7.3,91,4.7,91,2,91c0-0.3,0-0.7,0-1c2.7,0,5.3,0,8,0c0.2,0,0.5,0,0.7,0c0,0.2,0,0.4-0.1,0.5
			C10.4,90.7,10.2,90.9,10,91.1z"/>
		<path class="st79" d="M3.9,43c-0.6,0-1.2,0-1.9,0c0-0.2,0-0.3,0-0.5c0.3-0.2,0.7-0.4,1-0.7c-0.3-0.1-0.7-0.3-1-0.4
			c0-0.2,0-0.3,0-0.5c0.8,0,1.6,0,2.4,0C4.3,41.6,4.1,42.3,3.9,43z"/>
		<path class="st76" d="M2,36.3c0.4,0.3,0.9,0.7,1.3,1C3.2,38,3.4,38.9,2,38.9C2,38,2,37.1,2,36.3z"/>
		<path class="st93" d="M2,38.9c1.4,0,1.2-0.9,1.3-1.6c0.2,0.2,0.3,0.4,0.5,0.6C4.1,39,3.4,39.5,2,39.4C2,39.2,2,39,2,38.9z"/>
		<path class="st94" d="M2,83.2c0.4-0.2,0.8-0.4,1.2-0.5c0.3,0.1,0.6,0.2,1,0.3c-0.2,0.2-0.3,0.5-0.5,0.5c-0.5,0.1-1.1,0.1-1.7,0.2
			C2,83.5,2,83.3,2,83.2z"/>
		<path class="st95" d="M2,41.5c0.3,0.1,0.7,0.3,1,0.4c-0.3,0.2-0.7,0.4-1,0.7C2,42.2,2,41.8,2,41.5z"/>
		<path class="st102" d="M137.3,67c-0.2,0.3-0.4,0.9-0.7,1c-0.5,0.2-1.2,0.1-1.8,0.1c-17.7,0-35.3,0-53,0c-0.5,0-1,0-1.5,0
			c-1,0-2.4,0.3-2.8-0.1c-0.5-0.5-0.2-1.6-0.2-2.5c0-0.9,0-1.7,0-2.6c0.8,0.8,1.5,1.6,2.4,2.3c1.6,1.3,2.7,1.2,4-0.2
			c0.8-0.9,1.6-1.5,3-1.5c0,0.5-0.1,1-0.1,1.6c0,2,0,2.1,2.4,2.1c4.8,0,9.7,0,14.5,0c1.1,0,2.2,0.1,2.4-1.3c0.1-1,1.5-0.6,2.3-0.7
			c0.8-0.1,0.8,0.6,0.6,1.2c-0.4,1.2,0.7,0.8,1.2,0.8c4.6,0,9.3,0.1,13.9,0c4.5,0,4.3,0.6,4.2-3.6c0.2,0,0.4-0.1,0.6-0.1l0,0.1
			c0,2.2,0,2.2,1.8,2.6c-0.1,0.1-0.2,0.3-0.4,0.4c-0.4,0.2-0.8,0.4-1.1,0.6c0.4,0.2,0.8,0.5,1.2,0.5C132.5,67.5,134.9,67.7,137.3,67
			z"/>
		<path class="st96" d="M32.4,33.6c0.4,0,1.1,0,1.2-0.1c0.4-1.4,1.2-0.8,1.9-0.2c0.3,0.2,0.5,0.5,0.7,0.8c0.5,1,1.4,1.1,2.5,1.1
			c0.2,0,0.5,0,0.7,0.1c-0.5,0.2-1.1,0.4-1.6,0.6c-0.4,0.2-0.7,0.5-1.1,0.7c0.4,0.1,0.8,0.2,1.2,0.2c7.5,0,15,0,22.6,0
			c2.2,0,4.4,0,6.6,0.1c0.8,0,0.9,0.5,0.2,1c-0.4,0-0.8,0-1.2,0c-10.1,0-20.2,0-30.4,0c-0.6-0.2-1.3-0.4-1.9-0.5
			c-0.8-0.4-1.7-0.7-2.5-1.1C31.4,35.3,31.4,34.3,32.4,33.6z"/>
		<path class="st39" d="M34.3,94.1c0,1.2,0,2.4,0,3.6c0,1-0.6,1.6-1.9,1.6c-2.9,0-5.7,0-8.6,0c0.2-0.7,0.3-1.4,0.5-2.1
			c0.7,0,1.4,0,2.1,0c0.8,0,1-0.4,1-1c0.1-1.6-0.4-2-1.8-1.6c-0.2,0-0.4,0-0.7,0c-0.2,0-0.4,0-0.6,0c-0.2,0-0.4,0-0.6,0.1l0-0.1
			c-0.2,0-0.4,0-0.6,0.1c-0.2,0-0.4,0-0.6,0c0.1-0.3,0.1-0.6,0.2-0.9c3.9,0,7.7,0,11.6,0.1C34.3,93.9,34.3,94,34.3,94.1z"/>
		<path class="st106" d="M66,70.7c0.9,0.8,0,1.6,0.2,2.4c0.1,0.3-0.2,0.6-0.3,0.9c-0.2-0.2-0.5-0.4-0.6-0.7c-0.4-1.1-1-1.7-2.2-0.6
			c-0.7,0.7-2-0.6-2.6,0.7c-0.3,0.7-1.2,1.3-1.9,2c0-0.4,0-0.7-0.1-1.1c-0.2-0.2-0.4-0.3-0.6-0.5c-0.6-0.2-1.3-0.5-1.9-0.5
			c-7,0-14.1,0-21.1,0c-1.3-0.2-2.6-0.3-3.8-0.5c0.8-0.1,1.6-0.3,2.4-0.3c6.8,0.1,13.5,0.2,20.3,0.2c0.8,0,1.6-0.1,2.4-0.2
			c-0.3-0.5-0.6-1.1-0.7-1.6c-0.1-0.7,0.1-1.4,0.1-2.1c0-0.4-0.1-0.8-0.2-1.2c0.4,0,0.8-0.1,1.2-0.1c0,3.9-0.6,3.6,4.2,3.6
			c0.5,0,1,0,1.5,0c1.5-0.2,0.9-0.9,0.5-1.5c0.6,0.3,1.1,0.7,1.8,0.9C65.1,70.7,65.5,70.6,66,70.7L66,70.7z"/>
		<path class="st12" d="M67.8,63.3c0.5,0.6,0.8,0.3,1.3,0c1-0.7,1,0,1.2,0.6c-1.1,1-2.5,0.2-3.7,0.5c-0.6,0.2-1.2,0.4-1.9,0.6
			c-1.1-0.1-2.3-0.4-2.7,1c0,0.1-0.9,0.1-0.9,0c-0.5-1.7-2.1-0.9-3.3-1.1c-0.8-1-1.7,0.2-2.5,0c-0.8-0.1-1.6-0.1-2.4-0.3
			c-2-0.4-2-0.4-2.6,1.5c0,0.2-0.1,0.3-0.2,0.5c-0.2-0.1-0.4-0.3-0.6-0.4c-0.4-0.3-0.7-0.5-1.1-0.8c-0.2-0.6-0.4-1.3-0.6-1.9
			c1.2,0,2.5-0.2,3.7-0.1c1.2,0.1,1.8-0.5,2.4-1.2c0.2,0,0.5,0.1,0.7,0.1c-0.1,1,0.8,1,1.6,1C60.3,63.3,64,63.3,67.8,63.3z"/>
		<path class="st107" d="M86.5,63.4c-1.3,0-2.1,0.6-3,1.5c-1.4,1.5-2.5,1.5-4,0.2c-0.9-0.7-1.6-1.5-2.4-2.3c0.2-0.2,0.4-0.4,0.6-0.6
			c7,0,14,0,21,0.1c0.2,0.2,0.5,0.4,0.7,0.6c-0.8,0.2-1.7,0.5-2.5,0.5C93.5,63.4,90,63.4,86.5,63.4z"/>
		<path class="st111" d="M94.5,57.1c0.1,1.1-0.7,1-1.6,1c-3,0-6.1,0-9.1,0c-2,0-4.1,0.1-6.1,0.1c1-1.4,2.4-2.3,4.5-2.2
			c2.6,0.1,5.3,0,7.9,0c0.6,0,1.6,0.1,1.7,0.3C92.2,58,93.6,56.8,94.5,57.1z"/>
		<path class="st60" d="M105.1,22.7c-0.4,0.3-0.8,0.8-1.3,0.9c-1,0.1-2,0-3,0c-3.9-0.1-7.8-0.2-11.7-0.2c-2.7,0-5.4,0-8.2,0.1
			c-1,0-2.1-0.1-3.1-0.1c0-0.2,0-0.4,0-0.6c1.6,0,3.3,0.1,4.9,0c0.4,0,1.1-0.4,1.1-0.6c-0.4-1.6,1-1.4,2.1-1.4
			c0.3,1.8,0.3,1.8,2.5,1.5c2.2,0.8,4.3,1,6.2-0.6c0.5,0.1,1.2-0.1,1.5,0.2c1.3,1.1,3,0.9,4.6,0.9C102,22.7,103.6,22.7,105.1,22.7z"
			/>
		<path class="st24" d="M66.6,61.9C66.4,61.6,66,61.3,66,61c0.1-2.5,0.3-5.1,0.4-7.6c0-0.8-0.3-1.7-0.5-2.5c0-0.4,0-0.7,0-1.1
			c0-4,0-8,0.1-12c0.4,0,0.8,0,1.2,0c0,7.2,0,14.4,0,21.6C67.2,60.3,67.6,61.2,66.6,61.9z"/>
		<path class="st13" d="M86.5,76.4c0,0.5,0,1,0,1.6c-0.6,0.3-1.2,0.7-1.9,0.8c-1.9,0.2-2.9,1.2-3.5,2.5c-0.4,0.8-0.6,1.6-0.9,2.5
			c-0.6,0.2-1.3,0.4-1.9,0.6c-0.3-0.2-0.9-0.5-0.8-0.7c1-2.4,1.6-5.1,4.5-6.6C83.4,76.2,85,76.4,86.5,76.4z"/>
		<path class="st113" d="M77.8,22.7c0,0.2,0,0.4,0,0.6c-4.1,0-8.1,0.3-12.2,0c-0.8-0.1-1.5-0.4-2.2-0.6c2.1,0,4.3,0.1,6.4,0
			c0.4,0,0.9-0.5,1.1-0.9c0.3-0.6-0.3-0.8-1-0.8c-2.7,0-5.5-0.1-8.2-0.2c0-0.2,0-0.4,0-0.6l0,0c2.6,0,5.3,0,7.9,0
			c1.3,0,1.5-0.7,1.4-1.5c1.9-0.8,3.4-0.8,5.6-0.1c-1.1,0-2.3,0-3.4,0.1c-0.5,0-1.3,0.4-1.4,0.7c-0.2,0.9,0.8,0.8,1.5,0.8
			c0.8,0,1.6,0,2.5,0c1.3,0,1.5-0.7,1.4-1.5c0-0.2,0-0.4,0-0.5c0.2,0.2,0.4,0.4,0.6,0.5C77.8,19.9,77.8,21.3,77.8,22.7z M74.3,22.7
			C74.3,22.7,74.3,22.7,74.3,22.7c0.5,0,1,0.1,1.5,0c0.4-0.1,1.2-0.4,1.1-0.6c-0.1-0.4-0.4-1.2-0.7-1.2c-1.3-0.1-2.6-0.1-3.9,0
			c-0.3,0-0.7,0.7-0.6,1c0,0.3,0.6,0.6,1,0.7C73.2,22.8,73.8,22.7,74.3,22.7z"/>
		<path class="st31" d="M34.3,94.1c0-0.1,0-0.3,0-0.4c0.2-0.2,0.4-0.5,0.7-0.7c7.9,0,15.7-0.1,23.6-0.1c0.4,0.3,0.8,0.8,0.1,1
			c-0.9,0.2-1.8,0.2-2.7,0.2C48.7,94.1,41.5,94.1,34.3,94.1z"/>
		<path class="st104" d="M78.3,84.3c0.6-0.2,1.3-0.4,1.9-0.6c0.2,0.4,0.5,0.8,0.6,1.2c0.9,2.3,2.7,3.5,5.6,3.5c0,0.5,0,0.9,0,1.4
			c-0.3,0.2-0.6,0.5-0.9,0.7c-2.8-0.2-4.9-1.4-6.6-3.1C78.7,86.3,78.5,85.3,78.3,84.3z"/>
		<path class="st67" d="M52.9,32.6c0.5,0.1,1.1,0,1.5,0.2c0.7,0.5,1,0.8,1.9,0c1.2-1.2,1.8-0.9,2.3,0.6c0.2,0.7,0.5,1.4,0.7,2.1
			c-0.9,0-1.8,0.1-2.7,0.1c-1.3,0-2.7,0-4,0c-0.8,0-1.4-0.2-1.6-0.9c0.3,0,0.5-0.1,0.8-0.1c0.2-0.5,0.4-1,0.6-1.5
			C52.5,33,52.7,32.8,52.9,32.6z"/>
		<path class="st124" d="M56.7,27.4c-0.4,0.2-0.7,0.5-0.8,0.5c-2-0.9-4,0.2-6,0.1c-0.9-0.1-2.2,0.4-2.4-0.9
			c-0.2-0.9,0.3-1.2,2.5-1.1c1.9,0,3.9-0.4,5.7,0.6C56,26.6,56.3,27,56.7,27.4z"/>
		<path class="st55" d="M51.7,34.7c-0.3,0-0.5,0.1-0.8,0.1c-1.5,1.1-3.2,1-4.9,0.4c0-0.5,0-1,0-1.5c0-0.7-0.4-1.1-1.3-1.1
			c0-0.2,0-0.3,0.1-0.5c1.6-0.1,3.1,0.9,4.8,0.2c0.4-0.1,1.3,0.8,2,1.2C51.7,33.9,51.7,34.3,51.7,34.7z"/>
		<path class="st19" d="M71.5,64.4c1.6,1.3,1.6,1.5,0.6,2.6c-0.3,0.3-0.7,0.6-0.8,1c-0.1,1.2-0.6,0.8-1.3,0.4
			c-0.3,0.3-0.5,0.7-0.8,1c-0.2,0.2-0.9,0.5-0.9,0.5c-2.2-2.6-1.1,1.6-2.3,0.8l0,0c0.1-1.3-0.6-2.8,1.3-3.6c0.5,0,1,0,1.5,0
			C70.9,66.8,71.2,66.5,71.5,64.4z"/>
		<path class="st131" d="M104.4,73.8c-2.9,0-5.8,0.1-8.7,0.1c0-0.3-0.1-1,0-1c0.6-0.1,1.2-0.1,1.8-0.1c2.7,0,5.5,0,8.2-0.1
			c0.3,0,0.6-0.1,0.9-0.2c0.8-0.2,0.8-0.2,1.1,0.7C106.8,74.3,105.5,73.5,104.4,73.8z"/>
		<path class="st28" d="M71.5,64.4c-0.2,2.1-0.6,2.4-2.7,2.6c-0.5,0-1,0-1.5,0c-1.2-0.7-0.5-1.8-0.7-2.6c1.2-0.3,2.6,0.5,3.7-0.5
			C70.7,64.1,71.1,64.3,71.5,64.4z"/>
		<path class="st136" d="M63.4,61.8c0.8,1.3,1.1,1.3,3.1,0.5c0.4,0.4,0.8,0.7,1.2,1.1c-3.8,0-7.6,0-11.3,0c-0.9,0-1.7,0-1.6-1
			c1.6-0.1,3.3-0.7,4.9,0c1.6,0.8,1.8,0.7,2.6-0.5C62.7,61.8,63.1,61.8,63.4,61.8z"/>
		<path class="st78" d="M58.5,74.2c0,0.4,0,0.7,0.1,1.1c0,2.1,0,4.3-0.1,6.4c0,0.8-0.4,1.6-0.6,2.5c-1-0.2-2-0.4-3-0.6
			c-0.1-0.9-0.4-2,1.5-1.5c1,0.2,1.5-0.3,1.4-1.2c0-1.7,0-3.4,0-5.1C57.9,75.3,58.3,74.8,58.5,74.2z"/>
		<path class="st22" d="M23.9,99.3c2.9,0,5.7,0,8.6,0c-0.5,0.2-1.1,0.5-1.6,0.5c-1.5,0.1-3.1,0.1-4.6,0.1c-3.9,0-7.8,0-11.8-0.1
			c-0.9,0-1.9,0.3-2.5-0.5c1.8,0,3.7,0,5.5,0c0.7,0,1.3-0.3,1.9-0.5c0.2,0,0.4,0,0.7,0c0.6,0.7,1.2,0.7,1.8,0c0.2,0,0.4,0,0.6,0
			c0.2,0,0.4,0,0.7,0C23.4,99,23.6,99.1,23.9,99.3z"/>
		<path class="st145" d="M39.2,34.7c0.1-0.9,0.1-1.7,0.2-2.6c0.5,0,1.1,0,1.6,0c0,0.7,0,1.3,0.1,2C40.4,34.3,39.8,34.5,39.2,34.7z"
			/>
		<path class="st65" d="M44.9,32.1c0,0.2,0,0.3-0.1,0.5c0,0.3,0.1,0.7,0.1,1c-0.3,0.3-0.6,0.6-0.9,0.9c-0.2-0.3-0.4-0.5-0.5-0.8
			c-0.1-0.3,0-0.7,0-1c0-0.2,0-0.3,0-0.5C44,32.1,44.5,32.1,44.9,32.1z"/>
		<path class="st11" d="M41.1,34.1c0-0.7,0-1.3-0.1-2c0.4,0,0.9-0.1,1.3-0.1c0,0.2,0,0.3,0,0.5c-0.2,0.5-0.4,1.1-0.6,1.6
			C41.6,34.2,41.3,34.1,41.1,34.1z"/>
		<path class="st149" d="M42.3,32.6c0-0.2,0-0.3,0-0.5c0.4,0,0.9,0,1.3,0c0,0.2,0,0.3,0,0.5c-0.2,0.5-0.4,1-0.6,1.6
			c-0.2,0-0.4,0-0.6,0C42.3,33.6,42.3,33.1,42.3,32.6z"/>
		<path class="st64" d="M105.7,18.5c-2.6,0-5.3,0.1-7.9,0c-1.4,0-2.6,0-3,1.4c0,0.1-0.5,0.1-0.8,0.2c-0.4-0.5-0.8-1.1-1.2-1.6
			c0.8-1,1.6-2,3.1-2.1l0,0c0.2,0.4,0.4,0.7,0.6,1.1c0.9-0.5,0.8-1,0-1.5c0.2-0.4,0.4-0.7,0.6-1.1c0.4,0,0.8,0,1.2,0
			c0.4,0.2,0.9,0.3,1.3,0.5c0.2,2,0.2,2.1,2.3,2.1c1.1,0,2.2,0,3.4,0c0.1,0,0.3,0,0.4,0C105.6,17.8,105.6,18.2,105.7,18.5z"/>
		<path class="st60" d="M105,13.4c-1.6,0-3.2,0-4.9,0c-1.2,0-1.9,0.5-2,1.5c-0.4,0-0.8,0-1.2,0c-0.6-0.3-1.3-0.5-1.9-0.8
			c-1.8-0.7-3.6-1.3-5.5-1c-2.3,0.5-4.6,0.8-7,0.2c-1.1-0.3-1.6,0.1-1.1,1c1,1.6,0,2.4-1.3,3.2c-0.6,0.3-1.2,0.6-1.8,0.9
			c-0.2,0-0.4,0-0.6,0.1c-0.2-0.2-0.4-0.4-0.6-0.5c0-0.2,0-0.4,0-0.5c0-0.9,0-1.7,0-2.6c-0.1-1.5-0.1-1.6-2-1.6
			c-5.7,0-11.5,0-17.2,0.1c-0.3-0.2-0.5-0.4-0.8-0.7c1.1-0.2,2.2-0.5,3.2-0.5c14.9,0,29.8,0,44.6,0C105,12.6,105,13,105,13.4z"/>
		<path class="st30" d="M51,5.5c1.2,0.8,0.7,1.9,0.4,2.8c-0.1,0.4-0.9,0.8-1.4,0.8c-1.1,0.1-2.2-0.1-3.3-0.2c-0.4,0-0.8,0-1.1,0.1
			c-0.4,0.2-0.6,0.6-0.9,0.9c-0.2-0.4-0.5-0.9-0.6-1.3c-0.1-1,0-2.1,0-3.1C46.5,5.6,48.7,5.5,51,5.5z"/>
		<path class="st69" d="M51,5.5c-2.3,0-4.5,0.1-6.8,0.1c-2.7,0-5.4-0.1-8-0.1c0.2-0.4,0.4-0.7,0.6-1.1c2,0,4.1-0.2,6.1,0
			c1.6,0.2,3-0.2,3.8-1.5c0.4,0,0.8,0,1.2,0c0.9,0,1.7,0.1,2.6,0.1c0.2,0.1,0.4,0.3,0.5,0.4c0.2,0.4,0.5,0.8,0.7,1.1
			C51.5,4.9,51.3,5.2,51,5.5z"/>
		<path class="st67" d="M70.3,4.4c1.5,0,2.9,0,4.4,0c0.2,0,0.4,0,0.6,0.1c0.3,0.1,0.6,0.2,0.8,0.3c-0.1,0.2-0.2,0.5-0.4,0.6
			c-0.5,0.1-1,0.2-1.5,0.2c-5.9,0-11.8,0-17.7,0c-0.9,0-1.7,0-1.7-1c1-0.1,2.3,0.4,3.1-0.6c0.2,0,0.4,0,0.6,0.1c0.2,0,0.4,0,0.7,0
			c0.5,0.2,1.1,0.5,1.6,0.5C63.9,4.5,67.1,4.4,70.3,4.4z"/>
		<path class="st13" d="M36.8,4.4c-0.2,0.4-0.4,0.7-0.6,1.1c-0.2,0-0.4,0-0.6,0c0-0.2-0.1-0.4-0.1-0.6c0-0.1,0-0.3,0-0.4
			c-0.2-0.3-0.4-0.7-0.7-1c-0.1,0-0.3,0-0.4,0c-0.2,0-0.5,0-0.7,0l0,0c-0.2-0.2-0.4-0.4-0.6-0.5C33,2.8,33,2.8,33,2.7
			c0,0-0.1,0-0.2,0c0.1,0.1,0.2,0.2,0.3,0.2c0,0.2,0,0.3,0,0.5l-0.1,0c-0.4-0.1-0.7-0.3-1.1-0.4c-0.2-0.2-0.5-0.4-0.7-0.6
			c0-0.4,0-0.7,0-1.1c0-0.3,0-0.7,0-1C32,0,32.8-0.4,33.7-0.8c0.6,0,1.3-0.1,1.9-0.1c0.2,0.1,0.3,0.2,0.5,0.2
			c0.2,0.8,0.5,1.6,0.7,2.4C36.8,2.7,36.8,3.5,36.8,4.4z"/>
		<path class="st141" d="M28.2,9.3c-1.2-1.2-3-1.8-4-3.2C24,5.7,23,5.5,22.3,5.5c-3.1-0.1-6.1,0-9.2,0c-0.8,0-1.5-0.2-0.6-1
			c0.4,0,0.9,0,1.3,0c1.5,0.8,2.9,0.8,4.3,0c2,0.5,4.1,1.1,6.2,0c0.4,0.2,0.9,0.4,1.3,0.5c1,0.7,2.1,1.4,3.1,2.1
			c0.1,0.2,0.1,0.5,0.2,0.7c0.4,0.4,1,0.7,1.5,1C29.7,8.9,28.9,9.1,28.2,9.3z"/>
		<path class="st99" d="M13.9,4.4c-0.4,0-0.9,0-1.3,0c0-0.6-0.1-1.2,0-1.8c0.2-1.4-0.2-2.4-1.9-2.9c1.2,0.1,1.9-0.2,1.9-1.4
			c-0.1-1.4,0-2.9,0-4.3c0-1.8,0-3.5,0-5.3c0.2,0.2,0.4,0.4,0.6,0.5c0.2,0.9,0.6,1.8,0.6,2.7C13.9-3.8,13.8,0.3,13.9,4.4z"/>
		<path class="st111" d="M28.2,9.3c0.7-0.2,1.5-0.3,2.2-0.5c-0.5-0.3-1-0.6-1.5-1c-0.2-0.2-0.2-0.5-0.2-0.7c0.6-0.1,2,0.3,1.3-0.9
			c-0.8-1.6-0.2-2.7,1.2-3.8c0.2,0.2,0.5,0.4,0.7,0.6c-0.9,0.3-0.6,0.9-0.6,1.4c0,0.4,0,0.8-0.1,1.1c0,0.3,0,0.6,0,0.9
			c0,0.7,0.3,1.1,1.2,1.1c0.6,0,1.2,0,1.8,0c0.2,1-0.1,1.7-1.3,2c-0.6,0.2-1.2,0.5-1.7,0.9c-0.2,0.2-0.2,0.6-0.3,1
			c-0.1-0.3-0.3-0.6-0.3-0.9C30.4,9.3,28.7,10,28.2,9.3z"/>
		<path class="st22" d="M74,2.4c0-0.4,0-0.9,0-1.3c0-3.7,0-3.7-4.6-4c-0.3,0-0.6-0.1-0.9-0.1c0.6-0.5,1.3-1,1.9-1.5
			c0.4,0,0.8,0.1,1.2,0.1c2.4,0,2.3,0,2.5-1.9c0.1-1.1-0.6-2.4,0.7-3.4c0,3.3,0,6.7,0,10C74.6,1,74.2,1.7,74,2.4z"/>
		<path class="st78" d="M88.2,4.9c-0.9,0-1.9,0.1-2.7-0.1c-0.4-0.1-0.8-0.7-0.8-1.1c-0.1-0.6,0.8-1.1,1.1-0.8c0.9,1,1.7-0.3,2.6,0.1
			c0.8,0.4,1.7,0.5,2.6,0.8c0.3,0.1,0.6,0.3,0.9,0.5c-0.4,0.2-0.7,0.5-1.1,0.5C89.8,5,89,5,88.2,4.9C88.2,5,88.2,4.9,88.2,4.9z"/>
		<path class="st50" d="M34.2,7.6c-0.6,0-1.2,0-1.8,0c-0.9,0-1.2-0.4-1.2-1.1c0.6-0.1,1.2-0.3,1.8-0.4c0.7-0.6,1.3-1.2,2.4-1.1
			c0,0.2,0.1,0.4,0.1,0.6c-0.4,0.5-0.8,1-1.3,1.6c0-0.1-0.1-0.1-0.1-0.2c0,0-0.1,0-0.2-0.1c0.1,0.1,0.2,0.2,0.3,0.2
			C34.3,7.3,34.3,7.4,34.2,7.6z"/>
		<path class="st106" d="M57.9,3.9c-0.8,1-2,0.4-3.1,0.6c-0.2-0.1-0.4-0.3-0.7-0.4c0.2-0.2,0.4-0.4,0.7-0.6l0,0
			c1-0.8,2.1-0.1,3.1-0.1C57.9,3.6,57.9,3.7,57.9,3.9z"/>
		<path class="st93" d="M53.6,3.9c-0.2,0-0.4,0-0.6,0c-0.2-0.2-0.4-0.3-0.6-0.5c0.2-0.2,0.4-0.4,0.6-0.6c0.6-0.2,1.3-0.3,1.9-0.5
			c0,0.4,0,0.7,0,1.1c0,0,0,0,0,0C54.4,3.6,54,3.8,53.6,3.9z"/>
		<path class="st37" d="M52.3,3.5C52.5,3.6,52.8,3.8,53,4c-0.4,0.2-0.8,0.4-1.2,0.6c-0.2-0.4-0.5-0.8-0.7-1.1
			C51.5,3.4,51.9,3.4,52.3,3.5z"/>
		<path class="st167" d="M53.6,3.9c0.4-0.2,0.8-0.3,1.2-0.5c-0.2,0.2-0.4,0.4-0.7,0.6C54,4,53.8,3.9,53.6,3.9z"/>
		<path class="st169" d="M21.7,93.7c-3,0-6.1,0-9.1,0c-0.6,0-1.3,0.3-1.9,0.4c-0.2-0.3-0.5-0.7-0.7-1c0-0.7,0-1.3,0-2
			c0.2-0.2,0.5-0.4,0.7-0.6c0,0.2,0.1,0.3,0.1,0.5c0.1,2,0.1,2,2.6,2.1c2.7,0,5.3,0,8,0c2,0,3.9,0,5.9,0c0.5,0,1.3-0.5,1.3-0.7
			c0-2.7-0.2-5.4-0.3-8.2c0.1-1.1,0.4-2.2,0.4-3.3c0.1-2.3,0-4.7,0-7c0.3-0.2,0.5-0.4,0.8-0.7c0,0,0,0,0,0c0.6,0.9,1.2,1.7,1.8,2.6
			c-0.3,0.4-0.7,0.8-1,1.2c-0.3,0.5-0.5,1-0.7,1.5c0,0.3-0.1,0.7-0.1,1c0,0.4,0,0.7,0.1,1.1c0,0.3,0,0.6,0,0.9c0,0.4,0,0.8,0,1.1
			c0,0.3,0,0.6,0.1,0.9c0,0.4,0,0.8-0.1,1.2c0,0.3,0,0.6,0,1c0,0.4,0,0.7,0,1.1c0.1,0.5,0.1,1.1,0.2,1.6c0,0.3-0.1,0.6-0.1,1
			c0,0.4,0,0.7,0.1,1.1c0,0.3,0,0.6,0,1c0,0.4,0,0.8,0.1,1.1c0.4,0.1,0.9,0.3,1.1,0.2c1.1-0.7,2.1-1.5,3.1-2.3
			c0.4-0.1,0.8-0.3,1.2-0.4c0,0.3,0,0.6,0.1,1c0,0.7,0,1.4,0,2.1c-0.2,0.2-0.4,0.5-0.7,0.7c-3.9,0-7.7,0-11.6-0.1
			C22.4,93.7,22.1,93.7,21.7,93.7z"/>
		<path class="st171" d="M85.6,90.5c0.3-0.2,0.6-0.5,0.9-0.7c2.1,0,4.3,0.1,6.4,0.1c1.2,0,1.7-0.3,1.6-1.3c-0.1-1.3,0-2.6,0-3.9
			c0-0.4,0.4-0.7,0.6-1.1c0.2,0.4,0.6,0.7,0.6,1.1c0,2.8-0.1,5.6-0.1,8.4c-0.1,0.1-0.3,0.2-0.4,0.3c-0.1,0-0.3,0-0.3-0.1
			c-0.3-0.7-0.2-1.8-0.8-2c-0.9-0.4-2.1-0.2-3.2-0.3C89.1,90.8,87.2,91.4,85.6,90.5z"/>
		<path class="st50" d="M111.9,93.6c-0.4,0.5-0.9,0.9-1.2,1.5c-0.5,1-1.4,1.2-2.5,1.1c-0.1,0-0.2-0.1-0.3-0.1c0-0.6,0.2-1.5-0.1-1.6
			c-0.8-0.3-1.7-0.4-2.6-0.4c-2.8,0-5.5,0-8.3,0c-0.7,0-1.5,0.2-1.8-0.6c0.1-0.1,0.3-0.2,0.4-0.3c0.3,0.2,0.7,0.5,1,0.5
			c3.3-0.1,6.6,0.5,9.8-0.4C108.2,92.7,110.1,93.1,111.9,93.6z"/>
		<path class="st79" d="M25.5,33.5c0.8-0.5,1.6-0.9,2.6-0.4c0.2,1.1,0.4,2.1,0.6,3.2c-0.9,1.1-1.4,2.3-1.2,3.6c-0.2,0-0.5,0-0.7,0
			c-0.4-0.2-0.8-0.3-1.3-0.5c-0.9-1.7-1.4-2-3.2-1.8c-0.8,0.1-1.6,0.1-2.4,0.2c0,0,0-0.1,0-0.1c-0.1-0.9,0.1-1.6,1.2-2
			c0.7-0.2,1.5-0.4,2.2-0.7C24.3,34.7,25.4,34.6,25.5,33.5z"/>
		<path class="st183" d="M21.3,35.7c-1.1,0.4-1.3,1.1-1.2,2c-1.1,0.3-2.4,0.3-3,1.5c-0.1,0.2-0.9,0.1-1.4,0.2c0.8-1-0.5-1.7-0.6-2.6
			c1.3-0.3,2.4-0.7,1.7-2.1c0-0.2,0.1-0.3,0.1-0.5c0.2-1.4,0.2-1.4,1.9-1c0.4,0.5,0.8,1,1.3,1.5C20.4,35.1,20.9,35.4,21.3,35.7z"/>
		<path class="st116" d="M21.3,35.7c-0.4-0.3-0.9-0.7-1.2-1c-0.5-0.5-0.9-1-1.3-1.5c1-0.4,1.9-0.8,2.8-1.2c0.9-0.4,1.4-0.2,2.1,0.4
			c0.5,0.5,1.2,0.8,1.8,1.2c-0.1,1-1.2,1.2-2,1.6C22.8,35.4,22,35.5,21.3,35.7z"/>
		<path class="st48" d="M28.7,36.3c-0.2-1.1-0.4-2.1-0.6-3.2c2.3-0.8,2.9-0.8,4.3,0.5c-1,0.6-1,1.7-1.3,2.6
			C30.4,36.2,29.6,36.3,28.7,36.3z"/>
		<path class="st76" d="M42.3,32.6c0,0.5,0.1,1.1,0.1,1.6c-0.2,0.4-0.5,0.8-0.7,1.1c-0.8,0-1.6,0-2.3,0c-0.2,0-0.5,0-0.7-0.1
			c0.2-0.2,0.4-0.3,0.6-0.5c0.6-0.2,1.2-0.4,1.9-0.6c0.2,0,0.6,0.1,0.6,0C41.9,33.6,42.1,33.1,42.3,32.6z"/>
		<path class="st154" d="M22.5,61.7c1.9,0,3.7,0,5.5,0.1c0.7,0,1.3,0.3,1.9,0.5c-0.2,0-0.5,0-0.7,0c-1.2,0-2.5-0.2-3.6,0.1
			c-1.1,0.3-2.3-0.7-3.1,0.4c-0.2,0-0.5,0-0.7,0c-0.2-0.1-0.5-0.4-0.7-0.4c-1.8,0-3.5-0.1-5.3,0c-0.5,0-0.9,0.3-1.4,0.4
			c0-0.2,0-0.5,0-0.7c1-0.1,1.9-0.3,2.9-0.4C19.1,61.7,20.8,61.7,22.5,61.7z"/>
		<path class="st168" d="M29.4,73.2c-0.3,0.2-0.5,0.4-0.8,0.7c-2,0-4.1,0-6.1,0c-3.1,0-6.3-0.1-9.4-0.1c-2,0-2,0-2.3,2.1
			c-0.2,0-0.4,0-0.7,0l-0.2,0c0.3-3.1,0.3-3.1,3.9-3.1c2.2,0,4.3,0,6.5,0c0.5,0,1-0.4,1.6-0.5c0.4,0.2,0.8,0.4,1.2,0.5
			c1.1,0.1,2.2,0.1,3.3,0.2C27.4,73,28.4,73.1,29.4,73.2z"/>
		<path class="st188" d="M10.1,75.9c0.2,0,0.4,0,0.7,0c0,2.2,0,4.5,0,6.7c0.2,1.6,0.4,3.3,0.6,4.9c-0.2,0.8-0.5,1.7-0.7,2.5
			c-0.2,0-0.5,0-0.7,0c0-1.5,0.1-2.9,0-4.4c0-0.4-0.3-1.1-0.6-1.3c-1.2-0.7-0.7-0.8,0.3-1.2c0.3-0.1,0.4-0.9,0.4-1.4
			C10.1,79.7,10.1,77.8,10.1,75.9z"/>
		<path class="st28" d="M13.8,65.4c1.3,0,2.6,0,4,0c3.2,0,3.3-0.1,4.1-2.6c0.2,0,0.5,0,0.7,0c0.3,0.4,0.9,0.7,0.8,1
			c-0.3,1.5,0.8,1.6,2.1,1.6c1.3,0,2.6,0.2,3.9,0.4c0,0.2,0,0.4,0,0.6c-0.8-0.1-1.6-0.3-2.4-0.4c-2.5-0.3-2.7-0.1-3.8,2
			c0,0.2,0,0.4-0.1,0.6c-0.8,0-1.6,0-2.5,0c0-0.2,0-0.4,0-0.5c0.1-0.3,0.1-0.7,0.3-1c0.3-0.7,0.1-1-0.7-1c-1.5,0-3,0-4.6,0
			C15,65.9,14.4,65.6,13.8,65.4z"/>
		<path class="st191" d="M15.1,36.8c0.1,0.9,1.4,1.5,0.6,2.6c0,0.7-0.4,1.1-1.3,1c-1.6-0.6-3.4-1.1-3.1-3.1
			C12.4,36.4,13.7,36.2,15.1,36.8z"/>
		<path class="st190" d="M5.7,37.4c0,0.1,0,0.2,0,0.3c-0.2,0.3-0.4,0.7-0.5,1c-0.2-0.3-0.5-0.6-0.7-0.9C4.9,37.6,5.3,37.5,5.7,37.4z
			"/>
		<path class="st105" d="M57.9,17.5c6.4,0,12.8,0,19.2,0c0,0.2,0,0.4,0,0.5c0,0.2,0,0.4,0,0.5c-0.2,0-0.4,0-0.6-0.1
			c-2.2-0.7-3.7-0.7-5.6,0.1c-1.5,0-3.1,0-4.6-0.1c-1.3,0-2.4,0-3.3,0.9c-0.2,0.2-0.8,0.1-1.2,0.2c-0.4-0.5-0.9-1.1-1.3-1.6
			c-0.4,0-0.9,0-1.3,0c-0.2,0.7-0.4,1.4-0.6,2.1c-0.2,0-0.4,0-0.6,0C57.9,19.2,57.9,18.3,57.9,17.5z"/>
		<path class="st28" d="M59.1,18c0.4,0,0.9,0,1.3,0c-0.2,0.9-0.4,1.7-0.6,2.6c-0.6,0-1.3,0-1.9,0c0-0.2,0-0.4,0-0.5
			c0.2,0,0.4,0,0.6,0C60.1,19.7,59.1,18.8,59.1,18z"/>
		<path class="st192" d="M59.8,20.6c0.2-0.9,0.4-1.7,0.6-2.6c0.4,0.5,0.9,1.1,1.3,1.6c-0.1,0.1-0.1,0.3-0.1,0.4c0,0,0,0,0,0
			C61,20.2,60.4,20.4,59.8,20.6z"/>
		<path class="st116" d="M14.4,40.4c0.8,0,1.3-0.3,1.3-1c0.5,0,1.3,0,1.4-0.2c0.6-1.1,1.8-1.2,3-1.5l0,0.1c0.1,0.5,0.5,1.2,0.2,1.4
			c-1.2,1.3,0.2,1.3,1,1.7c0,0.2,0,0.4,0.1,0.5c-0.2,0.5-0.5,1-0.7,1.5c-0.8,0.6-1.6,1.2-2.4,1.7c-0.2,0.1-0.3,0.2-0.5,0.4
			c-0.2,0-0.5,0-0.7,0.1c-1-0.9-1.5-2.3-3.1-2.7c0-0.2,0-0.3,0-0.5C14,41.5,14.2,40.9,14.4,40.4z"/>
		<path class="st193" d="M3.9,43c0.2-0.7,0.4-1.4,0.6-2.1c0.6,0.2,1.3,0.4,1.9,0.6c-0.2,0.3-0.5,0.5-0.6,0.8
			C5.6,43.3,4.9,43.5,3.9,43z"/>
		<path class="st121" d="M23.2,68c5.2,0,10.5,0,15.7,0.1c1,0,2.1-0.4,2.9,0.5c-6.2,0-12.4,0-18.7,0C23.2,68.4,23.2,68.2,23.2,68z"/>
		<path class="st125" d="M115.7,62.3c-0.2,0.2-0.4,0.3-0.6,0.5c-4.1,0-8.2,0-12.2,0c-1.1,0-2.2,0-3.3,0c-0.2-0.2-0.5-0.4-0.7-0.6
			c0.9-0.2,1.7-0.4,2.6-0.5c2-0.1,4.1-0.1,6.2-0.2c1.9,0,3.9,0,5.8,0.2C114.1,61.8,114.9,62.1,115.7,62.3z"/>
		<path class="st14" d="M52.4,84.2c-0.8,2.3-2.3,4.2-4.9,5.3c-1.1,0.5-2.4,0.7-3.7,1c-0.1-0.2-0.1-0.4-0.2-0.6c0-0.5-0.1-1-0.1-1.5
			c0.5-0.2,1-0.4,1.6-0.5c2.3-0.4,3.7-1.5,4.1-3.7C50.3,84.2,51.3,84.2,52.4,84.2L52.4,84.2z"/>
		<path class="st80" d="M43.6,89.9c0.1,0.2,0.1,0.4,0.2,0.6c-0.6,0.2-1.3,0.4-1.9,0.5c-2.3,0.1-4.6,0-7,0c0-0.3,0-0.6-0.1-1
			c0,0,0.2-0.1,0.2-0.1C37.9,89.9,40.8,89.9,43.6,89.9z"/>
		<path class="st186" d="M53.7,83.6c0.1,0,0.2,0,0.3,0L53.7,83.6z"/>
		<path class="st156" d="M29.3,40.4c0.8,0,1.6,0.1,2.5,0c0.7-0.1,1.5-0.2,2.2-0.4c-0.5-0.3-1-0.5-1.5-0.8c-0.1-0.1-0.2-0.3-0.1-0.4
			c0.2-0.2,0.5-0.4,0.7-0.4c2.1,0.4,0.9-0.6,0.7-1.2c0.6,0.2,1.3,0.4,1.9,0.5c-0.1,1,0.3,2.4-0.3,3c-0.6,0.5-2.3,0.1-3.5,0.2
			c-0.6,0-1.2,0.1-1.8,0.2c-0.2,0-0.5,0-0.7-0.1C29.3,40.8,29.3,40.6,29.3,40.4z"/>
		<path class="st76" d="M43,34.2c0.2-0.5,0.4-1,0.6-1.6c0,0.3-0.1,0.7,0,1c0.1,0.3,0.3,0.6,0.5,0.8c0.3-0.3,0.6-0.6,0.9-0.9
			c0.4,0,0.8,0,1.1,0.1c0,0.5,0,1,0,1.5c-0.8,0-1.6,0.1-2.4,0.1C43.5,34.9,43.2,34.5,43,34.2z"/>
		<path class="st67" d="M43,34.2c0.2,0.4,0.5,0.8,0.7,1.1c-0.7,0.6-1.3,0.5-2,0c0.2-0.4,0.5-0.8,0.7-1.1
			C42.6,34.2,42.8,34.2,43,34.2z"/>
		<path class="st79" d="M23.9,99.3c-0.2-0.2-0.5-0.3-0.7-0.5c0-0.3,0-0.6-0.1-0.9c0-0.1-0.5-0.1-0.7-0.1c0,0-0.3,0-0.3,0
			c0-0.2-0.1-0.4-0.1-0.6c0-0.2-0.1-0.3-0.1-0.5l0,0c0.8-0.5,1.7-0.5,2.4,0.1c0,0.1,0,0.3,0,0.4C24.2,97.9,24,98.6,23.9,99.3z"/>
		<path class="st75" d="M24.4,96.8c-0.8-0.6-1.6-0.5-2.4-0.1c0.2-0.7,0.4-1.4,0.6-2.1c0.2,0,0.4,0,0.6,0c0.2,0,0.4,0,0.6-0.1l0,0.1
			c-0.1,0.7,0.4,1,1.2,1C24.8,96,24.6,96.4,24.4,96.8z"/>
		<path class="st50" d="M24.4,96.8c0.2-0.4,0.4-0.7,0.6-1.1c0,0,0,0,0,0c0.2,0,0.4,0,0.6,0.1c0.1,0.2,0.1,0.3,0.2,0.5
			c0.4,0.7,0.7,0.4,1.1,0c0.2,0,0.4,0,0.6,0c0,0.6-0.3,1-1,1c-0.7,0-1.4,0-2.1,0C24.4,97,24.4,96.9,24.4,96.8z"/>
		<path class="st114" d="M22.5,94.6c-0.2,0.7-0.4,1.4-0.6,2.1c0,0,0,0,0,0c-0.2-0.4-0.4-0.7-0.7-1.1c0.2-0.7,0.3-1.3,0.5-2
			c0.3,0,0.6,0,1,0C22.6,94,22.6,94.3,22.5,94.6z"/>
		<path class="st202" d="M25,95.6c-0.8,0-1.3-0.2-1.2-1c0.2,0,0.4-0.1,0.6-0.1l0,0c0.2,0.2,0.5,0.3,0.7,0.5l0,0
			C25,95.3,25,95.5,25,95.6C25,95.7,25,95.6,25,95.6z"/>
		<path class="st10" d="M25.6,94.6c0,0.2,0,0.3-0.1,0.5c-0.2,0-0.4,0-0.6,0l0,0c0-0.2,0-0.3,0-0.5l0-0.1
			C25.2,94.6,25.4,94.6,25.6,94.6z"/>
		<path class="st159" d="M55.4,67.7c-1.1,0.1-2.2,0.4-3.3,0.4c-2.9,0.1-3.1-0.1-3.6-2.7c0.4,0.3,0.7,0.5,1.1,0.8
			c0.2,0.1,0.4,0.3,0.6,0.4c0.1-0.2,0.1-0.3,0.2-0.5c0.6-1.9,0.6-1.9,2.6-1.5c0.8,0.1,1.6,0.2,2.4,0.3c0,0.2,0,0.4,0,0.5
			c0.2,0.5,0.4,1,0.6,1.6c0.2,0,0.4,0,0.6,0c0,0.2,0,0.4,0,0.6C56.2,67.6,55.8,67.6,55.4,67.7z"/>
		<path class="st162" d="M56.6,67.5c0-0.2,0-0.4,0-0.6l0.3,0l0.3,0c1.4,0.7,2.9,1.4,4.3,2.1c0.4,0.2,0.9,0.4,1.3,0.5
			c0.4,0.6,1,1.3-0.5,1.5c-0.5,0.1-1,0-1.5,0C56,71.2,56.6,71.5,56.6,67.5z"/>
		<path class="st186" d="M34.9,73.8c-0.1,0.9-0.1,1.7-0.2,2.6c-0.4,0.5-0.7,0.9-1.1,1.4c-0.2-0.1-0.4-0.1-0.6-0.1l0-0.1
			c0-0.2-0.1-0.4-0.1-0.7c0-0.2,0.1-0.4,0.1-0.7c-0.6-0.1-1.3-0.3-1.9-0.4c-0.6-0.9-1.2-1.7-1.8-2.6c0.6-0.1,1.1-0.3,1.7-0.4
			c1.3,0.2,2.6,0.3,3.8,0.5C34.9,73.5,34.9,73.6,34.9,73.8z"/>
		<path class="st116" d="M62.9,69.6c-0.4-0.2-0.9-0.4-1.3-0.5c2-0.9,3.7-1.9,3.1-4.1c0.6-0.2,1.2-0.4,1.9-0.6
			c0.2,0.9-0.5,1.9,0.7,2.6c-1.9,0.8-1.2,2.3-1.3,3.6c-0.4,0-0.9,0-1.3-0.1C64.1,70.3,63.5,69.9,62.9,69.6z"/>
		<path class="st17" d="M34.9,73.8c0-0.2,0-0.3,0-0.5c7,0,14.1,0,21.1,0c0.6,0,1.3,0.3,1.9,0.5C50.3,73.8,42.6,73.8,34.9,73.8z"/>
		<path class="st191" d="M43.6,63.5c-3.7,0-7.3-0.1-11-0.1c-1,0-1.5,0.4-1.5,1.2c0,0.5,0,1-0.1,1.5c-0.3,0.9-1,0.6-1.6,0.3
			c0-0.2,0-0.4,0-0.6c1.4-1.5,1.4-1.9-0.1-3.5c0.2,0,0.5,0,0.7,0c1.2-0.3,2.5-0.7,3.7-1c0,1.1,0.8,1,1.7,1c0.3,0,0.6,0,0.9,0
			c0.4,0,0.7,0,1.1,0c0.4,0,0.8,0,1.2,0c0.6,0,1.3,0.1,1.9,0.1c1.2,0,2.4,0,3.1-1.1c0,0.7,0.5,1.2,1.3,1c0.4-0.1,1.1-0.6,1.1-0.9
			c-0.1-1.8-0.3-3.5-0.5-5.3c0.2,0,0.5-0.1,0.7-0.1c0.6,0.2,1.2,0.5,1.7,0.7c-0.3,0.4-0.6,0.7-0.8,1.1c-0.4,0.6-0.5,1.1,0.3,1.5
			c-0.7,0.8-0.5,1.7-0.3,2.6c0,0.2,0.6,0.5,0.8,0.4c0.9-0.5,1.7-1.1,3-1c0.2,0,0.5-0.5,0.6-0.9c0.2-0.4,0.2-0.8,0.3-1.1
			c0.2,0.1,0.4,0.3,0.6,0.4c-0.2,1.1,0.3,1.8,1.7,1.6c0,0.3,0,0.6,0,0.9c-0.6,0.7-1.2,1.3-2.4,1.2c-1.2-0.1-2.5,0.1-3.7,0.1
			C46.5,63.5,45.1,63.5,43.6,63.5z"/>
		<path class="st116" d="M64.7,65c0.6,2.2-1.1,3.2-3.1,4.1c-1.4-0.7-2.9-1.4-4.3-2.1c0.2-0.7,0.4-1.4,0.6-2.1
			c1.2,0.2,2.8-0.6,3.3,1.1c0,0.1,0.9,0,0.9,0C62.4,64.6,63.6,64.9,64.7,65z"/>
		<path class="st22" d="M54.1,62.2c0-0.3,0-0.6,0-0.9l0.1,0c0.2-0.4,0.4-0.8,0.6-1.1c0.1-0.3,0.1-0.7,0.2-1c0.4,0.1,0.8,0.7,1.2,0
			c2.3,0,2.3,0,2.4-2c0-0.2,0-0.3,0-0.5c0.4,0,0.8,0,1.2,0l0,0c0,1.9,0,3.8,0,5.7c-1.6-0.7-3.3-0.1-4.9,0
			C54.6,62.3,54.3,62.2,54.1,62.2z"/>
		<path class="st202" d="M57.9,64.9c-0.2,0.7-0.4,1.4-0.6,2.1L57,67l-0.3,0c-0.2,0-0.4,0-0.6,0c0.2-0.6,1.2-1.5-0.6-1.6
			c0-0.2,0-0.4,0-0.5C56.2,65.1,57.1,63.9,57.9,64.9z"/>
		<path class="st137" d="M62.2,49.3c1.2,0.2,2.5,0.3,3.7,0.5c0,0.4,0,0.7,0,1.1c-2.4,0.1-2.4,0.1-2.4,1.9c0,3,0,6,0,9
			c-0.4,0-0.8,0-1.1,0c0-0.9,0-1.8-0.1-2.8c-0.1-1.8-0.1-1.8-2.5-2.5l0,0c0.2-0.3,0.3-0.8,0.6-0.9c2.1-0.9,2.1-2.5,1.9-4.1
			C62.2,50.8,62.2,50,62.2,49.3z"/>
		<path class="st121" d="M78.4,18.5c0.6-0.3,1.2-0.6,1.8-0.9c1.3-0.8,2.3-1.6,1.3-3.2c-0.5-0.9,0-1.3,1.1-1c2.4,0.6,4.6,0.2,7-0.2
			c1.9-0.4,3.8,0.3,5.5,1c0.6,0.2,1.3,0.5,1.9,0.8c-0.2,0.4-0.4,0.7-0.6,1.1c-0.2,0.2-0.4,0.3-0.6,0.5c-1.6,0.1-2.4,1.1-3.1,2.1
			c-4.8,0.2-4.3-0.7-4.4,3.7c-2.2,0.3-2.2,0.3-2.5-1.5c0-2,0-2.1-2-2.1C82,18.5,80.2,18.5,78.4,18.5z"/>
		<path class="st39" d="M78.4,18.5c1.8,0,3.6,0,5.5,0c2,0,1.9,0.1,2,2.1c-1.1,0-2.4-0.2-2.1,1.4c0,0.1-0.7,0.6-1.1,0.6
			c-1.6,0.1-3.3,0-4.9,0c0-1.4,0-2.7,0-4.1C78,18.6,78.2,18.5,78.4,18.5z"/>
		<path class="st106" d="M74.3,22.7c-0.5,0-1.1,0.1-1.5,0c-0.4-0.1-1-0.4-1-0.7c-0.1-0.3,0.3-1,0.6-1c1.3-0.1,2.6-0.2,3.9,0
			c0.3,0,0.6,0.8,0.7,1.2c0,0.2-0.7,0.5-1.1,0.6C75.3,22.8,74.8,22.7,74.3,22.7C74.3,22.7,74.3,22.7,74.3,22.7z"/>
		<path class="st23" d="M46.1,33.7c-0.4,0-0.8,0-1.1-0.1c0-0.3-0.1-0.7-0.1-1C45.7,32.6,46.1,32.9,46.1,33.7z"/>
		<path class="st120" d="M21.9,97.2c0,0.2,0.1,0.4,0.1,0.6c-0.2,0.3-1,0.6-0.2,1.1c-0.6,0.7-1.2,0.7-1.8,0c0.2-0.4,0.5-0.7,0.7-1.1
			C21.2,97.6,21.5,97.4,21.9,97.2z"/>
		<path class="st114" d="M20.8,97.7c-0.2,0.4-0.5,0.7-0.7,1.1c-0.2,0-0.4,0-0.7,0c0-0.3,0.1-0.7,0.1-1C19.9,98,20.2,96,20.8,97.7z"
			/>
		<path class="st120" d="M22.4,97.8c0.2,0,0.7,0,0.7,0.1c0.1,0.3,0.1,0.6,0.1,0.9c-0.2,0-0.4,0-0.7,0C22.4,98.4,22.4,98.1,22.4,97.8
			z"/>
		<path class="st151" d="M22.4,97.8c0,0.3,0.1,0.7,0.1,1c-0.2,0-0.4,0-0.6,0c-0.7-0.5,0-0.7,0.2-1.1L22.4,97.8z"/>
		<path class="st39" d="M95.8,16.4c0.2-0.2,0.4-0.3,0.6-0.5c0.8,0.5,0.9,1,0,1.5C96.2,17.1,96,16.8,95.8,16.4L95.8,16.4z"/>
		<path class="st83" d="M95.8,16.4c0.2,0.4,0.4,0.7,0.6,1.1C96.2,17.1,96,16.8,95.8,16.4z"/>
		<path class="st22" d="M70.3,3.5c-0.9-1-1.9-1.9-3.7-1.8c-1.1,0.1-1.1-0.6-0.6-1.6c0.5-1,1.5-1.4,2.4-2c1.2-0.1,1.9,0.1,1.9,1.3
			C70.2,0.8,70.3,2.2,70.3,3.5z"/>
		<path class="st11" d="M46.8,2.9c0-1-0.3-1.8-1.6-2.2c-1-0.3-1.9-0.9-2.8-1.4l0-0.2c-0.2-0.4-0.4-0.4-0.6,0
			c-0.4-0.2-0.8-0.3-1.2-0.5c0.5-1.4-1.2-1.5-1.8-2.1c2.2-0.9,4.5-0.4,6.7-0.5c1.1,0.6,2.3,1.3,3.8,1.1c0,0.1,0,0.3,0,0.4
			c-0.7,0.4-1.8,0.7-0.6,1.6c-0.2,1.2-0.4,2.4-0.6,3.6C47.6,2.9,47.2,2.9,46.8,2.9z"/>
		<path class="st34" d="M48,2.9c0.2-1.2,0.4-2.4,0.6-3.6c0.2-0.2,0.4-0.3,0.5-0.5c0.2,0,0.5,0,0.7,0c0.2,0,0.4,0,0.6,0
			c0.2,0.6,0.5,1.2,0.6,1.8c0.2,0.9,0.8,0.4,1.3,0.3c0,0.5,0,1,0,1.6c-0.9-0.4-1.5-0.3-1.9,0.5c0,0,0.1,0.1,0.1,0.1
			C49.7,3,48.8,2.9,48,2.9z"/>
		<path class="st204" d="M52.3,3.5c-0.4,0-0.8,0-1.3,0c-0.2-0.1-0.4-0.3-0.5-0.4l-0.1-0.1c0.8,0,1.7,0,2.5,0c0,0,0,0,0,0
			C52.7,3.1,52.5,3.3,52.3,3.5z"/>
		<path class="st52" d="M58.4,3.9c0.1-0.1,0.3-0.2,0.4-0.4C59,3.7,59,3.8,59.1,3.9C58.9,3.9,58.7,3.9,58.4,3.9z"/>
		<path class="st43" d="M33.7-0.8C32.8-0.4,32,0,31.2,0.3c0,0,0.1-0.2,0.1-0.2c-0.1-0.3-0.2-0.7-0.4-0.9c-1.9-1.5-1.9-3.1-0.3-4.8
			C31-6,31.4-6.5,31.8-7c1.2,0.5,2.6,0.9,3.1,2.1c0,0.2,0.1,0.3,0.1,0.5c0.2,0.2,0.4,0.4,0.5,0.5c-0.6,0-1.5-0.2-1.8,0.1
			c-0.7,0.7-1,1.5-1.5,2.3c0.3,0.1,0.6,0.1,0.9,0.2C33.3-1.1,33.5-0.9,33.7-0.8z M33.1-4.9c0.2,0,0.4,0,0.6,0.1
			C33.5-5.2,33.3-5.4,33.1-4.9z"/>
		<path class="st184" d="M25.6,4.4c0.4-0.3,0.9-0.6,1.2-1c1-1.4,2.4-2.2,4.4-2.1c0,0.4,0,0.7,0,1.1c-1.4,1-2,2.2-1.2,3.8
			c0.7,1.2-0.7,0.8-1.3,0.9c-1-0.7-2.1-1.4-3.1-2.1C25.6,4.8,25.6,4.6,25.6,4.4z"/>
		<path class="st154" d="M37.4,0.8c-0.2,0.3-0.4,0.7-0.6,1c-0.2-0.8-0.5-1.6-0.7-2.4c0.6-0.3,0.5-0.5,0-0.7c0.1-0.5,0.1-1,0.2-1.5
			c0.4,0,0.8,0,1.1,0c0,0.3,0.1,0.7,0.1,1c0,0.2,0,0.4,0,0.6C37.4-0.6,37.4,0.1,37.4,0.8z"/>
		<path class="st186" d="M35.5,5c-1.1-0.1-1.7,0.5-2.4,1.1c0-0.2,0-0.3,0-0.5c0-0.4,0-0.7,0-1.1c0-0.4-0.1-0.7-0.1-1.1l0.1,0
			c0.2,0,0.4,0,0.6,0.1l0,0c0,1.1,1,0.9,1.8,1.1C35.5,4.7,35.5,4.8,35.5,5z"/>
		<path class="st26" d="M32.9,3.4C33,3.7,33,4.1,33,4.4c-0.6,0-1.2,0-1.7,0C31.2,3.8,31,3.2,31.9,3C32.2,3.1,32.6,3.2,32.9,3.4z"/>
		<path class="st164" d="M35.5,4.5c-0.8-0.2-1.8,0-1.8-1.1c0.2,0,0.5,0,0.7,0c0.1,0.1,0.1,0.2,0.2,0.3c0.1-0.1,0.1-0.2,0.2-0.3
			C35,3.8,35.3,4.2,35.5,4.5z"/>
		<path class="st90" d="M34.8,3.5c-0.1,0.1-0.1,0.2-0.2,0.3c-0.1-0.1-0.1-0.2-0.2-0.3C34.5,3.4,34.7,3.4,34.8,3.5z"/>
		<path class="st62" d="M33.1,2.9c-0.1-0.1-0.2-0.2-0.3-0.2c0.1,0,0.1,0,0.2,0C33,2.8,33,2.8,33.1,2.9C33.1,2.9,33.1,2.9,33.1,2.9z"
			/>
		<path class="st124" d="M33.7,3.4c-0.2,0-0.4,0-0.6-0.1c0-0.2,0-0.3,0-0.5l0,0C33.3,3.1,33.5,3.3,33.7,3.4z"/>
		<path class="st64" d="M24.3,4.4c0-2.4,0-4.9,0-7.3C24.6-3,24.8-3.2,25-3.4c0.2,0,0.4,0,0.7,0.1c0,2.6,0,5.2,0,7.7
			c0,0.2,0,0.4,0,0.5C25.2,4.8,24.8,4.6,24.3,4.4z"/>
		<path class="st116" d="M31.3,4.4c0.6,0,1.2,0,1.7,0c0,0.4,0,0.7,0,1.1c-0.6,0-1.2,0-1.8,0C31.3,5.2,31.3,4.8,31.3,4.4z"/>
		<path class="st145" d="M34.3,7.1C34.2,7,34.1,6.9,34,6.8c0.1,0,0.1,0,0.2,0.1C34.2,6.9,34.3,7,34.3,7.1L34.3,7.1z"/>
		<path class="st27" d="M57.2,2.4c0.2,0.3,0.4,0.7,0.6,1c-1-0.1-2.1-0.7-3.1,0.1c0-0.4,0-0.7,0-1.1l0,0C56.1,2,56.1,1,56,0.1
			c-0.1-0.6-0.4-1.3-0.6-1.9l0,0C56.4-0.9,57.2,1.1,57.2,2.4z"/>
		<path class="st170" d="M54.8,2.4c-0.6,0.2-1.3,0.3-1.9,0.5l0,0c0-0.2,0-0.3,0-0.5c0.6-0.4,1.2-0.7,1.8-1.1
			C54.8,1.7,54.8,2,54.8,2.4L54.8,2.4z"/>
		<path class="st75" d="M20.8,97.7c-0.5-1.7-0.8,0.2-1.3,0.1c-0.5-1.3,0.7-1.7,1.7-2.2c0.2,0.4,0.4,0.7,0.7,1.1c0,0.2,0,0.3,0.1,0.5
			C21.5,97.4,21.2,97.6,20.8,97.7z"/>
		<path class="st16" d="M29.5,88.4c-0.1-0.5-0.1-1.1-0.2-1.6c1.2-1,2.5-2.1,3.7-3.1c0,0,0.3,0,0.3,0l0.3,0c0,0.5,0,1,0,1.5
			c0,0.2,0,0.4-0.1,0.5c-0.6,0.3-1.2,0.7-1.8,1c-0.3-0.6-0.4-0.3-0.6,0l0,0c-0.2,0.2-0.4,0.5-0.7,0.7c0,0.3,0,0.6,0,0.9c0,0,0,0,0,0
			C30.2,88.4,29.9,88.4,29.5,88.4z"/>
		<path class="st167" d="M33.6,85.8c0-0.2,0-0.4,0.1-0.5c0.4-0.3,0.8-0.7,1.2-1c0.1,1.9,0.1,3.8,0.2,5.7L34.8,90
			c-0.4,0.1-0.8,0.3-1.2,0.4c0-0.3,0-0.7,0-1c0-0.4,0-0.7,0-1.1c-0.2-0.3-0.4-0.7-0.6-1c0,0,0,0,0,0C33.3,86.8,33.4,86.3,33.6,85.8z
			"/>
		<path class="st113" d="M33.1,83.7c-1.2,1-2.5,2.1-3.7,3.1c0-0.4,0-0.7,0-1.1c0.5-0.4,1-0.7,1.5-1.1c0.1-0.1,0-0.4-0.1-0.6
			c-0.2,0.1-0.4,0.1-0.5,0.2c-0.3,0.2-0.6,0.4-0.9,0.6c0-0.4,0-0.8,0.1-1.2c0.8-0.3,1.6-0.6,2.4-1c0.2,0.2,0.4,0.3,0.6,0.5
			c0,0,0,0.2,0,0.2C32.7,83.4,32.9,83.6,33.1,83.7z"/>
		<path class="st105" d="M33.7,88.3c0,0.4,0,0.7,0,1.1c-1.4,1-2.8,2.1-4.2,3.1c0-0.4,0-0.8-0.1-1.1c1-0.9,2-1.7,3-2.6l0,0
			c0.2-0.2,0.4-0.4,0.7-0.5l0,0l0.3,0L33.7,88.3z"/>
		<path class="st92" d="M33.7,79.4c-1.4,1.1-2.8,2.2-4.2,3.2c0-0.4,0-0.8,0-1.1c1.4-1.1,2.8-2.1,4.3-3.2c0,0,0,0.2,0,0.2
			c0,0.1,0,0.3,0,0.4C33.7,79.1,33.7,79.3,33.7,79.4z"/>
		<path class="st63" d="M33.7,78.4c-1.4,1.1-2.8,2.1-4.3,3.2c0-0.3,0-0.6,0-0.9c1-0.9,2-1.8,3-2.7c0,0,0,0,0,0
			c0.2-0.1,0.5-0.2,0.7-0.3c0.2,0,0.4,0,0.6,0.1C33.7,77.9,33.7,78.2,33.7,78.4z"/>
		<path class="st39" d="M33.1,76.2c0,0.2-0.1,0.4-0.1,0.7c-0.2,0.2-0.4,0.3-0.6,0.5c0,0.2,0,0.4,0,0.6c0,0,0,0,0,0
			c-1,0.5-2.1,1-3.1,1.5c0-0.3,0.1-0.7,0.1-1C30.7,77.7,31.9,77,33.1,76.2z"/>
		<path class="st40" d="M29.5,90.5c0-0.4,0-0.7-0.1-1.1c0.4-0.3,0.8-0.7,1.2-1c0,0,0,0,0,0c0.8-0.4,1.7-0.7,2.5-1.1c0,0,0,0,0,0
			c0,0.4,0,0.7,0,1.1l0,0c-0.2,0.2-0.4,0.4-0.7,0.5l0,0C31.5,89.4,30.5,90,29.5,90.5z"/>
		<path class="st64" d="M33.1,76.2c-1.2,0.8-2.4,1.5-3.7,2.3c0.2-0.5,0.4-1,0.7-1.5c0.3-0.4,0.7-0.8,1-1.2
			C31.8,76,32.5,76.1,33.1,76.2z"/>
		<path class="st125" d="M29.4,79.5c1-0.5,2.1-1,3.1-1.5c-1,0.9-2,1.8-3,2.7C29.4,80.2,29.4,79.9,29.4,79.5z"/>
		<path class="st104" d="M29.4,84.8c0.3-0.2,0.6-0.4,0.9-0.6c0.2-0.1,0.3-0.1,0.5-0.2c0,0.2,0.2,0.5,0.1,0.6c-0.5,0.4-1,0.7-1.5,1.1
			C29.4,85.4,29.4,85.1,29.4,84.8z"/>
		<path class="st39" d="M30.6,88.4c-0.4,0.3-0.8,0.7-1.2,1c0-0.3,0.1-0.6,0.1-1C29.9,88.4,30.2,88.4,30.6,88.4z"/>
		<path class="st101" d="M29.3,40.4c0,0.2,0.1,0.4,0.1,0.7c-0.1,1.8-2.2,2.6-3,4.1l-0.1,0c-0.2,0-0.4,0-0.6,0l0,0
			c0.1-1.1-0.3-2-1.9-2.1c0.4-0.3,0.8-0.7,1.2-1c0-0.4,0-0.7,0-1.1c0.1-0.2,0.1-0.3,0.2-0.5l0.3,0c0,0,0.3,0,0.3,0
			c0.4-0.2,0.8-0.4,1.2-0.5c0.2,0,0.5,0,0.7,0C28.1,40.1,28.7,40.2,29.3,40.4z"/>
		<path class="st103" d="M25.7,40.4l-0.3,0l-0.3,0c-0.9-0.1-1.7-0.2-2.6-0.1c-0.5,0-0.9,0.4-1.3,0.7c-0.8-0.4-2.1-0.5-1-1.7
			c0.2-0.3-0.1-0.9-0.2-1.4c0.8-0.1,1.6-0.1,2.4-0.2c1.8-0.2,2.3,0.1,3.2,1.8C25.6,39.7,25.6,40.1,25.7,40.4z"/>
		<path class="st19" d="M25.7,40.4c0-0.3,0-0.7,0-1c0.4,0.2,0.8,0.3,1.3,0.5C26.5,40.1,26.1,40.2,25.7,40.4z"/>
		<path class="st211" d="M33.6,48.7c0.2-0.1,0.5-0.3,0.7-0.4c0.3,0.3,0.5,0.7,0.8,1c-0.1,2.6-0.1,5.2-0.2,7.8c0,0.3,0,0.6,0,1
			c-0.4,0.2-0.8,0.4-1.3,0.5c-1.4-0.4-1.4-0.4-0.6-1.1c0.7-0.6,0.9-3,0.2-3.7c-0.1-0.1-0.6,0.1-0.8,0.1c0.2-0.8,0.2-2,0.8-2.4
			C34.5,50.5,33.8,49.7,33.6,48.7z"/>
		<path class="st174" d="M18.8,49.3c-0.4,0-0.9,0-1.3,0c-0.2,0-0.4,0-0.6,0c-0.2,0-0.4,0.1-0.6,0.1c0-0.4,0-0.7,0-1.1
			c0-0.3-0.1-0.7-0.1-1c0.2-0.4,0.5-0.8,0.7-1.1c0.2,0,0.4,0.1,0.6,0.1l0,0c0.4,0.3,0.8,0.7,1.3,1c0.2,0,0.4,0.1,0.6,0.1
			c0,0.1,0,0.3,0,0.4C19.2,48.2,19,48.7,18.8,49.3z"/>
		<path class="st174" d="M11.3,48.8c1.2-0.8,2.5-0.8,3.7,0C13.8,48.8,12.6,48.8,11.3,48.8z"/>
		<path class="st185" d="M16.2,47.2c0,0.3,0.1,0.7,0.1,1c-0.2,0-0.4,0-0.6,0C15.9,47.9,16.1,47.6,16.2,47.2z"/>
		<path class="st215" d="M15.1,48.8c0.2,0,0.4,0,0.6-0.1c-0.1,0.2-0.2,0.3-0.3,0.5C15.3,49,15.2,48.9,15.1,48.8z"/>
		<path class="st146" d="M33.1,59.6c0,0.2,0,0.5,0,0.7C33.1,60.1,33.1,59.8,33.1,59.6z"/>
		<path class="st15" d="M29.3,62.3c1.5,1.6,1.5,2,0.1,3.5c-1.3-0.1-2.6-0.4-3.9-0.4c-1.3,0-2.4,0-2.1-1.6c0.1-0.3-0.5-0.7-0.8-1
			c0.8-1,2.1-0.1,3.1-0.4C26.7,62.2,28,62.4,29.3,62.3z"/>
		<path class="st204" d="M17.6,46.2c-0.2,0-0.4-0.1-0.6-0.1c0-0.3,0-0.6,0-0.9c0.2,0,0.5,0,0.7-0.1C17.7,45.5,17.6,45.8,17.6,46.2z"
			/>
		<path class="st136" d="M10.8,82.5c0.5,0.1,1.1,0.4,1.6,0.4c1.3,0,2.6-0.2,3.8-0.3c0,0.3,0,0.7-0.1,0.7c-2,0.7-2.8,2.3-3.8,3.8
			c-0.1,0.2-0.5,0.2-0.8,0.3C11.2,85.8,11,84.2,10.8,82.5z"/>
		<path class="st79" d="M59.1,18c0,0.7,1,1.7-0.6,2.1C58.7,19.4,58.9,18.7,59.1,18z"/>
		<path class="st69" d="M19.4,47.3c-0.2,0-0.4-0.1-0.6-0.1c0-0.1,0-0.3,0-0.4c0.2-0.2,0.4-0.4,0.7-0.6c1.4,0,1.4-0.9,1.1-1.6
			c-0.3-0.7-1-0.3-1.5-0.1c-0.3,0.1-0.6,0.2-0.9,0.3c0.8-0.6,1.6-1.2,2.4-1.7c0.3,0.2,0.5,0.4,0.8,0.6c0,0.9-0.1,1.7-0.1,2.6
			c0,0.2,0,0.4,0.1,0.6c-0.3,0.2-0.5,0.5-0.8,0.6C20.2,47.4,19.8,47.3,19.4,47.3z"/>
		<path class="st36" d="M18.2,44.7c0.3-0.1,0.6-0.2,0.9-0.3c0.5-0.2,1.2-0.6,1.5,0.1c0.3,0.7,0.3,1.6-1.1,1.6c-0.3,0-0.5,0-0.8,0.1
			c-0.4,0-0.7-0.1-1.1-0.1c0,0,0,0,0,0c0-0.4,0.1-0.7,0.1-1.1C17.9,45,18,44.8,18.2,44.7z"/>
		<path class="st90" d="M21.2,40.9c0.4-0.2,0.9-0.6,1.3-0.7c0.8-0.1,1.7,0.1,2.6,0.1c-0.1,0.2-0.1,0.3-0.2,0.5
			c-0.2,0.2-0.5,0.3-0.7,0.5c-0.4,0.1-0.8,0.1-1.2,0.2c-0.6,0-1.2-0.1-1.8-0.1l0,0C21.3,41.3,21.3,41.1,21.2,40.9z"/>
		<path class="st181" d="M21.4,43.6c-0.3-0.2-0.5-0.4-0.8-0.6c0.2-0.5,0.5-1,0.7-1.5c0,0,0,0,0,0c0,0.4,0,0.7,0,1.1
			c0.2,0.3,0.4,0.7,0.6,1C21.7,43.5,21.5,43.6,21.4,43.6z"/>
		<path class="st13" d="M33.7,78.4c0-0.2,0-0.4,0-0.6c0.4-0.5,0.7-0.9,1.1-1.4c1.8,0,3.5,0.1,5.3,0c1,0,2-0.3,3-0.5
			c0.2,0.9,0.4,1.7,0.6,2.6c-4.5,0.6-5.5,1.6-5.6,5.2c0,0.2,0,0.3,0,0.5l0,0c-1-0.2-2-0.3-3-0.5c-0.5-0.2-0.9-0.3-1.4-0.5
			c-0.4,0-0.8,0-1.2,0.1l0-0.2c0-0.2,0-0.3,0-0.5c0.2-0.2,0.4-0.4,0.6-0.5c0.2,0.2,0.4,0.4,0.6,0.6c0.1-0.1,0.3-0.2,0.4-0.2
			c-0.1-0.1-0.3-0.1-0.4-0.2c0-0.2,0-0.4-0.1-0.7c0-0.2,0-0.3,0-0.5c0.7-0.3,0.8-0.6,0-0.9c0-0.2-0.1-0.5-0.1-0.7c0-0.2,0-0.3,0-0.5
			c0.1-0.1,0.3-0.1,0.4-0.2c-0.1-0.1-0.3-0.1-0.4-0.2C33.7,78.6,33.7,78.4,33.7,78.4z"/>
		<path class="st61" d="M43.6,78.5c-0.2-0.9-0.4-1.7-0.6-2.6c2.9,0.6,5.8,1.2,7.4,3.6c-0.6,0.2-1.3,0.3-1.9,0.5
			c-0.9-0.3-1.8-0.7-2.7-1C45.1,78.8,44.4,78.7,43.6,78.5z"/>
		<path class="st141" d="M48.5,80c0.6-0.2,1.3-0.3,1.9-0.5c1.3,1.4,2.2,2.8,1.9,4.7c-1,0-2.1,0-3.1,0c0-0.7,0-1.4-0.1-2
			C49,81.4,48.7,80.7,48.5,80z"/>
		<path class="st63" d="M49.2,82.1c0,0.7,0,1.4,0.1,2c-0.5,2.2-1.8,3.3-4.1,3.7c-0.6,0.1-1.1,0.3-1.6,0.5c-2.8-0.5-4.9-1.7-5.5-4.2
			l0,0c1.1,0,2.1,0,3.2,0l0.3,0c0,0,0.3,0,0.3,0c0.5,0.3,0.9,0.7,1.4,1c0,0,0.2,0,0.2,0l0.2,0c0.6-0.1,1.3-0.3,1.9-0.4
			c0.2-0.6,0.4-1.1,0.6-1.7c-0.2-0.3-0.4-0.7-0.6-1C46.7,82.1,47.9,82.1,49.2,82.1z"/>
		<path class="st50" d="M89.4,83.4c-0.2,0.2-0.3,0.5-0.5,0.6c-0.4,0.3-0.8,0.6-1.2,0.8c-0.6,0.3-1.3,0.8-1.8,0.7
			c-1-0.3-2.1-0.8-2.8-1.4c-0.7-0.5,0.4-2.7,1.6-3.3c1.2-0.6,2.4-0.3,3.1,0.9c0.3,0.4,0.7,0.7,1.1,1.1C88.9,83,89.1,83.1,89.4,83.4z
			"/>
		<path class="st105" d="M62.3,49.3c-6.7,0-13.4,0-20.1,0c-1,0-2.1,0.3-2.9-0.5c0.2-0.1,0.5-0.5,0.7-0.4c6.5,0.9,13,0.2,19.5,0.4
			C60.4,48.8,61.5,48.3,62.3,49.3z"/>
		<path class="st39" d="M26.8,96.2c-0.4,0.4-0.7,0.7-1.1,0C26.1,96.2,26.5,96.2,26.8,96.2z"/>
		<path class="st75" d="M25,95.1c0.2,0,0.4,0,0.6,0c0,0.2,0,0.4,0,0.6c-0.2,0-0.4,0-0.6-0.1C25,95.5,25,95.3,25,95.1z"/>
		<path class="st75" d="M25,94.6c0,0.2,0,0.3,0,0.5c-0.2-0.2-0.5-0.3-0.7-0.5C24.6,94.7,24.8,94.6,25,94.6z"/>
		<path class="st93" d="M55.4,65.5c1.8,0.1,0.8,0.9,0.6,1.6C55.8,66.5,55.6,66,55.4,65.5z"/>
		<path class="st194" d="M32.4,78c0-0.2,0-0.4,0-0.6c0.2,0.1,0.5,0.1,0.7,0.2c0,0,0,0.1,0,0.1C32.9,77.8,32.7,77.9,32.4,78z"/>
		<path class="st13" d="M33.1,77.6c-0.2-0.1-0.5-0.1-0.7-0.2c0.2-0.2,0.4-0.3,0.6-0.5C33.1,77.1,33.1,77.4,33.1,77.6z"/>
		<path class="st56" d="M51.7,59.2c-0.1,0.4-0.1,0.8-0.3,1.1c-0.1,0.3-0.5,0.9-0.6,0.9c-1.3-0.1-2,0.5-3,1c-0.1,0.1-0.7-0.2-0.8-0.4
			c-0.2-0.9-0.5-1.8,0.3-2.6l0,0c1.1-0.4,2.1-0.7,3.2-1.1c0.4,0.2,0.8,0.3,1.2,0.5C51.8,58.8,51.7,59,51.7,59.2z"/>
		<path class="st13" d="M40.5,58.2c-0.2,0.5-0.4,1-0.6,1.5c0,0,0,0,0,0c-0.2,0.2-0.4,0.4-0.7,0.5c0,0,0,0,0,0
			c-0.2,0.2-0.4,0.4-0.7,0.5c0,0,0,0,0,0c-0.2,0.2-0.4,0.4-0.6,0.5c-0.2,0.2-0.4,0.3-0.6,0.5c0-0.1-0.1-0.1-0.1-0.2c0,0-0.1,0-0.2,0
			c0.1,0.1,0.2,0.2,0.3,0.2c0,0.2,0,0.3,0,0.5c-0.4,0-0.7,0-1.1,0c0.2-0.7,0.3-1.3,0.5-2c0,0,0,0,0,0c0.2-0.2,0.4-0.4,0.7-0.5
			c0,0,0,0,0,0c0.2-0.2,0.4-0.4,0.7-0.5c0,0,0,0,0,0c0.2-0.2,0.4-0.4,0.7-0.6c0,0,0,0,0,0c0.3-0.2,0.6-0.4,0.8-0.6
			C39.8,58.1,40.2,58.1,40.5,58.2z"/>
		<path class="st32" d="M36.8,60.2c-0.2,0.7-0.3,1.3-0.5,2c-0.3,0-0.6,0-0.9,0c-0.6-1.3-0.7-2.7,0-4c0.5,0,0.9,0,1.4,0
			c-0.3,0.4-0.6,0.8-0.8,1.3C35.5,60.3,36.3,60.1,36.8,60.2z"/>
		<path class="st83" d="M51.7,59.2c0-0.2,0-0.4,0-0.6c0.2-0.3,0.3-0.6,0.5-0.9c1.2,0,2.4,0,3.7,0c0,0,0,0.3,0,0.5
			c-0.4,0.2-0.7,0.4-1.1,0.5c-0.5-0.1-1-0.2-1.5-0.4c0.1,0.4,0.2,0.9,0.4,1.3c0.1,0.2,0.3,0.4,0.5,0.6c-0.4,0-0.8,0-1.2,0
			c-0.2-0.2-0.4-0.4-0.6-0.6C52.1,59.5,51.9,59.4,51.7,59.2z"/>
		<path class="st36" d="M45.5,56.1c-0.6,0-1.1,0-1.7,0c-0.1-0.4-0.1-0.7-0.2-1.1c2.1-0.8,2.2-0.8,2.6,0.9C45.9,56,45.7,56,45.5,56.1
			z"/>
		<path class="st58" d="M47.9,56.6c0.9-0.1,1.3,0.3,1.3,1c-0.6,0.5-1.2,1.1-1.9,1.6l0,0c-0.8-0.4-0.7-1-0.3-1.5
			C47.3,57.3,47.6,57,47.9,56.6z"/>
		<path class="st104" d="M37.4,61.8c0.2-0.2,0.4-0.3,0.6-0.5c0.2-0.2,0.4-0.4,0.6-0.5c0,0,0,0,0,0c0.2-0.2,0.4-0.4,0.7-0.5
			c0,0,0,0,0,0c0.2-0.2,0.4-0.4,0.7-0.5c0,0,0,0,0,0c0.2,0.5,0.4,1,0.6,1.5c-0.6,0.4-1.3,0.7-1.9,1.1c-0.4,0-0.8,0-1.2,0
			C37.4,62.1,37.4,61.9,37.4,61.8C37.4,61.8,37.4,61.8,37.4,61.8z"/>
		<path class="st142" d="M38.6,62.3c0.6-0.4,1.3-0.7,1.9-1.1c0,0.4,0,0.8,0,1.1C39.9,62.3,39.2,62.3,38.6,62.3z"/>
		<path class="st111" d="M52.3,59.7c0.2,0.2,0.4,0.4,0.6,0.6c0.4,0.3,0.8,0.7,1.2,1l-0.1,0C52.6,61.4,52.2,60.8,52.3,59.7z"/>
		<path class="st15" d="M56,58.2c0-0.2,0-0.5,0-0.5c-1.2,0-2.4,0-3.7,0c-0.2,0-0.4-0.1-0.5-0.2c0.5-0.1,1.1-0.4,1.6-0.4
			c1.7,0,3.4,0,5.1,0c0,2,0,2-2.4,2C56.1,58.8,56,58.5,56,58.2z"/>
		<path class="st71" d="M58.5,57.1c-1.7,0-3.4,0-5.1,0c-0.6,0-1.1,0.3-1.6,0.4c-0.2,0-0.4,0-0.6,0c-0.4-0.1-0.8-0.3-1.3-0.4
			c0.6-0.2,1.3-0.5,1.9-0.5c2.3-0.1,4.5,0,6.8,0C58.5,56.8,58.5,56.9,58.5,57.1z"/>
		<path class="st198" d="M54.9,59.1c-0.1-0.1-0.1-0.3-0.1-0.5c0.4-0.2,0.7-0.4,1.1-0.5c0.1,0.3,0.1,0.7,0.2,1
			C55.7,59.8,55.3,59.3,54.9,59.1z"/>
		<path class="st24" d="M54.2,60.2c0.2,0,0.4,0,0.5-0.1c-0.2,0.4-0.4,0.8-0.6,1.1c-0.4-0.3-0.8-0.7-1.2-1
			C53.4,60.2,53.8,60.2,54.2,60.2z"/>
		<path class="st19" d="M57.2,2.4c0-1.2-0.9-3.3-1.8-4.2c-0.2-0.3-0.3-0.6-0.5-0.9c0.3,0,0.6,0,0.9,0c1-0.1,3.9,0.5,4.5,1
			c0.1,0.1,0.4,0,0.6,0c-0.2,0.6-0.5,1.3-0.6,1.9C60,2.1,59.8,2.2,57.2,2.4z"/>
		<path class="st26" d="M37.4-1.2c1,0,2.1,0,3.1,0c0.4,0.2,0.8,0.3,1.2,0.5l0.3,0l0.3-0.1l0,0.2c-1.3,1.4-3.3,1.2-5,1.4
			C37.4,0.1,37.4-0.6,37.4-1.2z"/>
		<path class="st120" d="M53-1.3c-1.1,0.5-0.6,1.4-0.7,2.1c-0.5,0.1-1.1,0.6-1.3-0.3c-0.1-0.6-0.4-1.2-0.6-1.8c0-0.2,0-0.3,0-0.5
			c0.8,0,1.7,0,2.5,0l0,0C52.9-1.6,53-1.5,53-1.3z"/>
		<path class="st120" d="M52.3,2.4c0.2,0,0.4,0,0.7,0c-0.1,0.2-0.1,0.3,0,0.5c-0.8,0-1.7,0-2.5,0C50.8,2.1,51.4,2,52.3,2.4z"/>
		<path class="st220" d="M25.6-3.3c0.1-0.6,1-1.1-0.1-1.7c-0.2-0.1,0.1-0.7,0.1-1.1C26.3-6,27-5.6,27.5-5.8c1.1-0.4,2.1-0.1,3.1,0.3
			c-1.6,1.7-1.6,3.2,0.3,4.8c0.3,0.2,0.3,0.6,0.4,0.9c-2.3,0-4-0.9-4.9-2.7C26.2-2.9,25.9-3.1,25.6-3.3z"/>
		<path class="st164" d="M24.4-3.9c0.2,0.2,0.4,0.4,0.6,0.5c-0.2,0.2-0.4,0.3-0.6,0.5c-1.6,0.1-3.2,0.3-4.7,0.4
			c-0.1,1.3-0.2,2.5-0.2,3.8c0,1,0.3,2.1-1.2,2.6C16,3.5,17,1.9,16.7,0.8c-0.1-0.7,0.4-1.5,0.7-2.2c0.1-0.4,0.6-0.9,0.5-1.1
			c-1.4-1.7,0.2-1.3,1.2-1.3C20.9-3.9,22.6-3.9,24.4-3.9z"/>
		<path class="st81" d="M54.7-1.7c0.2,0,0.4-0.1,0.7-0.1c0.2,0.6,0.5,1.3,0.6,1.9C56.1,1,56.1,2,54.8,2.4c0-0.4,0-0.7,0-1.1l0,0
			c0.8-0.5,0.9-1.1,0-1.6c0,0,0,0,0,0c0-0.4,0-0.7,0-1.1C54.8-1.4,54.8-1.5,54.7-1.7z"/>
		<path class="st39" d="M33.1,87.3c-0.8,0.4-1.7,0.7-2.5,1.1c0-0.3,0-0.6,0-0.9c0.2-0.2,0.4-0.5,0.7-0.7l0,0c0.2,0,0.4,0,0.6,0
			c0.6-0.3,1.2-0.7,1.8-1C33.4,86.3,33.3,86.8,33.1,87.3z"/>
		<path class="st186" d="M35.1,83.7c-0.1,0.2-0.1,0.3-0.2,0.5c-0.4,0.3-0.8,0.7-1.2,1c0-0.5,0-1,0-1.5c0-0.2,0-0.4,0-0.6
			C34.1,83.3,34.6,83.5,35.1,83.7z"/>
		<path class="st167" d="M33.7,83.2c0,0.2,0,0.4,0,0.6l-0.3,0l-0.3,0c-0.2-0.2-0.4-0.3-0.6-0.5C32.9,83.2,33.3,83.2,33.7,83.2z"/>
		<path class="st151" d="M31.8,86.8c-0.2,0-0.4,0-0.6,0C31.4,86.5,31.5,86.2,31.8,86.8z"/>
		<path class="st111" d="M31.2,86.8c-0.2,0.2-0.4,0.5-0.7,0.7C30.8,87.3,31,87,31.2,86.8z"/>
		<path class="st61" d="M33.1,88.4c0-0.4,0-0.7,0-1.1c0.2,0.3,0.4,0.7,0.6,1l-0.3,0L33.1,88.4z"/>
		<path class="st67" d="M32.4,82.6c-0.2,0-0.4,0-0.6,0c0-1.1,0.9-1.6,1.8-2.1c0,0.2,0.1,0.3,0.1,0.5c0,0.2,0,0.3,0,0.5
			c-0.2,0.2-0.4,0.4-0.6,0.6C32.8,82.3,32.6,82.4,32.4,82.6z"/>
		<path class="st175" d="M33.7,81c0-0.2,0-0.3-0.1-0.5c0.1-0.1,0.1-0.3,0.1-0.4C34.5,80.5,34.4,80.7,33.7,81z"/>
		<path class="st90" d="M33.7,78.6c0.1,0.1,0.3,0.1,0.4,0.2c-0.1,0.1-0.3,0.1-0.4,0.2C33.7,78.8,33.7,78.7,33.7,78.6z"/>
		<path class="st70" d="M21.3,46.8c0-0.2,0-0.4-0.1-0.6c1.4-0.2,2.2-0.7,1.8-2c0-0.2,0-0.3,0-0.5c0-0.2,0-0.5,0-0.7l0,0
			c0.2,0,0.5,0,0.7,0c1.6,0.1,1.9,0.9,1.9,2.1c-0.3,0.1-0.6,0.1-0.8,0.2c-0.1,0.1-0.2,0.3-0.3,0.4c0.2,0,0.5,0.1,0.6,0
			c0.2-0.1,0.3-0.4,0.5-0.6c0.2,0,0.4,0,0.6,0c-0.1,0.6,0,1.4-0.4,1.7c-0.9,0.6-2.4,0.2-3.1,0.5c-0.8,0.4,0.7,1.9-0.4,2.8
			c-0.4,0.4-0.7,0.5-1.2,0c-0.3-0.3-0.7-0.6-1.1-0.9c0.2-0.2,0.5-0.4,0.7-0.6C22.1,48.3,22.2,47.9,21.3,46.8z"/>
		<path class="st78" d="M23.8,43c-0.2,0-0.5,0-0.7,0c0-0.5,0-0.9,0-1.4c0.4-0.1,0.8-0.1,1.2-0.2c0.2,0.2,0.5,0.4,0.7,0.6
			C24.6,42.3,24.2,42.7,23.8,43z"/>
		<path class="st113" d="M20.8,48.7c-0.2,0.2-0.5,0.4-0.7,0.6c-0.4,0-0.8,0-1.2,0c0.2-0.5,0.4-1.1,0.6-1.6
			C19.9,48,20.3,48.3,20.8,48.7z"/>
		<path class="st28" d="M17,49.3c0.2,0,0.4,0,0.6,0l-0.3,0L17,49.3z"/>
		<path class="st84" d="M36.8,58.2c-0.5,0-0.9,0-1.4,0c-0.2,0-0.3-0.1-0.5-0.1c0-0.3,0-0.6,0-1c0.9,0,1.9,0.3,2.5-0.5
			c0.2,0.2,0.4,0.4,0.6,0.6C37.7,57.5,37.3,57.9,36.8,58.2z"/>
		<path class="st106" d="M20.8,48.7c-0.4-0.3-0.9-0.7-1.3-1c0-0.1,0-0.2,0-0.4c0.4,0,0.8,0.1,1.1,0c0.3-0.1,0.5-0.4,0.8-0.6
			C22.2,47.9,22.1,48.3,20.8,48.7z"/>
		<path class="st168" d="M17.5,46.1c0.4,0,0.7,0.1,1.1,0.1c0.1,0.2,0.1,0.3,0.2,0.5c0,0.1,0,0.3,0,0.4
			C18.4,46.8,17.9,46.5,17.5,46.1z"/>
		<path class="st174" d="M18.8,46.7c-0.1-0.2-0.1-0.3-0.2-0.5c0.3,0,0.5,0,0.8-0.1C19.2,46.3,19,46.5,18.8,46.7z"/>
		<path class="st141" d="M23.1,41.6c0,0.5,0,0.9,0,1.4l0,0c-0.6-0.2-1.2-0.3-1.9-0.5c0-0.4,0-0.7,0-1.1
			C21.9,41.5,22.5,41.5,23.1,41.6z"/>
		<path class="st148" d="M21.3,42.5c0.6,0.2,1.2,0.3,1.9,0.5c0,0.2,0,0.5,0,0.7c-0.2,0-0.3-0.1-0.5-0.1c-0.2,0-0.5,0-0.7,0
			c0,0,0-0.1,0-0.1C21.7,43.2,21.5,42.8,21.3,42.5z"/>
		<path class="st30" d="M41.2,84.2c-1.1,0-2.1,0-3.2,0c0-0.2,0-0.3,0-0.5c0-3.6,1.1-4.6,5.6-5.2c0.7,0.2,1.5,0.3,2.2,0.6
			c0.9,0.3,1.8,0.7,2.7,1c0.2,0.7,0.4,1.4,0.6,2.1c-1.2,0-2.4,0-3.7,0c0-0.1,0-0.3,0-0.4c0.1-0.1,0.2-0.1,0.2-0.2
			c0-0.1,0.1-0.2,0.1-0.2c-1.8-1-2.5-1-4.6,0.3c0.2,0.2,0.4,0.4,0.6,0.5c0,0.3,0,0.6,0,1C41.6,83.5,41.4,83.8,41.2,84.2z"/>
		<path class="st186" d="M33.7,82.6c0-0.2,0-0.3,0-0.5c0.1,0.1,0.3,0.1,0.4,0.2C34,82.5,33.8,82.6,33.7,82.6z"/>
		<path class="st134" d="M41.2,81.6c2.1-1.3,2.7-1.4,4.6-0.3c0,0,0,0.2-0.1,0.2c0,0.1-0.1,0.1-0.2,0.2c-1-0.2-1.9-0.3-1.8,0.9
			c0.4,0.2,0.8,0.4,1.2,0.5c0,0,0,0,0,0c0,0.2,0,0.3,0,0.5c-0.2,0-0.4,0-0.6,0.1c-0.2,0.2-0.4,0.3-0.6,0.5c0,0.3,0,0.7-0.1,1l-0.2,0
			l-0.2,0c-0.1-0.5-0.1-1-0.2-1.4c0-0.2,0-0.4,0.1-0.7c0-0.7,0.3-1.5-1-1.5C41.7,81.6,41.4,81.6,41.2,81.6z"/>
		<path class="st174" d="M43.6,82.6c0-1.2,0.9-1.1,1.8-0.9c0,0.1,0,0.3,0,0.4c0.2,0.3,0.4,0.7,0.6,1c-0.4,0-0.8,0-1.3,0c0,0,0,0,0,0
			C44.5,83,44,82.8,43.6,82.6z"/>
		<path class="st45" d="M43.6,85.2c0-0.3,0-0.7,0.1-1c0.2-0.2,0.4-0.3,0.6-0.5c0.2,0,0.4-0.1,0.6-0.1c0.2,0.4,0.4,0.8,0.7,1.2
			C44.9,85,44.2,85.1,43.6,85.2z"/>
		<path class="st36" d="M42.9,83.8c0.1,0.5,0.1,1,0.2,1.4c-0.5-0.3-0.9-0.7-1.4-1C42.1,84,42.5,83.9,42.9,83.8z"/>
		<path class="st78" d="M42.9,83.8c-0.4,0.1-0.8,0.3-1.1,0.4l-0.3,0l-0.3,0c0.2-0.4,0.4-0.7,0.6-1.1c0.4,0,0.8,0,1.2,0
			C42.9,83.3,42.9,83.6,42.9,83.8z"/>
		<path class="st67" d="M45.5,84.8c-0.2-0.4-0.4-0.8-0.7-1.2c0-0.2,0-0.3,0-0.5c0.4,0,0.8,0,1.3,0C45.9,83.7,45.7,84.3,45.5,84.8z"
			/>
		<path class="st163" d="M52.3,54.5c-1.1,0-2.2,0-3.4,0c-0.1,0-0.4-0.3-0.4-0.4c0.2-0.8,1.7-1.5,2.7-1.4c1,0.1,2,0.2,3,0.2
			c0.5,0,1,0.1,1.5,0.2c0.3,0.1,0.5,0.6,0.5,0.9c0,0.1-0.6,0.4-0.9,0.4C54.3,54.5,53.3,54.5,52.3,54.5
			C52.3,54.5,52.3,54.5,52.3,54.5z"/>
		<path class="st160" d="M49.8,57.1c0.4,0.1,0.8,0.3,1.3,0.4c-0.2,0.2-0.4,0.4-0.6,0.6c-1.1,0.4-2.1,0.7-3.2,1.1
			c0.6-0.5,1.2-1.1,1.9-1.6C49.4,57.4,49.6,57.3,49.8,57.1z"/>
		<path class="st98" d="M38.1,57.2c-0.2-0.2-0.4-0.4-0.6-0.6c1.1-1,2.2-0.8,3.3,0c-0.1,0.3-0.2,0.7-0.2,1
			C39.8,57,39.2,56.2,38.1,57.2z"/>
		<path class="st125" d="M43.6,55c0.1,0.4,0.1,0.7,0.2,1.1c0,0-0.2,0-0.2,0c-0.2,0-0.4,0-0.5,0c0,0-0.3,0-0.3,0
			C43,55.7,43.3,55.4,43.6,55z"/>
		<path class="st53" d="M38.1,57.2c1.1-1,1.7-0.1,2.4,0.4c0,0.2,0,0.4,0,0.6c-0.4,0-0.7,0-1.1,0c-0.3,0.2-0.6,0.4-0.8,0.6
			c0,0,0,0,0,0c-0.2,0.2-0.4,0.4-0.7,0.6c0,0,0,0,0,0c-0.2,0.2-0.4,0.4-0.7,0.5c0,0,0,0,0,0c-0.2,0.2-0.4,0.4-0.7,0.5c0,0,0,0,0,0
			c-0.5-0.1-1.3,0.1-0.8-0.8c0.3-0.4,0.6-0.8,0.8-1.3C37.3,57.9,37.7,57.5,38.1,57.2z"/>
		<path class="st222" d="M43,56.1c0.2,0,0.4,0,0.5,0c0,0.2,0,0.3,0,0.5C43.4,56.4,43.2,56.2,43,56.1z"/>
		<path class="st187" d="M50.5,58.1c0.2-0.2,0.4-0.4,0.6-0.6c0.2,0,0.4,0,0.6,0c0.2,0.1,0.3,0.1,0.5,0.2c-0.2,0.3-0.3,0.6-0.5,0.9
			C51.3,58.4,50.9,58.3,50.5,58.1z"/>
		<path class="st70" d="M37.4,59.7c0.2-0.2,0.4-0.4,0.7-0.5C37.8,59.4,37.6,59.5,37.4,59.7z"/>
		<path class="st154" d="M38,59.2c0.2-0.2,0.4-0.4,0.7-0.6C38.5,58.8,38.2,59,38,59.2z"/>
		<path class="st191" d="M37.4,61.8c-0.1-0.1-0.2-0.2-0.3-0.2c0.1,0,0.1,0,0.2,0C37.4,61.7,37.4,61.7,37.4,61.8
			C37.4,61.8,37.4,61.8,37.4,61.8z"/>
		<path class="st191" d="M38.7,60.7c-0.2,0.2-0.4,0.4-0.6,0.5C38.2,61.1,38.5,60.9,38.7,60.7z"/>
		<path class="st21" d="M39.3,60.2c-0.2,0.2-0.4,0.4-0.7,0.5C38.9,60.6,39.1,60.4,39.3,60.2z"/>
		<path class="st43" d="M39.9,59.7c-0.2,0.2-0.4,0.4-0.7,0.5C39.5,60.1,39.7,59.9,39.9,59.7z"/>
		<path class="st70" d="M36.8,60.2c0.2-0.2,0.4-0.4,0.7-0.5C37.2,59.9,37,60.1,36.8,60.2z"/>
		<path class="st183" d="M38.6,58.7c0.3-0.2,0.6-0.4,0.8-0.6C39.2,58.3,38.9,58.5,38.6,58.7z"/>
		<path class="st10" d="M54.8-0.2c0.9,0.5,0.8,1.1,0,1.6C54.8,0.8,54.8,0.3,54.8-0.2z"/>
		<path class="st80" d="M25.7,45.1c-0.2,0.2-0.3,0.5-0.5,0.6c-0.1,0.1-0.4,0-0.6,0c0.1-0.1,0.2-0.3,0.3-0.4
			C25.1,45.2,25.4,45.1,25.7,45.1C25.7,45.1,25.7,45.1,25.7,45.1z"/>
		<path class="st70" d="M21.9,43.6c0.2,0,0.5,0,0.7,0c-0.1,0.2-0.1,0.3-0.2,0.5c-0.1,0-0.2,0-0.4,0C22,43.9,21.9,43.7,21.9,43.6z"/>
		<path class="st70" d="M22.4,44.6c-0.1,0-0.2,0-0.4,0l0.2,0L22.4,44.6z"/>
		<path class="st194" d="M22.4,44.6l-0.2,0l-0.2,0c-0.1-0.2-0.1-0.3,0-0.5c0.1,0,0.2,0,0.4,0C22.5,44.2,22.5,44.4,22.4,44.6z"/>
		<path class="st104" d="M43,83.1c-0.4,0-0.8,0-1.2,0c0-0.3,0-0.6,0-1c0.1-0.2,0.1-0.4,0.2-0.5C43.3,81.6,42.9,82.4,43,83.1z"/>
		<path class="st224" d="M41.9,81.6c-0.1,0.2-0.1,0.4-0.2,0.5c-0.2-0.2-0.4-0.4-0.6-0.5C41.4,81.6,41.7,81.6,41.9,81.6z"/>
		<path class="st67" d="M43.6,82.6c0.4,0.2,0.8,0.4,1.2,0.5C44.5,83,44,82.8,43.6,82.6z"/>
		<path class="st67" d="M44.3,83.7c-0.2,0.2-0.4,0.3-0.6,0.5C43.9,84.1,44.1,83.9,44.3,83.7z"/>
	</g>
</g>
</svg>
