<?xml version="1.0" encoding="utf-8"?>
<!-- Generator: Adobe Illustrator 22.0.0, SVG Export Plug-In . SVG Version: 6.00 Build 0)  -->
<svg version="1.1" id="圖層_1" xmlns="http://www.w3.org/2000/svg" xmlns:xlink="http://www.w3.org/1999/xlink" x="0px" y="0px"
	 viewBox="0 0 100 100" style="enable-background:new 0 0 100 100;" xml:space="preserve">
<style type="text/css">
	.st0{fill:none;}
	.st1{fill:#040000;stroke:#FFFFFF;stroke-miterlimit:10;}
	.st2{display:none;fill:none;stroke:#FFFFFF;stroke-width:5;stroke-miterlimit:10;}
	.st3{display:none;fill:none;stroke:#FFFFFF;stroke-width:0.5;stroke-miterlimit:10;}
	.st4{display:none;fill:none;stroke:#FFFFFF;stroke-width:0.3;stroke-miterlimit:10;}
	.st5{display:none;fill:#040000;stroke:#FFFFFF;stroke-width:0.3;stroke-miterlimit:10;}
	.st6{display:none;}
	.st7{display:inline;}
	.st8{display:inline;clip-path:url(#SVGID_2_);}
	.st9{fill:#FFFFFF;}
	.st10{fill:#5F5F5F;}
	.st11{fill:#C4C4C4;}
	.st12{fill:#EBEBEB;}
	.st13{fill:#E6E6E6;}
	.st14{fill:#E7E7E7;}
	.st15{fill:#EAEAEA;}
	.st16{fill:#CDCDCD;}
	.st17{fill:#8E8E8E;}
	.st18{fill:#D6D6D6;}
	.st19{fill:#E9E9E9;}
	.st20{fill:#BFBFBF;}
	.st21{fill:#9B9B9B;}
	.st22{fill:#A0A0A0;}
	.st23{fill:#4C4C4C;}
	.st24{fill:#ABABAB;}
	.st25{fill:#4B4B4B;}
	.st26{fill:#E3E3E3;}
	.st27{fill:#676767;}
	.st28{fill:#969696;}
	.st29{fill:#A1A1A1;}
	.st30{fill:#E1E1E1;}
	.st31{fill:#BABABA;}
	.st32{fill:#8C8C8C;}
	.st33{fill:#DFDFDF;}
	.st34{fill:#ECECEC;}
	.st35{fill:#D8D8D8;}
	.st36{fill:#E0E0E0;}
	.st37{fill:#9A9A9A;}
	.st38{fill:#E5E5E5;}
	.st39{fill:#EFEFEF;}
	.st40{fill:#B0B0B0;}
	.st41{fill:#242424;}
	.st42{fill:#535353;}
	.st43{fill:#838383;}
	.st44{fill:#C5C5C5;}
	.st45{fill:#DBDBDB;}
	.st46{fill:#B4B4B4;}
	.st47{fill:#212121;}
	.st48{fill:#8B8B8B;}
	.st49{fill:#B6B6B6;}
	.st50{fill:#909090;}
	.st51{fill:#232323;}
	.st52{fill:#262626;}
	.st53{fill:#D7D7D7;}
	.st54{fill:#BDBDBD;}
	.st55{fill:#989898;}
	.st56{fill:#E8E8E8;}
	.st57{fill:#2D2D2D;}
	.st58{fill:#D3D3D3;}
	.st59{fill:#949494;}
	.st60{fill:#A2A2A2;}
	.st61{fill:#EEEEEE;}
	.st62{fill:#CCCCCC;}
	.st63{fill:#F1F1F1;}
	.st64{fill:#ADADAD;}
	.st65{fill:#D4D4D4;}
	.st66{fill:#353535;}
	.st67{fill:#AEAEAE;}
	.st68{fill:#E4E4E4;}
	.st69{fill:#737373;}
	.st70{fill:#898989;}
	.st71{fill:#CBCBCB;}
	.st72{fill:#C1C1C1;}
	.st73{fill:#5A5A5A;}
	.st74{fill:#7B7B7B;}
	.st75{fill:#BBBBBB;}
	.st76{fill:#888888;}
	.st77{fill:#B3B3B3;}
	.st78{fill:#979797;}
	.st79{fill:#717171;}
	.st80{fill:#787878;}
	.st81{fill:#D1D1D1;}
	.st82{fill:#DADADA;}
	.st83{fill:#999999;}
	.st84{fill:#575757;}
	.st85{fill:#202020;}
	.st86{fill:#D2D2D2;}
	.st87{fill:#7E7E7E;}
	.st88{fill:#646464;}
	.st89{fill:#D0D0D0;}
	.st90{fill:#3C3C3C;}
	.st91{fill:#A9A9A9;}
	.st92{fill:#AAAAAA;}
	.st93{fill:#C6C6C6;}
	.st94{fill:#919191;}
	.st95{fill:#464646;}
	.st96{fill:#A8A8A8;}
	.st97{fill:#BCBCBC;}
	.st98{fill:#666666;}
	.st99{fill:#DCDCDC;}
	.st100{fill:#DEDEDE;}
	.st101{fill:#D9D9D9;}
	.st102{fill:#929292;}
	.st103{fill:#C7C7C7;}
	.st104{fill:#EDEDED;}
	.st105{fill:#B1B1B1;}
	.st106{fill:#F0F0F0;}
	.st107{fill:#6E6E6E;}
	.st108{fill:#4E4E4E;}
	.st109{fill:#B9B9B9;}
	.st110{fill:#707070;}
	.st111{fill:#696969;}
	.st112{fill:#8A8A8A;}
	.st113{fill:#9E9E9E;}
	.st114{fill:#686868;}
	.st115{fill:#B2B2B2;}
	.st116{fill:#A7A7A7;}
	.st117{fill:#D5D5D5;}
	.st118{fill:#C0C0C0;}
	.st119{fill:#C3C3C3;}
	.st120{fill:#CACACA;}
	.st121{fill:#AFAFAF;}
	.st122{fill:#C9C9C9;}
	.st123{fill:#5D5D5D;}
	.st124{fill:#C2C2C2;}
	.st125{fill:#8F8F8F;}
	.st126{fill:#363636;}
	.st127{fill:#848484;}
	.st128{fill:#E2E2E2;}
	.st129{fill:#CECECE;}
	.st130{fill:#565656;}
	.st131{fill:#777777;}
	.st132{fill:#616161;}
	.st133{fill:#A6A6A6;}
	.st134{fill:#6C6C6C;}
	.st135{fill:#C8C8C8;}
	.st136{fill:#9D9D9D;}
	.st137{fill:#ACACAC;}
	.st138{fill:#BEBEBE;}
	.st139{fill:#9F9F9F;}
	.st140{fill:#B8B8B8;}
	.st141{fill:#CFCFCF;}
	.st142{fill:#A3A3A3;}
	.st143{fill:#494949;}
	.st144{fill:#424242;}
	.st145{fill:#3D3D3D;}
	.st146{fill:#B7B7B7;}
	.st147{fill:#3E3E3E;}
	.st148{fill:#7C7C7C;}
	.st149{fill:#595959;}
	.st150{fill:#252525;}
	.st151{fill:#626262;}
	.st152{fill:#1F1F1F;}
	.st153{fill:#525252;}
	.st154{fill:#747474;}
	.st155{fill:#555555;}
	.st156{fill:#959595;}
	.st157{fill:#2C2C2C;}
	.st158{fill:#2A2A2A;}
	.st159{fill:#8D8D8D;}
	.st160{fill:#9C9C9C;}
	.st161{fill:#161616;}
	.st162{fill:#939393;}
	.st163{fill:#878787;}
	.st164{fill:#B5B5B5;}
	.st165{fill:#1D1D1D;}
	.st166{fill:#4F4F4F;}
	.st167{fill:#6B6B6B;}
	.st168{fill:#727272;}
	.st169{fill:#393939;}
	.st170{fill:#6A6A6A;}
	.st171{fill:#818181;}
	.st172{fill:#828282;}
	.st173{fill:#454545;}
	.st174{fill:#DDDDDD;}
	.st175{fill:#444444;}
	.st176{fill:#171717;}
	.st177{fill:#2E2E2E;}
	.st178{fill:#A4A4A4;}
	.st179{fill:#858585;}
	.st180{fill:#A5A5A5;}
	.st181{fill:#515151;}
	.st182{fill:#505050;}
	.st183{fill:#757575;}
	.st184{fill:#797979;}
	.st185{fill:#323232;}
	.st186{fill:#585858;}
	.st187{fill:#3B3B3B;}
	.st188{fill:#808080;}
	.st189{fill:#4D4D4D;}
	.st190{fill:#4A4A4A;}
	.st191{fill:#767676;}
	.st192{fill:#636363;}
	.st193{fill:#474747;}
	.st194{fill:#7D7D7D;}
	.st195{fill:#222222;}
	.st196{fill:#272727;}
	.st197{fill:#6F6F6F;}
	.st198{fill:#5B5B5B;}
	.st199{fill:#404040;}
	.st200{fill:#2F2F2F;}
	.st201{fill:#1A1A1A;}
	.st202{fill:#6D6D6D;}
	.st203{fill:#868686;}
	.st204{fill:#484848;}
	.st205{fill:#3A3A3A;}
	.st206{fill:#0D0D0D;}
	.st207{fill:#0B0B0B;}
	.st208{fill:#383838;}
	.st209{fill:#333333;}
	.st210{fill:#1E1E1E;}
	.st211{fill:#7F7F7F;}
	.st212{fill:#303030;}
	.st213{fill:#121212;}
	.st214{fill:#101010;}
	.st215{fill:#292929;}
	.st216{fill:#181818;}
	.st217{fill:#5E5E5E;}
	.st218{fill:#434343;}
	.st219{fill:#3F3F3F;}
	.st220{fill:#7A7A7A;}
	.st221{fill:#545454;}
	.st222{fill:#191919;}
	.st223{fill:#141414;}
	.st224{fill:#2B2B2B;}
	.st225{fill:#313131;}
	.st226{fill:#1B1B1B;}
	.st227{fill:#151515;}
	.st228{fill:#1C1C1C;}
</style>
<rect x="-198" y="-2.8" class="st1" width="400" height="100"/>
<path class="st3" d="M-170.6,86.8c0.1,7,10.8,2.3,20.6,2c9.8-1.3,42.5-3,50-3.3s225.5-2.7,232.2-2.5c6.7,0.2,10.7,1.3,21.7,1.3
	s15.7-0.8,15.7-6.4c0-1.3-0.3-2.2-0.8-3c-2.2-3.2-10.8-2.8-12.2-2.7c-13.6,1.1-21.3,3-21.3,3s-20.2,5.1-47.3,4.7
	c-2.5,0-6.4-0.2-11.3-1.3c-3.1-0.7-9.3-2.5-16-7c-3.7-2.5-6-4-8.3-7c-4.1-5.3-3.5-9.1-7.7-14.7c-2.3-3.1-4.9-5.1-6.7-6.3
	c-8-2.8-17.7-5.5-28.8-7.4c-10.6-1.8-20.3-2.5-28.5-2.6c-10.7-6-24.7-10.7-39.7-10.7c-15,0-34,4-39.3,15.7c-4,16.3-3,30.3-13,36
	c-13,4.7-8,3.7-18,4.7s-30.9,0-36,3.8C-170.6,86.8-170.6,86.8-170.6,86.8z"/>
<path class="st4" d="M-87.6,35.5C-92.3,43-94.1,60-97.8,67c-5.8,8.5-12,11.8-17,13s-10.5-3.4-10.8,1.8c-0.2,5.1,5.3,1.9,11.5,2.1
	s19-3.3,24.8-7.3s10.5-8.8,10.5-8.8s8-10.8,13.3-11s4.5,1.2,6.3,3.3s3,3.7,0,6.4s-11.3,8.3-11.5,14c7.8,2,20.5,3.3,26.3,0.3
	c5.3-7.3,4.5-8,10.8-9.5c9,1.3,45.8,4.5,51.8,0.5c-5.2,8.8-5.2,9-2,10c10-0.3,20.5,3,25.3-1.3c-0.5-6-5.5-7.8-3.5-11.5
	s8.3-1.5,11,0.8s6.8,6.5,11.5,8s10.7,2.5,10.7,2.5S44.2,63.5,40.2,58s-2.3-1.3-4-5.5s-9-9.3-19.5-10s-45.5-4.3-53.5-8.3
	S-44.7,30-50,27.8s-13.6-1.8-17.8,0s-1.5,3-4.5,3.5C-78.3,32.3-85.5,31.3-87.6,35.5z"/>
<g class="st6">
	<defs>
		<rect id="SVGID_1_" x="-200" width="400" height="100"/>
	</defs>
	<clipPath id="SVGID_2_" class="st7">
		<use xlink:href="#SVGID_1_"  style="overflow:visible;"/>
	</clipPath>
	<g id="XMLID_28_" class="st8">
		<g id="XMLID_251_">
			<g id="XMLID_336_">
				<path id="XMLID_337_" class="st9" d="M-23.8,69.4c-8.3-0.2-16.5,0-24.5,0.3c-8.5,0.4-16.1,1-23.3,1.8
					c-14.2,1.5-26.1,3.5-35.5,5.7c-2.4,0.5-5.1,1.1-6.3,1.7c-1.2,0.6-0.3,1.3,2.1,1.8c2.3,0.5,5.5,0.9,8.8,1.3
					c3.5,0.4,7.1,0.7,10.8,1.1c7.6,0.7,15.6,1.4,24.2,1.8c8.8,0.4,18,0.7,27.2,0.8c18.3,0.3,37,0.3,55.3,0c17.6-0.3,35.2-1,51.6-2.1
					c3.7-0.2,7.3-0.5,10.8-0.7c1.6-0.1,3.3-0.2,5-0.3c1-0.1,1.9-0.1,2.8-0.2c0.9-0.1,1.8-0.2,2.7-0.3c6.1-0.7,11.5-1.6,15.2-2.6
					c1.1-0.3,2.1-0.7,2.1-1c0.1-0.4-1.1-0.7-2.7-1c-2.7-0.5-6.2-0.9-9.4-1.3c-6.8-0.8-13.7-1.7-21.3-2.4c-7.4-0.7-14.4-1.4-22.1-2.1
					C42,71,33.8,70.4,25.5,70C16.8,69.6,7.9,69.4-1,69.2c-8.8-0.2-17.9-0.2-26.8-0.1c-4.3,0.1-8.5,0.2-12.7,0.4
					c-0.6,0-0.4,0.2,0.3,0.1c8.6-0.2,17.4-0.4,26.2-0.4c8.6,0,17.3,0.2,25.5,0.6c16.1,0.7,31.6,1.8,45.8,3.1c3.5,0.3,7.1,0.7,10.2,1
					c3.2,0.4,6.3,0.8,9.4,1.2c6.3,0.8,12.5,1.7,18.7,2.6c0.9,0.1,2.3,0.3,2.5,0.5c0.2,0.3-1,0.5-1.9,0.8c-1.7,0.4-3.8,0.9-6.1,1.3
					s-4.9,0.7-7.7,1.1c-0.8,0.1-1.8,0.2-2.5,0.3c-0.6,0.1-1.1,0.2-1.6,0.3c-1.3,0.2-2.8,0.4-4.4,0.5c-13.6,1.3-29.9,2-45.7,2.5
					c-17.4,0.5-35.3,0.7-53.1,0.6c-8.8-0.1-17.6-0.3-26.2-0.6s-16.9-0.7-24.7-1.3c-7.4-0.6-14.1-1.4-20.8-2.2
					c-4.9-0.6-12.3-1.4-10.1-2.4c1.2-0.6,3.9-1.1,6-1.5c2.2-0.5,4.5-1,6.9-1.4c5.1-0.9,10.6-1.8,16.6-2.7c5.9-0.8,12-1.6,18.7-2.3
					c6.8-0.7,14-1.3,22.2-1.6C-32.1,69.4-28,69.3-23.8,69.4C-23.7,69.4-23.7,69.4-23.8,69.4L-23.8,69.4z"/>
			</g>
			<g id="XMLID_334_">
				<path id="XMLID_335_" class="st9" d="M-3.3,70.4c-14.6-0.3-29.3,0.2-42.6,1.1c-6.5,0.5-12.7,1-18.6,1.7
					c-5.8,0.6-11.4,1.3-16.3,2.1c-4.8,0.8-9.9,1.6-13.6,2.5c-3.8,0.9-5.4,2.1-0.3,3c2.2,0.4,5.3,0.7,8.3,0.9
					c3.1,0.3,6.3,0.6,9.5,0.8c6.5,0.5,13.4,1,20.4,1.3c6.8,0.4,14,0.6,21.1,0.8c7.6,0.2,15.4,0.2,23,0c4-0.1,8-0.2,12-0.3
					c3.8-0.1,7.7-0.1,11.5-0.2c7.5-0.1,15-0.3,22.3-0.6c3.7-0.2,7.3-0.3,10.9-0.5c3.1-0.2,6-0.4,9.1-0.6c1.5-0.1,3-0.1,4.4-0.2
					c1.5-0.1,2.9-0.2,4.4-0.4c2.8-0.3,5.6-0.5,8-0.9c4.7-0.6,8.8-1.4,12-2.2c0.8-0.2,1.5-0.4,2.2-0.6c0.4-0.1,0.8-0.2,1.1-0.4
					c0.4-0.2,0-0.4-0.8-0.6c-2-0.4-4.3-0.9-6.8-1.2c-2.6-0.4-6.1-0.5-9-0.8c-2.9-0.3-5.8-0.6-8.7-0.8c-6-0.6-12.1-1.2-18.3-1.7
					c-12.2-1.1-25.3-2-39.4-2.3c-3.4-0.1-6.7-0.1-10.1-0.1c-0.4,0-0.4,0.1,0,0.1c6.9,0.1,13.7,0.3,20.3,0.6
					c6.5,0.3,12.7,0.7,18.6,1.2c6.1,0.5,12.1,1,17.8,1.6c5.5,0.5,11.1,1.1,16.2,1.7c1.5,0.2,2.6,0.4,3.8,0.6
					c1.1,0.2,2.1,0.4,3.3,0.6c2.4,0.4,4.9,0.8,6.9,1.2c-0.1-0.1-0.2-0.3-0.3-0.4c-1.7,0.6-4,1.2-6.6,1.7c-2.6,0.5-5.8,0.9-8.9,1.4
					c-3.2,0.5-6.9,0.8-10.3,1.3c-1.7,0.2-3.7,0.4-5.7,0.5c-2.3,0.2-4.8,0.3-7.3,0.5c-10.2,0.6-21.2,0.8-32,1c-2.6,0-5.3,0.1-7.9,0.1
					c-2.8,0-5.7,0-8.5-0.1c-5.7-0.1-11.3,0-17-0.1c-10.2-0.2-20.2-0.5-29.9-1c-9.7-0.5-18.9-1.2-27.5-2c-3.2-0.3-7.7-0.7-8.3-1.2
					c-0.7-0.7,2.3-1.3,4.9-1.8c2.9-0.6,6.3-1.1,9.7-1.7c3.4-0.6,6.9-1.1,10.5-1.6c14.6-2.2,33.9-3.8,54.7-4
					C-8.6,70.5-6,70.5-3.3,70.4C-3.2,70.5-3.2,70.4-3.3,70.4L-3.3,70.4z"/>
			</g>
			<g id="XMLID_332_">
				<path id="XMLID_333_" class="st9" d="M-0.4,71.7c-5.2,0-10.5,0-15.7,0.1c-5.3,0.1-10.5,0.3-15.6,0.5c-5.2,0.2-10.4,0.5-15.1,0.8
					c-4.8,0.4-9.3,0.9-13.6,1.4c-8.3,1-15.6,2.2-21.2,3.5c-1.8,0.4-3.3,0.9-2.6,1.5c0.6,0.4,2.7,0.8,5.1,1c2.2,0.2,4.8,0.4,7.3,0.6
					c2.8,0.2,5.7,0.4,8.6,0.5c11.3,0.6,23.1,0.9,35.1,1c5.9,0.1,11.8,0,17.7-0.1c5.9-0.1,11.8-0.3,17.7-0.4
					c5.8-0.2,11.6-0.4,17.3-0.6c5.6-0.2,11.1-0.5,16.5-0.8c1.2-0.1,2.3-0.1,3.5-0.2c1.5-0.1,2.8-0.1,4.2-0.2
					c1.2-0.1,2.4-0.2,3.5-0.3c1.4-0.1,2.7-0.2,3.9-0.3c4.5-0.6,8.5-1.4,8.4-2.3c-0.1-0.9-3.9-1.6-8.3-2.1c-2.5-0.3-5.8-0.4-8.4-0.7
					c-2.6-0.3-5.3-0.5-8-0.8c-10.4-1-22-1.8-34.3-2c-3.1-0.1-6.3-0.1-9.4,0c-0.5,0-0.5,0.1,0,0.1c12.1-0.1,24.5,0.4,34.8,1.4
					c5.1,0.5,9.8,1,14.3,1.6c2.3,0.3,4.1,0.6,6,0.9c1.5,0.3,3.5,0.4,5,0.7c1.5,0.3,2.3,0.5,1.9,0.9c-0.5,0.4-2.1,0.7-3.6,1
					c-0.6,0.1-1.4,0.3-2.1,0.4c-0.9,0.1-1.7,0.3-2.6,0.4c-1.7,0.3-3.8,0.5-5.9,0.7c-1,0.1-1.9,0.2-3.1,0.3c-1.1,0.1-2.3,0.2-3.4,0.2
					c-2.6,0.2-5.2,0.3-7.9,0.5c-5.3,0.3-10.8,0.5-16.2,0.6c-5.5,0.2-11,0.3-16.6,0.3c-5.6,0-11.1,0-16.7-0.1
					c-11-0.1-21.6-0.4-32.2-0.8c-5.1-0.2-10.2-0.5-15-0.8c-2.5-0.2-5-0.3-7.3-0.5c-1.5-0.1-3-0.3-2.9-0.5c0.2-0.3,2.1-0.7,3.3-1
					c1.3-0.3,2.6-0.6,4.1-0.8c3-0.6,6.4-1.1,10-1.6c3.6-0.5,7.4-0.9,11.5-1.3c2.1-0.2,4.2-0.4,6.4-0.6c2.1-0.2,4.1-0.4,6.2-0.5
					c4.4-0.3,8.7-0.7,13.4-0.9c4.7-0.2,9.5-0.4,14.4-0.5C-5.4,71.8-2.9,71.8-0.4,71.7C-0.2,71.7-0.2,71.7-0.4,71.7L-0.4,71.7z"/>
			</g>
			<g id="XMLID_330_">
				<path id="XMLID_331_" class="st9" d="M7,73.2c-9.1,0.1-18.2,0.3-27,0.6c-4.4,0.2-8.7,0.4-13,0.6c-4.5,0.2-8.6,0.6-12.7,1
					c-7.6,0.7-15.2,1.6-21.2,2.7c-1.8,0.3-3.1,0.7-2.4,1.1c0.5,0.3,2.2,0.6,4.2,0.8c3.8,0.4,8.6,0.5,13,0.6c4.6,0.1,9.3,0.2,14,0.2
					c4.7,0,9.4,0.1,14.2,0.1c9.3,0,18.5-0.1,27.6-0.4c9.2-0.3,18.3-0.7,27-1.2c4.4-0.3,8.6-0.6,12.8-0.9c0.9-0.1,1.8-0.2,2.8-0.2
					c1-0.1,2.1-0.1,3.1-0.2c2.5-0.2,4.4-0.4,5.1-0.8c1.2-0.8-3.1-1.4-7.3-1.7c-2.3-0.2-4.8-0.3-7.1-0.5c-2.4-0.2-4.9-0.3-7.3-0.5
					c-4.7-0.3-9.6-0.6-14.5-0.8c-4.8-0.3-9.9-0.5-15-0.5c-2.4,0-4.7,0.1-6.9,0.2c-0.3,0-0.2,0.1,0.1,0.1c10-0.3,19.7,0.3,28.4,1
					c4.4,0.3,8.6,0.7,12.8,1.1c3.4,0.3,7,0.7,9.3,1.2c0.9,0.2,0.8,0.3,0.1,0.5c-0.8,0.2-1.9,0.5-3.5,0.6c-3.7,0.3-7.4,0.7-11.3,1
					c-7.8,0.6-15.9,1-24.4,1.3c-8.5,0.3-17.1,0.4-25.9,0.5c-4.3,0-8.5,0-12.8-0.1c-4.5-0.1-8.6-0.2-12.9-0.4c-4-0.2-8-0.4-11.9-0.7
					c-1.9-0.1-3.8-0.2-5.3-0.3c-0.3,0-0.7-0.1-1-0.1c0.3,0-0.7-0.1-0.4-0.1c-0.1,0-0.3,0-0.1-0.1c1-0.2,2.4-0.4,3.7-0.6
					c1.5-0.2,3-0.4,4.6-0.6c3-0.4,6.2-0.8,9.5-1.1c3.5-0.4,7.2-0.7,10.8-1c3.6-0.3,7.1-0.7,10.9-1c7.6-0.6,15.6-1,23.9-1.2
					C2.9,73.3,4.9,73.2,7,73.2C7,73.2,7,73.2,7,73.2L7,73.2z"/>
			</g>
			<g id="XMLID_328_">
				<path id="XMLID_329_" class="st9" d="M10.9,75.5C5,75.2-1.1,75.3-7,75.5c-5.5,0.2-10.8,0.4-16,0.7c-1,0.1-2.1,0.2-3.2,0.2
					c-0.7,0-1.4,0-2.1,0.1c-0.8,0.1-1.5,0.1-2.1,0.2c-2.1,0.3-3.9,0.6-5.4,0.9c-1.6,0.4-2.9,0.8-1.7,1.3c1.3,0.4,5.1,0.6,8.1,0.7
					c2.9,0.1,5.9,0,8.9,0c2.8,0,5.8,0.1,8.7,0c3-0.1,6-0.1,9-0.2c3-0.1,5.9-0.2,8.8-0.3c3-0.1,6-0.3,9.1-0.3
					c2.6-0.1,5.2-0.1,7.8-0.2c2.7-0.1,5.5-0.2,7.8-0.4c2.3-0.2,5.2-0.6,5.9-1c1.1-0.6-3-1-5.8-1.2c-2.7-0.2-5.7-0.4-8.9-0.5
					c-6.1-0.2-12.1-0.2-18.2-0.1c-0.3,0-0.2,0.1,0.1,0.1c5,0,9.7,0.1,14.2,0.4c2,0.1,3.9,0.3,5.7,0.5c1.9,0.2,3.9,0.4,5.7,0.7
					c0.8,0.1,1.1,0.2,0.9,0c-0.2-0.2-0.2-0.1-0.7,0c-0.6,0.1-1.4,0.2-2.1,0.3c-1.8,0.2-3.7,0.4-5.6,0.6c-3.9,0.4-8.8,0.7-13.4,0.8
					c-5.1,0.2-10.2,0.3-15.4,0.4c-2.6,0-5.2,0-7.8,0c-2.5,0-5,0-7.4-0.1c-1.2-0.1-2.2-0.2-3.3-0.2c-1.1-0.1-2.4-0.2-3.6-0.3
					c-0.5,0-1-0.1-1.5-0.1c-0.1,0-0.8-0.1-0.8-0.1c0.1,0,0.3,0.1,0.2,0c0.2,0.1,0.1,0.1,0.3,0c0.2-0.1,0.3-0.1,0.5-0.2
					c1-0.3,2.3-0.5,3.9-0.7c0.8-0.1,2-0.2,2.6-0.4c0.2-0.1,0.5-0.2,0.6-0.2c0.1,0,0.8-0.1,1.1-0.1c4-0.5,9.2-0.8,14.2-1.1
					C-2,75.5,4.4,75.3,10.9,75.5C11,75.5,11.1,75.5,10.9,75.5L10.9,75.5z"/>
			</g>
			<g id="XMLID_326_">
				<path id="XMLID_327_" class="st9" d="M10.4,76.8c-2.2-0.1-4.6-0.2-6.9-0.3c-2.5-0.1-5-0.2-7.5-0.2c-2.8,0-5.6,0.2-8.1,0.4
					c-2.7,0.2-5.8,0.6-4.2,1.1c0.8,0.2,2.1,0.3,3.9,0.4c1.1,0,2.2-0.1,3.4-0.1c2.6,0,5.2,0,7.8,0C1.4,78,4,78,6.4,77.9
					c2.5-0.1,4.8-0.3,7.2-0.4c0.8,0,1-0.1,0.7-0.3c-0.8-0.3-2.7-0.5-4.5-0.6c-1.5-0.1-3.7-0.2-5.4-0.2c-0.3,0-0.4,0.1-0.2,0.1
					c1.3,0.2,3,0.2,4.3,0.4c1.4,0.2,2.6,0.4,4.1,0.5c-0.1-0.1-0.2-0.2-0.2-0.3c-3.1,0.4-8.1,0.5-11.9,0.6c-2,0-4,0-6,0
					c-1.9,0-3.6-0.1-4.8-0.3c0.3,0.1,0.5,0.1,0.8,0.2c-0.1,0-0.1-0.1-0.2-0.1c0,0.1,0,0.1,0,0c-0.2,0.1-0.3,0.2-0.5,0.3
					c0.4-0.1,3-0.3,4.1-0.4c1.7-0.1,3.3-0.2,4.9-0.3c3.6-0.3,7.4-0.3,11.3-0.2C10.5,76.8,10.7,76.8,10.4,76.8L10.4,76.8z"/>
			</g>
			<g id="XMLID_322_">
				<path id="XMLID_323_" class="st9" d="M-201.8,78.5c13.7,0.3,28.4,0.5,42,0c6.5-0.2,12.8-0.6,18.3-1.2c2.8-0.3,5.6-0.6,8.1-1
					c2.7-0.4,5-0.8,7.3-1.3c4.7-0.9,8.9-1.9,14.2-2.7c4.8-0.8,10-1.5,15.7-2.1c11.2-1.3,24.2-2.2,37.6-2.9c29.8-1.4,62.7-1,91.4,0.8
					c15.2,0.9,29,2.2,42.5,3.6c6.8,0.7,13.5,1.4,20.9,1.9c7.6,0.6,15.5,0.9,23.8,1.1c17.4,0.4,35.2,0.3,52.7,0.2
					c18.2-0.1,36.4-0.3,54.5-0.5c4.3-0.1,8.5-0.1,12.7-0.2c0.3,0,0.2-0.1-0.1-0.1c-9.2,0-18.3,0.2-27.4,0.2c-9,0.1-18,0.2-27.1,0.2
					c-17.9,0.1-35.8,0.1-53.6-0.2c-8.5-0.1-16.8-0.4-24.9-0.8c-7.8-0.4-15-1.1-21.9-1.7c-6.8-0.6-13.6-1.3-20.6-1.9
					c-7-0.6-14.3-1.1-21.7-1.5C28,67.5,12.4,66.8-3.5,66.5c-14.8-0.3-29.8-0.4-44.5,0c-13.9,0.4-27.9,1-40.1,2
					c-12.2,1.1-22.8,2.5-30.8,4.2c-4.4,1-8,2-13,2.9c-4.8,0.8-10.6,1.5-17.6,1.9c-6.5,0.4-13.1,0.5-20,0.7
					c-7.1,0.2-14.5,0.2-21.7,0.3C-194.7,78.5-198.2,78.5-201.8,78.5C-201.9,78.5-201.9,78.5-201.8,78.5L-201.8,78.5z"/>
			</g>
			<g id="XMLID_320_">
				<path id="XMLID_321_" class="st9" d="M-12,68.1c18.5-0.2,37,0.5,53.6,1.7c8.4,0.6,16.4,1.3,23.9,2.2c3.7,0.4,7.4,0.8,11,1.3
					c3.7,0.4,7.1,0.9,10.7,1.4c7.1,0.9,14,1.8,21.2,2.7c3.7,0.4,7.7,0.9,12.4,1.1c4.5,0.2,9.3,0.2,14,0.2c10.3,0,20.5-0.1,30.7-0.2
					c10.1-0.1,20.2-0.2,30.3-0.4c20.1-0.3,40-0.6,60-1.1c2.5-0.1,5-0.1,7.5-0.2c0.2,0,0.2-0.1-0.1-0.1c-20.1,0.4-40.2,0.6-60.4,0.8
					c-10.1,0.1-20.2,0.2-30.3,0.2s-20.2-0.1-30.4-0.1c-4.9,0-9.8,0-14.7,0c-4.3-0.1-8.2-0.3-11.7-0.6c-3.8-0.4-7.2-0.8-10.7-1.2
					c-3.6-0.4-7.3-0.8-11-1.3c-7.4-0.8-15-1.7-22.8-2.4c-7.7-0.8-15.7-1.5-24-2.1c-16.2-1.2-34-2-52.2-1.8C-7.4,68-9.7,68-12,68.1
					C-12.1,68.1-12.1,68.1-12,68.1L-12,68.1z"/>
			</g>
			<g id="XMLID_318_">
				<path id="XMLID_319_" class="st9" d="M-196.5,77.2c13.6,0.4,28-0.1,40.5-0.9c3.2-0.2,6.5-0.4,9.5-0.7s5.7-0.6,8.4-0.9
					c5.6-0.7,9.9-1.6,14.1-2.5c4.2-0.9,8.6-1.8,13.9-2.5c5.7-0.8,12.4-1.3,19.5-1.8c15.6-1.1,32.7-1.8,49.7-2.2
					c16.8-0.4,34-0.5,50.9-0.2c15.9,0.3,31.9,1.1,45.7,2.2c13.6,1.1,25,2.8,38.5,3.9c13.7,1.2,29.3,1.5,44.9,1.6
					c16.1,0.1,32.4-0.1,48.5-0.1c18-0.1,36.3-0.1,54.2-0.5c4.4-0.1,8.7-0.2,13.1-0.3c1,0,0.7-0.2-0.2-0.2c-9.1,0-18.2-0.1-27.3-0.1
					c-8.9,0-17.9,0.1-26.8,0.1c-16.6,0.1-33.3,0.2-50,0.2c-15.6,0-31.6-0.1-46.2-1c-14.3-0.9-25.9-2.4-38.9-3.6
					c-13.5-1.2-28.7-2-44.3-2.4C5.2,65-11.2,64.9-27.4,65.2c-17.1,0.3-34.1,0.8-50.6,1.5c-8,0.3-15.8,0.5-23.2,1.1
					c-6.7,0.5-12.4,1.2-17.2,2.1c-9.4,1.6-16.6,3.5-27.9,4.9c-5.6,0.7-11.6,1.3-18.5,1.7c-6.7,0.4-13.8,0.6-21,0.7
					C-189.4,77.2-192.9,77.2-196.5,77.2C-196.6,77.2-196.7,77.2-196.5,77.2L-196.5,77.2z"/>
			</g>
			<g id="XMLID_316_">
				<path id="XMLID_317_" class="st9" d="M-199.9,82.5c18-0.2,35.9-0.4,53.9-0.5c8.5-0.1,17.2-0.2,25.5,0.2
					c6.5,0.3,12.6,0.8,17.8,1.4c11,1.3,21.4,2.7,34.9,3.4c3.9,0.2,7.9,0.4,12,0.4c4,0.1,8,0,11.9,0.1c8.4,0.1,16.8,0,25.2,0
					c17.6-0.1,35.2,0,52.8-0.3c15.7-0.2,31.1-0.7,46-1.4c14.7-0.8,27.6-1.9,39-3.5c5.5-0.8,11-1.5,18.3-1.9c3.9-0.2,8-0.4,12.2-0.4
					c4-0.1,8.1-0.1,12.1-0.1c17.9,0,35.8,0.1,53.7,0c18.1-0.1,36.1-0.3,54.1-0.6c4.2-0.1,8.3-0.2,12.4-0.3c0.5,0,0.4-0.2-0.1-0.1
					c-9,0.1-18,0.3-27,0.4c-8.8,0.1-17.7,0.2-26.6,0.3c-17.8,0.1-35.9,0.2-53.7,0.1c-8.6-0.1-17.2-0.2-25.8-0.3
					c-4,0-7.9-0.1-11.8,0.1c-3.8,0.1-7.5,0.4-10.8,0.7c-6.3,0.6-11.5,1.4-17.1,2.2c-5.8,0.7-12.2,1.4-18.9,1.9
					c-13.5,1.1-27.9,1.9-43.1,2.3C29.6,87,11.8,87.1-6,87.1c-8.7,0-17.5-0.1-26.2-0.1c-4,0-8.1-0.1-12.1-0.1
					c-4.1-0.1-8-0.2-11.9-0.4c-4-0.2-8-0.3-11.8-0.5c-3.3-0.2-6.4-0.4-9.3-0.7c-5.9-0.5-11.2-1.2-16.9-1.8
					c-5.5-0.5-11.3-1.1-17.4-1.5c-7-0.4-14.4-0.6-22-0.5c-8.7,0.1-17.4,0.3-26.1,0.4c-9,0.1-18,0.3-26.9,0.4
					C-191.1,82.3-195.5,82.4-199.9,82.5C-200,82.5-200,82.5-199.9,82.5L-199.9,82.5z"/>
			</g>
			<g id="XMLID_314_">
				<path id="XMLID_315_" class="st9" d="M-203.3,84.3c30.9-0.4,65-0.7,92.4,1.9c7,0.7,13.7,1.4,21.2,1.9c7.2,0.5,14.9,0.8,22.7,0.9
					c16.3,0.3,32.5,0.3,48.9,0.2c18.3,0,36.7-0.2,55-0.4c17.1-0.2,34.5-0.4,51.3-1c7.9-0.3,15.8-0.6,23.2-1.1
					c7.6-0.5,14.6-1.2,21.6-1.9c6.9-0.6,14.1-1.2,21.8-1.6c7.6-0.4,15.4-0.6,23.4-0.8c8.1-0.1,16.1-0.2,24.2-0.2
					c8.5-0.1,16.9-0.1,25.4-0.1c18,0,36.1,0.2,54.1,0c4.2-0.1,8.4-0.2,12.5-0.3c0.4,0,0.3-0.1-0.1-0.1c-18,0.3-35.8,0.3-53.9,0.1
					c-17.1-0.2-33.9-0.6-51-0.5c-16,0.1-31.8,0.6-46.5,1.5c-15.3,1-27.1,2.9-42.5,3.8c-7.7,0.5-16,0.8-24.3,1
					c-8.7,0.2-17.6,0.4-26.5,0.6c-18.2,0.3-36.6,0.5-54.9,0.6c-17,0.1-34.2,0.1-51-0.3c-16-0.4-31-1.3-44.4-2.6
					c-6.8-0.7-13.6-1.3-21.3-1.7c-7.2-0.4-15-0.7-22.6-0.8c-3.9,0-7.8-0.1-11.7-0.1c-4,0-7.9,0.1-11.9,0.1
					c-7.8,0.1-15.6,0.3-23.3,0.5C-195.5,84-199.4,84.1-203.3,84.3C-203.5,84.2-203.5,84.3-203.3,84.3L-203.3,84.3z"/>
			</g>
			<g id="XMLID_312_">
				<path id="XMLID_313_" class="st9" d="M19.7,90.6c-9.2-0.1-18.4-0.2-27.6-0.3c-9.1-0.1-18.2-0.2-27.2-0.3
					c-16.6-0.2-33.4-0.3-49.5-1c-8.1-0.3-15.7-0.8-23.1-1.4c-7.6-0.6-15.3-1.2-23.4-1.6c-15.9-0.8-33.1-1-49.8-0.9
					c-10,0.1-20.1,0.3-29.8,0.6c-9.7,0.4-19.2,0.8-28.7,1.3c-0.5,0-0.3,0.1,0.2,0.1c8.8-0.2,17.6-0.4,26.4-0.6
					c8.7-0.2,17.5-0.3,26.3-0.4c16.6-0.2,33.5-0.1,49.5,0.6c16.4,0.7,30.4,2.2,46.6,3c16,0.7,33.3,0.9,50,0.9
					c9.8,0,19.6-0.1,29.5-0.1C-0.8,90.6,9.5,90.6,19.7,90.6C19.8,90.6,19.8,90.6,19.7,90.6L19.7,90.6z"/>
			</g>
			<g id="XMLID_304_">
				<path id="XMLID_305_" class="st9" d="M2.8,90.3c17.5,0.2,35,0.4,52.5,0.4c17.2,0,34.3-0.3,50.7-1.1c7.8-0.4,15.4-0.9,22.7-1.4
					c7-0.5,13.8-1.2,20.6-1.8c13.6-1.2,28-2.4,43.9-2.7c10.4-0.3,21.1-0.3,31.6-0.4c10.7-0.2,21.4-0.3,32-0.5c0.6,0,0.6-0.1,0-0.1
					c-9.7,0-19.4,0-29.1,0c-9.4,0-18.9,0-28.3,0.2c-8.4,0.1-16.6,0.4-24.6,0.8c-7.4,0.4-14.6,0.9-21.5,1.5
					c-6.9,0.6-13.8,1.2-20.7,1.7c-6.9,0.6-13.9,1.1-21.2,1.6c-8,0.5-16.3,0.8-24.8,1.1S69.8,90,61.2,90.1
					C41.8,90.4,22.3,90.3,2.8,90.3C2.5,90.2,2.5,90.3,2.8,90.3L2.8,90.3z"/>
			</g>
			<g id="XMLID_302_">
				<path id="XMLID_303_" class="st9" d="M-204.7,99.2c15.9,0.2,32.1,0.3,48.1,0.3c15.7,0,31.7-0.2,47-0.8
					c7.6-0.3,15.1-0.7,22.2-1.2c7.5-0.5,14.4-1.1,21.3-1.8c7.1-0.7,14.3-1.4,22.6-1.7c8.5-0.4,17.4-0.5,26.2-0.6
					c9.3-0.1,18.5-0.2,27.8-0.3c9.5-0.1,18.9-0.1,28.4-0.1c17.9,0,35.8,0,53.6-0.2c16.7-0.2,33.6-0.6,49.4-1.5
					c16.4-0.9,30.6-2.2,45.4-3.6c7.2-0.6,14.6-1.3,22.5-1.7c7.9-0.4,16.1-0.8,24.4-1c16.6-0.5,33.8-0.6,50.6-0.7
					c4.2,0,8.4-0.1,12.6-0.1c1.1,0,1-0.2,0-0.2c-16.9-0.2-34-0.4-50.9-0.2c-16.8,0.2-33.2,0.8-48.5,1.9c-15.5,1.1-29.3,2.7-44.8,3.8
					c-15.1,1.1-31.6,1.8-48.1,2.2c-35.8,0.9-72.4,0.8-108.5,0.7c-17.2,0-36,0.1-51.9,1.2c-8,0.5-14.8,1.3-22.2,2
					c-6.7,0.6-13.9,1.1-21.2,1.5c-7.2,0.4-14.7,0.7-22.3,1c-7.8,0.3-15.7,0.5-23.7,0.6c-16,0.2-32.1,0.3-48.1,0.3
					c-3.9,0-7.9,0-11.8,0C-205.3,99.1-205.3,99.2-204.7,99.2L-204.7,99.2z"/>
			</g>
			<g id="XMLID_300_">
				<path id="XMLID_301_" class="st9" d="M-208.6,100.2c17.2,0.4,34.3,0.7,51.7,0.8c17.2,0.1,34.8,0.1,51.8-0.4
					c8.6-0.2,17.1-0.5,25.4-0.9s16.3-0.9,24.2-1.4c8-0.5,16.1-1,24.5-1.4c7.7-0.3,15.6-0.6,23.6-0.8c32.6-0.7,65.6-0.4,98.4-0.7
					c16.2-0.1,32.3-0.4,47.9-1.1c16.3-0.7,31-1.9,45.7-3.1c7.4-0.6,14.7-1.3,22.4-1.8c7.8-0.6,15.9-1,24.2-1.4
					c16.5-0.8,33.6-1.1,50.9-1.1c4.2,0,8.4,0,12.6,0.1c0.3,0,0.4-0.1,0.1-0.1c-33.4-0.8-67.8,0.1-98,2.3
					c-15.3,1.1-29.7,2.6-45.7,3.5c-15,0.9-31,1.4-47.1,1.6c-32.7,0.5-65.7,0.2-98.5,0.6c-16.3,0.2-32.5,0.7-47.8,1.5
					c-16.5,0.9-32,2.2-49,2.9c-16.8,0.7-34.3,1-51.7,1.1c-17.5,0.1-35.1-0.1-52.6-0.2C-200,100.2-204.3,100.2-208.6,100.2
					C-208.9,100.2-208.9,100.2-208.6,100.2L-208.6,100.2z"/>
			</g>
			<g id="XMLID_298_">
				<path id="XMLID_299_" class="st9" d="M281.8,89.3c-8.3-0.1-16.6-0.2-25-0.2c-8.3,0-16.5,0-24.7,0.3c-8,0.3-15.3,0.8-22,1.5
					c-6.8,0.7-12.9,1.5-19.6,2.3c-6.8,0.7-14.1,1.3-22.1,1.6c-8.1,0.4-16.5,0.5-24.9,0.7c-18.8,0.4-37.6,0.8-56.6,1.1
					c-19.2,0.2-38.4,0.4-57.6,0.3c-9.2,0-18.3-0.1-27.4-0.1c-8.9,0-17.8,0.3-26.2,0.7c-16.4,0.8-30.9,2.3-46.6,3.3
					c-15.4,1-31.6,1.8-48.2,2.3c-33.7,1.1-68.3,1.4-102.8,1.1c-4.3,0-8.5-0.1-12.7-0.1c-0.5,0-0.6,0.1-0.1,0.1
					c33.7,0.7,68.4,1,102.2,0.3c16.9-0.3,33.6-1,49.6-1.8c16.3-0.9,31.1-2.2,46.6-3.3c7.6-0.6,15.5-1.1,23.7-1.4
					c9-0.4,18.4-0.6,27.7-0.6c9.5-0.1,18.9,0,28.4,0c9.5,0,19.1-0.1,28.7-0.1c19.3-0.1,38.5-0.3,57.7-0.4
					c17.1-0.1,34.7-0.4,50.5-1.4c15.3-1,26-3,40.5-4.2c14.9-1.2,31.7-1.6,48.5-1.6C273.5,89.4,277.7,89.4,281.8,89.3
					C282.2,89.4,282.2,89.3,281.8,89.3L281.8,89.3z"/>
			</g>
			<g id="XMLID_296_">
				<path id="XMLID_297_" class="st9" d="M-227.3,106.5c19.3,0.2,38.6,0.3,58,0.4c18.9,0,38.4,0,57.1-0.6c18.4-0.5,36-1.4,53-2.6
					c16.3-1.1,32.1-2.4,48.6-3.4c16.5-1,33.6-1.8,51.5-1.9c17.9-0.2,35.9,0,53.8,0.2c34.8,0.4,71.5,0.7,103.2-1.9
					c8.2-0.7,15.9-1.5,24-2.2c7.9-0.7,16.2-1.3,25.1-1.6c17.9-0.8,36.7-0.8,55.1-0.7c4.6,0,9.3,0.1,13.9,0.1c0.5,0,0.5-0.1,0-0.1
					c-18.3-0.3-36.9-0.6-55.3-0.3c-9,0.1-17.9,0.4-26.5,0.8c-8.7,0.4-16.6,1.1-24.4,1.8c-7.9,0.7-15.8,1.5-24.4,2
					c-8,0.5-16.5,0.8-25.1,1.1c-17.4,0.4-35.1,0.3-52.6,0.2c-18-0.2-35.9-0.4-54-0.4c-17.9,0-35.4,0.4-52.4,1.3
					c-34.3,1.7-64.4,4.9-99.4,6.4c-37.5,1.6-76.1,1.8-114.9,1.6C-217.6,106.5-222.5,106.5-227.3,106.5
					C-227.5,106.4-227.5,106.5-227.3,106.5L-227.3,106.5z"/>
			</g>
			<g id="XMLID_294_">
				<path id="XMLID_295_" class="st9" d="M286.6,94.8c-17.1,0.1-34.1,0.2-50.9,0.6c-8.3,0.2-16.7,0.6-24.3,1.1
					c-7.5,0.5-14.8,1.1-22.1,1.7c-7.2,0.6-14.5,1.1-22.2,1.5c-8,0.4-16.4,0.6-24.8,0.7c-17,0.1-33.9-0.2-50.8-0.5
					c-17-0.3-34.2-0.5-51.2-0.1c-17.5,0.4-34.4,1.2-50.8,2.2c-32.1,1.8-63.6,3.9-97.4,5c-35.6,1.1-72.9,1.2-109,0.7
					c-4.5-0.1-8.9-0.1-13.4-0.2c-0.4,0-0.4,0.1-0.1,0.1c35.7,0.9,72.2,1.3,108.2,0.6c34.6-0.7,66.9-2.6,99.3-4.4
					c16.2-0.9,32.5-1.9,49.4-2.5c17.1-0.6,34.3-0.7,51.8-0.5c17,0.2,33.9,0.6,51.1,0.7c17,0.1,33.6-0.3,49.3-1.3
					c15.1-1,28.8-2.3,43.7-3.3c16.3-1.1,33.8-1.5,51.5-1.8C278.1,94.9,282.4,94.9,286.6,94.8C286.9,94.8,286.9,94.8,286.6,94.8
					L286.6,94.8z"/>
			</g>
			<g id="XMLID_292_">
				<path id="XMLID_293_" class="st9" d="M-16.7,104.5c10.7-0.5,21.5-0.8,32.4-1.2c10.8-0.3,21.8-0.5,32.8-0.6
					c11.1-0.1,22.2-0.1,33.3-0.1c11.4,0.1,22.7,0.2,34,0.4c21.9,0.4,44.3,0.7,66.2,0.1c10.4-0.3,20.4-0.8,29.6-1.6
					c4.6-0.4,9-0.8,13.7-1.1c4.7-0.3,9.7-0.5,14.8-0.7c10.6-0.3,21.7-0.2,32.4-0.2c5.8,0,11.6,0.1,17.4,0.1c5.8,0,11.6,0.1,17.4,0.1
					c3,0,5.9,0,8.8,0c1.1,0,1.4-0.2,0.3-0.3c-5.6-0.3-11.5-0.4-17.2-0.5c-5.8-0.1-11.7-0.2-17.5-0.3c-11.1-0.1-22.5-0.2-33.6-0.1
					c-11,0.1-21.4,0.5-31.1,1.3c-4.7,0.4-9.2,0.8-14,1.2c-4.6,0.3-9.4,0.6-14.4,0.8c-21.1,0.9-43.2,0.6-64.7,0.3
					c-11.5-0.2-23.1-0.4-34.7-0.4c-5.6,0-11.3-0.1-16.8,0c-5.5,0.1-11.1,0-16.6,0.1c-22,0.4-44.1,1-64.9,2.2
					c-2.6,0.1-5.2,0.3-7.9,0.5C-17.4,104.4-17.2,104.5-16.7,104.5L-16.7,104.5z"/>
			</g>
			<g id="XMLID_272_">
				<path id="XMLID_273_" class="st9" d="M-209.5,75.1c16.8,0.1,34.9,0.2,50.1-1.1c12.6-1.1,22.1-2.8,31.4-4.4
					c4.7-0.8,9.7-1.6,15.2-2.3c6.3-0.8,13.6-1.4,21.7-1.8c8.7-0.4,17.8-0.6,26.8-0.8c9.8-0.2,19.6-0.3,29.4-0.4
					c19.7-0.2,39.7-0.2,59.5,0c9.4,0.1,19.1,0.2,28,0.7c7.3,0.4,13.1,1.1,19.3,1.8c11.7,1.3,22.5,2.8,35.9,3.8
					c16.5,1.2,35.7,1.1,53.6,1.1c19.6,0,39.1,0,58.7-0.1c9.8-0.1,19.7-0.1,29.5-0.3c9.4-0.2,19.3-0.3,28.5-0.6
					c4.5-0.2,8.8-0.4,13.1-0.6c1-0.1,0.4-0.3-0.5-0.3c-9.6,0-19,0.2-28.6,0.4c-9.8,0.2-19.6,0.3-29.4,0.4
					c-19.4,0.2-38.8,0.2-58.2,0.2c-9.8,0-19.7,0-29.5-0.1c-9.2-0.1-18.5-0.2-27.3-0.6c-14.1-0.6-25.4-2.1-36.9-3.3
					c-12.6-1.4-27.3-2.4-43.2-2.7c-9.6-0.1-19.4-0.2-29.1-0.2c-9.8,0-19.7,0-29.5,0.1c-18.9,0.1-37.9,0.2-56.6,0.7
					c-16.2,0.4-31,1.3-43.6,2.8c-11.1,1.4-19.8,3.1-30.6,4.6c-5.3,0.7-11.3,1.3-17.9,1.8c-8.3,0.6-17.2,0.8-26.2,0.9
					c-4.4,0.1-8.9,0.1-13.3,0.1C-210.1,74.9-210.1,75-209.5,75.1L-209.5,75.1z"/>
			</g>
			<g id="XMLID_270_">
				<path id="XMLID_271_" class="st9" d="M-215.9,72.5c15.9,0.6,33.8-0.1,48.2-1.2c15.3-1.1,28.6-2.7,42.4-4.2
					c6.7-0.7,13.2-1.5,20.5-2.1c7.9-0.6,16.2-1.1,24.9-1.3c9.2-0.3,18.5-0.4,27.8-0.5c9.2-0.1,18.3-0.2,27.5-0.3
					c18.4-0.2,37.2-0.6,55.7-0.5c16.4,0.1,31.6,1.2,45.7,2.4c14.5,1.2,29.2,2.3,45.3,3c17.2,0.7,34.9,1,52.5,1.3
					c8.8,0.2,17.5,0.4,26.3,0.5c9.1,0.1,18.2,0.1,27.2,0c9.2-0.1,18.4-0.2,27.6-0.3c8.8-0.1,17.8-0.3,26.5-0.6
					c4.3-0.2,8.6-0.3,12.8-0.4c1.2,0,0.9-0.3-0.3-0.3c-9,0-17.8,0-26.7,0.2c-9,0.1-18,0.3-27,0.4c-18,0.2-36,0.3-53.9-0.1
					c-17.5-0.4-35.2-0.7-52.5-1.2c-16.8-0.5-32.4-1.4-48-2.4c-7.3-0.5-14.7-0.9-22.2-1.4c-7.4-0.4-15.2-0.8-23-1.1
					c-7.9-0.2-15.8-0.2-23.8-0.1c-9.4,0.1-18.8,0.2-28.2,0.3c-9.2,0.1-18.5,0.3-27.7,0.4c-9.2,0.1-18.4,0.1-27.6,0.2
					c-8.7,0.1-17.4,0.3-25.8,0.7c-7.9,0.4-15.4,0.9-22.6,1.4c-14.7,1.2-27.6,2.7-41.2,4.1c-14.1,1.5-30.1,2.8-47.6,3
					c-4.2,0.1-8.5,0.1-12.7,0C-216.3,72.4-216.3,72.5-215.9,72.5L-215.9,72.5z"/>
			</g>
			<g id="XMLID_268_">
				<path id="XMLID_269_" class="st9" d="M-212.3,70.2c16.2,0.4,33.2-0.4,46.7-1.7c14.6-1.4,27.3-3.2,42.7-4.4
					c15.1-1.2,32-1.9,48.8-2.3c18.4-0.4,36.9-0.7,55.5-0.7c19,0,38.3,0.1,57.2,0.5c9.3,0.2,18.5,0.5,27.5,0.9c9,0.4,17.5,1,26.3,1.4
					c33.9,1.9,70.3,2.7,106.4,3c36.3,0.3,72.5-0.1,108.3-1c4.4-0.1,8.7-0.2,13.1-0.4c0.6,0,0.5-0.2-0.2-0.2
					c-35.9,0.5-72.3,0.8-108.3,0.7c-36.3-0.1-71.8-1-106.7-2.4c-17.7-0.7-35.2-1.7-53.4-2.2c-18.4-0.5-37.3-0.7-56-0.7
					c-18.7-0.1-37.6,0-56.3,0.2c-16.9,0.2-33.9,0.6-49.9,1.4c-16.2,0.9-29.7,2.4-43.1,3.9c-13.5,1.6-28.2,3.2-45.4,3.8
					C-203.4,70.2-207.8,70.2-212.3,70.2C-212.4,70.2-212.4,70.2-212.3,70.2L-212.3,70.2z"/>
			</g>
			<g id="XMLID_266_">
				<path id="XMLID_267_" class="st9" d="M-213.3,67c15.9,0.5,32.2-0.2,46.4-1.2c7.4-0.6,14.3-1.2,21.1-1.9
					c6.8-0.7,13.3-1.4,20.1-2.1c6.9-0.7,14.3-1.3,22.1-1.7c8.3-0.4,17.3-0.6,26-0.8c17.4-0.2,35.1-0.2,52.6-0.2
					c35.2,0,71.3,0.2,105.1,1.8c16.8,0.8,33.1,1.9,50.4,2.4c17.4,0.6,35.3,0.7,53,0.7c18.4,0,36.8,0,55.2,0
					c18.5-0.1,37.3,0,55.7-0.4c4.4-0.1,8.8-0.2,13.1-0.3c1,0,0.7-0.2-0.2-0.3c-9.2-0.1-18.6-0.2-27.8-0.2c-9.3,0-18.6,0.1-27.8,0.1
					c-18.4,0-36.8,0.1-55.2,0.1c-17.8,0-35.8,0-53.5-0.4c-17.6-0.4-34.2-1.3-51.1-2C58.5,59.1,23,58.8-11.7,58.8
					c-17.6,0-35.2,0.1-52.9,0.1c-16.7,0.1-33.5,0.3-49.2,1.3c-15.1,0.9-28.6,2.2-42.1,3.5c-13.5,1.3-28.4,2.6-44.6,3
					c-4.2,0.1-8.5,0.1-12.7,0.1C-213.8,66.8-213.9,67-213.3,67L-213.3,67z"/>
			</g>
			<g id="XMLID_258_">
				<path id="XMLID_259_" class="st9" d="M244.5,51.6c-35.1-0.8-69.9,0.3-103.5,1.8c-17.3,0.8-34.5,1.6-52,2.2
					c-18.4,0.7-37,1-56,1.1c-19.8,0.1-39.6-0.1-59.4-0.3c-9.7-0.1-19.3-0.1-29-0.1c-9.1,0.1-18.2,0.1-27.2,0.3
					c-17.9,0.3-35.7,0.8-52.5,1.7c-17.4,1-32.8,2.6-50.4,3.6c-17.7,1-36.6,1.6-55.3,2c-9.8,0.2-19.8,0.4-29.7,0.5
					c-9.9,0.1-19.7,0-29.6-0.1c-4.8,0-9.6-0.1-14.4-0.1c-0.7,0-0.7,0.1-0.2,0.2c18.6,0.8,38.6,0.7,57.7,0.4
					c18.9-0.3,37.9-0.8,56.1-1.6c8.7-0.4,17.3-0.8,25.5-1.4c8.6-0.6,16.7-1.3,25.1-2c16.7-1.3,34.6-2,53.3-2.4
					c18.1-0.4,36.2-0.2,54.3-0.1c20,0.1,39.9,0.3,59.9,0.4c19.4,0,38.7-0.1,57.8-0.6c17.7-0.5,35-1.2,52.2-2
					c17.2-0.8,34.3-1.6,51.7-2.2c17.1-0.7,34.7-1.2,52.5-1.2C235.8,51.6,240.2,51.6,244.5,51.6C244.7,51.7,244.7,51.6,244.5,51.6
					L244.5,51.6z"/>
			</g>
			<g id="XMLID_254_">
				<path id="XMLID_255_" class="st9" d="M262.4,49.6c-34.3-0.4-69-0.7-103,0.3c-32.4,1-62.5,3.1-95,4c-34.2,1-69.6,0.6-104.2,0.8
					c-17.3,0.1-34.6,0.2-51.8,0.5c-16.9,0.3-33.3,0.8-49.7,1.5c-31.6,1.4-65,3.1-98.3,2c-3.8-0.1-7.7-0.3-11.5-0.4
					c-0.4,0-0.6,0.1-0.3,0.1c13.9,1.1,30.3,1.2,45.6,1.1c16.7-0.2,32.9-0.8,49-1.5c16.5-0.7,33.1-1.3,50.1-1.7
					c17.4-0.4,34.9-0.6,52.4-0.7c34.7-0.2,69.6,0.1,104.2-0.5c33.5-0.6,64.4-2.6,96.5-3.9c16.5-0.7,33.2-1.2,50.4-1.4
					c17.5-0.2,35.1-0.2,52.6-0.1C253.8,49.6,258.1,49.6,262.4,49.6C262.5,49.6,262.5,49.6,262.4,49.6L262.4,49.6z"/>
			</g>
			<g id="XMLID_252_">
				<path id="XMLID_253_" class="st9" d="M-233,56.9c16.7,0,33.7-0.1,50.3-0.5c8.5-0.2,17-0.4,25.2-0.7c8.2-0.3,16.2-0.8,24.1-1.2
					c16.4-0.9,32.7-1.6,49.9-1.9c16.7-0.3,33.6-0.3,50.4-0.3c16.9,0,33.8,0.1,50.7-0.1c16.9-0.1,33.5-0.5,50-1
					c16.9-0.6,33.7-1.2,50.6-1.7c17.3-0.5,34.9-0.8,52.5-0.8c35.2-0.1,70.4,0.4,105.3,1.1c4.4,0.1,8.8,0.2,13.2,0.2
					c0.3,0,0.4-0.1,0.1-0.1c-34.6-0.8-69.7-1.6-104.8-1.7c-17.4-0.1-34.8,0.1-52,0.4c-17.2,0.3-34,0.9-50.9,1.5
					c-16.8,0.6-33.6,1.1-50.8,1.4c-17,0.3-34.1,0.2-51.1,0.2c-33.6,0-67.3-0.1-99.6,1.5c-16.5,0.8-32.3,1.8-49.2,2.4
					c-16.8,0.6-33.9,0.9-51,1.1C-224.3,56.7-228.6,56.7-233,56.9C-233.3,56.8-233.3,56.9-233,56.9L-233,56.9z"/>
			</g>
		</g>
		<g id="XMLID_29_">
			<g id="XMLID_247_">
				<path id="XMLID_248_" class="st9" d="M-39.2,31.1c10.7,0.2,21.3,0,31.6-0.3c10.9-0.4,20.8-1,30.1-1.8
					c18.3-1.5,33.6-3.5,45.8-5.7c3.1-0.5,6.6-1.1,8.1-1.7c1.5-0.6,0.3-1.3-2.7-1.8c-2.9-0.5-7-0.9-11.3-1.3
					c-4.5-0.4-9.2-0.7-13.9-1.1c-9.9-0.7-20.1-1.4-31.3-1.8C6,15.1-5.9,14.9-17.7,14.8c-23.7-0.3-47.7-0.3-71.3,0
					c-22.7,0.3-45.4,1-66.6,2.1c-4.7,0.2-9.4,0.5-14,0.7c-2.1,0.1-4.2,0.2-6.4,0.3c-1.3,0.1-2.4,0.1-3.6,0.2
					c-1.2,0.1-2.3,0.2-3.5,0.3c-7.9,0.7-14.9,1.6-19.5,2.6c-1.5,0.3-2.7,0.7-2.8,1c-0.1,0.4,1.4,0.7,3.5,1c3.4,0.5,8,0.9,12.1,1.3
					c8.8,0.8,17.7,1.7,27.4,2.4c9.5,0.7,18.6,1.4,28.5,2.1c9.9,0.6,20.4,1.2,31.2,1.6c11.1,0.4,22.6,0.6,34.2,0.8
					c11.4,0.2,23.1,0.2,34.5,0.1c5.6-0.1,11-0.2,16.4-0.4c0.8,0,0.4-0.2-0.3-0.1c-11.2,0.2-22.4,0.4-33.8,0.4
					c-11.1,0-22.3-0.2-33-0.6c-20.8-0.8-40.7-1.8-59.1-3.1c-4.5-0.3-9.1-0.7-13.2-1c-4.1-0.4-8.2-0.8-12.1-1.2
					c-8.2-0.8-16.2-1.7-24.1-2.6c-1.2-0.1-3-0.3-3.2-0.5c-0.2-0.3,1.4-0.5,2.4-0.8c2.2-0.4,4.8-0.9,7.9-1.3c3-0.4,6.3-0.7,9.9-1.1
					c1-0.1,2.3-0.2,3.3-0.3c0.8-0.1,1.4-0.2,2.1-0.3c1.7-0.2,3.6-0.4,5.7-0.5c17.6-1.3,38.6-2,58.9-2.5c22.5-0.5,45.6-0.7,68.5-0.6
					c11.4,0.1,22.7,0.3,33.9,0.6c11.1,0.3,21.9,0.7,31.8,1.3c9.6,0.6,18.2,1.4,26.8,2.2c6.3,0.6,15.9,1.4,13,2.4
					c-1.6,0.6-5,1.1-7.8,1.5c-2.8,0.5-5.8,1-8.9,1.4c-6.5,0.9-13.7,1.8-21.4,2.7c-7.6,0.8-15.5,1.6-24.1,2.3
					c-8.7,0.7-18.1,1.3-28.6,1.6C-28.4,31.1-33.8,31.1-39.2,31.1C-39.4,31-39.4,31.1-39.2,31.1L-39.2,31.1z"/>
			</g>
			<g id="XMLID_245_">
				<path id="XMLID_246_" class="st9" d="M-65.7,30c18.9,0.3,37.8-0.2,54.9-1.1c8.5-0.5,16.4-1,24-1.7c7.5-0.6,14.7-1.3,21.1-2.1
					c6.2-0.8,12.8-1.6,17.5-2.5c4.9-0.9,7-2.1,0.4-3c-2.8-0.4-6.9-0.7-10.7-0.9c-4-0.3-8.1-0.6-12.2-0.8c-8.5-0.5-17.3-1-26.4-1.3
					c-8.8-0.4-18-0.6-27.3-0.8c-9.8-0.2-19.9-0.2-29.7,0c-5.2,0.1-10.3,0.2-15.4,0.3c-4.9,0.1-9.9,0.1-14.8,0.2
					c-9.7,0.1-19.4,0.3-28.8,0.6c-4.7,0.2-9.4,0.3-14.1,0.5c-4,0.2-7.8,0.4-11.8,0.6c-1.9,0.1-3.8,0.1-5.6,0.2
					c-1.9,0.1-3.8,0.2-5.6,0.4c-3.6,0.3-7.1,0.5-10.3,0.9c-6,0.6-11.3,1.4-15.5,2.2c-1,0.2-2,0.4-2.8,0.6c-0.5,0.1-1.1,0.2-1.4,0.4
					c-0.5,0.2,0,0.4,1,0.6c2.5,0.4,5.5,0.9,8.8,1.2c3.3,0.4,7.9,0.5,11.6,0.8c3.7,0.3,7.5,0.6,11.2,0.8c7.8,0.6,15.6,1.2,23.7,1.7
					c15.7,1.1,32.6,2,50.8,2.3c4.4,0.1,8.6,0.1,13.1,0.1c0.5,0,0.5-0.1,0-0.1c-8.9-0.1-17.6-0.3-26.2-0.6c-8.3-0.3-16.3-0.7-24-1.2
					c-7.9-0.5-15.6-1-23-1.6c-7.1-0.5-14.3-1.1-20.9-1.7c-1.9-0.2-3.4-0.4-4.9-0.6c-1.5-0.2-2.8-0.4-4.3-0.6
					c-3.1-0.4-6.3-0.8-8.9-1.2c0.2,0.1,0.3,0.3,0.4,0.4c2.2-0.6,5.1-1.2,8.5-1.7c3.4-0.5,7.5-0.9,11.5-1.4c4.1-0.5,8.9-0.8,13.3-1.3
					c2.2-0.2,4.8-0.4,7.4-0.5c3.1-0.2,6.2-0.3,9.4-0.5c13.2-0.6,27.4-0.8,41.3-1c3.4,0,6.8-0.1,10.2-0.1c3.6,0,7.3,0,10.9,0.1
					c7.3,0.1,14.6,0,21.9,0.1c13.2,0.2,26,0.5,38.6,1c12.5,0.5,24.3,1.2,35.5,2c4.1,0.3,9.9,0.7,10.7,1.2c0.8,0.7-3.1,1.3-6.3,1.8
					c-3.8,0.6-8.2,1.1-12.5,1.7c-4.4,0.6-8.9,1.1-13.5,1.6c-18.8,2.2-43.8,3.8-70.6,4c-3.4,0-6.8,0-10.1,0C-65.9,30-65.8,30-65.7,30
					L-65.7,30z"/>
			</g>
			<g id="XMLID_241_">
				<path id="XMLID_244_" class="st9" d="M-69.5,28.8c6.8,0,13.6,0,20.3-0.1c6.8-0.1,13.5-0.3,20.2-0.5c6.7-0.2,13.5-0.5,19.4-0.8
					C-3.4,27,2.5,26.6,8,26c10.8-1,20.2-2.2,27.4-3.5c2.4-0.4,4.2-0.9,3.3-1.5c-0.8-0.4-3.5-0.8-6.6-1c-2.9-0.2-6.2-0.4-9.4-0.6
					c-3.6-0.2-7.3-0.4-11-0.5c-14.6-0.6-29.8-0.9-45.3-1c-7.7-0.1-15.2,0-22.9,0.1c-7.7,0.1-15.3,0.3-22.9,0.4
					c-7.5,0.2-15,0.4-22.4,0.6c-7.1,0.2-14.4,0.5-21.3,0.8c-1.5,0.1-3,0.1-4.6,0.2c-1.9,0.1-3.7,0.1-5.4,0.2
					c-1.6,0.1-3.1,0.2-4.6,0.3c-1.7,0.1-3.5,0.2-5,0.3c-5.9,0.6-11,1.4-10.9,2.3c0.1,0.9,5.1,1.6,10.7,2.1c3.2,0.3,7.5,0.4,10.9,0.7
					c3.4,0.3,6.8,0.5,10.3,0.8c13.4,1,28.3,1.8,44.3,2c4,0.1,8.1,0.1,12.2,0c0.7,0,0.7-0.1,0-0.1c-15.7,0.1-31.6-0.4-44.9-1.4
					c-6.5-0.5-12.6-1-18.5-1.6c-2.9-0.3-5.2-0.6-7.7-0.9c-2-0.3-4.6-0.4-6.5-0.7c-1.9-0.3-3-0.5-2.5-0.9c0.6-0.4,2.7-0.7,4.6-1
					c0.8-0.1,1.7-0.3,2.7-0.4c1.2-0.1,2.2-0.3,3.4-0.4c2.2-0.3,5-0.5,7.6-0.7c1.4-0.1,2.5-0.2,4-0.3c1.4-0.1,2.9-0.2,4.4-0.2
					c3.3-0.2,6.8-0.3,10.2-0.5c6.8-0.3,13.9-0.5,20.9-0.6c7.1-0.2,14.1-0.3,21.4-0.3c7.2,0,14.4,0,21.6,0.1
					c14.2,0.1,27.9,0.4,41.6,0.8c6.6,0.2,13.1,0.5,19.4,0.8c3.2,0.2,6.5,0.3,9.5,0.5c1.9,0.1,3.9,0.3,3.7,0.5
					c-0.2,0.3-2.7,0.7-4.3,1c-1.6,0.3-3.4,0.6-5.3,0.8c-3.9,0.6-8.3,1.1-12.9,1.6c-4.6,0.5-9.5,0.9-14.8,1.3
					c-2.7,0.2-5.5,0.4-8.3,0.6c-2.7,0.2-5.3,0.4-8,0.5c-5.6,0.3-11.2,0.7-17.4,0.9c-6.1,0.2-12.3,0.4-18.6,0.5
					C-63,28.7-66.3,28.7-69.5,28.8C-69.7,28.7-69.7,28.8-69.5,28.8L-69.5,28.8z"/>
			</g>
			<g id="XMLID_239_">
				<path id="XMLID_240_" class="st9" d="M-78.9,27.3c11.8-0.1,23.5-0.3,34.9-0.6c5.6-0.2,11.3-0.4,16.8-0.6
					c5.8-0.2,11.2-0.6,16.3-1c9.9-0.7,19.6-1.6,27.3-2.7c2.3-0.3,3.9-0.7,3.1-1.1c-0.7-0.3-2.9-0.6-5.4-0.8C9.2,20.1,3,20-2.6,19.9
					c-6-0.1-12-0.2-18.1-0.2c-6.1,0-12.2-0.1-18.3-0.1c-11.9,0-23.9,0.1-35.6,0.4c-11.8,0.3-23.7,0.7-34.9,1.2
					c-5.6,0.3-11.1,0.6-16.5,0.9c-1.2,0.1-2.4,0.2-3.6,0.2c-1.3,0.1-2.7,0.1-4,0.2c-3.2,0.2-5.7,0.4-6.5,0.8c-1.6,0.8,4,1.4,9.4,1.7
					c3,0.2,6.2,0.3,9.2,0.5c3.1,0.2,6.3,0.3,9.4,0.5c6.1,0.3,12.4,0.6,18.7,0.8c6.2,0.3,12.8,0.5,19.4,0.5c3.1,0,6-0.1,8.9-0.2
					c0.3,0,0.2-0.1-0.2-0.1c-12.9,0.3-25.4-0.3-36.7-1c-5.6-0.3-11.1-0.7-16.5-1.1c-4.4-0.3-9.1-0.7-12-1.2c-1.2-0.2-1-0.3-0.1-0.5
					c1-0.2,2.5-0.5,4.5-0.6c4.7-0.3,9.6-0.7,14.6-1c10.1-0.6,20.5-1,31.5-1.3c11-0.3,22.1-0.4,33.3-0.5c5.5,0,11,0,16.5,0.1
					c5.7,0.1,11.1,0.2,16.6,0.4c5.2,0.2,10.3,0.4,15.3,0.7c2.4,0.1,4.9,0.2,6.9,0.3c0.4,0,0.9,0.1,1.3,0.1c-0.4,0,0.9,0.1,0.5,0.1
					c0.2,0,0.3,0,0.2,0.1c-1.3,0.2-3.1,0.4-4.7,0.6c-1.9,0.2-3.9,0.4-5.9,0.6c-3.9,0.4-8,0.8-12.3,1.1c-4.5,0.4-9.3,0.7-13.9,1
					c-4.6,0.3-9.2,0.7-14.1,1c-9.8,0.6-20.1,1-30.8,1.2C-73.7,27.2-76.3,27.2-78.9,27.3C-79,27.3-79,27.3-78.9,27.3L-78.9,27.3z"/>
			</g>
			<g id="XMLID_231_">
				<path id="XMLID_232_" class="st9" d="M-56.8,32.4C-37.5,32.4-18,32.3,1,31.9c9.5-0.2,19-0.5,27.9-1c8.7-0.4,16.8-1.1,24-1.8
					c14.6-1.4,24.9-3.2,34.4-5.1c2.1-0.4,4.3-0.8,6.6-1.2c2.3-0.4,4.9-0.7,7.7-1.1c6.8-0.8,16.7-0.9,26-1.1
					c25.2-0.4,50.7-0.5,75.9-0.9c0.4,0,0.3-0.1-0.1-0.1c-22.7,0.1-45.4,0.3-68.1,0.4c-10.4,0.1-21.4-0.1-31.2,0.4
					c-3.9,0.2-7.8,0.5-10.9,0.8c-3.1,0.3-5.7,0.7-8.1,1.1c-4.9,0.8-8.8,1.7-13.5,2.6c-5,0.9-10.6,1.8-17,2.6
					c-6.4,0.8-13.4,1.5-21.3,2.1c-8,0.6-16.4,1.1-25.4,1.4C-12.9,31.9-35,32.2-56.8,32.4C-57.1,32.4-57.1,32.4-56.8,32.4L-56.8,32.4
					z"/>
			</g>
			<g id="XMLID_227_">
				<path id="XMLID_230_" class="st9" d="M190.4,21.9c-17.6-0.3-36.6-0.5-54.2,0c-8.4,0.2-16.5,0.6-23.6,1.2
					c-3.7,0.3-7.3,0.6-10.5,1c-3.5,0.4-6.5,0.8-9.5,1.3c-6,0.9-11.6,1.9-18.3,2.7c-6.2,0.8-13,1.5-20.2,2.1
					C39.6,31.4,22.8,32.4,5.6,33c-38.5,1.4-80.9,1-118-0.8c-19.6-0.9-37.4-2.2-54.8-3.6c-8.7-0.7-17.5-1.4-27-1.9
					c-9.8-0.6-20-0.9-30.7-1.1c-22.5-0.4-45.5-0.3-68.1-0.2c-23.5,0.1-47,0.3-70.4,0.5c-5.5,0.1-11,0.1-16.4,0.2
					c-0.4,0-0.3,0.1,0.1,0.1c11.8,0,23.6-0.2,35.4-0.2c11.6-0.1,23.3-0.2,34.9-0.2c23.1-0.1,46.2-0.1,69.2,0.2
					c11,0.1,21.7,0.4,32.1,0.8c10,0.4,19.3,1.1,28.3,1.7c8.8,0.6,17.5,1.3,26.6,1.9c9.1,0.6,18.4,1.1,28,1.5
					c19,0.9,39.2,1.6,59.6,1.9c19.1,0.3,38.4,0.4,57.5,0c17.9-0.4,36.1-1,51.8-2c15.8-1.1,29.5-2.5,39.7-4.2c5.7-1,10.3-2,16.8-2.9
					c6.2-0.8,13.6-1.5,22.7-1.9c8.4-0.4,17-0.5,25.8-0.7c9.2-0.2,18.7-0.2,28-0.3c4.5,0,9.1,0,13.6-0.1
					C190.6,22,190.6,21.9,190.4,21.9L190.4,21.9z"/>
			</g>
			<g id="XMLID_223_">
				<path id="XMLID_224_" class="st9" d="M183.6,23.2c-17.6-0.4-36.1,0.1-52.3,0.9c-4.2,0.2-8.4,0.4-12.3,0.7
					c-3.8,0.3-7.4,0.6-10.8,0.9c-7.2,0.7-12.8,1.6-18.2,2.5c-5.4,0.9-11.1,1.8-17.9,2.5c-7.3,0.8-16.1,1.3-25.2,1.8
					c-20.2,1.1-42.2,1.8-64.1,2.2C-38.9,35.2-61,35.3-82.9,35c-20.5-0.3-41.1-1.1-59-2.2c-17.5-1.1-32.2-2.8-49.7-3.9
					c-17.7-1.2-37.8-1.5-57.9-1.6c-20.8-0.1-41.8,0.1-62.6,0.1c-23.3,0.1-46.9,0.1-70,0.5c-5.6,0.1-11.3,0.2-16.9,0.3
					c-1.3,0-0.9,0.2,0.3,0.2c11.7,0,23.4,0.1,35.2,0.1c11.6,0,23.1-0.1,34.6-0.1c21.5-0.1,43-0.2,64.5-0.2c20.1,0,40.7,0.1,59.6,1
					c18.4,0.9,33.4,2.4,50.1,3.6c17.4,1.2,37,2,57.1,2.4c20.8,0.4,41.9,0.5,62.9,0.2c22.1-0.3,44-0.8,65.4-1.5
					c10.3-0.3,20.4-0.5,30-1.1c8.7-0.5,16-1.2,22.2-2.1c12.1-1.6,21.4-3.5,36-4.9c7.3-0.7,15-1.3,23.8-1.7
					c8.6-0.4,17.8-0.6,27.1-0.7C174.5,23.2,179.1,23.2,183.6,23.2C183.8,23.3,183.9,23.2,183.6,23.2L183.6,23.2z"/>
			</g>
			<g id="XMLID_219_">
				<path id="XMLID_220_" class="st9" d="M188.1,17.9c-23.2,0.2-46.3,0.4-69.5,0.5c-11,0.1-22.2,0.2-32.8-0.2
					c-8.4-0.3-16.2-0.8-23-1.4c-14.2-1.3-27.6-2.7-45-3.4c-5-0.2-10.2-0.4-15.5-0.4C-3,13-8.2,13-13.3,13c-10.8-0.1-21.7,0-32.5,0
					c-22.8,0.1-45.4,0-68.1,0.3c-20.2,0.2-40.2,0.7-59.4,1.4c-19,0.7-35.7,1.9-50.4,3.5c-7.1,0.8-14.2,1.5-23.6,1.9
					c-5.1,0.2-10.4,0.4-15.7,0.4c-5.2,0.1-10.4,0.1-15.7,0.1c-23.1,0-46.2-0.1-69.3,0c-23.3,0.1-46.6,0.3-69.8,0.6
					c-5.4,0.1-10.7,0.2-16,0.3c-0.7,0-0.5,0.2,0.2,0.1c11.6-0.1,23.2-0.3,34.8-0.4c11.4-0.1,22.9-0.2,34.3-0.3
					c23-0.1,46.3-0.2,69.3-0.1c11.1,0.1,22.2,0.2,33.3,0.3c5.2,0,10.2,0.1,15.3-0.1c5-0.1,9.7-0.4,13.9-0.7
					c8.1-0.6,14.8-1.4,22.1-2.2c7.5-0.7,15.8-1.4,24.3-1.9c17.4-1.1,36-1.9,55.6-2.3c22.6-0.5,45.5-0.6,68.4-0.6
					c11.3,0,22.5,0.1,33.8,0.1c5.2,0,10.4,0.1,15.6,0.1c5.2,0.1,10.3,0.2,15.3,0.4c5.1,0.2,10.3,0.3,15.3,0.5
					C22,14.7,26,15,29.9,15.2c7.6,0.5,14.4,1.2,21.8,1.8c7.1,0.5,14.5,1.1,22.4,1.5c9.1,0.4,18.6,0.6,28.4,0.5
					c11.2-0.1,22.5-0.3,33.7-0.4c11.6-0.1,23.2-0.3,34.8-0.4C176.6,18.1,182.3,18,188.1,17.9C188.2,18,188.2,17.9,188.1,17.9
					L188.1,17.9z"/>
			</g>
			<g id="XMLID_217_">
				<path id="XMLID_218_" class="st9" d="M192.4,16.2c-39.9,0.4-83.9,0.7-119.2-1.9c-9-0.7-17.6-1.4-27.4-1.9
					c-9.3-0.5-19.3-0.8-29.4-0.9c-21-0.3-42-0.3-63.1-0.2c-23.7,0-47.4,0.2-70.9,0.4c-22,0.2-44.6,0.4-66.2,1
					c-10.2,0.3-20.4,0.6-29.9,1.1c-9.8,0.5-18.8,1.2-27.9,1.9c-8.9,0.6-18.2,1.2-28.2,1.6c-9.8,0.4-19.9,0.6-30.1,0.8
					c-10.4,0.1-20.8,0.2-31.2,0.2c-11,0.1-21.8,0.1-32.8,0.1c-23.3,0-46.5-0.2-69.8,0c-5.5,0.1-10.8,0.2-16.1,0.3
					c-0.5,0-0.4,0.1,0.1,0.1c23.2-0.3,46.2-0.3,69.6-0.1c22,0.2,43.7,0.6,65.9,0.5c20.6-0.1,41.1-0.6,60-1.5c19.8-1,35-2.9,54.8-3.8
					c10-0.5,20.7-0.8,31.4-1c11.3-0.2,22.7-0.4,34.1-0.6c23.5-0.3,47.2-0.5,70.9-0.6c21.9-0.1,44.1-0.1,65.8,0.3
					c20.6,0.4,39.9,1.3,57.3,2.6c8.8,0.7,17.6,1.3,27.5,1.7c9.3,0.4,19.3,0.7,29.2,0.8c5,0,10.1,0.1,15.2,0.1
					c5.2,0,10.2-0.1,15.4-0.1c10.1-0.1,20.1-0.3,30.1-0.5C182.4,16.5,187.4,16.4,192.4,16.2C192.7,16.2,192.7,16.2,192.4,16.2
					L192.4,16.2z"/>
			</g>
			<g id="XMLID_213_">
				<path id="XMLID_216_" class="st9" d="M-95.3,9.9c11.8,0.1,23.7,0.2,35.6,0.3c11.7,0.1,23.4,0.2,35.2,0.3
					c21.4,0.2,43.2,0.3,63.9,1c10.4,0.3,20.2,0.8,29.8,1.4c9.9,0.6,19.7,1.2,30.2,1.6c20.6,0.8,42.7,1,64.3,0.9
					c12.9-0.1,26-0.3,38.5-0.6c12.5-0.4,24.8-0.8,37-1.3c0.7,0,0.4-0.1-0.3-0.1c-11.3,0.2-22.6,0.4-34,0.6
					c-11.3,0.2-22.6,0.3-33.9,0.4c-21.4,0.2-43.2,0.1-63.9-0.6c-21.1-0.7-39.2-2.2-60.1-3C26.3,9.9,4.1,9.7-17.5,9.7
					c-12.7,0-25.4,0.1-38,0.1C-68.8,9.8-82.1,9.8-95.3,9.9C-95.5,9.9-95.5,9.9-95.3,9.9L-95.3,9.9z"/>
			</g>
			<g id="XMLID_211_">
				<path id="XMLID_212_" class="st9" d="M219.8,12c-3.3,0.1-6.6,0.1-9.8,0.2c-3.3,0.1-6.7,0.1-10,0.2c-6.9,0.1-13.9,0.3-20.8,0.4
					c-13.5,0.2-27.1,0.2-40.7,0.1c-11.6-0.1-23.2-0.4-34.2-0.8c-10.8-0.4-21.2-0.9-30.8-1.6c-4.7-0.3-9.1-0.7-13.2-1.2
					C56.3,8.9,52,8.4,50,7.8c-1.8-0.5-0.9-1,1.5-1.5c2.7-0.5,6.9-0.9,11.6-1.2c5.3-0.3,11.1-0.5,16.8-0.7C86.3,4.3,92.7,4.1,99.1,4
					c13-0.3,26.1-0.5,39.2-0.6c26.5-0.2,53.1-0.2,79.7,0c3.2,0,6.5,0,9.7,0.1c0.8,0,0.9-0.1,0.2-0.1c-13.5-0.4-27.1-0.8-41.1-0.9
					c-13.8-0.1-27.7-0.2-41.6-0.1c-14.1,0.1-28.2,0.3-42.1,0.6C96.3,3,89.6,3.1,82.8,3.3c-6.3,0.2-12.7,0.3-18.7,0.6
					C52.2,4.5,41.5,5.5,40,7c-1.4,1.5,9.2,2.6,18.4,3.4c9.8,0.9,20.6,1.6,32.2,2.1c11.3,0.5,23.3,0.7,35.4,0.8
					c28.2,0.2,56.4-0.3,83.9-1C213.2,12.3,216.5,12.2,219.8,12C220.1,12,220.1,12,219.8,12L219.8,12z"/>
			</g>
			<g id="XMLID_209_">
				<path id="XMLID_210_" class="st9" d="M210.4,11c-11.2,0-22.4,0.2-33.7,0.3c-5.7,0.1-11.5,0.1-17.2,0.1c-2.7,0-5.5,0-8.2,0
					c-2.6,0-5-0.1-7.6-0.1c-17.4-0.2-36.2-0.7-49.9-2c-3.3-0.3-6.1-0.7-8.1-1.1c-1.5-0.3-2.3-0.7-1.2-1.1C84.3,7.1,85,7,85,7
					c0.7-0.1-0.2,0,0.4-0.1c0.6-0.1,1.1-0.1,1.9-0.2c1.7-0.1,3.6-0.2,5.7-0.2c5-0.1,10.2-0.2,15.3-0.2c11.3-0.2,22.5-0.3,33.9-0.5
					c11.3-0.1,22.6-0.2,34-0.2c25.4-0.1,50.8,0.1,76.1,0.3c0.5,0,0.6-0.1,0.1-0.1c-23.4-0.4-47.2-0.6-71-0.7c-12.1,0-24.2,0-36.3,0
					c-11.8,0-23.7,0-35.4,0.2c-5.9,0.1-11.9,0.2-17.7,0.3c-4.6,0.1-9.5,0.3-12.8,0.7c-7.1,0.9-3.9,2.2,1.8,3
					c5.8,0.9,14.6,1.5,23.3,2c9.1,0.5,19.1,0.8,29,0.8c2.9,0,5.8,0,8.6,0c1.2,0,2.5,0,3.7,0c1.7,0,3.3-0.1,5-0.1
					c6.5-0.1,13-0.2,19.5-0.3C183.5,11.5,196.9,11.2,210.4,11C210.7,11.1,210.7,11,210.4,11L210.4,11z"/>
			</g>
			<g id="XMLID_199_">
				<path id="XMLID_202_" class="st9" d="M194.2,1.2c-20.5-0.2-41.4-0.3-62-0.3c-20.3,0-40.9,0.2-60.6,0.8C61.7,2,52.1,2.4,42.9,2.9
					C33.1,3.4,24.3,4,15.4,4.7C6.3,5.4-3,6.1-13.7,6.4c-11,0.4-22.5,0.5-33.8,0.6c-11.9,0.1-23.9,0.2-35.9,0.3
					c-12.2,0.1-24.4,0.1-36.6,0.1c-23.1,0-46.2,0-69.2,0.2c-21.5,0.2-43.4,0.6-63.7,1.5c-21.1,0.9-39.6,2.2-58.6,3.6
					c-9.3,0.6-18.9,1.3-29.1,1.7c-10.2,0.4-20.8,0.8-31.5,1c-21.4,0.5-43.6,0.6-65.4,0.7c-5.4,0-10.8,0.1-16.3,0.1
					c-1.4,0-1.4,0.2,0,0.2c21.8,0.2,43.8,0.4,65.7,0.2c21.7-0.2,42.9-0.8,62.5-1.9c20-1.1,37.8-2.7,57.8-3.8
					c19.5-1.1,40.8-1.8,62.1-2.2c46.2-0.9,93.4-0.8,140.1-0.7C-43.2,8-19,7.8,1.6,6.8c10.3-0.5,19.1-1.3,28.6-2
					C38.8,4.2,48,3.6,57.6,3.2c9.3-0.4,19-0.7,28.7-1c10.1-0.3,20.3-0.5,30.6-0.6c20.6-0.2,41.4-0.3,62.1-0.3c5.1,0,10.2,0,15.3,0
					C195,1.4,195,1.2,194.2,1.2L194.2,1.2z"/>
			</g>
			<g id="XMLID_197_">
				<path id="XMLID_198_" class="st9" d="M199.3,0.2c-22.2-0.4-44.3-0.7-66.7-0.8c-22.2-0.1-44.9-0.1-66.8,0.4
					C54.8,0,43.7,0.3,33,0.7S12,1.6,1.7,2.1c-10.4,0.5-20.8,1-31.6,1.4C-39.8,3.9-50,4.1-60.3,4.3c-42,0.7-84.7,0.4-127,0.7
					c-20.8,0.1-41.7,0.4-61.8,1.1c-21,0.7-40.1,1.9-59,3.1c-9.5,0.6-19,1.3-28.9,1.8c-10.1,0.6-20.6,1-31.3,1.4
					c-21.2,0.8-43.4,1.1-65.6,1.1c-5.4,0-10.9,0-16.3-0.1c-0.4,0-0.5,0.1-0.1,0.1c43.2,0.8,87.5-0.1,126.5-2.3
					c19.8-1.1,38.3-2.6,58.9-3.5c19.4-0.9,40-1.4,60.8-1.6c42.3-0.5,84.8-0.2,127.1-0.6C-55.9,5.3-35,4.8-15.2,4
					C6.1,3.1,26.1,1.8,48,1.1c21.6-0.7,44.3-1,66.7-1.1c22.6-0.1,45.2,0.1,67.9,0.2C188.1,0.2,193.7,0.3,199.3,0.2
					C199.6,0.3,199.7,0.2,199.3,0.2L199.3,0.2z"/>
			</g>
			<g id="XMLID_195_">
				<path id="XMLID_196_" class="st9" d="M-433.7,11.1c10.7,0.1,21.4,0.2,32.2,0.2c10.7,0,21.3,0,31.9-0.3
					c10.4-0.3,19.8-0.8,28.4-1.5c8.7-0.7,16.7-1.5,25.3-2.3c8.7-0.7,18.2-1.3,28.5-1.6c10.5-0.4,21.3-0.5,32.2-0.7
					c24.3-0.4,48.5-0.8,73-1.1c24.8-0.2,49.5-0.4,74.4-0.3c11.8,0,23.6,0.1,35.4,0.1c11.5,0,23-0.3,33.9-0.7
					c21.1-0.8,39.9-2.3,60.1-3.3c19.9-1,40.8-1.8,62.1-2.3C127.4-3.7,172-4,216.5-3.7c5.5,0,11,0.1,16.4,0.1c0.6,0,0.8-0.1,0.2-0.1
					c-43.5-0.7-88.2-1-131.9-0.3c-21.8,0.3-43.3,1-64,1.8C16.2-1.2-3,0.1-23,1.2c-9.8,0.6-20,1.1-30.6,1.4
					C-65.2,3-77.4,3.2-89.4,3.2c-12.2,0.1-24.4,0-36.6,0c-12.3,0-24.7,0.1-37,0.1c-24.8,0.1-49.7,0.3-74.5,0.4
					c-22.1,0.1-44.7,0.4-65.2,1.4c-19.7,1-33.6,3-52.3,4.2c-19.2,1.2-41,1.6-62.6,1.6C-422.9,11.1-428.3,11.1-433.7,11.1
					C-434.1,11-434.1,11.1-433.7,11.1L-433.7,11.1z"/>
			</g>
			<g id="XMLID_193_">
				<path id="XMLID_194_" class="st9" d="M223.3-6.1c-24.9-0.2-49.9-0.3-74.9-0.4c-24.4,0-49.6,0-73.6,0.6C51-5.3,28.5-4.4,6.5-3.3
					C-14.6-2.2-35-0.9-56.3,0.2c-21.3,1-43.3,1.8-66.5,1.9c-23.1,0.2-46.4,0-69.5-0.2c-45-0.4-92.3-0.7-133.1,1.9
					c-10.6,0.7-20.6,1.5-31,2.2c-10.2,0.7-20.9,1.3-32.4,1.6c-23,0.8-47.3,0.8-71.1,0.7c-6,0-12-0.1-18-0.1c-0.7,0-0.6,0.1,0,0.1
					c23.7,0.3,47.6,0.6,71.3,0.3c11.6-0.1,23.1-0.4,34.2-0.8c11.2-0.4,21.5-1.1,31.5-1.8c10.2-0.7,20.3-1.5,31.4-2
					c10.4-0.5,21.3-0.8,32.4-1.1c22.4-0.4,45.3-0.3,67.9-0.2c23.2,0.2,46.4,0.4,69.6,0.4c23.1,0,45.7-0.4,67.6-1.3
					C-27.7,0.2,11.2-3,56.2-4.5c48.4-1.6,98.3-1.8,148.2-1.6C210.7-6.1,217-6,223.3-6.1C223.7-6,223.7-6.1,223.3-6.1L223.3-6.1z"/>
			</g>
			<g id="XMLID_191_">
				<path id="XMLID_192_" class="st9" d="M-439.9,5.7c22-0.1,44-0.2,65.7-0.6c10.7-0.2,21.5-0.6,31.4-1.1c9.7-0.5,19.1-1.1,28.5-1.7
					c9.3-0.6,18.7-1.1,28.6-1.5c10.4-0.4,21.1-0.6,32-0.7c21.9-0.1,43.8,0.2,65.6,0.5c22,0.3,44.1,0.5,66.1,0.1
					c22.6-0.4,44.3-1.2,65.6-2.2c41.5-1.8,82-3.9,125.7-5c45.9-1.1,94.1-1.2,140.7-0.7c5.8,0.1,11.5,0.1,17.2,0.2
					c0.5,0,0.6-0.1,0.1-0.1c-46.1-0.9-93.1-1.3-139.6-0.6C43-6.9,1.3-5.1-40.5-3.2c-20.9,0.9-42,1.9-63.8,2.5
					C-126.3-0.1-148.4,0-171-0.2c-22-0.2-43.8-0.6-65.9-0.7c-21.9-0.1-43.3,0.3-63.6,1.3c-19.4,1-37.2,2.3-56.4,3.3
					c-21,1.1-43.6,1.5-66.4,1.8C-428.8,5.5-434.3,5.6-439.9,5.7C-440.1,5.6-440.1,5.7-439.9,5.7L-439.9,5.7z"/>
			</g>
			<g id="XMLID_154_">
				<path id="XMLID_155_" class="st9" d="M200.4,25.4c-21.7-0.1-45-0.2-64.6,1.1c-16.2,1.1-28.5,2.8-40.5,4.4
					c-6.1,0.8-12.5,1.6-19.6,2.3C67.5,34,58.1,34.6,47.8,35c-11.2,0.4-23,0.6-34.6,0.8C0.5,35.9-12.1,36-24.8,36.1
					c-25.4,0.2-51.3,0.2-76.7,0c-12.2-0.1-24.6-0.2-36.1-0.7c-9.4-0.4-17-1.1-24.9-1.8c-15-1.3-29.1-2.8-46.3-3.8
					c-21.3-1.2-46.1-1.1-69.1-1.1c-25.2,0-50.5,0-75.7,0.1c-12.7,0.1-25.4,0.1-38,0.3c-12.2,0.2-24.9,0.3-36.8,0.6
					c-5.8,0.2-11.3,0.4-16.9,0.6c-1.3,0.1-0.6,0.3,0.7,0.3c12.4,0,24.6-0.2,36.9-0.4c12.6-0.2,25.2-0.3,37.9-0.4
					c25-0.2,50-0.2,75.1-0.2c12.7,0,25.4,0,38.1,0.1c11.8,0.1,23.9,0.2,35.3,0.6c18.2,0.6,32.7,2.1,47.6,3.3
					c16.3,1.4,35.3,2.4,55.8,2.7c12.4,0.1,25.1,0.2,37.5,0.2c12.7,0,25.4,0,38.1-0.1c24.4-0.1,48.9-0.2,73-0.7
					c20.9-0.4,40-1.3,56.3-2.8c14.3-1.4,25.5-3.1,39.5-4.6c6.9-0.7,14.6-1.3,23.1-1.8c10.7-0.6,22.2-0.8,33.8-0.9
					c5.7-0.1,11.4-0.1,17.2-0.1C201.3,25.6,201.3,25.4,200.4,25.4L200.4,25.4z"/>
			</g>
			<g id="XMLID_152_">
				<path id="XMLID_153_" class="st9" d="M208.7,27.9c-20.6-0.6-43.6,0.1-62.2,1.2c-19.7,1.1-36.9,2.7-54.7,4.2
					c-8.6,0.7-17,1.5-26.5,2.1c-10.2,0.6-20.9,1.1-32.1,1.3c-11.8,0.3-23.9,0.4-35.9,0.5c-11.8,0.1-23.6,0.2-35.5,0.3
					c-23.8,0.2-48,0.6-71.9,0.5c-21.2-0.1-40.8-1.2-58.9-2.4c-18.7-1.2-37.6-2.3-58.5-3c-22.2-0.7-45-1-67.8-1.3
					c-11.3-0.2-22.5-0.4-33.9-0.5c-11.7-0.1-23.5-0.1-35.1,0c-11.9,0.1-23.7,0.2-35.6,0.3c-11.3,0.1-23,0.3-34.2,0.6
					c-5.5,0.2-11,0.3-16.6,0.4c-1.6,0-1.2,0.3,0.4,0.3c11.6,0,23,0,34.5-0.2c11.6-0.1,23.2-0.3,34.8-0.4c23.2-0.2,46.4-0.3,69.5,0.1
					c22.6,0.4,45.4,0.7,67.8,1.2c21.6,0.5,41.8,1.4,61.9,2.4c9.4,0.5,19,0.9,28.6,1.4c9.6,0.4,19.6,0.8,29.7,1.1
					c10.2,0.2,20.4,0.2,30.7,0.1c12.1-0.1,24.3-0.2,36.3-0.3c11.9-0.1,23.8-0.3,35.8-0.4c11.8-0.1,23.7-0.1,35.6-0.2
					c11.2-0.1,22.5-0.3,33.3-0.7c10.1-0.4,19.9-0.9,29.2-1.4c19-1.2,35.6-2.7,53.2-4.1c18.2-1.5,38.9-2.8,61.4-3
					c5.4-0.1,11-0.1,16.4,0C209.1,28.1,209.2,27.9,208.7,27.9L208.7,27.9z"/>
			</g>
			<g id="XMLID_148_">
				<path id="XMLID_150_" class="st9" d="M204,30.2c-20.9-0.4-42.8,0.4-60.3,1.7c-18.8,1.4-35.3,3.2-55,4.4
					c-19.5,1.2-41.2,1.9-63,2.3C1.9,39.1-21.9,39.3-46,39.4c-24.6,0-49.5-0.1-73.8-0.5c-12-0.2-23.9-0.5-35.5-0.9
					c-11.6-0.4-22.6-1-33.9-1.4c-43.7-1.9-90.8-2.7-137.3-3c-46.9-0.3-93.6,0.1-139.7,1c-5.6,0.1-11.2,0.2-16.9,0.4
					c-0.8,0-0.6,0.2,0.2,0.2c46.3-0.5,93.3-0.8,139.8-0.7c46.8,0.1,92.6,1,137.6,2.4c22.9,0.7,45.5,1.7,68.9,2.2
					c23.7,0.5,48.2,0.7,72.3,0.7c24.2,0.1,48.5,0,72.6-0.2c21.8-0.2,43.8-0.6,64.4-1.4c20.8-0.9,38.3-2.4,55.6-3.9
					c17.4-1.6,36.4-3.2,58.6-3.8C192.6,30.3,198.2,30.2,204,30.2C204.1,30.3,204.2,30.2,204,30.2L204,30.2z"/>
			</g>
			<g id="XMLID_46_">
				<path id="XMLID_147_" class="st9" d="M205.4,33.5c-20.5-0.5-41.5,0.2-59.8,1.2c-9.5,0.6-18.5,1.2-27.3,1.9
					c-8.7,0.7-17.1,1.4-25.9,2.1c-8.9,0.7-18.4,1.3-28.5,1.7c-10.7,0.4-22.3,0.6-33.6,0.8C7.8,41.4-15,41.4-37.6,41.4
					c-45.5,0-92-0.2-135.6-1.8c-21.7-0.8-42.7-1.9-65.1-2.4c-22.5-0.6-45.5-0.7-68.5-0.7c-23.7,0-47.5,0-71.3,0
					c-23.9,0.1-48.1,0-71.8,0.4c-5.7,0.1-11.3,0.2-16.9,0.3c-1.4,0-0.9,0.2,0.3,0.3c11.9,0.1,24,0.2,35.9,0.2c12,0,24-0.1,35.9-0.1
					c23.7,0,47.5-0.1,71.2-0.1c23,0,46.2,0,69.1,0.4c22.7,0.4,44.1,1.3,66,2c43.1,1.5,88.9,1.9,133.7,1.9c22.7,0,45.5-0.1,68.2-0.1
					c21.6-0.1,43.3-0.3,63.5-1.3c19.4-0.9,36.9-2.2,54.3-3.5c17.4-1.3,36.7-2.6,57.5-3c5.4-0.1,10.9-0.1,16.4-0.1
					C205.9,33.6,206.1,33.5,205.4,33.5L205.4,33.5z"/>
			</g>
			<g id="XMLID_36_">
				<path id="XMLID_38_" class="st9" d="M-385.5,48.8c45.3,0.8,90.2-0.3,133.5-1.8c22.3-0.8,44.5-1.6,67.1-2.2
					c23.8-0.7,47.8-1,72.2-1.1c25.6-0.1,51.1,0.1,76.7,0.3c12.5,0.1,24.9,0.1,37.4,0.1C13.2,44,25,43.9,36.6,43.8
					c23.1-0.3,46.1-0.8,67.8-1.7c22.5-1,42.4-2.6,65-3.6c22.9-1,47.2-1.6,71.4-2c12.7-0.2,25.5-0.4,38.3-0.5
					c12.8-0.1,25.5,0,38.2,0.1c6.2,0,12.4,0.1,18.6,0.1c0.8,0,1-0.1,0.2-0.2c-24-0.8-49.8-0.7-74.5-0.4c-24.3,0.3-48.9,0.8-72.4,1.6
					c-11.3,0.4-22.3,0.8-33,1.4c-11,0.6-21.5,1.3-32.4,2c-21.6,1.3-44.7,2-68.7,2.4C32,43.4,8.6,43.2-14.8,43.1
					c-25.8-0.1-51.5-0.3-77.3-0.4c-25,0-50,0.1-74.6,0.6c-22.8,0.5-45.2,1.2-67.4,2c-22.2,0.8-44.3,1.6-66.7,2.2
					c-22.1,0.7-44.8,1.2-67.7,1.2C-374.2,48.8-379.8,48.8-385.5,48.8C-385.7,48.8-385.8,48.8-385.5,48.8L-385.5,48.8z"/>
			</g>
			<g id="XMLID_34_">
				<path id="XMLID_35_" class="st10" d="M-408.5,50.9c44.3,0.4,89,0.7,132.9-0.3c41.8-1,80.7-3.1,122.5-4
					c44.2-1,89.8-0.6,134.5-0.8c22.4-0.1,44.7-0.2,66.9-0.5c21.8-0.3,43.1-0.8,64.1-1.5c40.8-1.4,83.9-3.1,126.8-2
					c5,0.1,9.9,0.3,14.8,0.4c0.5,0,0.8-0.1,0.3-0.1c-17.9-1.1-39.1-1.2-58.9-1.1c-21.5,0.2-42.5,0.8-63.2,1.5
					c-21.3,0.7-42.7,1.3-64.7,1.7c-22.4,0.4-45,0.6-67.6,0.7c-44.7,0.2-89.8-0.1-134.4,0.5C-177.7,46-217.6,48-259,49.3
					c-21.3,0.7-42.8,1.2-65,1.4c-22.5,0.2-45.2,0.2-67.8,0.1C-397.4,50.9-403,50.9-408.5,50.9C-408.7,50.9-408.7,50.9-408.5,50.9
					L-408.5,50.9z"/>
			</g>
			<g id="XMLID_31_">
				<path id="XMLID_33_" class="st9" d="M230.7,43.6c-21.6,0-43.4,0.1-64.8,0.5c-11,0.2-21.9,0.4-32.5,0.7
					c-10.5,0.3-20.8,0.8-31.2,1.2c-21.1,0.9-42.2,1.6-64.4,1.9c-21.6,0.3-43.3,0.3-65,0.3c-21.8,0-43.7-0.1-65.5,0.1
					s-43.2,0.5-64.5,1c-21.8,0.6-43.4,1.2-65.3,1.7c-22.3,0.5-45,0.8-67.7,0.8c-45.5,0.1-90.8-0.4-135.9-1.1
					c-5.7-0.1-11.4-0.2-17.1-0.2c-0.4,0-0.5,0.1-0.1,0.1c44.7,0.8,89.9,1.6,135.2,1.7c22.4,0.1,44.9-0.1,67.1-0.4
					c22.2-0.3,43.9-0.9,65.7-1.5c21.7-0.6,43.4-1.1,65.5-1.4c21.9-0.3,44-0.2,66-0.2c43.3,0,86.9,0.1,128.6-1.5
					c21.2-0.8,41.7-1.8,63.5-2.4c21.7-0.6,43.7-0.9,65.9-1.1C219.6,43.8,225.1,43.7,230.7,43.6C231.1,43.6,231.1,43.6,230.7,43.6
					L230.7,43.6z"/>
			</g>
		</g>
	</g>
</g>
<g>
	<g>
		<path class="st36" d="M34.8,96.2c-0.2,2.1-0.6,2.5-2.8,2.6c-0.5,0-1.1,0.1-1.5,0c-3-0.7-6.1,0-9.1,0c-3,0-6,0-9,0
			c-1-0.3-1.2-1-1.3-1.8c-0.1-0.6-0.4-1.2-0.6-1.8c0-2.6,0-5.2,0-7.8c0-5.2,0-10.3,0-15.5c0-2.2,0-2.2,2.5-2.2c0.6,0,1.2,0,1.8,0
			c0,0.2,0,0.3,0,0.5c-2.6,1-4,2.5-3.8,5c0.2,1.7,0,3.5,0.1,5.2c0,0.8,0.3,1.7,0.6,2.5c0.1,0.3,0.4,0.6,0.7,0.7c2,0.7,3.5-0.1,3.6-2
			c0-0.3,0-0.7,0-1c0.2,0,0.4,0,0.6,0c-0.1,3.6-0.1,3,3.7,3.1c0,0.2,0,0.3,0,0.5c-0.3,0.2-0.6,0.4-1,0.5c-2,0.3-2,0.3-2.1,2.1
			c-0.4,0.7-0.8,1.4-1.2,2.1c0-1,0-2.1-0.1-3.1c0-0.3-0.4-0.8-0.8-1c-2.2-0.7-3.5,0.1-3.5,2c0,0.5,0,1,0,1.6
			c0.1,1.3,0.1,1.3,1.6,0.7c0.8-0.3,1.6-0.4,2.2,0.3c-0.2,0.8-0.4,1.7-0.6,2.5c-0.7,0-1.4-0.1-2.2-0.1c-0.3,0-0.9,0.2-0.9,0.3
			c-0.1,1.3-0.1,2.6,0.1,3.9c0,0.1,1.2,0.2,1.9,0.3c0.1,0,0.2,0.1,0.2,0.2c0.5,1.6,2,1.2,3.3,1.2c2.7,0,5.4,0,8.1,0
			c2.2,0,4.3,0,6.5,0c1.2,0,1.7-0.4,1.7-1.4c0-1.4-0.2-1.6-1.9-1.7c-0.8,0-1.7,0-2.5,0c0.2-2.6,0.6-5.2,0-7.8l0.1,0
			c1.4,0,2.8,0,4.2,0c0.4,0.2,0.9,0.4,1.3,0.5c0.1,0.6-0.2,1.7,1,1.3c1.9-0.6,3.4-1.7,4-3.5c0.3-1-0.3-1-1.1-1c-0.3,0-0.6,0-0.9,0
			c0-0.2,0-0.4,0-0.5c-0.9-0.9,0.3-1.4,0.6-2.1c0.7-1.4,2.2-1.9,3.7-1.5c1.6,0.4,2.9-0.1,4.4-0.1c0,1,0,2.1,0,3.1c0,0.4,0,0.7,0,1.1
			c-0.1,4.4-2.8,7.7-7.6,9.3c-0.7,0.3-1.5,0.8-2.2,0.7C34.8,94.1,34.7,95.1,34.8,96.2z M45.5,84.5c-0.1,0-0.4-0.2-0.7-0.2
			c-0.9-0.1-1.2,0.4-1.3,1.1c-0.3,2.8-2.3,4.5-5,5.8c-0.8,0.4-1.7,0.6-2.6,0.8c-0.7,0.2-1.3,0.5-0.9,1c0.2,0.3,1,0.4,1.5,0.3
			c3.1-0.4,5.3-2,7.1-4.1C44.8,87.9,45.5,86.4,45.5,84.5z M35.7,90.9c3,0,7.1-3.5,7-6c0-0.2-0.3-0.6-0.5-0.6c-0.4,0-0.9,0-1.1,0.2
			c-0.3,0.4-0.6,0.9-0.7,1.4c-0.4,1.5-1.5,2.4-3,3c-0.6,0.3-1.3,0.5-1.9,0.9c-0.3,0.2-0.4,0.5-0.6,0.8
			C35.3,90.8,35.5,90.9,35.7,90.9z"/>
		<path class="st91" d="M-55.9,100.9c0-22.8,0-45.6,0-68.3c0-2.3,0.2-2.5,3-2.5c18.3,0,36.6,0,54.9,0c0.7,0,1.5,0.3,2.2,0.5
			c-0.4,0.2-0.8,0.3-1.2,0.5c-0.8,0-1.7,0.1-2.5,0.1c-15,0-30,0-44.9,0c-2.8,0-5.6,0-8.4,0c-1.8,0-1.9,0.1-1.9,1.6
			c0,6.5,0,13,0,19.5c0,0.8-0.1,1.6,1,2c0.2,0.1,0.2,0.7,0.2,0.7c-2,0.5-1.2,1.9-1.2,2.9c-0.1,13.3,0,26.5,0,39.8c0,0.4,0,0.9,0,1.3
			c-0.1,1,0.4,1.5,1.6,1.4c0.7,0,1.4,0,2.2,0c9.1,0,18.2,0,27.3,0c-0.9,0.9-2.1,0.5-3.2,0.5C-36.5,100.9-46.2,100.9-55.9,100.9z"/>
		<path class="st100" d="M70.1,35.7c0.7,0.4,1.6,0.7,2.2,1.2c2,1.5,3.8,3.1,5.8,4.7c0.9,0.7,2.1,1.2,3.5,1.2c-0.6,1-1.1,1.9-1,3.1
			c0.2,2.9-0.1,5.8,0.5,8.8c0.5,2.4,0.1,4.8,0.1,7.3c0,1-0.4,1.4-1.6,1.4c-4.4,0.1-8.8,0.4-13.2,0.5c-3.3,0.1-6.6,0-9.9,0
			c-3.3,0.1-6.5,0.4-9.8,0.5c-1.1,0-1.3,0.6-1.6,1.3c-0.1,0.2-0.4,0.3-0.6,0.5c-0.1-0.2-0.4-0.5-0.3-0.6c0.9-1.2,0-1.9-0.9-2.7
			c-3.7-3-7.5-5.9-11.2-8.9c-0.6-0.5-1.1-1-1.6-1.6c0.4-0.2,0.8-0.4,1.3-0.5c0,0,0,0,0,0c1.7,1.5,3.3,3,5,4.5
			c2.5,2.1,5.1,4.1,7.7,6.2c0.2,0.2,0.8,0.3,0.8,0.2c1.1-1.3,2-1.4,2.8,0.2c0.1,0.2,0.7,0.3,1.1,0.3c3.7,0,7.4,0,11.1,0
			c0.7,0,1.2-0.2,1-0.9c-0.5-1.8,0.8-0.7,1.5-0.6c1.6-0.4,3.3,0.4,4.9-0.6c1.1-0.7,1.9-0.4,2,0.8c0.1,1,1,0.9,1.8,0.9
			c1.5,0,3.1,0,4.6,0c0.9,0,1.7-0.3,2.6-0.4c-0.5-0.6-1-1.3-1.5-1.8c-0.4-0.4-1-0.6-1.4-0.9c-1-0.8-2-1.7-3-2.6
			c0.2-0.5,0.4-1.1,0.6-1.6c1,0.2,2.1,0.3,3.1,0.5c0.9,0.8,0.2,1-0.6,1c-0.8,0.1-1.2,0.3-0.5,0.9c1.1,1,2.3,2,3.5,2.9
			c0.3,0.2,0.7,0.4,1,0.5c0.1-0.3,0.3-0.6,0.3-0.9c0-4.6,0-9.2,0-13.8c0-0.9-0.2-1.5-1.5-1.3c-0.2,0-0.5-0.6-0.8-0.9
			c0.4-0.1,0.7-0.1,1.1-0.2c0.3,0,0.6,0,0.8,0c-0.1-0.1-0.1-0.3-0.2-0.4c-1.4-1.2-2.8-2.3-4.2-3.5c-0.1-0.1-0.4-0.2-0.5-0.2
			c-0.1,0-0.2,0.3-0.2,0.4c0,0.3,0.2,0.5,0.2,0.7c0,0.3-0.1,0.6-0.1,0.9c-0.3-0.1-0.6-0.1-0.8-0.2c-1.5-1-3-2.1-4.4-3.2
			c-0.6-0.5-0.6-1,0-1.6c0.3-0.3,0.5-0.7,0.7-1.1C70.1,36.1,70.1,35.9,70.1,35.7z"/>
		<path class="st35" d="M150.2,26.3c-0.3,0.2-0.6,0.5-1,0.5c-0.8,0.1-1.6,0-2.5,0c-35.3,0-70.6,0-106,0c-1.2,0-2.5,0.5-3.5-0.5
			c0.2-0.2,0.4-0.4,0.6-0.5c18.6,0,37.2,0,55.8,0c18.6,0,37.2,0,55.8,0C149.7,26,149.9,26.2,150.2,26.3z"/>
		<path class="st101" d="M73.2,55.5c-0.2,0.5-0.4,1.1-0.6,1.6c-3.3,0.2-6.6,0.3-9.9,0.5c-0.4,0-0.8,0-1.2,0l-0.1,0
			c0-0.4,0.1-0.7,0.1-1.1c2.7,0,5.3,0,8,0c0.5,0,1-0.1,1.5-0.2c-0.3-0.3-0.5-0.8-0.8-1c-0.8-0.4-1.6-0.8-2.5-0.8c-2-0.1-4.1,0-6.2,0
			c-0.1-0.3-0.2-0.8-0.5-0.9c-1.5-0.6-1.6-1.7-1.5-2.8c1.3,0,2.6,0,4,0c1.2,0,1.6-0.4,1.6-1.4c0-0.9-0.5-1.2-1.5-1.2
			c-1.4,0-2.8,0-4.3,0c-0.8,0-1,0.4-1.1,1c-0.2,0-0.4,0-0.6,0c-0.2-0.5-0.4-1-0.6-1.5l0-0.1c2.1,0,4.1,0,6.2,0c1.2,0,2-0.3,1.9-1.5
			c-0.3-3.6,0.6-7.3-0.6-10.8c0-0.1,0-0.2,0-0.3c-0.1-0.9,0.1-2.3-0.5-2.7c-0.8-0.5-2.3-0.4-3.5-0.4c-2.3,0.1-4.7,0.4-7,0.5
			c-1,0-2.7,0.3-2.7-0.5c0-1,1.6-0.4,2.5-0.4c3.1-0.1,6.1,0,9.2-0.1c2-0.1,3.6,0.3,4.9,1.7c0.8,0.9,1.8,1.7,2.7,2.5
			c0,0.2,0,0.4,0,0.6c-1.3-0.9-2.6-1.9-4-2.8c-0.1,1.6-0.3,3.2-0.4,4.8c0,0.8,0,1.6,0,2.3c0,1.7,0,3.5,0,5.2c0.1,1.6,0.4,2,2.4,1.9
			c1.1,0,2.2-0.3,3.3-0.4c0.9-0.1,1.7,0,1.7,1c-0.2,0-0.4,0-0.6,0c-1.8,0-3.7,0-5.5,0c-0.9,0-1.4,0.2-0.9,1.1
			c0.5,0.8,0.5,1.8,1.1,2.4c1,1.1,2.3-0.2,3.4,0.1C72.1,52.8,72.7,54.2,73.2,55.5z"/>
		<path class="st58" d="M20.5,84.2c0-0.2,0-0.3,0-0.5c1.7,0,3.5,0,5.2,0c2.6,0,2.6,0,2.3-2.1c0-0.3,0-0.7,0-1c0.4,0,0.8,0,1.2,0
			c0,0.3,0,0.7,0,1c-0.1,2.1,0.2,2.1,2.9,2.1c1.1,0,1.4-0.5,1.4-1.3c0.2-2.1-0.4-2.6-2.9-2.3c-0.5,0.1-1,0.3-1.4,0.4
			c0-0.3,0-0.7,0-1c1.1,0,2.2,0,3.3-0.1c0.4,0,0.8-0.5,0.9-0.8c0.1-0.3-0.3-1-0.5-1.1c-1.1-0.1-2.2-0.2-3.2,0.1
			c-0.4,0.1-0.4,1.2-0.5,1.8c-1.2-0.9-0.4-2.1-0.6-3.1c1.2,0.9,2.5-0.1,3.7,0c0.9,0.1,1.3-0.5,1.1-1.2c-0.1-0.4-0.7-0.8-1.2-0.8
			c-1.2-0.1-2.4,0-3.6,0c0-0.2,0-0.4,0-0.6c1.2-0.2,2.4-0.4,3.6-0.5c0.9-0.1,1.2-0.4,1.3-1.2c0.2-1.6-0.2-2-2.2-2
			c-5.5,0-10.9,0-16.4,0c0-0.2,0-0.3,0-0.5c3.5,0,7,0,10.5,0c2.5,0,4.9,0,7.4,0c0.6,0,1.3,0.3,1.9,0.5c-1.2,2.5-0.9,3.1,2,3.1
			c1,0,2,0,3,0c0.2,0,0.4,0,0.6,0c0.2,0.3,0.4,0.7,0.6,1c-0.2,1.6-0.4,3.1-0.6,4.7c-1.8-0.2-2.5-1.1-2.5-2.6c1.1,0,2.1-0.1,1.8-1.4
			c-0.2-1.1-1-1-2-0.8c-0.8,0.1-1.6,0-2.4,0.1c-0.9,0.1-1.1,0.6-1.1,1.3c0.1,0.9,0.8,1.3,1.8,1.4c-0.6,1.3,1,2,1.2,3.1
			c-0.2,0-0.4,0-0.6,0c-2,0.2-2.5,0.6-2.4,2c0.1,1.3,0.5,1.5,2.5,1.7c0.4,0,0.8,0,1.2,0c0,0.2,0,0.4,0,0.5c-0.1,1.7-1.5,2.5-3.1,3.1
			c-0.4-0.2-0.9-0.4-1.3-0.5c0-0.2,0-0.3,0-0.5c-0.1-2.1-0.3-2.1-2.6-2.1c-1.1,0-1.8,0.3-1.7,1.3c0,0.4,0,0.9,0.1,1.3l-0.1,0
			c-0.2,0-0.5,0-0.7-0.1c-0.1-2.4-0.2-2.5-2.8-2.5C23.9,84.2,22.2,84.2,20.5,84.2z"/>
		<path class="st102" d="M3.1,31c0.4-0.2,0.8-0.3,1.2-0.5c0,8.2,0.1,16.3,0.1,24.5c0,15.3,0,30.6,0,45.8c-0.4-0.2-0.8-0.3-1.2-0.5
			c0.2-0.5,0.3-1.1,0.5-1.6c-0.5-0.8-1.5-0.6-2.2-0.5c-1.9,0.2-3.6-0.3-5.2-1.1c0.6-0.5,1.2-1,1.8-1.6c0.2,0,0.4,0,0.6,0
			c0.4,0.1,0.9,0.3,1.3,0.4c0-0.3,0-0.6,0-0.9c0.4,0,0.8,0,1.1,0c0.1,0.6,0.4,1.1,1.1,0.9c0.3-0.1,0.5-0.6,0.7-0.9l0,0
			c0.2-0.6,0.4-1.1,0.5-1.7c0-20.3,0-40.6,0-60.8C3.7,32.1,3.3,31.6,3.1,31z"/>
		<path class="st63" d="M67.6,73.3c0-0.8,0.6-1,1.4-1c2.4,0,4.9,0,7.3,0c2.9,0,5.8,0,8.7,0c0.1,1-0.5,2.2,0.6,3.1
			c-0.2,0.2-0.3,0.6-0.5,0.6c-2,0.4-2.2,1.6-2,3.1c0,0.2,0,0.3,0,0.5c-1.7-0.1-3.4,0.3-5-0.5c0.4-1.3-1-2.6-0.2-4
			c0.6-1.2,0.1-1.6-1.7-1.7c-0.6,0-1.2,0-1.9,0c-0.4,0-0.8,0-1.2,0C71.4,73.3,69.5,73.3,67.6,73.3z"/>
		<path class="st77" d="M-32.4,27.4c-0.4-1.4-0.2-1.7,1.1-1.4c0.4,0.1,0.9,0.2,1.1,0.4c1.6,1.4,3.6,1,5.4,1c13,0,25.9,0,38.9,0
			c1.4,0,2.8,0.3,4.2,0.4c0.5,0,1-0.2,1.4-0.3c0,0.3,0,0.6,0,1c-4.3,0-8.7,0-13,0c-10.2,0-20.3,0-30.5,0
			C-26.6,28.4-29.6,28.5-32.4,27.4z"/>
		<path class="st77" d="M3.1,100.4c0.4,0.2,0.8,0.3,1.2,0.5c-0.9,0.9-2.1,0.5-3.2,0.5c-16.1,0-32.2,0-48.3,0c-2.3,0-4.5,0-6.8,0
			c-0.7,0-1.3-0.3-2-0.5c9.7,0,19.4,0,29.1,0c1.1,0,2.3,0.4,3.2-0.5c1.8,0,3.6,0.2,4.9-1.1c0.1,1.5,1.3,0.3,1.9,0.5
			c1,0.2,1.9,0.5,2.9,0.5c1.9,0.1,3.8,0,5.8,0l0.3,0l0.3,0C-3.9,100.3-0.4,100.4,3.1,100.4z"/>
		<path class="st108" d="M19.2,2.9c0,0.2,0,0.3,0.1,0.5c0,0.2-0.1,0.4-0.1,0.6c-1,0-2-0.1-3-0.1c-3.1,0-3.3,0.2-3,2.7
			c0.1,0.5,0.3,1,0.5,1.5c-1,1.2-0.5,2.4,0,3.7c-0.7,0.2-1.8-0.1-1.8,1c-5.4,0-10.8,0.1-16.2,0.2c-1.6,0-3.2,0.2-4.9,0.3
			c0.2-0.4,0.4-0.9,0.6-1.3l0.3,0l0.3,0c0.2,0.1,0.5,0.4,0.7,0.4c3.4,0,6.7,0,10.1,0c0.5,0,1.1-0.4,1.6-0.6c0.3,0,0.5,0,0.8,0
			c0.6,0.2,1.1,0.5,1.7,0.5c4.6,0.4,5.6-1,3.7-4.6c1.2-1.5,0.9-3.1,0.2-4.7c0.8,0.1,1.6,0.3,2.4,0.4c1.9,0,3.8,0.6,5.6-0.4
			C18.8,2.9,19,2.9,19.2,2.9z"/>
		<path class="st30" d="M91.9,75.9c0.2,0.3,0.6,0.6,0.6,0.9c0.1,3.2,0.4,6.4-0.7,9.5c-1,2.8-3,5.1-6.4,6.5
			c-3.5,1.5-7.2,1.3-10.9,1.3c0-0.2,0-0.3,0-0.5c0.2-0.2,0.4-0.4,0.6-0.5c1.2,0,2.4,0.1,2.7-1.2c0.1-0.2,0.6-0.3,1-0.4
			c0.5,0.7,0.6,1.7,2.1,1.4c4.7-0.9,8.1-3,9.7-7c0.9-2.3,0.4-4.6,0.5-6.9c0.2-0.4,0.4-0.7,0.6-1.1C91.8,77.2,91.8,76.5,91.9,75.9z"
			/>
		<path class="st68" d="M40.3,73.3c-0.2,0-0.4,0-0.6,0c0.1-1,0.1-1.9,0.2-2.9c-1.3-0.1-2.6-0.1-3.9-0.2c-0.4,0-0.8,0-1.2,0
			c-0.6-0.2-1.3-0.5-1.9-0.5c-2.5-0.1-4.9,0-7.4,0c0.8-0.2,1.5-0.5,2.3-0.5c3.6-0.1,7.2,0,10.9,0c3.2,0,6.4-0.1,9.5,0.1
			c1.2,0.1,2.3-1.1,3.4-0.1c-0.2,0.4-0.4,0.7-0.6,1.1c-0.7,0.3-1.1,1.6-2.2,0.7c-1.9-1.4-4-0.8-6-0.7c-0.2,0-0.4,0.1-0.6,0.2
			c0.2,0.1,0.4,0.3,0.6,0.4c2,0.5,0.3,1.8,0.7,2.6C42.4,73.3,41.4,73.3,40.3,73.3z"/>
		<path class="st11" d="M63.9,73.3c-0.4,0.4-1,0.7-1.1,1.1c-0.3,0.7-0.1,1.4,1.1,1.4c2.7,0,5.3,0,8,0c1.1,0,1.4-0.5,1.4-1.3
			c0-0.4,0-0.9,0-1.3c0.4,0,0.8,0,1.2,0c0,1.7,0,3.5,0,5.2c-0.4,0.2-0.9,0.3-1.3,0.5c0-0.6,0.1-1.2,0-1.8c0-0.2-0.5-0.6-0.8-0.6
			c-2.7,0.1-5.3,0.3-8,0.3c-1.4,0-1.8,0.6-1.7,1.6c-0.2,0.4-0.4,0.7-0.6,1.1c-1.2-2-0.7-4.2-0.4-6.3C61.8,72.2,63.1,73,63.9,73.3z"
			/>
		<path class="st18" d="M31.6,51.9c-0.4,0.2-0.8,0.4-1.3,0.5c-1-0.7-0.6-1.6-0.6-2.4c0-5.2,0-10.4,0-15.6c0-0.7-0.3-1.6,0.2-2.1
			c0.3-0.3,1.5-0.2,2.4-0.2c3.2,0,6.4,0,9.6,0c0.4,0,0.7,0.2,1.1,0.3c-0.4,0.1-0.8,0.2-1.2,0.2c-2.4,0-4.7,0-7.1,0
			c-2.3,0-4.2,1.5-4.2,3.5c-0.1,4.5,0,9,0,13.5C30.4,50.7,30.9,51.3,31.6,51.9z"/>
		<path class="st105" d="M75.1,93.1c-0.2,0.2-0.4,0.4-0.6,0.5c-0.2-0.2-0.4-0.4-0.7-0.6c0.1-0.9-0.1-1.6-1.4-1.6c-2.8,0-5.5,0-8.3,0
			c-1.3,0-1.5,0.6-1.4,1.5c-0.2,0.2-0.4,0.4-0.6,0.5c0-2.6,0-5.2,0-7.8l0.3,0l0.3,0c0.2,0.2,0.4,0.3,0.7,0.5c0,0.2,0,0.4,0,0.5
			c-1,0.8-0.8,1.5,0.6,1.5c3,0.1,5.9,0,8.9,0c1.2,0,1.1-0.8,1.1-1.5c0-0.4,0-0.7,0-1.1c0.2,0,0.4,0,0.6,0c0.4,0,0.8,0,1.2,0.1
			C73.8,88.1,74.3,90.6,75.1,93.1z M68.2,91c1.3,0,2.7,0,4,0c0.9,0,1.6-0.2,1.6-1.1c-0.1-0.8-0.8-0.9-1.5-0.9c-2.6,0-5.1,0-7.7,0
			c-0.3,0-0.7,0-0.9,0.2c-0.4,0.4-0.7,0.8-0.8,1.2c0,0.2,0.7,0.6,1.1,0.6C65.3,91,66.8,91,68.2,91z"/>
		<path class="st93" d="M37.9,25.8c-0.2,0.2-0.4,0.4-0.6,0.5c0-0.7,0-1.4,0-2.1c0-10.6,0-21.2,0-31.8c0.2,0,0.4,0,0.6,0
			c0.4,0.2,0.8,0.3,1.2,0.5c-1.4,0.7-1.2,1.9-1.2,3C37.9,5.9,37.9,15.9,37.9,25.8z"/>
		<path class="st100" d="M50.9,70.1c0.2-0.4,0.4-0.7,0.6-1.1c0.2,0.6,0.6,1.3,0.6,1.9c0.1,3,0,6,0,9c0,0.8,0,1.5,0.2,2.3
			c0.2,1.5,0.1,1.8-1.8,1.9c-1.3,0.1-2.7,0-4,0c0-0.4,0-0.7,0-1.1c0.9,0,1.8,0,2.8,0c2.1-0.1,2.2-0.1,2.2-2
			c-0.1-1.6-0.5-3.2-0.6-4.8C50.8,74.3,50.9,72.2,50.9,70.1z"/>
		<path class="st118" d="M44.7,53.4c-1.2-0.7-2.5-1.4-3.7-2.1c0.8-1.3,0.7-1.4-1.3-1.6c0-0.9,0-1.7,0-2.6c1.8,1.2,4,1.1,6.2,1.1
			c0,0.5,0,1,0,1.6c-0.9,0.3-1.2,0.8-1.2,1.6C44.7,52.1,44.7,52.8,44.7,53.4z"/>
		<path class="st121" d="M51.5,43c-0.2,0.7-0.5,1.5-0.6,2.2c-0.2,3,0.3,3.3,3.8,2.9c0.8-0.1,1.6-0.3,2.4-0.5c0.2,0.5,0.4,1,0.6,1.5
			c-1-0.2-2-0.5-3-0.5c-1.7-0.1-3.5-0.1-5.3,0c-0.6,0-1.3,0.2-1.9,0.3c0.5,0.4,1,0.8,1.5,1.2c-0.2,0.3-0.4,0.7-0.7,1
			c-0.8-0.5-1.7-1-2.5-1.5c0-0.5,0-1,0-1.6c0.9,0,1.8,0,2.7,0c0.7,0,1.5,0,1.6-0.8c0.1-0.9-0.2-1.6-1.3-1.7c-1-0.1-2-0.1-3-0.1
			c0.7-0.8,1.7-0.4,2.5-0.5c0.7-0.1,1.6,0.1,1.7-0.7c0-0.5-0.5-1-0.7-1.5c-0.1-0.1-0.3-0.3-0.4-0.4c0.4-0.1,0.9-0.3,1.3-0.2
			C50.7,42.4,51.1,42.8,51.5,43z"/>
		<path class="st128" d="M16.7,1.3c0.9-1.4,1.9-2.5,4.1-1.7c0.3,0.1,0.8,0.1,1.2,0c1.1-0.4,1.9-0.5,2.4,0.7c0.2,0.4,1.3,0.5,1.7,0.9
			c0.6,0.6-0.2,0.6-0.6,0.6c-0.6-0.2-1.3-0.5-1.9-0.5C21.3,1.3,19,1.3,16.7,1.3z"/>
		<path class="st130" d="M-8.7,3.4c0-0.4,0.1-0.8,0.1-1.2c3.7,0,7.4,0,11.2,0.1C3.4,2.3,4.4,2,5,2.9C4.8,3.1,4.6,3.3,4.3,3.5
			C0,3.5-4.4,3.4-8.7,3.4z"/>
		<path class="st117" d="M62.7,85.8l-0.3,0l-0.3,0c0-1.9,0-3.8,0-5.8c0.2,0,0.4,0,0.6,0c0,0.6,0,1.2,0.1,1.8
			c0.1,0.3,0.4,0.7,0.7,0.7c1.1,0.1,2.3,0.2,3.3,0c0.4-0.1,0.6-0.9,1-1.4c0.2-0.2,0.9-0.2,0.9-0.2c0.5,1.4,2.1,1.6,3.4,2.2
			c-2.4,0.1-4.9,0.4-7.3,0.4C62.8,83.6,62.6,84.5,62.7,85.8z"/>
		<path class="st133" d="M4.3,3.5C4.6,3.3,4.8,3.1,5,2.9c0.2,0,0.3,0,0.5,0C5.4,4.5,5.2,6,5.1,7.6c0,1.4,0,2.7,0,4.1
			c-0.3,0-0.5,0-0.8,0c0.1-0.9,0.2-1.8-1.1-2.3C2.8,9.2,2.7,8.6,2.5,8.1c0-0.4,0-0.7,0-1.1c0.1-0.2,0.1-0.7,0.2-0.7
			C4.7,5.9,4.3,4.7,4.3,3.5z"/>
		<path class="st124" d="M62.1,93.6c0.2-0.2,0.4-0.4,0.6-0.5c3.7,0,7.4,0,11.1,0c0.2,0.2,0.4,0.4,0.7,0.6c0,0.2,0,0.3,0,0.5
			c-1.4,0-2.9,0-4.3,0c-1.4,0-2.9,0-4.3,0C64.6,93.9,63.1,94.6,62.1,93.6z"/>
		<path class="st137" d="M39.7,47.2c0,0.9,0,1.7,0,2.6c-0.4-0.4-1.1-0.7-1.1-1.1c-0.1-1.7-0.1-3.5-0.1-5.2c0-0.3,0.5-0.9,0.8-0.9
			c1.2,0,2.5-0.5,3.5,0.4c-0.3,0-0.6,0-0.9,0c-2.5,0.1-2.5,0.1-1,2.1C40.5,45.8,40.1,46.5,39.7,47.2z"/>
		<path class="st115" d="M91.9,75.9c0,0.7,0,1.4,0,2.1c-0.9-0.3-0.6-1.7-2.1-1.6c-1.4,0.2-1.8-0.6-1.7-1.6c0-0.3,0.1-0.6-0.1-0.7
			c-0.4-0.3-0.9-0.7-1.4-0.7c-0.8,0-1,0.4-0.7,1c0.1,0.3-0.2,0.6-0.3,1c-1.1-0.9-0.4-2-0.6-3.1c0.7,0,1.4,0,2.1,0
			c0.9,0,1.4,0.3,1.6,1.2c0.2,1.7,0.3,1.7,2.4,2C91.4,75.5,91.6,75.7,91.9,75.9z"/>
		<path class="st140" d="M99.8,81.1c2.8,1.2,5.6,2.4,8.4,3.6c1.7,0.8,3.2,1.8,4.8,2.6c-1.3-0.5-2.7-0.8-3.9-1.4
			c-2.8-1.3-5.5-2.6-8.2-4C100.5,81.8,100.2,81.4,99.8,81.1z"/>
		<path class="st77" d="M62.7,80c-0.2,0-0.4,0-0.6,0c0-0.2,0-0.3-0.1-0.5c0.2-0.4,0.4-0.7,0.6-1.1c0.7,0.2,1.5,0.5,2.2,0.5
			c2.8,0,5.5,0,8.3,0c0.4-0.2,0.9-0.3,1.3-0.5c0.4,0.2,0.8,0.4,1.2,0.5c-0.5,0.2-1.1,0.5-1.6,0.5C70.2,79.7,66.5,79.9,62.7,80z"/>
		<path class="st46" d="M16.7,1.3c2.3,0,4.5,0,6.8,0.1c0.7,0,1.3,0.3,1.9,0.5c-1.8,0-3.7,0-5.5,0c-0.9,0-1.3,0.4-1.3,1.1
			c-1.8,1-3.7,0.4-5.6,0.4c1.1-0.1,2.2-0.3,3.2-0.4c0.4-0.1,0.8-0.2,1.2-0.3c-0.3-0.2-0.8-0.3-1-0.5C16.3,1.9,16.6,1.5,16.7,1.3z"/>
		<path class="st93" d="M106.1,76.4c-1.9,1-3.7,2.1-5.6,3.1c-0.5,0.3-0.8,0.7-1.2,1.1c-0.8-0.1-1.7-0.5-0.8-1
			C100.8,78.2,102.9,76.3,106.1,76.4z"/>
		<path class="st92" d="M-39.1,21.1c6.8,0,13.6,0,20.4,0c1.1,0,2.1,0.2,2.8-1c0.5-0.9,2.2-0.8,2.7,0c0.6,1.1,1.5,1,2.5,1
			c6,0,11.9,0,17.9,0c1,0,2.1-0.3,2.9,0.5c-15.3,0-30.7,0-46,0C-37,21.7-38.3,22.1-39.1,21.1z"/>
		<path class="st105" d="M43.4,73.3c0,0.7-0.1,1.4,0.1,2c0.1,0.4,0.7,1,1,1c2-0.1,2.1,0.9,2,2.2c0,0.5,0,1,0,1.5
			c-1.4,0-2.8,0.5-4.4,0.1c-1.5-0.4-2.9,0.2-3.7,1.5c-1.3,0-1.2-0.8-1.3-1.5C37,79,35.4,78.2,36,76.9c0.6-0.2,1.2-0.3,1.8-0.5
			c0,1.4,0.7,2.4,2.5,2.6c1.3,1.1,2.2,0,3.2-0.4c0.1,0,0.2-0.4,0.2-0.4c-1.5-1-0.5-2.5-0.9-3.6c-0.3-0.9-1-0.9-1.8-0.2
			c-0.2-0.3-0.4-0.7-0.6-1C41.4,73.3,42.4,73.3,43.4,73.3z"/>
		<path class="st67" d="M29.1,94.6c-3.7,0-7.4,0-11.1,0c-1.7,0-1.7-0.1-1.5-1.6c0.2-1.2-0.8-0.9-1.5-1c0.2-0.8,0.4-1.7,0.6-2.5
			c0.2-0.2,0.4-0.3,0.6-0.5c0.4-0.7,0.8-1.4,1.2-2.1c3.7,0,7.4,0,11.1-0.1c0.2,0,0.5,0,0.7,0.1C29.7,89.4,29.3,92,29.1,94.6z
			 M17.4,89.4c0,0.2,0,0.4,0,0.6c0,0.7,0,1.4,0.1,2c0,0.8-0.6,2,1,2c3,0.1,6,0.1,9,0c0.4,0,1-0.7,1-1c0-0.3-0.6-0.8-1.1-0.9
			c-0.8-0.3-1.9,0.3-2.5-0.6c0.7,0,1.4,0,2.1,0c1.3,0.1,1.8-0.5,1.6-1.5c0-0.4,0-0.8,0-1.1c0.1-0.9-0.1-1.5-1.4-1.5
			c-2.5,0-5.1,0-7.6,0C17.5,87.4,17.5,87.4,17.4,89.4z"/>
		<path class="st109" d="M19.2,80.5c-0.8,0-1.6,0-2.4,0.1c-0.2,0-0.4,0-0.6,0c0-1.8,0-3.6,0-5.4c0-0.8,0.3-1.3,1.4-1.3
			c3.6-0.1,7.3-0.1,10.9-0.2c0.1,0,0.1,0.1,0.2,0.2c0,0.2,0,0.4,0,0.6c0,0.7,0,1.3,0,2c0.2,1.1-0.6,2.2,0.6,3.1l0,0c0,0.3,0,0.7,0,1
			l0,0c-0.4,0-0.8,0-1.2,0l0,0c0-0.4,0-0.7,0-1.1c-0.1-2-0.1-2-2-2c-2.3,0-4.7,0-7,0c-1.9,0-1.9,0.1-2,2
			C17.6,79.8,18.4,80.2,19.2,80.5z M22.3,76.9C22.3,76.9,22.3,76.9,22.3,76.9c1.4,0,2.9,0,4.3,0c1.1,0,1.4-0.6,1.3-1.4
			c0-0.7-0.3-1.2-1.2-1.2c-2.9,0-5.7,0-8.6,0c-1.1,0-1.3,0.6-1.3,1.4c0,0.9,0.5,1.2,1.5,1.2C19.6,76.9,20.9,76.9,22.3,76.9z"/>
		<path class="st34" d="M73.2,48.2c1.4,0.7,2.1,1.8,1.7,3c-0.3,1.1,0.2,1.6,1,2.2c1.2,0.8,1.2,1.7,0.4,2.7c-1-0.2-2.1-0.3-3.1-0.5
			c-0.5-1.4-1.1-2.7-2.5-3.6c0.1-1.1-0.5-2.4,1.5-2.7c0.2,0,0.2-0.6,0.3-0.9C72.8,48.2,73,48.2,73.2,48.2z"/>
		<path class="st135" d="M45.9,49.8c0.8,0.5,1.7,1,2.5,1.5c0,0.9-0.3,1.9,1.3,2.1c0.1,1,1.1,2.1,0,3.1c-0.6-0.4-1.5-0.7-1.8-1.2
			c-0.5-1-1.5-1.2-2.6-1.4c-0.2-0.2-0.4-0.3-0.6-0.5c0-0.7,0-1.4,0-2C44.7,50.6,45.1,50.1,45.9,49.8z"/>
		<path class="st109" d="M61.5,57.6c0.2,0.9,0.4,1.7,0.6,2.6c-0.5,0.2-1.1,0.5-1.6,0.5c-3,0.1-5.9,0-8.9,0.1c-1.8,0-3.1-0.7-3.8-2.1
			l0,0c2.6,0,5.3,0,7.9,0c1.1,0,2.1-0.3,3.2-0.5C59.7,58,60.6,57.8,61.5,57.6L61.5,57.6z M54.5,60.2c0,0,0,0.1,0,0.1
			c1.6-0.1,3.3-0.2,4.9-0.4c0.2,0,0.4-0.2,0.6-0.3c-0.2-0.1-0.5-0.4-0.7-0.4c-2.7,0-5.4,0-8,0c-0.2,0-0.5,0.3-0.7,0.4
			c0.3,0.2,0.5,0.5,0.8,0.5C52.4,60.2,53.4,60.2,54.5,60.2z"/>
		<path class="st121" d="M45.3,54c1.1,0.2,2.1,0.4,2.6,1.4c0.3,0.5,1.2,0.8,1.8,1.2c0,0.2,0,0.4,0.1,0.5c-0.5,0.2-1,0.4-1.5,0.5
			c-1.1,0.2-0.4,0.7-0.4,1l0,0c-1.9-0.3-3-1.6-3.9-2.7C43.2,55.2,43.8,54.2,45.3,54z"/>
		<path class="st137" d="M61.4,57.6c-0.8,0.2-1.6,0.3-2.5,0.5c0-0.2,0-0.3,0-0.5c0.4-0.4,0.7-0.7,1.1-1.1c0.3-0.3,0.8-0.7,0.7-0.9
			c-0.2-0.4-0.8-1-1.2-0.9c-2.6,0.4-4.6-1-6.8-1.7c1.2-1,2.6-0.4,4-0.5c1.1-0.1,1.7-0.4,1.6-1.4c0-0.4,0-0.8,0-1.3l0,0
			c0.8,0,1.2,0.3,1.2,1c-0.1,1.2,0,2.2,1.5,2.8c0.3,0.1,0.3,0.6,0.5,0.9c0,0.7,0,1.3,0,2C61.5,56.9,61.4,57.3,61.4,57.6z"/>
		<path class="st63" d="M59.6,50.8c0-0.7-0.4-1.1-1.2-1c0-0.2,0-0.4,0-0.5c0-0.6,0.3-1,1.1-1c1.4,0,2.8,0,4.3,0c1,0,1.5,0.4,1.5,1.2
			c0,1-0.5,1.4-1.6,1.4C62.2,50.8,60.9,50.8,59.6,50.8z"/>
		<path class="st201" d="M18.7,11.7c0.7-1.4,0.9-2.8-0.2-4.1c1.1-1.1,0.7-2.3,0.7-3.6c0-0.2,0.1-0.4,0.1-0.6c0.9,0,1.2,0.5,1.2,1.2
			c0,2.1,0,4.1,0,6.2c0,0.8-0.5,1.1-1.3,1.2C19.1,11.8,18.9,11.8,18.7,11.7z"/>
		<path class="st67" d="M3.1,93.5c0.2,0,0.4,0,0.5,0c-0.2,0.6-0.4,1.1-0.5,1.7c-1.4-0.8-2.9-0.8-4.3,0c0,0.2,0,0.4,0,0.6
			c-0.2,0-0.4,0-0.6,0c-0.6-0.3-1.2-0.5-1.8-0.8c-2.9-1.3-3.7-1.2-6.2,0.8c-1.9,0.1-3.7-0.5-5.6,0c-0.1-0.2-0.1-0.5-0.2-0.7
			c-0.1,0.1-0.3,0.2-0.4,0.2c-0.4,0-0.8,0-1.2,0c-0.2-0.2-0.4-0.4-0.7-0.6c-0.6,0-1.3,0-1.9,0.1c-0.5-0.3-0.7-0.8,0-0.9
			c0.8-0.2,1.6-0.1,2.4-0.1C-10.6,93.6-3.8,93.5,3.1,93.5z"/>
		<path class="st30" d="M3.6,98.8c-3.1,0-6.2,0-9.3,0c-1.3,0-1.9,0.4-1.8,1.5l-0.3,0l-0.3,0c0-0.9,0-1.7,0-2.6
			c1.4-0.2,2.9-0.4,4.3-0.5c1.6,0.8,3.3,1.3,5.2,1.1C2.2,98.2,3.1,98,3.6,98.8z"/>
		<path class="st31" d="M1.2,95.2c0.6,0,1.3,0,1.9-0.1c-0.2,0.3-0.4,0.9-0.7,0.9C1.6,96.3,1.3,95.8,1.2,95.2z"/>
		<path class="st140" d="M-1.2,95.1c0.4,0,0.9,0.1,1.3,0.1c0,0.3,0,0.6,0,0.9c-0.4-0.1-0.9-0.3-1.3-0.4C-1.2,95.5-1.2,95.3-1.2,95.1
			z"/>
		<path class="st20" d="M2.5,8.1c-2.7,0-5.3,0-8,0c-2.4,0-2.4,0-2.5,1.9c0,0.6-0.1,1.2-0.1,1.8c0,0-0.3,0-0.3,0s-0.3,0-0.3,0
			c0-1.6,0.1-3.2,0.1-4.8c2.9,0.8,5.8,0.4,8.7,0.4c0.8,0,1.6-0.3,2.3-0.4C2.5,7.4,2.5,7.8,2.5,8.1z"/>
		<path class="st120" d="M73.8,86.9c-3.5,0-7,0-10.5-0.1c0-0.2,0-0.4,0-0.5c1-0.2,1.9-0.5,2.9-0.5c2.5-0.1,5.1,0,7.6,0
			C73.8,86.1,73.8,86.5,73.8,86.9z"/>
		<path class="st14" d="M49.1,50.3c3.1-0.1,6.2,0.3,9.3-0.5c0,0.4,0,0.8,0,1.3c0,1-0.5,1.3-1.6,1.4c-1.3,0.1-2.8-0.5-4,0.5
			c-1,0.2-2,0.3-3.1,0.5c-1.5-0.2-1.2-1.2-1.3-2.1C48.6,51,48.9,50.7,49.1,50.3z"/>
		<path class="st133" d="M5.4,17.5c-1.2,0-2.5,0-3.7,0c-1,0-1.1-0.6-1-1.3c0.1-0.7,0.6-0.7,1.3-0.5c0.7,0.1,1.6,0.3,2,0
			c1.2-0.7,2.3,0.7,3.5,0c0.1-0.1,1.2,0.9,1.8,1.4c0,0-0.1,0.4-0.2,0.4C7.8,17.5,6.6,17.5,5.4,17.5C5.4,17.5,5.4,17.5,5.4,17.5z"/>
		<path class="st129" d="M19.2,80.5c-0.8-0.4-1.6-0.7-2.4-1.1c3.7,0,7.4,0,11.1,0c0,0.4,0,0.7,0,1.1C25,80.5,22.1,80.5,19.2,80.5z"
			/>
		<path class="st124" d="M17.4,89.4c3.7-0.2,7.4-0.3,11.1-0.5c0,0.4,0,0.8,0,1.1c-3.7,0-7.4,0-11.1,0C17.4,89.8,17.4,89.6,17.4,89.4
			z"/>
		<path class="st76" d="M2,45.1c-0.2,1.3-0.6,2.5-0.7,3.8c-0.1,6.8,0,13.5-0.1,20.3c0,0.7-0.4,1.4-0.6,2.1c-0.2-0.1-0.4-0.1-0.6-0.2
			c0-0.5,0-1,0-1.5c0.8-1.9,0.7-2.1-1.4-2.1c-0.8,0-1.6,0-2.4,0.1c-0.7,0-1.4-0.1-2.1-0.1c-3.4,0-3.4,0-2.9-3.1c0-0.2,0-0.3,0.1-0.5
			c1.8,0,3.7,0,5.5,0c4.1,0,3.8,0.4,3.8-3.2c0-1.9-0.1-1.9-2.5-1.9c-2.3,0-4.5,0-6.8,0c0-0.2,0-0.3,0-0.5c1.2,0,2.5-0.1,3.7-0.1
			c1.2,0,2.5,0,3.7,0.1c1.3,0.1,1.9-0.3,1.9-1.5c-0.1-1,0-1.9,0-2.9c0-3.1-0.6-3.5-4.1-2.8c-0.5,0.1-1,0.3-1.5,0.4
			c-4.3-0.2-3.8-0.1-3.7,3.1c-0.4-0.5-0.8-1.1-1.2-1.6c0-1.2,0-2.4,0.2-3.6c0-0.2,0.7-0.4,1-0.6l0,0c0.1,0.5-0.3,1.4,0.8,1.4
			c2.2,0.1,4.4,0.1,6.6,0.1c1.2,0,1.9-0.5,1.8-1.6c0-1.5,0-3.1,0-4.6c-0.1-0.3-0.2-0.8-0.4-0.8c-1.3-0.2-2.6-0.2-3.9-0.3
			c-1.4,0.2-2.8,0.3-4.2,0.5c-0.3-0.2-0.5-0.3-0.8-0.5c-0.4-0.7-0.4-1.6,0-2.8c2.5,0,4.9,0.1,7.4,0.1c0.9,0,1.6-0.1,1.9-0.9
			c0.2-0.2,0.4-0.4,0.6-0.6c0,1.6,0,3.3,0.1,4.9C1.3,44.2,1.7,44.7,2,45.1z"/>
		<path class="st180" d="M-8.7,71.2c-0.1-1,0.3-1.8,1.7-1.6c1.7,0.3,2.6-0.5,3.3-1.6c-0.1,1,0.2,1.7,1.6,1.6c0.7,0,1.4,0,2.1,0
			c0,0.5,0,1,0,1.5C-2.9,71.4-5.8,71.3-8.7,71.2z"/>
		<path class="st29" d="M1.2,38.9c-0.2,0.2-0.4,0.4-0.6,0.6c-3.1,0-6.2,0-9.3,0c0-0.3,0.1-1,0.1-1c3.1,0,6.3,0,9.4,0.1
			C1,38.5,1.1,38.7,1.2,38.9z"/>
		<path class="st68" d="M-8.7,39.4c3.1,0,6.2,0,9.3,0c-0.3,0.8-1.1,1-1.9,0.9c-2.5,0-4.9-0.1-7.4-0.1C-8.7,40-8.7,39.7-8.7,39.4z"/>
		<path class="st36" d="M49.7,53.4c1-0.2,2-0.3,3.1-0.5c2.2,0.7,4.1,2.1,6.8,1.7c0.3-0.1,0.9,0.5,1.2,0.9c0.1,0.2-0.4,0.6-0.7,0.9
			c-0.3,0.4-0.7,0.7-1.1,1.1c-1.7,0-3.4,0-5.1,0c-1.4-0.1-2.8-0.3-4.1-0.5c0-0.2,0-0.4-0.1-0.5C50.8,55.5,49.8,54.5,49.7,53.4z"/>
		<path class="st106" d="M49.7,57.1c1.4,0.2,2.7,0.4,4.1,0.5c1.7,0.1,3.4,0,5.1,0c0,0.2,0,0.3,0,0.5c-1.1,0.2-2.1,0.5-3.2,0.5
			c-2.6,0.1-5.3,0-7.9,0c-0.1-0.4-0.8-0.9,0.4-1C48.7,57.5,49.2,57.3,49.7,57.1z"/>
		<path class="st119" d="M93.7,24.3c-0.2,0-0.4-0.1-0.7-0.1c0-0.6-0.2-1-1-0.9c-1.5,0.1-3.1,0.3-4.6,0.4c0-0.6-0.4-1-1.1-1
			c-2.4,0-4.7-0.1-7.1,0c-0.6,0-1.1,0.6-1.6,0.9c-0.9,0-1.7,0-2.6,0c0-0.2,0-0.5-0.1-0.5c-3.1-0.9-6.2-0.5-9.4-0.2
			c0.1,0.2,0.2,0.5,0.3,0.7c-0.9,0-1.7,0-2.6,0c-0.3-0.3-0.5-0.9-0.8-0.9c-2.8-0.1-5.5-0.1-8.3,0c-0.3,0-0.5,0.6-0.8,0.9
			c-0.4,0-0.9,0-1.3,0.1c-0.2-2.3-0.5-4.5-0.6-6.8c-0.1-3.5,0-6.9,0-10.4c2.2-0.2,4.4-0.4,6.6-0.5c0.5,0,1,0.2,1.5,0.2
			c0.6,0,1.2,0,1.8,0c1.1,0,2.2,0,3.3,0.1c0.8,0,1.6,0.1,2.4,0.1c1.4-0.1,2.8-0.4,4.3-0.4c2.5,0,5.1,0.5,7.6,0.3
			c4.4-0.4,8.7-0.1,13.1,0c2.4,0,4.9,0.7,7.2-0.3c0,0.2,0,0.3,0,0.5c0,0.2,0,0.3,0,0.5c0,0.9,0,1.8,0,2.6c0,0.3,0,0.7,0,1
			c-0.4,0.2-0.9,0.4-1.3,0.6c-0.1,0.1,0,0.3,0,0.5c0.4,0.8,0.8,1.6,1,2.4c0.1,0.2-0.3,0.5-0.4,0.8c-1.1,0-2.2,0-3.2,0
			c-0.7,0-1,0.4-1,1c0.6,0.2,1.3,0.6,1.9,0.5c1.1,0,1.7,0.4,2.3,1c0,0.8,0.1,1.5,0.1,2.3c0,2.1-0.2,2.3-2.7,3
			c-1,0.3-1.6,0.7-1.6,1.6C94.1,24.3,93.9,24.3,93.7,24.3z M75.7,13.3c0.1,0.2,0.2,0.3,0.2,0.5c0.1,0.6,0,1.5,0.3,1.6
			c0.7,0.2,1.5,0,2.3,0c0.6,0,1.2,0,1.8-0.1c0.2,0,0.4-0.3,0.7-0.4c-0.2-0.2-0.4-0.5-0.5-0.5c-1.2,0-2.2-0.3-2.9-1.1
			c-0.2-0.2-0.3-0.4-0.4-0.6c0.3-0.1,0.5-0.2,0.8-0.2c2.8,0.1,5.7,0.2,8.5,0.3c0.3,0,0.7-0.3,1-0.5c2.5,0,5-0.1,7.6-0.1
			c0.2,0,0.5-0.3,0.7-0.4c-0.2-0.1-0.3-0.4-0.5-0.4c-2.8-0.4-5.8,0-8.1-2c-0.2-0.2-0.6-0.1-0.9-0.2c-2.6-0.1-5.3-0.1-7.9-0.2
			c-0.8,0-1.2,0.2-1.3,0.7c-0.2,1-0.7,1.6-2,1.5c-0.2-0.3-0.3-0.8-0.5-0.8c-2.7-0.1-5.3-0.1-8-0.1c-0.1,0-0.3,0.2-0.3,0.3
			c0,0.1,0.2,0.4,0.3,0.4c0.6,0.1,1.2,0.3,1.8,0.3c2.1,0,4.1,0,6.2,0c0,0.2,0,0.3,0,0.5c-2.8,0-5.5,0-8.3,0.1
			c-0.3,0-0.5,0.4-0.8,0.6c0.2,0.1,0.5,0.4,0.7,0.4c3,0,5.9,0,8.9,0c0,0.2,0,0.4,0.1,0.6c-2.7,0-5.4,0-8,0c-0.3,0-0.6,0.3-0.8,0.4
			c0.2,0.2,0.4,0.4,0.7,0.5c2.5,0,4.9,0.1,7.4,0c0.3,0,0.5-0.6,0.8-0.9C75.3,13.3,75.5,13.3,75.7,13.3z M69.8,21.2
			C69.8,21.2,69.8,21.2,69.8,21.2c-1.3,0-2.7-0.1-4,0c-0.3,0-0.5,0.3-0.8,0.5c0.2,0.2,0.5,0.4,0.7,0.4c2.9,0,5.7,0,8.6,0
			c0.2,0,0.3-0.3,0.5-0.5c-0.2-0.1-0.5-0.4-0.7-0.4C72.7,21.2,71.2,21.2,69.8,21.2z M58.5,21.2C58.5,21.1,58.5,21.1,58.5,21.2
			c-1.2,0-2.5,0-3.7,0c-0.4,0-0.8,0.4-1.1,0.6c0.3,0.1,0.7,0.4,1,0.4c2.5,0,4.9,0,7.4,0c0.3,0,0.7-0.3,1-0.4
			c-0.4-0.2-0.7-0.5-1.1-0.5C60.8,21.1,59.6,21.2,58.5,21.2z M58.4,19C58.4,19,58.4,19,58.4,19c1.3,0,2.7,0,4,0
			c0.2,0,0.4-0.3,0.6-0.4c-0.2-0.2-0.4-0.5-0.6-0.5c-2.8,0-5.6,0-8.3,0c-0.2,0-0.3,0.3-0.5,0.5c0.2,0.1,0.5,0.4,0.7,0.4
			C55.7,19,57,19,58.4,19z M58.3,9.7C58.3,9.7,58.3,9.7,58.3,9.7c1.3-0.1,2.7-0.1,4-0.1c0.2,0,0.5-0.2,0.7-0.4
			c-0.3-0.2-0.5-0.6-0.8-0.6c-2.4-0.1-4.7,0-7.1,0c-0.4,0-0.8,0.1-1.2,0.2c-0.1,0-0.3,0.3-0.3,0.4c0,0.1,0.2,0.4,0.3,0.4
			C55.4,9.6,56.9,9.7,58.3,9.7z M58.4,20.6C58.4,20.6,58.4,20.6,58.4,20.6c1.3,0,2.7,0,4,0c0.2,0,0.4-0.3,0.6-0.4
			c-0.2-0.2-0.4-0.5-0.6-0.5c-2.7,0-5.3-0.1-8,0c-0.3,0-0.5,0.4-0.8,0.6c0.2,0.1,0.5,0.4,0.7,0.4C55.7,20.6,57,20.6,58.4,20.6z
			 M57.9,12.8c1.6,0,3,0,4.3,0c0.3,0,0.6-0.3,0.9-0.5c-0.3-0.1-0.6-0.4-1-0.4c-1.3-0.1-2.7-0.1-4,0c-1.5,0.1-3-0.5-4.4,0.4
			C55,13.4,56.7,12.4,57.9,12.8z M58.2,17.5c1.3,0,2.7,0,4,0c0.3,0,0.5-0.4,0.8-0.5c-0.2-0.1-0.5-0.4-0.7-0.4c-2.7,0-5.3,0-8,0
			c-0.2,0-0.4,0.3-0.7,0.4c0.3,0.2,0.6,0.5,0.8,0.5C55.7,17.5,57,17.5,58.2,17.5z M58.2,8.1c1.2,0,2.5,0,3.7,0
			c0.4,0,0.8-0.4,1.1-0.6c-0.3-0.1-0.7-0.4-1-0.4c-2.5,0-4.9,0-7.4,0c-0.3,0-0.7,0.3-1,0.4C54,7.7,54.4,8,54.8,8.1
			C55.9,8.1,57.1,8.1,58.2,8.1z M58.1,14.3C58.1,14.3,58.1,14.3,58.1,14.3c1.4,0,2.9,0,4.3,0c0.2,0,0.4-0.3,0.6-0.4
			c-0.2-0.2-0.4-0.5-0.6-0.5c-2.8,0-5.6,0-8.3,0c-0.2,0-0.3,0.3-0.5,0.5c0.2,0.1,0.5,0.4,0.7,0.4C55.6,14.3,56.8,14.3,58.1,14.3z
			 M58.2,15.9C58.2,15.9,58.2,15.9,58.2,15.9c1.3,0,2.7,0.1,4,0c0.3,0,0.5-0.4,0.8-0.6c-0.2-0.1-0.5-0.4-0.7-0.4c-2.7,0-5.3,0-8,0
			c-0.2,0-0.4,0.3-0.7,0.4c0.2,0.2,0.4,0.5,0.6,0.5C55.5,15.9,56.9,15.9,58.2,15.9z M57.7,11.2c1.9,0,3.3,0,4.8,0
			c0.2,0,0.4-0.3,0.6-0.5c-0.2-0.1-0.4-0.4-0.6-0.4c-1.4-0.1-2.9-0.1-4.3-0.1c-1.5,0.1-2.9,0.3-4.4,0.4
			C54.9,11.9,56.7,10.8,57.7,11.2z M82.5,16.5C82.5,16.5,82.5,16.5,82.5,16.5c-1.2,0-2.5,0-3.7,0c-0.3,0-0.6,0.1-0.9,0.2
			c0.3,0.2,0.5,0.7,0.8,0.7c2.7,0.1,5.3,0.1,8,0c0.2,0,0.3-0.3,0.5-0.5c-0.2-0.1-0.5-0.4-0.7-0.4C85.2,16.5,83.8,16.5,82.5,16.5z
			 M69.8,14.9C69.8,14.9,69.8,14.9,69.8,14.9c-1.3,0-2.7,0-4,0c-0.3,0-0.5,0.1-0.8,0.2c0.3,0.1,0.5,0.2,0.8,0.3
			c2.8,0.9,5.7,0.4,8.5,0.4c0.2,0,0.3-0.3,0.5-0.5c-0.2-0.1-0.5-0.4-0.7-0.4C72.7,14.9,71.2,14.9,69.8,14.9z M69.8,19.6
			C69.8,19.6,69.8,19.6,69.8,19.6c-1.3,0-2.7,0-4,0c-0.3,0-0.6,0.1-0.9,0.2c0.3,0.1,0.5,0.3,0.8,0.4c2.8,0.9,5.7,0.4,8.5,0.4
			c0.2,0,0.4-0.3,0.5-0.5c-0.2-0.1-0.4-0.4-0.7-0.4C72.7,19.6,71.3,19.6,69.8,19.6z M83.1,21.2C83.1,21.2,83.1,21.2,83.1,21.2
			c-1.3,0-2.7,0-4,0c-0.2,0-0.4,0.3-0.6,0.4c0.2,0.2,0.4,0.5,0.6,0.5c2.5,0,4.9,0.1,7.4,0c0.3,0,0.5-0.4,0.8-0.6
			c-0.2-0.1-0.5-0.4-0.7-0.4C85.4,21.2,84.3,21.2,83.1,21.2z M70.7,8.7C70.7,8.7,70.7,8.7,70.7,8.7c-1.3,0-2.7,0-4,0
			c-0.2,0-0.4,0.3-0.6,0.4c0.2,0.2,0.4,0.5,0.6,0.5c2.6,0,5.1,0,7.7,0c0.2,0,0.3-0.3,0.5-0.5c-0.2-0.1-0.5-0.4-0.7-0.4
			C73,8.6,71.8,8.7,70.7,8.7z M70.9,7.1c-1.5,0-2.7,0-4,0c-0.2,0-0.5,0.2-0.7,0.3c0.2,0.2,0.4,0.5,0.6,0.5C68,8,69.2,8.2,70.4,8.1
			c1.5-0.1,3,0.5,4.4-0.4C73.6,6.5,72,7.4,70.9,7.1z M82.8,7.1C82.8,7.1,82.8,7.1,82.8,7.1c-1.1,0-2.3,0-3.4,0
			c-0.3,0-0.5,0.2-0.8,0.3c0.2,0.2,0.5,0.4,0.7,0.4C81.8,7.9,84.3,8,86.7,8c0.2,0,0.3-0.3,0.5-0.5c-0.2-0.1-0.5-0.4-0.7-0.4
			C85.3,7.1,84,7.1,82.8,7.1z M83.3,18c-1.1,0-2.3,0-3.4,0c-0.3,0-0.5,0.4-0.8,0.5c0.2,0.1,0.5,0.4,0.7,0.4c2.3,0,4.5,0,6.8,0
			c0.2,0,0.4-0.3,0.7-0.4c-0.3-0.2-0.5-0.5-0.8-0.5C85.4,18,84.3,18,83.3,18z M69.8,16.5c-1.4,0-2.9,0-4.3,0c-0.3,0-0.7,0.2-1,0.3
			c0.4,0.1,0.7,0.4,1.1,0.4c2.5,0.1,5,0.3,7.5,0.4c0.2,0,0.4,0.1,0.6,0c0.4-0.2,0.8-0.4,1.1-0.6c-0.3-0.1-0.7-0.4-1-0.4
			C72.5,16.4,71.1,16.5,69.8,16.5z M83.9,20.8c0,0,0-0.1,0-0.1c0.9,0,1.8,0,2.8-0.1c0.2,0,0.4-0.3,0.5-0.5c0-0.1-0.2-0.3-0.4-0.3
			c-2.6,0-5.1-0.1-7.7-0.1c-0.2,0-0.3,0.1-0.5,0.2c0.2,0.1,0.3,0.2,0.5,0.2C80.7,20.3,82.3,20.5,83.9,20.8z M70.9,19
			c1,0,2.1,0,3.1,0c0.3,0,0.5-0.4,0.8-0.5c-0.2-0.1-0.5-0.4-0.7-0.4c-2.1,0-4.1,0-6.2,0c-0.2,0-0.4,0.3-0.7,0.4
			c0.3,0.2,0.5,0.5,0.8,0.5C69.1,19.1,70,19,70.9,19z"/>
		<path class="st194" d="M102.4,23.8c0,0.2,0,0.3,0,0.5c-2.7,0-5.4,0-8.1,0c0-0.9,0.6-1.3,1.6-1.6c2.6-0.6,2.7-0.8,2.7-3
			c0-0.8-0.1-1.5-0.1-2.3c0.1-0.1,0.1-0.3,0.1-0.5c0.2,0,0.4,0,0.5,0c0.1,0.7,0.7,0.9,1.4,1.1c0.4,0.1,0.7,0.6,1.1,1
			c0,0.2,0,0.3,0,0.5C102.1,20.9,101.1,22.5,102.4,23.8L102.4,23.8z"/>
		<path class="st172" d="M87.5,23.7c1.5-0.1,3-0.3,4.6-0.4c0.8-0.1,1,0.4,1,0.9c-9.8,0-19.6,0.1-29.5,0.1c-7.1,0-14.3,0-21.4-0.1
			c0-0.1,0-0.3,0-0.4c2.1,0,4.1,0,6.2-0.1c0.7,0,1.3-0.3,2-0.5c0.6,0.2,1.2,0.3,1.8,0.5c0.4,0,0.9,0,1.3-0.1c3.3,0,6.6,0,9.8,0
			c0.9,0,1.7,0,2.6,0c3.1,0,6.1,0,9.2,0c0.9,0,1.7,0,2.6,0C80.9,23.7,84.2,23.7,87.5,23.7z"/>
		<path class="st125" d="M42.2,23.8c0,0.1,0,0.3,0,0.4c-2.4,0-2.5,0-2.5-1.9c0-8.7,0-17.3,0-26c0-1.3-0.1-2.6-0.1-3.9l0.2,0
			c0.2,0,0.3,0,0.5,0c0.2,0.2,0.4,0.4,0.7,0.5c-0.2,1-0.5,2-0.5,3c0,8.3,0,16.6,0,24.9c0,0.5,0,1,0,1.6
			C40.3,23.7,41.2,23.7,42.2,23.8z"/>
		<path class="st63" d="M-8.7,63.9c0-1.8,0-3.5,0-5.3c2.3,0,4.5,0,6.8,0c2.4,0,2.5,0,2.5,1.9c0,3.6,0.4,3.2-3.8,3.2
			C-5,63.8-6.8,63.9-8.7,63.9z M-3.7,61.7c0.1,0.2,0.1,1.2,0.7,1.5c1.4,0.8,3,0,3-1.5c0-0.5,0.1-1.1-0.1-1.5
			c-0.2-0.4-0.7-0.8-1.2-0.9C-3.2,58.9-3.7,59.3-3.7,61.7z"/>
		<path class="st18" d="M-3.7,44.1c0,1.1,0,2.2,0,3.4c0,0.9,0.4,1.3,1.5,1.3c0.9,0,1.8,0,2.8,0c0.1,1.1-0.6,1.6-1.8,1.6
			c-2.2,0-4.4,0-6.6-0.1c-1.1,0-0.7-0.9-0.8-1.4c4.9-0.1,4.3,0.5,4.4-3.6c0-0.3,0-0.7,0-1c0.2,0,0.4-0.1,0.6-0.1
			C-3.7,44-3.7,44.1-3.7,44.1z"/>
		<path class="st53" d="M0,69.7c-0.7,0-1.4-0.1-2.1,0C-3.5,69.7-3.8,69-3.7,68c0-0.1,0-0.3,0-0.4c0.8,0,1.6-0.1,2.4-0.1
			C0.7,67.6,0.8,67.8,0,69.7z"/>
		<path class="st178" d="M0.6,44.1c-1.4,0-2.9,0-4.3,0l0-0.1c0-0.3,0-0.7,0-1c1.3,0.1,2.6,0.1,3.9,0.3C0.3,43.4,0.4,43.9,0.6,44.1z"
			/>
		<path class="st48" d="M120.4,18c-0.2-0.2-0.3-0.3-0.5-0.5c0-0.2-0.1-0.4-0.1-0.5c0-0.2,0-0.3,0-0.5c0-0.4,0-0.8,0-1.1
			c0-0.2,0-0.3-0.1-0.5c0.2-1,0-1.6-1.4-1.6c-1.4,0-1.7,0.6-1.4,1.6c-0.1,0.1-0.1,0.3-0.1,0.5l-0.2,0.1c-0.2,0-0.3,0-0.5,0
			c0-0.2-0.1-0.3-0.2-0.5c0.2-2.5,0.2-2.5-2.3-2.7c-0.4-0.2-0.9-0.3-1.3-0.5c-1,0-2,0-3,0c-1.4-0.1-1.3,0.7-1.3,1.5
			c-0.5,0-1,0-1.5,0c-1.4-0.1-1.7,0.6-1.5,1.6c0.2,0.2,0.3,0.4,0.5,0.6c0,0.8-0.6,1-1.4,1c-0.2,0-0.3,0-0.5-0.1c0-0.3,0-0.6,0-0.9
			c0-0.2,0-0.4,0-0.6c0-0.2,0-0.3,0-0.5c-0.4-1.2-0.5-1.2-1.8-0.5c0,0.4,0,0.7,0.1,1.1c-0.1,0.2-0.1,0.3-0.1,0.5l0,0
			c-1.2-0.7-0.5-1.7-0.6-2.6c-0.1-0.7-0.4-1.1-1.3-1.1c-0.6,0-1.2,0-1.8,0c0-0.2-0.1-0.4,0-0.5c0.4-0.2,0.8-0.4,1.3-0.6
			c1.6,0.2,3.2,0.5,4.8,0.5c5.6,0.1,11.3,0,16.9,0c0,0.2,0,0.3,0,0.5c0,1.9,0,3.8,0,5.7c0,0.2,0,0.4-0.1,0.6
			C120.8,18,120.6,18,120.4,18z"/>
		<path class="st109" d="M74.5,11.7c0-0.2,0-0.3,0-0.5c0.2,0,0.4,0,0.6,0c1.3,0.1,1.8-0.6,2-1.5c0.1-0.5,0.5-0.8,1.3-0.7
			c2.6,0.2,5.3,0.2,7.9,0.2c0.3,0,0.7,0,0.9,0.2c2.2,2,5.3,1.5,8.1,2c0.2,0,0.4,0.3,0.5,0.4c-0.2,0.2-0.5,0.4-0.7,0.4
			c-2.5,0.1-5,0.1-7.6,0.1c-3.2-0.2-6.5,0.3-9.7-0.5c-1.4-0.4-1.7,0-2.1,1.5c-0.2,0-0.4,0-0.6,0l0,0c0-0.2,0-0.4-0.1-0.6
			C74.8,12.4,74.7,12.1,74.5,11.7z M82.8,11.2C82.8,11.2,82.8,11.2,82.8,11.2c1.2,0,2.5,0,3.7,0c0.2,0,0.5-0.3,0.7-0.4
			c-0.2-0.2-0.3-0.5-0.5-0.5c-2.6,0-5.1,0-7.7,0c-0.2,0-0.4,0.3-0.5,0.5c0.2,0.1,0.4,0.4,0.7,0.4C80.4,11.2,81.6,11.2,82.8,11.2z"/>
		<path class="st139" d="M50.2,22.7c0-4.5,0-9,0.1-13.4c0-0.7-0.1-1.4,0.1-2.1c0.1-0.3,0.7-0.4,1.1-0.6c0,3.5-0.1,6.9,0,10.4
			c0.1,2.3,0.4,4.5,0.6,6.8c-0.6-0.2-1.2-0.3-1.8-0.5C50.3,23.1,50.3,22.9,50.2,22.7z"/>
		<path class="st137" d="M99.3,9.7c0-0.9,0-1.8,0-2.6c0.5,0.1,1,0.3,1.5,0.3c3.6-0.1,7.3-0.2,10.9-0.2c0.2,0.2,0.4,0.4,0.6,0.5
			c0,0.2,0,0.3,0,0.5c-0.2,0.2-0.4,0.4-0.6,0.5c-3,0-5.9,0-8.9,0c-0.9,0-1.7,0.1-1.7,1C100.5,9.7,99.9,9.7,99.3,9.7z"/>
		<path class="st93" d="M111.7,8.6c0.2-0.2,0.4-0.4,0.6-0.5c0,0.2,0,0.3,0,0.5c0.1,0.7-0.4,1.7,0.8,2c0.9,0.2,1.9,0.2,2.7,0
			c0.7-0.2,1.2-1.1,1.8-1.1c0.6,0,1.2,1,1.8,1.1c1.3,0.2,2.7,0.1,4,0.1c-0.6,0.9-1.6,0.4-2.5,0.6c-5.6,0-11.3,0-16.9,0
			c-1.6,0-3.2-0.3-4.8-0.5c0-0.3,0-0.7,0-1c0.6,0,1.2,0,1.8,0c0.1,0.9,0.8,1.1,1.7,1.1c2.2,0,4.3,0,6.5,0
			C111.5,10.7,111.5,10.7,111.7,8.6z"/>
		<path class="st30" d="M75.7,13.3c0.4-1.5,0.7-1.9,2.1-1.5c3.2,0.8,6.5,0.3,9.7,0.5c-0.3,0.2-0.7,0.5-1,0.5
			c-2.8-0.1-5.7-0.2-8.5-0.3c-0.3,0-0.5,0.1-0.8,0.2c0.1,0.2,0.2,0.5,0.4,0.6c0.7,0.8,1.7,1.2,2.9,1.1c0.2,0,0.4,0.3,0.5,0.5
			c-0.2,0.1-0.4,0.4-0.7,0.4c-0.6,0.1-1.2,0.1-1.8,0.1c-0.8,0-1.6,0.2-2.3,0c-0.3-0.1-0.2-1-0.3-1.6C75.9,13.6,75.8,13.5,75.7,13.3z
			"/>
		<path class="st100" d="M98,11.8c0.6,0,1.2,0,1.8,0c0.9,0,1.2,0.4,1.3,1.1c0.1,0.9-0.5,1.9,0.6,2.6c0,0.4,0,0.7,0,1.1
			c-0.2,0-0.5,0-0.7,0c-0.6,0-1.1,0-1.7,0c-0.2,0-0.4,0-0.7,0c0-0.3,0-0.7,0-1c0-0.2,0-0.3,0-0.5c0.2-0.3,0.5-0.6,0.4-0.8
			C98.8,13.3,98.4,12.5,98,11.8z"/>
		<path class="st106" d="M83.9,20.8c-1.6-0.2-3.2-0.5-4.8-0.7c-0.2,0-0.3-0.2-0.5-0.2c0.2-0.1,0.3-0.2,0.5-0.2c2.6,0,5.1,0,7.7,0.1
			c0.1,0,0.4,0.3,0.4,0.3c-0.1,0.2-0.3,0.5-0.5,0.5c-0.9,0.1-1.8,0.1-2.8,0.1C84,20.7,83.9,20.7,83.9,20.8z"/>
		<path class="st103" d="M111.7,7.1c-3.6,0.1-7.3,0.2-10.9,0.2c-0.5,0-1-0.2-1.5-0.3c0-0.2,0-0.3,0-0.5c0.8-0.2,1.6-0.3,2.5-0.5
			c0.6,0.2,1.3,0.5,1.9,0.5c2.7,0.1,5.3,0,8,0C111.7,6.7,111.7,6.9,111.7,7.1z"/>
		<path class="st58" d="M98.7,15.4c0,0.3,0,0.7,0,1c0,0.2,0,0.4,0,0.6c0,0.2-0.1,0.3-0.1,0.5c-0.6-0.6-1.2-1.1-2.3-1
			c-0.6,0-1.3-0.3-1.9-0.5c1-0.1,1.9-0.2,2.9-0.3C97.7,15.5,98.2,15.5,98.7,15.4z"/>
		<path class="st174" d="M101.8,6c-0.8,0.2-1.6,0.3-2.5,0.5c0-0.2,0-0.3,0-0.5c0-0.2,0-0.3,0-0.5c0.8,0,1.7,0,2.5,0
			C101.8,5.7,101.8,5.9,101.8,6L101.8,6z"/>
		<path class="st156" d="M103.6,17c0,0.3,0,0.6,0,0.9c-0.2,0-0.4,0.1-0.6,0.1c-0.2,0.3-0.4,0.6-0.7,0.9c0,0,0,0.2,0,0.2
			c-0.2,0-0.4,0-0.6-0.1c-0.4-0.3-0.7-0.9-1.1-1c-0.8-0.2-1.4-0.3-1.4-1.1l0.1-0.1c0.6-0.2,1.2-0.3,1.8-0.5c0.2,0,0.5,0,0.7,0l0,0
			C102.4,16.6,103,16.8,103.6,17z"/>
		<path class="st156" d="M98.7,17c0-0.2,0-0.4,0-0.6c0.2,0,0.4,0,0.7,0c0,0.2-0.1,0.3,0,0.5L99.2,17C99.1,17,98.9,17,98.7,17z"/>
		<path class="st65" d="M99.3,0.8c0.1-0.3,0.1-1,0.2-1c0.9-0.1,1.8-0.1,2.8-0.1c14.7,0,29.4,0,44.2,0c0.9,1.3,0.2,2.5-0.6,3.6
			c-0.6-1.5-1.5-2.5-3.7-2.1c-0.1,0-0.4-0.3-0.6-0.4c0.2-0.1,0.4-0.1,0.6-0.2c0.1,0,0-0.3,0-0.3c-2.3-0.1-4.6-0.3-6.8,0.4
			c-2.7,0.2-5.5,0.4-8.2,0.5c-1.2,0.1-1.1,0.8-1.1,1.5c0,0.4,0,0.7,0,1.1c0,0.2,0,0.3,0,0.5c0,0.4,0,0.7,0,1.1
			c-0.2,0.2-0.4,0.3-0.6,0.5c-0.8-0.2-1.7-0.3-2.5-0.5c0-0.2,0-0.3,0-0.5c0.9-0.8,0.2-1-0.6-1c-3.3,0-6.6,0-9.9,0
			c-0.2-0.4-0.4-0.7-0.6-1.1c-0.4-1.5-1-2-2.1-1.9c-2.6,0.1-5.2,0.2-7.8,0.4C100.9,1.2,100.1,1,99.3,0.8z"/>
		<path class="st174" d="M99.3,0.8c0.8,0.2,1.7,0.3,2.5,0.5c0,0,0,0,0,0c-0.3,0.2-0.7,0.4-1,0.6c0.3,0.1,0.7,0.3,1,0.4
			c0,0.2,0,0.4,0,0.5c-0.3,0.2-0.7,0.4-1,0.7c0.1,0.1,0.1,0.1,0.2,0.2c0.3-0.3,0.5-0.6,0.8-0.8c1.1,0,2.2,0,3.3,0c2.2,0,4.4,0,6.6,0
			c0.2,0.4,0.4,0.7,0.6,1.1c0,0.2,0,0.3,0,0.5l0,0.1c-0.2,0.2-0.4,0.3-0.6,0.5c-3.1,0-6.1,0.1-9.2-0.1c-1.1-0.1-2.2,0-3.2,0.1
			C99.3,3.6,99.3,2.2,99.3,0.8z"/>
		<path class="st11" d="M99.3,5c1.1-0.1,2.1-0.2,3.2-0.1c3,0.3,6.1,0.1,9.2,0.1c0,0.2,0,0.4,0,0.5c0,0-0.1,0.1-0.1,0.1
			c-3.3,0-6.6,0-9.9,0c-0.8,0-1.7,0-2.5,0C99.3,5.3,99.3,5.2,99.3,5z"/>
	</g>
</g>
</svg>
